<svg width="105" height="102" viewBox="0 0 105 102" fill="none" xmlns="http://www.w3.org/2000/svg">
<path d="M65.5 0.90625C29.884 0.90625 0.90625 29.884 0.90625 65.5C0.90625 101.116 29.884 130.094 65.5 130.094C101.116 130.094 130.094 101.116 130.094 65.5C130.094 29.884 101.116 0.90625 65.5 0.90625ZM65.5 10.8438C95.7448 10.8438 120.156 35.2552 120.156 65.5C120.156 95.7448 95.7448 120.156 65.5 120.156C35.2552 120.156 10.8438 95.7448 10.8438 65.5C10.8438 35.2552 35.2552 10.8438 65.5 10.8438ZM46.7181 39.5631L39.5631 46.7181L58.3649 65.5L39.5731 84.2819L46.7281 91.4369L65.5 72.6401L84.2819 91.422L91.4369 84.2819L72.6401 65.5L91.422 46.7181L84.2819 39.5631L65.5 58.3649L46.7181 39.5731V39.5631Z" fill="white" fill-opacity="0.1"/>
</svg>
