<svg width="121" height="121" viewBox="0 0 121 121" fill="none" xmlns="http://www.w3.org/2000/svg">
<path d="M121 60.5C121 93.9132 93.9132 121 60.5 121C27.0868 121 0 93.9132 0 60.5C0 27.0868 27.0868 0 60.5 0C93.9132 0 121 27.0868 121 60.5Z" fill="#005992" fill-opacity="0.2"/>
<path d="M61 36.8333C47.6527 36.8333 36.8333 47.6527 36.8333 61C36.8333 74.3472 47.6527 85.1667 61 85.1667C74.3472 85.1667 85.1667 74.3472 85.1667 61C85.1667 47.6527 74.3472 36.8333 61 36.8333ZM77.7185 51.3333H69.9489C69.5877 48.6141 69.1323 45.9082 68.5835 43.2206C72.4209 44.8734 75.624 47.7181 77.7185 51.3333ZM63.4505 41.8407C63.6148 42.6913 64.3857 46.7658 65.0092 51.3333H56.9907C57.6142 46.7658 58.3852 42.6913 58.5495 41.8407C59.3542 41.7368 60.1687 41.6667 61 41.6667C61.8313 41.6667 62.6457 41.7368 63.4505 41.8407ZM65.8333 61C65.8333 62.4452 65.7294 64.1078 65.5699 65.8333H56.4301C56.2706 64.1078 56.1667 62.4452 56.1667 61C56.1667 59.5548 56.2706 57.8922 56.4301 56.1667H65.5699C65.7294 57.8922 65.8333 59.5548 65.8333 61ZM53.4165 43.2206C52.8677 45.9082 52.4123 48.6141 52.0511 51.3333H44.2815C46.376 47.7181 49.5791 44.8734 53.4165 43.2206ZM42.3022 56.1667H51.5363C51.4131 57.781 51.3333 59.4147 51.3333 61C51.3333 62.5853 51.4131 64.219 51.5387 65.8333H42.3022C41.9011 64.2842 41.6667 62.6723 41.6667 61C41.6667 59.3277 41.9035 57.7157 42.3022 56.1667ZM44.2815 70.6667H52.0511C52.5054 74.108 53.0661 77.0708 53.4165 78.7794C49.5791 77.1266 46.376 74.2819 44.2815 70.6667ZM58.5495 80.1593C57.9485 77.009 57.4287 73.8437 56.9907 70.6667H65.0092C64.5702 73.8436 64.0504 77.0088 63.4505 80.1593C62.6457 80.2632 61.8313 80.3333 61 80.3333C60.1687 80.3333 59.3542 80.2632 58.5495 80.1593ZM68.5835 78.7794C68.9339 77.0708 69.4946 74.108 69.9489 70.6667H77.7185C75.624 74.2819 72.4209 77.1266 68.5835 78.7794ZM79.6977 65.8333H70.4637C70.5869 64.219 70.6667 62.5853 70.6667 61C70.6667 59.4147 70.5869 57.781 70.4613 56.1667H79.6953C80.0965 57.7157 80.3333 59.3277 80.3333 61C80.3333 62.6723 80.0989 64.2842 79.6977 65.8333Z" fill="#005992"/>
</svg>
