<svg width="122" height="122" viewBox="0 0 122 122" fill="none" xmlns="http://www.w3.org/2000/svg">
<path d="M122 61C122 94.6894 94.6894 122 61 122C27.3106 122 0 94.6894 0 61C0 27.3106 27.3106 0 61 0C94.6894 0 122 27.3106 122 61Z" fill="#E50037" fill-opacity="0.3"/>
<path d="M109.985 61C109.985 88.0536 88.0536 109.985 61 109.985C33.9464 109.985 12.0152 88.0536 12.0152 61C12.0152 33.9464 33.9464 12.0152 61 12.0152C88.0536 12.0152 109.985 33.9464 109.985 61Z" fill="#E60037"/>
<path d="M60.0212 44.7685C60.15 44.6393 60.303 44.5369 60.4714 44.467C60.6399 44.3971 60.8204 44.3612 61.0028 44.3612C61.1851 44.3612 61.3657 44.3971 61.5341 44.467C61.7025 44.5369 61.8555 44.6393 61.9843 44.7685C65.4225 48.2177 69.2322 49.9091 73.4773 49.9091C73.845 49.9091 74.1976 50.0552 74.4576 50.3151C74.7176 50.5751 74.8636 50.9278 74.8636 51.2955V53.7937C74.0067 53.2975 73.0675 52.9594 72.0909 52.7955V52.6291C67.9873 52.3186 64.2857 50.6161 61 47.6604C57.7115 50.6161 54.0127 52.3186 49.9091 52.6291V59.6164C49.9091 63.5925 50.9156 66.7257 52.74 69.1657C54.0432 70.907 55.8455 72.4042 58.2273 73.6104V76.6714C50.8906 73.4689 47.1364 67.7211 47.1364 59.6192V51.2955C47.1364 50.9278 47.2824 50.5751 47.5424 50.3151C47.8024 50.0552 48.155 49.9091 48.5227 49.9091C52.765 49.9091 56.5747 48.215 60.0212 44.7685ZM65.1591 61V63.7727H63.7727C63.0374 63.7727 62.3321 64.0649 61.8121 64.5848C61.2921 65.1048 61 65.8101 61 66.5454V77.6364C61 78.3717 61.2921 79.077 61.8121 79.597C62.3321 80.117 63.0374 80.4091 63.7727 80.4091H77.6364C78.3717 80.4091 79.077 80.117 79.597 79.597C80.117 79.077 80.4091 78.3717 80.4091 77.6364V66.5454C80.4091 65.8101 80.117 65.1048 79.597 64.5848C79.077 64.0649 78.3717 63.7727 77.6364 63.7727H76.25V61C76.25 59.5293 75.6657 58.1187 74.6258 57.0788C73.5858 56.0388 72.1753 55.4545 70.7045 55.4545C69.2338 55.4545 67.8233 56.0388 66.7833 57.0788C65.7433 58.1187 65.1591 59.5293 65.1591 61ZM67.9318 63.7727V61C67.9318 60.2646 68.2239 59.5594 68.7439 59.0394C69.2639 58.5194 69.9692 58.2273 70.7045 58.2273C71.4399 58.2273 72.1452 58.5194 72.6652 59.0394C73.1851 59.5594 73.4773 60.2646 73.4773 61V63.7727H67.9318ZM70.7045 70.0114C71.2561 70.0114 71.785 70.2305 72.175 70.6204C72.565 71.0104 72.7841 71.5394 72.7841 72.0909C72.7841 72.6424 72.565 73.1714 72.175 73.5614C71.785 73.9514 71.2561 74.1704 70.7045 74.1704C70.153 74.1704 69.6241 73.9514 69.2341 73.5614C68.8441 73.1714 68.625 72.6424 68.625 72.0909C68.625 71.5394 68.8441 71.0104 69.2341 70.6204C69.6241 70.2305 70.153 70.0114 70.7045 70.0114Z" fill="white"/>
</svg>
