<svg width="121" height="121" viewBox="0 0 121 121" fill="none" xmlns="http://www.w3.org/2000/svg">
<path d="M121 60.5C121 93.9132 93.9132 121 60.5 121C27.0868 121 0 93.9132 0 60.5C0 27.0868 27.0868 0 60.5 0C93.9132 0 121 27.0868 121 60.5Z" fill="#005992" fill-opacity="0.2"/>
<path d="M76.4203 55.9688L75.9262 55.7917L71.7409 47.9447C70.9548 46.4701 69.7827 45.2368 68.3498 44.3769C66.917 43.5169 65.2773 43.0626 63.6063 43.0625H53.0674C51.1321 43.0624 49.2458 43.6714 47.676 44.8031C46.1061 45.9349 44.9322 47.532 44.3206 49.3681L42.3257 55.3529C40.6543 56.0574 39.2279 57.2392 38.225 58.7505C37.2221 60.2617 36.6873 62.0352 36.6875 63.8489V67.9531C36.6875 70.5713 38.2473 72.8206 40.4856 73.8347C40.7755 75.4955 41.6256 77.0068 42.8943 78.1169C44.1631 79.2271 45.7739 79.869 47.4584 79.9359C49.143 80.0027 50.7996 79.4904 52.1523 78.4842C53.505 77.4781 54.4722 76.0388 54.8927 74.4062H70.1073C70.5278 76.0388 71.495 77.4781 72.8477 78.4842C74.2004 79.4904 75.857 80.0027 77.5415 79.9359C79.2261 79.869 80.8369 79.2271 82.1057 78.1169C83.3744 77.0068 84.2245 75.4955 84.5144 73.8347C85.6463 73.3237 86.6067 72.497 87.2804 71.4538C87.9541 70.4105 88.3125 69.195 88.3125 67.9531V66.7031C88.3122 64.8 87.723 62.9437 86.6257 61.3889C85.5284 59.834 83.9768 58.6569 82.1839 58.019L76.6158 56.0388V55.9688H76.4203ZM53.0674 46.75H56.9688V55.9688H46.0058L47.8164 50.5334C48.1835 49.4312 48.8883 48.4726 49.8308 47.7935C50.7733 47.1144 51.9057 46.7493 53.0674 46.75ZM60.6562 46.75H63.6063C64.609 46.7496 65.593 47.0219 66.453 47.5376C67.3129 48.0533 68.0165 48.7931 68.4885 49.6779L71.8441 55.9688H60.6562V46.75ZM75.7861 59.6562L80.9486 61.4926C82.0242 61.8755 82.955 62.5818 83.6132 63.5147C84.2715 64.4476 84.6249 65.5613 84.625 66.7031V67.9531C84.625 68.5984 84.4038 69.1921 84.035 69.6641C83.431 68.2464 82.398 67.0535 81.0812 66.2529C79.7644 65.4524 78.2299 65.0845 76.6933 65.2008C75.1566 65.3172 73.695 65.912 72.5138 66.9017C71.3325 67.8914 70.491 69.2262 70.1073 70.7188H54.8927C54.509 69.2262 53.6675 67.8914 52.4862 66.9017C51.305 65.912 49.8434 65.3172 48.3067 65.2008C46.7701 65.0845 45.2356 65.4524 43.9188 66.2529C42.602 67.0535 41.569 68.2464 40.965 69.6641C40.5812 69.1765 40.3733 68.5736 40.375 67.9531V63.8489C40.375 62.1896 41.1125 60.6777 42.2925 59.6562H75.7861ZM44.0625 72.5625C44.0625 71.5845 44.451 70.6466 45.1425 69.955C45.8341 69.2635 46.772 68.875 47.75 68.875C48.728 68.875 49.6659 69.2635 50.3575 69.955C51.049 70.6466 51.4375 71.5845 51.4375 72.5625C51.4375 73.5405 51.049 74.4784 50.3575 75.17C49.6659 75.8615 48.728 76.25 47.75 76.25C46.772 76.25 45.8341 75.8615 45.1425 75.17C44.451 74.4784 44.0625 73.5405 44.0625 72.5625ZM77.25 68.875C78.228 68.875 79.1659 69.2635 79.8575 69.955C80.549 70.6466 80.9375 71.5845 80.9375 72.5625C80.9375 73.5405 80.549 74.4784 79.8575 75.17C79.1659 75.8615 78.228 76.25 77.25 76.25C76.272 76.25 75.3341 75.8615 74.6425 75.17C73.951 74.4784 73.5625 73.5405 73.5625 72.5625C73.5625 71.5845 73.951 70.6466 74.6425 69.955C75.3341 69.2635 76.272 68.875 77.25 68.875Z" fill="#005992"/>
</svg>
