<svg width="123" height="103" viewBox="0 0 123 103" fill="none" xmlns="http://www.w3.org/2000/svg">
<path d="M1.42378 50.0078H44.9238C45.6714 50.0078 46.2832 50.6195 46.2832 51.3672V59.5234C46.2832 60.2711 45.6714 60.8828 44.9238 60.8828H1.42378C0.676121 60.8828 0.0644022 60.2711 0.0644022 59.5234V51.3672C0.0644022 50.6195 0.676121 50.0078 1.42378 50.0078ZM24.1933 73.1172H44.9238C45.6714 73.1172 46.2832 73.7289 46.2832 74.4766V82.6328C46.2832 83.3805 45.6714 83.9922 44.9238 83.9922H24.1933C23.4457 83.9922 22.8339 83.3805 22.8339 82.6328V74.4766C22.8339 73.7289 23.4457 73.1172 24.1933 73.1172ZM80.8962 34.7998H88.2539C89.3074 34.7998 90.157 35.6494 90.157 36.7029V78.8436C90.157 79.4553 89.8681 80.016 89.3753 80.3729L64.074 98.8264C63.2244 99.4381 62.0349 99.2682 61.4232 98.4186L57.0562 92.4543V92.4373C56.4445 91.5877 56.6314 90.3982 57.481 89.7865L79.0101 74.2217V36.7029C78.9931 35.6494 79.8597 34.7998 80.8962 34.7998V34.7998Z" fill="white" fill-opacity="0.1"/>
<path d="M25.2468 94.5103H35.0682C36.0198 94.5103 36.9204 95.003 37.4302 95.8187C39.5882 99.2341 42.103 102.395 44.9917 105.283C49.9704 110.262 55.7647 114.17 62.2048 116.889C68.8827 119.71 75.9684 121.137 83.2751 121.137C90.5987 121.137 97.6845 119.71 104.345 116.889C110.785 114.17 116.58 110.262 121.558 105.283C126.537 100.305 130.445 94.5103 133.164 88.0702C135.985 81.4093 137.412 74.3235 137.412 66.9999C137.412 59.6763 135.985 52.6075 133.164 45.9296C130.445 39.4896 126.537 33.6952 121.558 28.7165C116.58 23.7378 110.785 19.8296 104.345 17.1108C97.6845 14.2901 90.5817 12.8628 83.2751 12.8628C75.9515 12.8628 68.8657 14.2901 62.2048 17.1108C55.7647 19.8296 49.9704 23.7378 44.9917 28.7165C42.103 31.6052 39.5882 34.7657 37.4302 38.1812C36.9204 38.9968 36.0198 39.4896 35.0682 39.4896H25.2468C24.0743 39.4896 23.3266 38.2661 23.8534 37.2296C34.9323 15.1907 57.396 0.866316 82.4764 0.577449C119.197 0.11866 149.698 30.1778 149.766 66.864C149.833 103.618 120.046 133.439 83.2921 133.439C57.8888 133.439 35.0513 119.064 23.8534 96.7702C23.3266 95.7337 24.0913 94.5103 25.2468 94.5103V94.5103Z" fill="white" fill-opacity="0.1"/>
</svg>
