<svg width="310" height="580" viewBox="0 0 310 580" fill="none" xmlns="http://www.w3.org/2000/svg">
<path d="M161.951 66.414C128.66 75.5697 95.5955 85.5252 62.7856 96.272C59.7896 97.2404 57.1265 99.0291 55.0995 101.434C53.0725 103.839 51.7631 106.764 51.3206 109.876C31.9558 254.875 76.6975 360.669 130.073 430.36C152.671 460.162 179.618 486.417 210.014 508.249C222.108 516.76 232.804 522.899 241.228 526.841C245.422 528.829 248.848 530.154 251.47 530.957C252.616 531.358 253.798 531.65 255 531.829C256.188 531.636 257.357 531.344 258.495 530.957C261.152 530.154 264.577 528.829 268.772 526.841C277.161 522.899 287.892 516.725 299.986 508.249C330.382 486.416 357.328 460.162 379.927 430.36C433.302 360.703 478.044 254.875 458.679 109.876C458.241 106.763 456.933 103.836 454.905 101.43C452.878 99.0244 450.212 97.2368 447.214 96.272C424.459 88.8424 386.044 76.7388 348.049 66.4489C309.249 55.9498 273.561 48.1714 255 48.1714C236.474 48.1714 200.751 55.9498 161.951 66.4489V66.414ZM152.653 30.4868C190.579 20.197 230.881 10.9536 255 10.9536C279.118 10.9536 319.421 20.197 357.347 30.4868C396.146 40.951 435.26 53.3337 458.26 60.8331C467.876 64.0021 476.402 69.8137 482.857 77.6003C489.312 85.387 493.435 94.8328 494.752 104.853C515.585 261.014 467.243 376.749 408.59 453.312C383.718 486.064 354.06 514.906 320.609 538.875C309.043 547.168 296.787 554.462 283.977 560.675C274.19 565.279 263.669 569.046 255 569.046C246.331 569.046 235.845 565.279 226.023 560.675C213.212 554.462 200.957 547.169 189.391 538.875C155.94 514.906 126.283 486.064 101.41 453.312C42.7567 376.749 -5.58522 261.014 15.2476 104.853C16.5649 94.8328 20.688 85.387 27.1432 77.6003C33.5984 69.8137 42.1238 64.0021 51.74 60.8331C85.1282 49.9088 118.776 39.7904 152.653 30.4868Z" fill="white" fill-opacity="0.03"/>
<path d="M151.337 25.6633L151.344 25.6613C189.157 15.4021 230.104 5.95355 255 5.95355C279.896 5.95355 320.843 15.4021 358.656 25.6613C397.574 36.1579 436.779 48.5698 459.81 56.0794L459.817 56.0819L459.825 56.0843C470.333 59.5471 479.65 65.8982 486.706 74.4093C493.761 82.92 498.269 93.2451 499.709 104.199C520.734 261.815 471.927 378.852 412.567 456.342C387.393 489.491 357.377 518.681 323.522 542.939C311.724 551.398 299.225 558.837 286.159 565.174L286.132 565.187L286.106 565.199C276.221 569.85 264.845 574.046 255 574.046C245.153 574.046 233.81 569.848 223.901 565.202L223.871 565.188L223.841 565.174C210.775 558.837 198.276 551.398 186.478 542.939C186.478 542.939 186.477 542.938 186.477 542.938L189.391 538.875L151.337 25.6633ZM151.337 25.6633L151.329 25.6653M151.337 25.6633L151.329 25.6653M151.329 25.6653C117.374 34.9902 83.6497 45.1317 50.1852 56.081L50.1751 56.0843M151.329 25.6653L50.1751 56.0843M50.1751 56.0843C39.6671 59.5471 30.3496 65.8982 23.2939 74.4093C16.2391 82.9193 11.7318 93.2434 10.2909 104.196C-10.7349 261.814 38.0729 378.851 97.4327 456.342L50.1751 56.0843ZM64.342 101.024C95.1452 90.9341 126.174 81.5436 157.403 72.8594L163.257 71.2753C202.18 60.7428 237.254 53.1714 255 53.1714C272.781 53.1714 307.819 60.7425 346.742 71.2751C384.622 81.5337 422.947 93.6086 445.662 101.025L445.673 101.028L445.683 101.032C447.789 101.709 449.66 102.965 451.082 104.652C452.501 106.335 453.416 108.381 453.726 110.556C472.889 254.08 428.62 358.594 375.958 427.319L375.951 427.329L375.943 427.339C353.651 456.735 327.072 482.634 297.091 504.173C285.196 512.507 274.723 518.52 266.646 522.315L266.638 522.319L266.63 522.323C262.596 524.235 259.408 525.458 257.05 526.17L256.966 526.195L256.884 526.224C256.258 526.437 255.62 526.612 254.974 526.749C254.346 526.62 253.727 526.449 253.122 526.237L253.028 526.205L252.933 526.175C250.598 525.461 247.403 524.234 243.369 522.323L243.358 522.317L243.347 522.312C235.237 518.517 224.801 512.54 212.91 504.173C182.928 482.635 156.348 456.736 134.057 427.339L134.05 427.33L134.042 427.32C81.38 358.559 37.1124 254.082 56.2735 110.56C56.5865 108.385 57.5037 106.34 58.9227 104.656C60.346 102.968 62.217 101.711 64.3235 101.03L64.3327 101.027L64.342 101.024Z" stroke="white" stroke-opacity="0.03" stroke-width="10"/>
</svg>
