<svg xmlns="http://www.w3.org/2000/svg" width="28.903" height="40" viewBox="0 0 28.903 40">
  <path id="Icon_metro-bitcoin" data-name="Icon metro-bitcoin" d="M34.655,16.715q.433,4.375-3.149,6.2a7.219,7.219,0,0,1,4.207,2.476,7.125,7.125,0,0,1,1.082,5.144,9.088,9.088,0,0,1-.781,3,6.633,6.633,0,0,1-1.551,2.139,7.891,7.891,0,0,1-2.332,1.406,14.207,14.207,0,0,1-2.921.829,28.964,28.964,0,0,1-3.5.361v6.13h-3.7V38.373q-1.923,0-2.933-.024v6.058h-3.7v-6.13q-.433,0-1.3-.012t-1.322-.012H7.948l.745-4.4h2.668a1.284,1.284,0,0,0,1.394-1.226V22.965h.385a2.445,2.445,0,0,0-.385-.024v-6.9a1.909,1.909,0,0,0-2.139-1.635H7.948V10.465l5.1.024q1.538,0,2.332-.024V4.407h3.7v5.938q1.971-.048,2.933-.048V4.407h3.7v6.058a21.446,21.446,0,0,1,3.365.541,10.931,10.931,0,0,1,2.716,1.082,5.507,5.507,0,0,1,1.983,1.875,6.134,6.134,0,0,1,.877,2.752Zm-5.168,13.1a3.207,3.207,0,0,0-.361-1.538,3.6,3.6,0,0,0-.889-1.106,4.565,4.565,0,0,0-1.382-.733,11.67,11.67,0,0,0-1.575-.445,14.214,14.214,0,0,0-1.779-.216q-1.058-.072-1.659-.072t-1.55.024q-.949.024-1.142.024v8.125q.192,0,.889.012t1.154.012q.457,0,1.274-.036t1.406-.1q.589-.06,1.37-.2a9.2,9.2,0,0,0,1.334-.337,8.168,8.168,0,0,0,1.142-.5,3.331,3.331,0,0,0,.95-.721,3.4,3.4,0,0,0,.589-.962,3.186,3.186,0,0,0,.228-1.226ZM27.78,18.373a3.155,3.155,0,0,0-.3-1.406,3.35,3.35,0,0,0-.733-1.01,3.594,3.594,0,0,0-1.154-.673,8.262,8.262,0,0,0-1.322-.4,13.236,13.236,0,0,0-1.478-.192q-.877-.072-1.394-.06t-1.3.024q-.781.012-.949.012v7.38q.12,0,.829.012t1.118,0q.409-.012,1.2-.048a10.166,10.166,0,0,0,1.322-.132q.529-.1,1.238-.264a4.076,4.076,0,0,0,1.166-.445,6.6,6.6,0,0,0,.889-.649,2.313,2.313,0,0,0,.649-.925,3.334,3.334,0,0,0,.216-1.226Z" transform="translate(-7.948 -4.407)" fill="#fff"/>
</svg>
