<svg xmlns="http://www.w3.org/2000/svg" width="20.824" height="23.799" viewBox="0 0 20.824 23.799">
  <path id="Icon_awesome-shopping-bag" data-name="Icon awesome-shopping-bag" d="M16.362,7.437V5.95a5.95,5.95,0,1,0-11.9,0V7.437H0V20.08A3.719,3.719,0,0,0,3.719,23.8H17.105a3.719,3.719,0,0,0,3.719-3.719V7.437ZM7.437,5.95a2.975,2.975,0,1,1,5.95,0V7.437H7.437Zm7.437,5.578a1.116,1.116,0,1,1,1.116-1.116A1.116,1.116,0,0,1,14.874,11.528Zm-8.925,0a1.116,1.116,0,1,1,1.116-1.116A1.116,1.116,0,0,1,5.95,11.528Z" fill="#fff"/>
</svg>
