<svg xmlns="http://www.w3.org/2000/svg" width="14.217" height="27.305" viewBox="0 0 14.217 27.305">
  <path id="Icon_metro-dollar2" data-name="Icon metro-dollar2" d="M14.217,18.056A5.8,5.8,0,0,1,12.7,22.071a6.544,6.544,0,0,1-3.939,2.08v2.666a.469.469,0,0,1-.488.488H6.217a.494.494,0,0,1-.488-.488V24.151a9.6,9.6,0,0,1-1.943-.472A10.229,10.229,0,0,1,2.24,23a10.262,10.262,0,0,1-1.128-.731A8.685,8.685,0,0,1,.4,21.7q-.19-.183-.267-.274A.463.463,0,0,1,.107,20.8l1.569-2.057a.474.474,0,0,1,.35-.183.378.378,0,0,1,.366.137l.03.03a7.956,7.956,0,0,0,3.7,1.9,5.322,5.322,0,0,0,1.128.122A3.694,3.694,0,0,0,9.425,20.1a2.134,2.134,0,0,0,.937-1.859,1.545,1.545,0,0,0-.229-.808,2.855,2.855,0,0,0-.51-.64,4.182,4.182,0,0,0-.891-.571q-.609-.312-1.006-.488t-1.219-.5q-.594-.244-.937-.381t-.937-.4q-.594-.267-.952-.472t-.861-.541A5.365,5.365,0,0,1,2,12.792a9.5,9.5,0,0,1-.663-.747A3.728,3.728,0,0,1,.8,11.161a6.111,6.111,0,0,1-.32-1.013,5.288,5.288,0,0,1-.13-1.188A5.21,5.21,0,0,1,1.844,5.272,6.972,6.972,0,0,1,5.73,3.23V.488A.468.468,0,0,1,5.874.145.469.469,0,0,1,6.217,0H8.274a.469.469,0,0,1,.488.488V3.169a8.475,8.475,0,0,1,1.684.35,9.762,9.762,0,0,1,1.326.51,7.342,7.342,0,0,1,.968.571q.457.32.594.442t.229.213a.441.441,0,0,1,.076.579L12.4,8.06a.415.415,0,0,1-.35.244.486.486,0,0,1-.411-.107q-.046-.046-.221-.183t-.594-.4a7.863,7.863,0,0,0-.891-.488,6.805,6.805,0,0,0-1.135-.4,5.084,5.084,0,0,0-1.3-.175,3.96,3.96,0,0,0-2.362.655A2.048,2.048,0,0,0,4.351,9.63a1.715,1.715,0,0,0,.449.632,6.715,6.715,0,0,0,.6.5,5.367,5.367,0,0,0,.853.472q.571.267.922.411t1.067.419q.808.3,1.234.48t1.158.533a9.205,9.205,0,0,1,1.15.648,9.728,9.728,0,0,1,.945.762,3.945,3.945,0,0,1,.808.968,5.522,5.522,0,0,1,.48,1.166,5.027,5.027,0,0,1,.2,1.432Z" transform="translate(14.217 27.305) rotate(-180)" fill="#fff"/>
</svg>
