<svg id="Icon_ionic-ios-home" data-name="Icon ionic-ios-home" xmlns="http://www.w3.org/2000/svg" width="24.371" height="24.363" viewBox="0 0 24.371 24.363">
  <path id="Path_14" data-name="Path 14" d="M16.267,7.309a.23.23,0,0,0-.293,0L6.838,14.618a.246.246,0,0,0-.088.182V28.27a.117.117,0,0,0,.117.117h6.325a.117.117,0,0,0,.117-.117v-8.2a.117.117,0,0,1,.117-.117h5.388a.117.117,0,0,1,.117.117v8.2a.117.117,0,0,0,.117.117h6.325a.117.117,0,0,0,.117-.117V14.8a.236.236,0,0,0-.088-.182Z" transform="translate(-3.938 -4.023)" fill="#fff"/>
  <path id="Path_15" data-name="Path 15" d="M27.428,12.523,16.359,3.656a1.286,1.286,0,0,0-1.6,0L9.934,7.574V5.1a.117.117,0,0,0-.117-.117H6.3a.117.117,0,0,0-.117.117v5.4l-2.5,2.056a.819.819,0,0,0-.07,1.224.815.815,0,0,0,.58.24.825.825,0,0,0,.515-.182L15.48,5.173a.1.1,0,0,1,.076-.023.142.142,0,0,1,.076.023L26.4,13.806a.825.825,0,0,0,.515.182.831.831,0,0,0,.826-.867A.832.832,0,0,0,27.428,12.523Z" transform="translate(-3.374 -3.375)" fill="#fff"/>
</svg>
