<svg id="Icon_ionic-ios-people" data-name="Icon ionic-ios-people" xmlns="http://www.w3.org/2000/svg" width="53.033" height="34.466" viewBox="0 0 53.033 34.466">
  <path id="Path_28" data-name="Path 28" d="M35.665,34.265c-1.323-.472-3.484-.5-4.441-.862a6.274,6.274,0,0,1-2.055-.957c-.343-.413-.343-3.366-.343-3.366A5.438,5.438,0,0,0,30,27.426a18.378,18.378,0,0,0,.567-3.248s.78.331,1.087-1.228c.26-1.346.756-2.055.626-3.047s-.685-.756-.685-.756.685-1,.685-4.417c0-3.52-2.658-6.981-7.63-6.981S17,11.221,17,14.729c0,3.413.673,4.417.673,4.417s-.555-.236-.685.756.354,1.7.626,3.047c.307,1.571,1.087,1.228,1.087,1.228a18.555,18.555,0,0,0,.567,3.248A5.438,5.438,0,0,0,20.44,29.08s0,2.953-.343,3.366a6.038,6.038,0,0,1-2.055.945c-.945.366-3.106.413-4.441.886a8.336,8.336,0,0,0-5.41,7.937H41.063A8.319,8.319,0,0,0,35.665,34.265Z" transform="translate(1.848 -7.748)" fill="#5662c1"/>
  <path id="Path_29" data-name="Path 29" d="M15.03,26.161s2.823-.094,3.945-1.1c-1.831-2.776-.839-6.012-1.217-9.036s-2.091-4.819-5.516-4.819H12.2c-3.307,0-5.091,1.8-5.469,4.819s.673,6.614-1.2,9.036c1.122,1.016,3.957.98,3.957.98h0a5.982,5.982,0,0,1-.118,1.984,2.982,2.982,0,0,1-1.417.65,27.406,27.406,0,0,0-3.059.85,4.973,4.973,0,0,0-2.669,4.394H11.7c.26-.945,2.043-2.634,3.78-3.52a7.931,7.931,0,0,1,2.917-.614s.449-.709-1.028-.98a10.069,10.069,0,0,1-2.268-.791C14.877,27.756,15.03,26.161,15.03,26.161Z" transform="translate(-2.215 -5.397)" fill="#5662c1"/>
  <path id="Path_30" data-name="Path 30" d="M27.753,26.161s-2.823-.094-3.945-1.1c1.831-2.776.839-6.012,1.217-9.036s2.091-4.819,5.516-4.819h.047c3.307,0,5.091,1.8,5.469,4.819s-.673,6.614,1.2,9.036c-1.122,1.016-3.957.98-3.957.98h0a5.982,5.982,0,0,0,.118,1.984,2.982,2.982,0,0,0,1.417.65,27.406,27.406,0,0,1,3.059.85,4.973,4.973,0,0,1,2.669,4.394H31.084c-.26-.945-2.043-2.634-3.78-3.52a7.931,7.931,0,0,0-2.917-.614s-.449-.709,1.028-.98a10.069,10.069,0,0,0,2.268-.791C27.906,27.756,27.753,26.161,27.753,26.161Z" transform="translate(12.465 -5.397)" fill="#5662c1"/>
</svg>
