<svg xmlns="http://www.w3.org/2000/svg" width="24.593" height="22.133" viewBox="0 0 24.593 22.133">
  <path id="Icon_material-business-center" data-name="Icon material-business-center" d="M12.837,20.485v-1.23h-8.6L4.23,24.174a2.451,2.451,0,0,0,2.459,2.459H23.9a2.451,2.451,0,0,0,2.459-2.459V19.256H17.756v1.23Zm12.3-11.067H20.2V6.959L17.743,4.5H12.825L10.365,6.959V9.419H5.459A2.466,2.466,0,0,0,3,11.878v3.689a2.451,2.451,0,0,0,2.459,2.459h7.378V15.567h4.919v2.459h7.378a2.466,2.466,0,0,0,2.459-2.459V11.878A2.466,2.466,0,0,0,25.133,9.419Zm-7.378,0H12.837V6.959h4.919Z" transform="translate(-3 -4.5)" fill="#fff"/>
</svg>
