<svg xmlns="http://www.w3.org/2000/svg" width="22.132" height="22.133" viewBox="0 0 22.132 22.133">
  <path id="Icon_ionic-ios-person" data-name="Icon ionic-ios-person" d="M26.622,26.074c-.415-1.833-2.784-2.726-3.6-3.015a26.859,26.859,0,0,0-3-.576,3.051,3.051,0,0,1-1.389-.64A12.14,12.14,0,0,1,18.535,19a8.549,8.549,0,0,0,.657-1.251,16.133,16.133,0,0,0,.484-2.185s.473,0,.64-.83a8.166,8.166,0,0,0,.427-1.931c-.035-.663-.4-.646-.4-.646A10.106,10.106,0,0,0,20.737,9.2c.052-2.369-1.8-4.7-5.164-4.7-3.406,0-5.222,2.334-5.17,4.7a10.541,10.541,0,0,0,.386,2.957s-.363-.017-.4.646a8.166,8.166,0,0,0,.427,1.931c.161.83.64.83.64.83a16.133,16.133,0,0,0,.484,2.185A8.549,8.549,0,0,0,12.6,19a12.14,12.14,0,0,1-.092,2.842,3.051,3.051,0,0,1-1.389.64,26.859,26.859,0,0,0-3,.576c-.818.288-3.187,1.182-3.6,3.015a.461.461,0,0,0,.455.559H26.172A.46.46,0,0,0,26.622,26.074Z" transform="translate(-4.501 -4.5)" fill="#fff"/>
</svg>
