<svg width="18" height="17" viewBox="0 0 18 17" fill="none" xmlns="http://www.w3.org/2000/svg">
<path d="M9 0.556836C4.54071 0.556836 0.925 4.17255 0.925 8.63184C0.925 13.0911 4.54071 16.7068 9 16.7068C13.4593 16.7068 17.075 13.0911 17.075 8.63184C17.075 4.17255 13.4593 0.556836 9 0.556836ZM9 14.9709C5.49991 14.9709 2.66094 12.1319 2.66094 8.63184C2.66094 5.13175 5.49991 2.29277 9 2.29277C12.5001 2.29277 15.3391 5.13175 15.3391 8.63184C15.3391 12.1319 12.5001 14.9709 9 14.9709Z" fill="#2F2F2F" stroke="#2F2F2F" stroke-width="0.4"/>
<path d="M7.95625 5.53809C7.95625 5.81491 8.06622 6.08039 8.26196 6.27613C8.4577 6.47187 8.72318 6.58184 9 6.58184C9.27682 6.58184 9.5423 6.47187 9.73804 6.27613C9.93378 6.08039 10.0438 5.81491 10.0438 5.53809C10.0438 5.26127 9.93378 4.99578 9.73804 4.80004C9.5423 4.6043 9.27682 4.49434 9 4.49434C8.72318 4.49434 8.4577 4.6043 8.26196 4.80004C8.06622 4.99578 7.95625 5.26127 7.95625 5.53809ZM9.42188 7.30684H8.57812C8.39032 7.30684 8.2375 7.45966 8.2375 7.64746V12.4287C8.2375 12.6165 8.39032 12.7693 8.57812 12.7693H9.42188C9.60968 12.7693 9.7625 12.6165 9.7625 12.4287V7.64746C9.7625 7.45966 9.60968 7.30684 9.42188 7.30684Z" fill="#2F2F2F" stroke="#2F2F2F" stroke-width="0.4"/>
</svg>
