<svg width="22" height="28" viewBox="0 0 22 28" fill="none" xmlns="http://www.w3.org/2000/svg">
<path d="M11.7083 7.448V0.541748H6.92708C6.12867 0.541748 5.36296 0.858916 4.7984 1.42348C4.23383 1.98804 3.91667 2.75375 3.91667 3.55216V20.9063C3.91667 21.7047 4.23383 22.4705 4.7984 23.035C5.36296 23.5996 6.12867 23.9167 6.92708 23.9167H18.6146C19.413 23.9167 20.1787 23.5996 20.7433 23.035C21.3078 22.4705 21.625 21.7047 21.625 20.9063V10.4584H14.7188C13.9203 10.4584 13.1546 10.1412 12.5901 9.57668C12.0255 9.01212 11.7083 8.24641 11.7083 7.448ZM13.4792 7.448V0.895915L21.2708 8.68758H14.7188C14.39 8.68758 14.0747 8.55698 13.8422 8.32452C13.6098 8.09205 13.4792 7.77676 13.4792 7.448ZM0.375 6.70425C0.374827 6.13965 0.543295 5.58787 0.858802 5.11966C1.17431 4.65145 1.62248 4.28814 2.14583 4.07633V20.9063C2.14583 22.1744 2.64957 23.3905 3.54623 24.2872C4.44289 25.1838 5.65902 25.6876 6.92708 25.6876H18.0904C17.8786 26.2109 17.5153 26.6591 17.0471 26.9746C16.5789 27.2901 16.0271 27.4586 15.4625 27.4584H6.92708C5.18936 27.4584 3.52281 26.7681 2.29406 25.5394C1.06531 24.3106 0.375 22.6441 0.375 20.9063V6.70425Z" fill="#005992" fill-opacity="0.8"/>
</svg>
