<svg width="22" height="22" viewBox="0 0 22 22" fill="none" xmlns="http://www.w3.org/2000/svg">
<path d="M18.5834 2.33366H16.4167V1.25033C16.4167 0.963008 16.3026 0.687458 16.0994 0.484293C15.8963 0.281129 15.6207 0.166992 15.3334 0.166992C15.0461 0.166992 14.7705 0.281129 14.5674 0.484293C14.3642 0.687458 14.2501 0.963008 14.2501 1.25033V2.33366H7.75008V1.25033C7.75008 0.963008 7.63594 0.687458 7.43278 0.484293C7.22962 0.281129 6.95407 0.166992 6.66675 0.166992C6.37943 0.166992 6.10388 0.281129 5.90072 0.484293C5.69755 0.687458 5.58342 0.963008 5.58342 1.25033V2.33366H3.41675C2.55479 2.33366 1.72814 2.67607 1.11865 3.28556C0.509158 3.89506 0.166748 4.72171 0.166748 5.58366V18.5837C0.166748 19.4456 0.509158 20.2723 1.11865 20.8818C1.72814 21.4913 2.55479 21.8337 3.41675 21.8337H18.5834C19.4454 21.8337 20.272 21.4913 20.8815 20.8818C21.491 20.2723 21.8334 19.4456 21.8334 18.5837V5.58366C21.8334 4.72171 21.491 3.89506 20.8815 3.28556C20.272 2.67607 19.4454 2.33366 18.5834 2.33366ZM19.6667 18.5837C19.6667 18.871 19.5526 19.1465 19.3494 19.3497C19.1463 19.5529 18.8707 19.667 18.5834 19.667H3.41675C3.12943 19.667 2.85388 19.5529 2.65072 19.3497C2.44755 19.1465 2.33341 18.871 2.33341 18.5837V11.0003H19.6667V18.5837ZM19.6667 8.83366H2.33341V5.58366C2.33341 5.29634 2.44755 5.02079 2.65072 4.81763C2.85388 4.61446 3.12943 4.50033 3.41675 4.50033H5.58342V5.58366C5.58342 5.87098 5.69755 6.14653 5.90072 6.34969C6.10388 6.55286 6.37943 6.66699 6.66675 6.66699C6.95407 6.66699 7.22962 6.55286 7.43278 6.34969C7.63594 6.14653 7.75008 5.87098 7.75008 5.58366V4.50033H14.2501V5.58366C14.2501 5.87098 14.3642 6.14653 14.5674 6.34969C14.7705 6.55286 15.0461 6.66699 15.3334 6.66699C15.6207 6.66699 15.8963 6.55286 16.0994 6.34969C16.3026 6.14653 16.4167 5.87098 16.4167 5.58366V4.50033H18.5834C18.8707 4.50033 19.1463 4.61446 19.3494 4.81763C19.5526 5.02079 19.6667 5.29634 19.6667 5.58366V8.83366Z" fill="#005992"/>
</svg>
