<svg width="22" height="18" viewBox="0 0 22 18" fill="none" xmlns="http://www.w3.org/2000/svg">
<path d="M14.4375 9.6875C14.4375 10.5992 14.0753 11.4735 13.4307 12.1182C12.786 12.7628 11.9117 13.125 11 13.125C10.0883 13.125 9.21398 12.7628 8.56932 12.1182C7.92466 11.4735 7.5625 10.5992 7.5625 9.6875C7.5625 8.77582 7.92466 7.90148 8.56932 7.25682C9.21398 6.61216 10.0883 6.25 11 6.25C11.9117 6.25 12.786 6.61216 13.4307 7.25682C14.0753 7.90148 14.4375 8.77582 14.4375 9.6875Z" fill="white"/>
<path d="M2.75 3.5C2.02065 3.5 1.32118 3.78973 0.805456 4.30546C0.289731 4.82118 0 5.52065 0 6.25L0 14.5C0 15.2293 0.289731 15.9288 0.805456 16.4445C1.32118 16.9603 2.02065 17.25 2.75 17.25H19.25C19.9793 17.25 20.6788 16.9603 21.1945 16.4445C21.7103 15.9288 22 15.2293 22 14.5V6.25C22 5.52065 21.7103 4.82118 21.1945 4.30546C20.6788 3.78973 19.9793 3.5 19.25 3.5H17.6385C16.9092 3.49984 16.2099 3.21001 15.6942 2.69425L14.5558 1.55575C14.0401 1.03999 13.3408 0.750156 12.6115 0.75H9.3885C8.65921 0.750156 7.95986 1.03999 7.44425 1.55575L6.30575 2.69425C5.79014 3.21001 5.09079 3.49984 4.3615 3.5H2.75ZM3.4375 6.25C3.25516 6.25 3.0803 6.17757 2.95136 6.04864C2.82243 5.9197 2.75 5.74484 2.75 5.5625C2.75 5.38016 2.82243 5.2053 2.95136 5.07636C3.0803 4.94743 3.25516 4.875 3.4375 4.875C3.61984 4.875 3.7947 4.94743 3.92364 5.07636C4.05257 5.2053 4.125 5.38016 4.125 5.5625C4.125 5.74484 4.05257 5.9197 3.92364 6.04864C3.7947 6.17757 3.61984 6.25 3.4375 6.25ZM15.8125 9.6875C15.8125 10.9639 15.3055 12.1879 14.403 13.0905C13.5004 13.993 12.2764 14.5 11 14.5C9.72365 14.5 8.49957 13.993 7.59705 13.0905C6.69453 12.1879 6.1875 10.9639 6.1875 9.6875C6.1875 8.41115 6.69453 7.18707 7.59705 6.28455C8.49957 5.38203 9.72365 4.875 11 4.875C12.2764 4.875 13.5004 5.38203 14.403 6.28455C15.3055 7.18707 15.8125 8.41115 15.8125 9.6875Z" fill="white"/>
</svg>
