<svg width="21" height="21" viewBox="0 0 21 21" fill="none" xmlns="http://www.w3.org/2000/svg">
<path d="M7.41001 6.85397C7.39774 7.5286 7.49032 8.20093 7.68432 8.84693L0.576664 15.9546L0.56258 15.9687L0.554967 15.9871L0.345092 16.4945L0.3375 16.5129V16.5327V19.849V19.8905L0.366789 19.9198L1.08554 20.6385L1.11483 20.6678H1.15625H5.46875H5.51017L5.53946 20.6385L6.25821 19.9198L6.2875 19.8905V19.849V17.7928H8.34375H8.38517L8.41446 17.7635L9.13321 17.0448L9.1625 17.0155V16.974V14.9178H10.4641H10.486L10.506 14.9086L11.0508 14.657L11.0707 14.6478L11.085 14.6311L12.1927 13.3323C12.7854 13.5052 13.4002 13.591 14.0176 13.591L14.0184 13.591C15.5331 13.578 16.9986 13.0511 18.1748 12.0968C19.3511 11.1424 20.1686 9.81694 20.4934 8.33743L20.4937 8.33635C20.7184 7.25641 20.6717 6.1385 20.3579 5.08189C20.0192 3.92948 19.3728 2.89118 18.4882 2.07859C17.6236 1.28439 16.5635 0.735151 15.4171 0.486697V0.484727L15.337 0.468428C14.3844 0.274471 13.4008 0.293044 12.4562 0.522824C11.5117 0.752604 10.6294 1.18793 9.87236 1.79778C9.11531 2.40762 8.50213 3.17696 8.07651 4.05096C7.65091 4.92491 7.42334 5.88199 7.41001 6.85397ZM7.41001 6.85397C7.41001 6.85386 7.41002 6.85376 7.41002 6.85366L7.51 6.85548L7.41001 6.85411C7.41001 6.85406 7.41001 6.85402 7.41001 6.85397ZM18.9412 7.81117L18.9401 7.80978L18.8951 8.01415C18.6499 9.12676 18.0342 10.1232 17.1488 10.8401C16.2637 11.5568 15.1615 11.9519 14.0227 11.9607C13.4112 11.9617 12.805 11.848 12.2355 11.6254L12.2058 11.6138L12.1749 11.6215L11.3685 11.8228L11.3377 11.8305L11.317 11.8545L10.0876 13.2803H8.34375H8.30233L8.27304 13.3096L7.55429 14.0283L7.525 14.0576V14.099V16.1553H5.46875H5.42733L5.39804 16.1846L4.67929 16.9033L4.65 16.9326V16.974V19.0303H1.975V16.8717L9.20366 9.64018L9.22497 9.61887L9.23095 9.58933L9.38907 8.80877L9.39501 8.77948L9.3839 8.75174C9.14613 8.15803 9.03343 7.52182 9.04747 6.87959C9.07611 5.75489 9.48021 4.67211 10.1954 3.80364C10.9105 2.93532 11.8955 2.33115 12.9936 2.08729C13.8076 1.9165 14.6515 1.95177 15.4484 2.18991C16.2455 2.42811 16.9705 2.86171 17.5575 3.45132C18.1444 4.04094 18.5747 4.76787 18.8093 5.56607C19.0237 6.29556 19.0684 7.06344 18.9412 7.81117ZM16.0881 7.04923C16.2093 6.88172 16.2955 6.69148 16.3415 6.48989C16.3875 6.28829 16.3924 6.07949 16.3558 5.87598C16.3192 5.67246 16.242 5.47841 16.1287 5.30544C16.0154 5.13246 15.8684 4.98412 15.6964 4.86927C15.5245 4.75443 15.3311 4.67546 15.128 4.63707C14.9248 4.59868 14.7159 4.60167 14.5139 4.64586C14.3119 4.69005 14.1209 4.77453 13.9523 4.89425C13.7838 5.01397 13.641 5.16646 13.5328 5.34261C13.3244 5.68145 13.2555 6.08785 13.3405 6.47642C13.4255 6.86499 13.6578 7.2055 13.9886 7.42641C14.3194 7.64732 14.7229 7.73145 15.1144 7.66112C15.5059 7.59078 15.8549 7.37146 16.0881 7.04923Z" fill="#2F2F2F" stroke="#2F2F2F" stroke-width="0.2"/>
</svg>
