<svg width="25" height="23" viewBox="0 0 25 23" fill="none" xmlns="http://www.w3.org/2000/svg">
<path d="M23.375 5.25008H18.5416V1.62508C18.5416 1.30461 18.4143 0.997267 18.1877 0.770661C17.9611 0.544054 17.6538 0.416748 17.3333 0.416748H7.66663C7.34616 0.416748 7.03881 0.544054 6.81221 0.770661C6.5856 0.997267 6.45829 1.30461 6.45829 1.62508V10.0834H1.62496C1.30449 10.0834 0.997145 10.2107 0.770539 10.4373C0.543932 10.6639 0.416626 10.9713 0.416626 11.2917V20.9584C0.416626 21.2789 0.543932 21.5862 0.770539 21.8128C0.997145 22.0394 1.30449 22.1667 1.62496 22.1667H23.375C23.6954 22.1667 24.0028 22.0394 24.2294 21.8128C24.456 21.5862 24.5833 21.2789 24.5833 20.9584V6.45842C24.5833 6.13795 24.456 5.8306 24.2294 5.60399C24.0028 5.37739 23.6954 5.25008 23.375 5.25008ZM5.24996 19.7501H2.83329V17.3334H5.24996V19.7501ZM5.24996 14.9167H2.83329V12.5001H5.24996V14.9167ZM11.2916 19.7501H8.87496V17.3334H11.2916V19.7501ZM11.2916 14.9167H8.87496V12.5001H11.2916V14.9167ZM11.2916 10.0834H8.87496V7.66675H11.2916V10.0834ZM11.2916 5.25008H8.87496V2.83341H11.2916V5.25008ZM16.125 19.7501H13.7083V17.3334H16.125V19.7501ZM16.125 14.9167H13.7083V12.5001H16.125V14.9167ZM16.125 10.0834H13.7083V7.66675H16.125V10.0834ZM16.125 5.25008H13.7083V2.83341H16.125V5.25008ZM22.1666 19.7501H19.75V17.3334H22.1666V19.7501ZM22.1666 14.9167H19.75V12.5001H22.1666V14.9167ZM22.1666 10.0834H19.75V7.66675H22.1666V10.0834Z" fill="#005992" fill-opacity="0.8"/>
</svg>
