<svg width="29" height="29" viewBox="0 0 29 29" fill="none" xmlns="http://www.w3.org/2000/svg">
<path d="M14.4862 0.75C6.89625 0.75 0.75 6.91 0.75 14.5C0.75 22.09 6.89625 28.25 14.4862 28.25C22.09 28.25 28.25 22.09 28.25 14.5C28.25 6.91 22.09 0.75 14.4862 0.75ZM14.5 25.5C8.4225 25.5 3.5 20.5775 3.5 14.5C3.5 8.4225 8.4225 3.5 14.5 3.5C20.5775 3.5 25.5 8.4225 25.5 14.5C25.5 20.5775 20.5775 25.5 14.5 25.5ZM14.1975 7.625H14.115C13.565 7.625 13.125 8.065 13.125 8.615V15.105C13.125 15.5862 13.3725 16.04 13.7987 16.2875L19.505 19.7113C19.9725 19.9862 20.5775 19.8488 20.8525 19.3813C20.9215 19.2699 20.9675 19.1458 20.9876 19.0164C21.0076 18.8869 21.0015 18.7547 20.9694 18.6277C20.9373 18.5007 20.88 18.3814 20.8009 18.277C20.7217 18.1726 20.6224 18.0852 20.5088 18.02L15.1875 14.8575V8.615C15.1875 8.065 14.7475 7.625 14.1975 7.625Z" fill="#005992"/>
</svg>
