<svg width="24" height="22" viewBox="0 0 24 22" fill="none" xmlns="http://www.w3.org/2000/svg">
<path d="M9.66659 15.6667V14.5H1.51159L1.49992 19.1667C1.49992 20.4617 2.53825 21.5 3.83325 21.5H20.1666C21.4616 21.5 22.4999 20.4617 22.4999 19.1667V14.5H14.3333V15.6667H9.66659ZM21.3333 5.16667H16.6549V2.83333L14.3216 0.5H9.65492L7.32159 2.83333V5.16667H2.66659C1.38325 5.16667 0.333252 6.21667 0.333252 7.5V11C0.333252 12.295 1.37159 13.3333 2.66659 13.3333H9.66659V11H14.3333V13.3333H21.3333C22.6166 13.3333 23.6666 12.2833 23.6666 11V7.5C23.6666 6.21667 22.6166 5.16667 21.3333 5.16667ZM14.3333 5.16667H9.66659V2.83333H14.3333V5.16667Z" fill="#989898"/>
</svg>
