<svg width="18" height="18" viewBox="0 0 18 18" fill="none" xmlns="http://www.w3.org/2000/svg">
<path d="M7.91555 4.31161L5.3783 1.38286C5.0858 1.04536 4.54955 1.04686 4.2098 1.38736L2.1233 3.47761C1.5023 4.09936 1.32455 5.02261 1.6838 5.76286C3.83002 10.2066 7.41384 13.7954 11.8546 15.9479C12.5941 16.3071 13.5166 16.1294 14.1376 15.5076L16.2436 13.3979C16.5848 13.0566 16.5856 12.5174 16.2451 12.2249L13.3051 9.70111C12.9976 9.43711 12.5198 9.47161 12.2116 9.78061L11.1886 10.8051C11.1362 10.86 11.0672 10.8962 10.9923 10.9081C10.9174 10.92 10.8406 10.907 10.7738 10.8711C9.10164 9.90819 7.71455 8.51929 6.7538 6.84587C6.71782 6.77893 6.70479 6.70204 6.71672 6.62698C6.72864 6.55193 6.76485 6.48286 6.8198 6.43036L7.8398 5.40961C8.1488 5.09911 8.18255 4.61911 7.91555 4.31086V4.31161Z" stroke="#2F2F2F" stroke-width="2" stroke-linecap="round" stroke-linejoin="round"/>
</svg>
