<svg width="18" height="22" viewBox="0 0 18 22" fill="none" xmlns="http://www.w3.org/2000/svg">
<path d="M5.33398 3.66634V14.6663C5.33398 15.1526 5.52714 15.6189 5.87096 15.9627C6.21477 16.3065 6.68109 16.4997 7.16732 16.4997H14.5007C14.9869 16.4997 15.4532 16.3065 15.797 15.9627C16.1408 15.6189 16.334 15.1526 16.334 14.6663V6.63817C16.334 6.39394 16.2851 6.15217 16.1904 5.92707C16.0956 5.70196 15.9568 5.49806 15.7822 5.32734L12.7434 2.35551C12.4009 2.02061 11.9409 1.83307 11.4619 1.83301H7.16732C6.68109 1.83301 6.21477 2.02616 5.87096 2.36998C5.52714 2.7138 5.33398 3.18011 5.33398 3.66634V3.66634Z" stroke="#005992" stroke-opacity="0.8" stroke-width="2" stroke-linecap="round" stroke-linejoin="round"/>
<path d="M12.667 16.4993V18.3327C12.667 18.8189 12.4738 19.2852 12.13 19.629C11.7862 19.9729 11.3199 20.166 10.8337 20.166H3.50033C3.0141 20.166 2.54778 19.9729 2.20396 19.629C1.86015 19.2852 1.66699 18.8189 1.66699 18.3327V8.24935C1.66699 7.76312 1.86015 7.2968 2.20396 6.95299C2.54778 6.60917 3.0141 6.41602 3.50033 6.41602H5.33366" stroke="#005992" stroke-opacity="0.8" stroke-width="2" stroke-linecap="round" stroke-linejoin="round"/>
</svg>
