<svg width="25" height="25" viewBox="0 0 25 25" fill="none" xmlns="http://www.w3.org/2000/svg">
<path d="M12.5 0.5C5.88128 0.5 0.498779 5.88375 0.498779 12.5C0.498779 19.1163 5.88128 24.5 12.5 24.5C19.1163 24.5 24.5 19.1163 24.5 12.5C24.5 5.88375 19.1163 0.5 12.5 0.5ZM22.735 12.5C22.735 14.8413 21.94 17 20.615 18.725C20.24 18.4325 19.8413 17.6413 20.2163 16.8213C20.595 15.9963 20.6938 14.0863 20.6063 13.3425C20.5238 12.6 20.1375 10.8113 19.0888 10.7938C18.0413 10.7788 17.3225 10.4325 16.7 9.19C15.4088 6.605 19.1238 6.10875 17.8325 4.67875C17.4713 4.27625 15.6038 6.33125 15.33 3.5925C15.3125 3.39625 15.4988 3.1025 15.75 2.7975C19.805 4.16 22.735 7.99375 22.735 12.5ZM11.0938 2.36625C10.8488 2.84375 10.2025 3.0375 9.81003 3.39625C8.95503 4.17 8.58753 4.0625 8.12753 4.805C7.66378 5.5475 6.16878 6.61625 6.16878 7.15375C6.16878 7.69125 6.92378 8.32375 7.30128 8.20125C7.67878 8.07625 8.67503 8.08375 9.26003 8.28875C9.84628 8.49625 14.1525 8.70375 12.78 12.3438C12.345 13.5013 10.4388 13.3063 9.93128 15.2225C9.85503 15.5038 9.59128 16.705 9.57503 17.0975C9.54378 17.705 10.005 19.995 9.41878 19.995C8.83003 19.995 7.24628 17.9463 7.24628 17.575C7.24628 17.2038 6.83628 15.9025 6.83628 14.7875C6.83628 13.6738 4.93878 13.6912 4.93878 12.21C4.93878 10.875 5.96753 10.21 5.73628 9.56875C5.51003 8.93125 3.70253 8.91 2.94878 8.83125C3.60783 7.12604 4.71027 5.62775 6.14217 4.49119C7.57407 3.35464 9.28349 2.62106 11.0938 2.36625ZM9.28003 22.2125C9.89503 21.8875 9.95753 21.4675 10.515 21.4463C11.1525 21.4175 11.6713 21.1975 12.39 21.0387C13.0275 20.9 14.1688 20.2525 15.1725 20.17C16.02 20.1012 17.6913 20.2138 18.1413 21.0313C16.8509 21.8881 15.3823 22.4398 13.847 22.6445C12.3116 22.8492 10.7498 22.7014 9.28003 22.2125Z" fill="#005992" fill-opacity="0.8"/>
</svg>
