<svg width="21" height="21" viewBox="0 0 21 21" fill="none" xmlns="http://www.w3.org/2000/svg">
<path d="M8.99995 12L19.9999 1M19.9999 1L13.4999 19C13.4561 19.0957 13.3856 19.1769 13.297 19.2338C13.2084 19.2906 13.1053 19.3209 12.9999 19.3209C12.8946 19.3209 12.7915 19.2906 12.7029 19.2338C12.6143 19.1769 12.5438 19.0957 12.4999 19L8.99995 12L1.99995 8.5C1.90421 8.45613 1.82307 8.38569 1.76619 8.29705C1.70931 8.20842 1.67908 8.10532 1.67908 8C1.67908 7.89468 1.70931 7.79158 1.76619 7.70295C1.82307 7.61431 1.90421 7.54387 1.99995 7.5L19.9999 1Z" stroke="#2F2F2F" stroke-width="2" stroke-linecap="round" stroke-linejoin="round"/>
</svg>
