<svg width="22" height="22" viewBox="0 0 22 22" fill="none" xmlns="http://www.w3.org/2000/svg">
<path fill-rule="evenodd" clip-rule="evenodd" d="M14.5717 7.74042C14.5717 8.76456 14.1648 9.74675 13.4406 10.4709C12.7165 11.1951 11.7343 11.6019 10.7101 11.6019C9.68601 11.6019 8.70382 11.1951 7.97964 10.4709C7.25547 9.74675 6.84863 8.76456 6.84863 7.74042C6.84863 6.71628 7.25547 5.73409 7.97964 5.00992C8.70382 4.28574 9.68601 3.87891 10.7101 3.87891C11.7343 3.87891 12.7165 4.28574 13.4406 5.00992C14.1648 5.73409 14.5717 6.71628 14.5717 7.74042ZM12.6409 7.74042C12.6409 8.25249 12.4375 8.74358 12.0754 9.10567C11.7133 9.46776 11.2222 9.67118 10.7101 9.67118C10.1981 9.67118 9.70698 9.46776 9.3449 9.10567C8.98281 8.74358 8.77939 8.25249 8.77939 7.74042C8.77939 7.22835 8.98281 6.73726 9.3449 6.37517C9.70698 6.01308 10.1981 5.80966 10.7101 5.80966C11.2222 5.80966 11.7133 6.01308 12.0754 6.37517C12.4375 6.73726 12.6409 7.22835 12.6409 7.74042Z" fill="#2F2F2F"/>
<path fill-rule="evenodd" clip-rule="evenodd" d="M10.7101 0.0175781C4.84543 0.0175781 0.0909424 4.77207 0.0909424 10.6367C0.0909424 16.5014 4.84543 21.2559 10.7101 21.2559C16.5748 21.2559 21.3293 16.5014 21.3293 10.6367C21.3293 4.77207 16.5748 0.0175781 10.7101 0.0175781ZM2.0217 10.6367C2.0217 12.6544 2.71001 14.5118 3.86364 15.9869C4.67382 14.9229 5.719 14.0607 6.91755 13.4675C8.1161 12.8744 9.43556 12.5663 10.7729 12.5675C12.0928 12.5662 13.3957 12.8663 14.5822 13.4448C15.7686 14.0233 16.8074 14.865 17.6193 15.9058C18.4558 14.8087 19.019 13.5283 19.2623 12.1703C19.5056 10.8124 19.4221 9.41605 19.0186 8.09682C18.6152 6.77758 17.9034 5.57338 16.9421 4.58385C15.9808 3.59433 14.7978 2.84793 13.4908 2.40642C12.1838 1.9649 10.7904 1.84096 9.42602 2.04485C8.06161 2.24874 6.76537 2.77459 5.64454 3.57891C4.52372 4.38323 3.61053 5.44288 2.98054 6.67019C2.35055 7.8975 2.02187 9.25718 2.0217 10.6367ZM10.7101 19.3251C8.71559 19.3281 6.78127 18.642 5.23448 17.3828C5.85708 16.4915 6.68577 15.7638 7.65004 15.2616C8.61432 14.7593 9.68563 14.4975 10.7729 14.4983C11.8465 14.4974 12.9049 14.7527 13.8601 15.243C14.8152 15.7332 15.6397 16.4443 16.2649 17.3172C14.7061 18.6172 12.7399 19.328 10.7101 19.3251Z" fill="#2F2F2F"/>
</svg>
