<svg width="10" height="10" viewBox="0 0 10 10" fill="none" xmlns="http://www.w3.org/2000/svg">
<path d="M8.494 0.00585938L9.994 1.50586L8.8505 2.64986L7.3505 1.14986L8.494 0.00585938ZM3 6.99986H4.5L8.1435 3.35636L6.6435 1.85636L3 5.49986V6.99986Z" fill="#005992"/>
<path d="M8.5 8.5H3.079C3.066 8.5 3.0525 8.505 3.0395 8.505C3.023 8.505 3.0065 8.5005 2.9895 8.5H1.5V1.5H4.9235L5.9235 0.5H1.5C0.9485 0.5 0.5 0.948 0.5 1.5V8.5C0.5 9.052 0.9485 9.5 1.5 9.5H8.5C8.76522 9.5 9.01957 9.39464 9.20711 9.20711C9.39464 9.01957 9.5 8.76522 9.5 8.5V4.166L8.5 5.166V8.5Z" fill="#005992"/>
</svg>
