<svg width="30" height="24" viewBox="0 0 30 24" fill="none" xmlns="http://www.w3.org/2000/svg">
<path d="M5.5 0.125C4.24022 0.125 3.03204 0.625445 2.14124 1.51624C1.25044 2.40704 0.75 3.61522 0.75 4.875V5.35238L15 13.026L29.25 5.35475V4.875C29.25 3.61522 28.7496 2.40704 27.8588 1.51624C26.968 0.625445 25.7598 0.125 24.5 0.125H5.5ZM29.25 8.05037L15.5629 15.42C15.3899 15.5131 15.1965 15.5619 15 15.5619C14.8035 15.5619 14.6101 15.5131 14.4371 15.42L0.75 8.05037V19.125C0.75 20.3848 1.25044 21.593 2.14124 22.4838C3.03204 23.3746 4.24022 23.875 5.5 23.875H24.5C25.7598 23.875 26.968 23.3746 27.8588 22.4838C28.7496 21.593 29.25 20.3848 29.25 19.125V8.05037Z" fill="#005992" fill-opacity="0.8"/>
</svg>
