<svg width="17" height="17" viewBox="0 0 17 17" fill="none" xmlns="http://www.w3.org/2000/svg">
<path d="M6.62548 15.6558C5.4268 15.2979 4.3412 14.6358 3.47436 13.7339C3.75326 13.4031 3.92712 12.9966 3.97369 12.5664C4.02026 12.1362 3.93743 11.702 3.73578 11.3191C3.53414 10.9363 3.22286 10.6224 2.84177 10.4175C2.46069 10.2126 2.02713 10.126 1.59658 10.1689C1.4985 9.68845 1.44921 9.19931 1.44946 8.70894C1.44946 7.9516 1.56542 7.22107 1.78139 6.53475H1.81183C2.18135 6.53487 2.54481 6.4408 2.86788 6.26144C3.19095 6.08207 3.46298 5.82332 3.65827 5.50962C3.85356 5.19592 3.96568 4.83762 3.98403 4.46855C4.00239 4.09948 3.92637 3.73182 3.76316 3.4003C4.61276 2.60919 5.64023 2.03412 6.75883 1.72363C6.94088 2.08107 7.21826 2.38118 7.56028 2.59075C7.9023 2.80033 8.29563 2.9112 8.69676 2.9111C9.09789 2.9112 9.49122 2.80033 9.83324 2.59075C10.1753 2.38118 10.4526 2.08107 10.6347 1.72363C11.7533 2.03412 12.7808 2.60919 13.6304 3.4003C13.466 3.73415 13.39 4.1046 13.4098 4.47621C13.4295 4.84782 13.5443 5.20814 13.7432 5.52268C13.9421 5.83721 14.2183 6.09544 14.5456 6.27265C14.8728 6.44985 15.24 6.5401 15.6121 6.53475C15.8328 7.23836 15.9447 7.97154 15.9441 8.70894C15.9441 9.209 15.8933 9.69747 15.7969 10.1693C15.3664 10.1264 14.9328 10.2129 14.5517 10.4178C14.1707 10.6227 13.8594 10.9367 13.6577 11.3195C13.4561 11.7023 13.3733 12.1366 13.4198 12.5668C13.4664 12.9969 13.6403 13.4034 13.9192 13.7342C13.0523 14.636 11.9667 15.2981 10.768 15.6558C10.6273 15.2171 10.3509 14.8344 9.9786 14.5629C9.60635 14.2914 9.15751 14.1451 8.69676 14.1451C8.23602 14.1451 7.78717 14.2914 7.41492 14.5629C7.04267 14.8344 6.76624 15.2171 6.62548 15.6558Z" stroke="#2F2F2F" stroke-width="1.58123" stroke-linejoin="round"/>
<path d="M8.69683 11.246C9.02994 11.246 9.35978 11.1803 9.66753 11.0529C9.97528 10.9254 10.2549 10.7386 10.4904 10.503C10.726 10.2675 10.9128 9.98785 11.0403 9.6801C11.1678 9.37235 11.2334 9.04251 11.2334 8.70941C11.2334 8.3763 11.1678 8.04646 11.0403 7.73871C10.9128 7.43096 10.726 7.15133 10.4904 6.91579C10.2549 6.68025 9.97528 6.49341 9.66753 6.36593C9.35978 6.23846 9.02994 6.17285 8.69683 6.17285C8.0241 6.17285 7.37891 6.4401 6.90322 6.91579C6.42752 7.39149 6.16028 8.03667 6.16028 8.70941C6.16028 9.38214 6.42752 10.0273 6.90322 10.503C7.37891 10.9787 8.0241 11.246 8.69683 11.246V11.246Z" stroke="#2F2F2F" stroke-width="1.58123" stroke-linejoin="round"/>
</svg>
