<svg width="19" height="17" viewBox="0 0 19 17" fill="none" xmlns="http://www.w3.org/2000/svg">
<path d="M9.41793 10.7968C10.0271 10.7968 10.6113 10.5548 11.0421 10.1241C11.4728 9.69333 11.7148 9.10911 11.7148 8.49994C11.7148 8.43267 11.7117 8.36602 11.706 8.30019L9.21819 10.788C9.28402 10.7937 9.35046 10.7968 9.41793 10.7968ZM17.0206 1.39521L16.1445 0.519938C16.1137 0.489194 16.072 0.471924 16.0285 0.471924C15.985 0.471924 15.9433 0.489194 15.9126 0.519938L13.6706 2.76247C12.4339 2.13042 11.0437 1.81439 9.49997 1.81439C5.55836 1.81439 2.61754 3.86722 0.677505 7.97289C0.599525 8.13801 0.559082 8.31835 0.559082 8.50096C0.559082 8.68357 0.599525 8.86392 0.677505 9.02904C1.4527 10.6619 2.38615 11.9706 3.47785 12.9553L1.30833 15.124C1.27758 15.1547 1.26031 15.1964 1.26031 15.2399C1.26031 15.2834 1.27758 15.3251 1.30833 15.3559L2.1838 16.2314C2.21457 16.2621 2.25628 16.2794 2.29978 16.2794C2.34327 16.2794 2.38498 16.2621 2.41575 16.2314L17.0206 1.62736C17.0358 1.61212 17.0479 1.59403 17.0562 1.57411C17.0645 1.5542 17.0687 1.53285 17.0687 1.51129C17.0687 1.48973 17.0645 1.46838 17.0562 1.44846C17.0479 1.42854 17.0358 1.41045 17.0206 1.39521ZM5.80856 8.49994C5.8085 7.87651 5.96992 7.2637 6.2771 6.7212C6.58427 6.17871 7.02672 5.72502 7.56135 5.40434C8.09597 5.08367 8.70455 4.90693 9.32778 4.89136C9.95101 4.87579 10.5676 5.02191 11.1176 5.31549L10.1205 6.31257C9.71842 6.18382 9.2886 6.16831 8.87825 6.26776C8.4679 6.3672 8.09287 6.57775 7.79431 6.87632C7.49575 7.17488 7.2852 7.5499 7.18575 7.96026C7.08631 8.3706 7.10181 8.80042 7.23057 9.20254L6.23348 10.1996C5.95367 9.67684 5.80769 9.09289 5.80856 8.49994Z" fill="#005992"/>
<path d="M18.3224 7.9708C17.6005 6.45049 16.7413 5.21079 15.7448 4.25171L12.7888 7.20791C13.038 7.85927 13.0932 8.56884 12.9478 9.25091C12.8024 9.93298 12.4626 10.5584 11.9695 11.0515C11.4764 11.5446 10.851 11.8844 10.1689 12.0298C9.48687 12.1752 8.7773 12.1199 8.12594 11.8708L5.61865 14.3781C6.78186 14.9163 8.07563 15.1854 9.49996 15.1854C13.4416 15.1854 16.3824 13.1326 18.3224 9.02695C18.4004 8.86183 18.4409 8.68149 18.4409 8.49888C18.4409 8.31626 18.4004 8.13592 18.3224 7.9708Z" fill="#005992"/>
</svg>
