<svg width="19" height="19" viewBox="0 0 19 19" fill="none" xmlns="http://www.w3.org/2000/svg">
<path d="M1.58337 4.74967C1.58337 3.90982 1.917 3.10437 2.51087 2.5105C3.10473 1.91664 3.91019 1.58301 4.75004 1.58301H14.25C15.0899 1.58301 15.8953 1.91664 16.4892 2.5105C17.0831 3.10437 17.4167 3.90982 17.4167 4.74967V8.70801H1.58337V4.74967Z" stroke="#2F2F2F" stroke-width="1.4" stroke-linecap="round" stroke-linejoin="round"/>
<path d="M14.6459 13.0625H12.2709" stroke="#2F2F2F" stroke-width="1.4" stroke-linecap="round"/>
<path d="M9.50004 8.70801H17.4167V14.2497C17.4167 15.0895 17.0831 15.895 16.4892 16.4888C15.8953 17.0827 15.0899 17.4163 14.25 17.4163H9.50004V8.70801ZM9.50004 8.70801H1.58337V14.2497C1.58337 15.0895 1.917 15.895 2.51087 16.4888C3.10473 17.0827 3.91019 17.4163 4.75004 17.4163H9.50004V8.70801Z" stroke="#2F2F2F" stroke-width="1.4" stroke-linecap="round" stroke-linejoin="round"/>
<path d="M4.35425 14.25L5.54175 13.0625M5.54175 13.0625L6.72925 11.875M5.54175 13.0625L6.72925 14.25M5.54175 13.0625L4.35425 11.875" stroke="#2F2F2F" stroke-width="1.4" stroke-linecap="round"/>
</svg>
