<svg width="25" height="25" viewBox="0 0 25 25" fill="none" xmlns="http://www.w3.org/2000/svg">
<path d="M2.8125 24.125C2.8125 24.125 0.875 24.125 0.875 22.1875C0.875 20.25 2.8125 14.4375 12.5 14.4375C22.1875 14.4375 24.125 20.25 24.125 22.1875C24.125 24.125 22.1875 24.125 22.1875 24.125H2.8125ZM12.5 12.5C14.0416 12.5 15.52 11.8876 16.6101 10.7976C17.7001 9.7075 18.3125 8.22907 18.3125 6.6875C18.3125 5.14593 17.7001 3.6675 16.6101 2.57744C15.52 1.48739 14.0416 0.875 12.5 0.875C10.9584 0.875 9.48 1.48739 8.38994 2.57744C7.29989 3.6675 6.6875 5.14593 6.6875 6.6875C6.6875 8.22907 7.29989 9.7075 8.38994 10.7976C9.48 11.8876 10.9584 12.5 12.5 12.5Z" fill="#005992" fill-opacity="0.8"/>
</svg>
