<svg width="21" height="28" viewBox="0 0 21 28" fill="none" xmlns="http://www.w3.org/2000/svg">
<path d="M19.375 0.40625H15.1563C14.7833 0.40625 14.4256 0.554408 14.1619 0.818131C13.8982 1.08185 13.75 1.43954 13.75 1.8125C13.75 2.18546 13.8982 2.54315 14.1619 2.80687C14.4256 3.07059 14.7833 3.21875 15.1563 3.21875H15.9766L14.2188 4.98828C12.7466 3.83776 10.9309 3.21464 9.06253 3.21875C6.94606 3.21752 4.90643 4.01175 3.34812 5.44393C1.78982 6.87611 0.82667 8.84163 0.649686 10.9507C0.472702 13.0597 1.09481 15.1583 2.39264 16.8301C3.69046 18.502 5.56921 19.625 7.65628 19.9766V21.5H5.31253C4.93957 21.5 4.58189 21.6482 4.31816 21.9119C4.05444 22.1756 3.90628 22.5333 3.90628 22.9062C3.90628 23.2792 4.05444 23.6369 4.31816 23.9006C4.58189 24.1643 4.93957 24.3125 5.31253 24.3125H7.65628V26.1875C7.65628 26.5605 7.80444 26.9181 8.06816 27.1819C8.33189 27.4456 8.68957 27.5938 9.06253 27.5938C9.4355 27.5938 9.79318 27.4456 10.0569 27.1819C10.3206 26.9181 10.4688 26.5605 10.4688 26.1875V24.3125H12.8125C13.1855 24.3125 13.5432 24.1643 13.8069 23.9006C14.0706 23.6369 14.2188 23.2792 14.2188 22.9062C14.2188 22.5333 14.0706 22.1756 13.8069 21.9119C13.5432 21.6482 13.1855 21.5 12.8125 21.5H10.4688V19.9766C11.8489 19.7429 13.1492 19.1695 14.2525 18.308C15.3558 17.4466 16.2275 16.3242 16.789 15.042C17.3505 13.7598 17.5841 12.358 17.4689 10.963C17.3537 9.56794 16.8932 8.22351 16.1289 7.05078L17.9688 5.21094V6.03125C17.9688 6.40421 18.1169 6.7619 18.3807 7.02562C18.6444 7.28934 19.0021 7.4375 19.375 7.4375C19.748 7.4375 20.1057 7.28934 20.3694 7.02562C20.6331 6.7619 20.7813 6.40421 20.7813 6.03125V1.8125C20.7813 1.43954 20.6331 1.08185 20.3694 0.818131C20.1057 0.554408 19.748 0.40625 19.375 0.40625ZM9.06253 17.2812C7.95001 17.2812 6.86248 16.9513 5.93745 16.3333C5.01242 15.7152 4.29145 14.8367 3.86571 13.8088C3.43997 12.781 3.32858 11.65 3.54562 10.5589C3.76266 9.46772 4.29839 8.46544 5.08506 7.67877C5.87173 6.8921 6.87401 6.35637 7.96515 6.13933C9.05629 5.92229 10.1873 6.03368 11.2151 6.45943C12.243 6.88517 13.1215 7.60614 13.7396 8.53117C14.3576 9.45619 14.6875 10.5437 14.6875 11.6562C14.6875 13.1481 14.0949 14.5788 13.04 15.6337C11.9851 16.6886 10.5544 17.2812 9.06253 17.2812Z" fill="#005992"/>
</svg>
