<svg width="32" height="32" viewBox="0 0 32 32" fill="none" xmlns="http://www.w3.org/2000/svg">
<circle cx="16" cy="16" r="16" fill="#009266"/>
<path d="M21.241 8.50879L23.491 10.7588L21.7758 12.4748L19.5258 10.2248L21.241 8.50879ZM13 18.9998H15.25L20.7153 13.5345L18.4653 11.2845L13 16.7498V18.9998Z" fill="white"/>
<path d="M21.25 21.25H13.1185C13.099 21.25 13.0788 21.2575 13.0593 21.2575C13.0345 21.2575 13.0098 21.2507 12.9843 21.25H10.75V10.75H15.8853L17.3853 9.25H10.75C9.92275 9.25 9.25 9.922 9.25 10.75V21.25C9.25 22.078 9.92275 22.75 10.75 22.75H21.25C21.6478 22.75 22.0294 22.592 22.3107 22.3107C22.592 22.0294 22.75 21.6478 22.75 21.25V14.749L21.25 16.249V21.25Z" fill="white"/>
</svg>
