<svg width="26" height="26" viewBox="0 0 26 26" fill="none" xmlns="http://www.w3.org/2000/svg">
<path d="M22.4054 20.8138C23.662 19.3019 24.536 17.5095 24.9534 15.5884C25.3708 13.6673 25.3194 11.6739 24.8035 9.77689C24.2876 7.87985 23.3223 6.13497 21.9894 4.68986C20.6566 3.24476 18.9952 2.14193 17.146 1.47468C15.2967 0.807434 13.314 0.595391 11.3655 0.856491C9.41694 1.11759 7.55997 1.84415 5.95163 2.97471C4.34329 4.10527 3.0309 5.60657 2.12549 7.35161C1.22008 9.09665 0.748283 11.0341 0.750005 13C0.750665 15.8579 1.75778 18.6243 3.59463 20.8138L3.57713 20.8286C3.63838 20.9021 3.70838 20.9651 3.77138 21.0378C3.85013 21.1279 3.935 21.2128 4.01638 21.3003C4.26138 21.5663 4.51338 21.8218 4.77763 22.0615C4.85813 22.135 4.94125 22.2033 5.02263 22.2733C5.30263 22.5148 5.5905 22.744 5.88888 22.9575C5.92738 22.9838 5.96238 23.0179 6.00088 23.045V23.0345C8.05022 24.4767 10.495 25.2507 13.0009 25.2507C15.5068 25.2507 17.9515 24.4767 20.0009 23.0345V23.045C20.0394 23.0179 20.0735 22.9838 20.1129 22.9575C20.4104 22.7431 20.6991 22.5148 20.9791 22.2733C21.0605 22.2033 21.1436 22.1341 21.2241 22.0615C21.4884 21.8209 21.7404 21.5663 21.9854 21.3003C22.0668 21.2128 22.1508 21.1279 22.2304 21.0378C22.2925 20.9651 22.3634 20.9021 22.4246 20.8278L22.4054 20.8138ZM13 6.00002C13.7788 6.00002 14.54 6.23095 15.1876 6.66361C15.8351 7.09627 16.3398 7.71122 16.6378 8.43071C16.9358 9.15019 17.0138 9.94189 16.8618 10.7057C16.7099 11.4695 16.3349 12.1711 15.7842 12.7218C15.2336 13.2724 14.532 13.6474 13.7682 13.7994C13.0044 13.9513 12.2127 13.8733 11.4932 13.5753C10.7737 13.2773 10.1588 12.7726 9.72609 12.1251C9.29344 11.4776 9.0625 10.7163 9.0625 9.93752C9.0625 8.89323 9.47735 7.89171 10.2158 7.15329C10.9542 6.41486 11.9557 6.00002 13 6.00002ZM6.00613 20.8138C6.02131 19.6649 6.48821 18.5681 7.30582 17.7608C8.12343 16.9535 9.226 16.5006 10.375 16.5H15.625C16.774 16.5006 17.8766 16.9535 18.6942 17.7608C19.5118 18.5681 19.9787 19.6649 19.9939 20.8138C18.0749 22.5431 15.5832 23.5001 13 23.5001C10.4168 23.5001 7.92514 22.5431 6.00613 20.8138Z" fill="#005992"/>
</svg>
