<svg width="22" height="24" viewBox="0 0 22 24" fill="none" xmlns="http://www.w3.org/2000/svg">
<mask id="path-1-outside-1_104_1042" maskUnits="userSpaceOnUse" x="0" y="0" width="22" height="24" fill="black">
<rect fill="white" width="22" height="24"/>
<path d="M9.51562 14.2344C9.50694 14.2589 9.45269 14.2569 9.35286 14.2282C9.25304 14.1996 9.11632 14.1525 8.94271 14.0871L8.68229 13.9766C8.30035 13.8129 7.92274 13.6124 7.54948 13.375C7.48872 13.3341 7.31076 13.2052 7.01562 12.9883C6.72049 12.7714 6.55556 12.6548 6.52083 12.6384C5.93924 13.4814 5.35764 14.2221 4.77604 14.8605C4.07292 15.638 3.61719 16.0882 3.40885 16.2109C3.37413 16.2273 3.2895 16.2437 3.15495 16.26C3.0204 16.2764 2.9401 16.2764 2.91406 16.26C2.96615 16.2273 3.32205 15.8508 3.98177 15.1306C4.16406 14.9342 4.53516 14.4635 5.09505 13.7188C5.65495 12.974 5.99566 12.4911 6.11719 12.2701C6.26476 12.0246 6.48611 11.6215 6.78125 11.0608C7.07639 10.5002 7.23264 10.183 7.25 10.1094C7.18056 10.1012 6.70312 10.2362 5.81771 10.5145C5.74826 10.5309 5.62891 10.5616 5.45964 10.6066C5.29036 10.6516 5.14062 10.6905 5.01042 10.7232C4.88021 10.756 4.80642 10.7764 4.78906 10.7846C4.7717 10.801 4.76302 10.8439 4.76302 10.9135C4.76302 10.9831 4.75868 11.0219 4.75 11.0301C4.7066 11.112 4.57205 11.1734 4.34635 11.2143C4.1467 11.2716 3.94271 11.2716 3.73438 11.2143C3.57812 11.1815 3.4566 11.0956 3.36979 10.9565C3.33507 10.9074 3.31337 10.8132 3.30469 10.6741C3.35677 10.6577 3.46311 10.6373 3.6237 10.6127C3.78429 10.5882 3.91233 10.5636 4.00781 10.5391C4.51128 10.4081 4.96701 10.2772 5.375 10.1462C6.24306 9.85975 6.68576 9.71652 6.70312 9.71652C6.78993 9.70015 6.97656 9.62035 7.26302 9.47712C7.54948 9.33389 7.74045 9.24591 7.83594 9.21317C7.91406 9.18862 8.00738 9.15588 8.11589 9.11495C8.22439 9.07403 8.28733 9.05153 8.30469 9.04743C8.32205 9.04334 8.34809 9.04539 8.38281 9.05357C8.40017 9.15179 8.39583 9.28683 8.36979 9.4587C8.36979 9.47507 8.31554 9.58557 8.20703 9.79018C8.09852 9.99479 7.98351 10.2137 7.86198 10.447C7.74045 10.6802 7.66667 10.8173 7.64062 10.8583C7.42361 11.2675 7.08941 11.8036 6.63802 12.4665L7.47135 12.8103C7.57552 12.8594 7.89887 12.9903 8.44141 13.2031C8.98394 13.4159 9.27691 13.5305 9.32031 13.5469C9.35503 13.5551 9.40061 13.6594 9.45703 13.8599C9.51345 14.0605 9.53299 14.1853 9.51562 14.2344ZM6.84635 8.26786C6.8724 8.39062 6.85503 8.50521 6.79427 8.61161C6.6901 8.79985 6.47309 8.95536 6.14323 9.07812C5.88281 9.17634 5.6224 9.22545 5.36198 9.22545C5.13628 9.20089 4.92361 9.09449 4.72396 8.90625C4.60243 8.78348 4.52431 8.6157 4.48958 8.4029L4.5026 8.36607C4.52865 8.39062 4.61328 8.41109 4.75651 8.42746C4.89974 8.44382 5.01476 8.44382 5.10156 8.42746C5.18837 8.41109 5.4401 8.34561 5.85677 8.23103C6.16927 8.13281 6.40799 8.07552 6.57292 8.05915C6.72049 8.05915 6.81163 8.12872 6.84635 8.26786ZM15.9349 9.85156L16.7552 12.6384L14.9453 12.1228L15.9349 9.85156ZM1.50781 19.673L10.5443 16.8248V4.15513L1.50781 7.01562V19.673ZM17.6667 15.7812L18.9948 16.1618L16.638 8.09598L15.3359 7.7154L12.5234 14.2958L13.8516 14.6763L14.4375 13.3259L17.1849 14.1239L17.6667 15.7812ZM11.1172 3.97098L18.5781 6.22991V1.56473L11.1172 3.97098ZM15.1667 20.2132L17.224 20.3728L16.5208 22.3371L16 21.5268C14.8715 22.2061 13.6736 22.6481 12.4062 22.8527C11.9028 22.9509 11.5078 23 11.2214 23H10.1276C9.44184 23 8.57595 22.8404 7.52995 22.5212C6.48394 22.202 5.6875 21.8542 5.14062 21.4777C5.07118 21.4204 5.03646 21.3549 5.03646 21.2812C5.03646 21.2158 5.05816 21.1605 5.10156 21.1155C5.14497 21.0705 5.20139 21.048 5.27083 21.048C5.30556 21.048 5.38368 21.0787 5.50521 21.1401C5.62674 21.2015 5.75911 21.269 5.90234 21.3426C6.04557 21.4163 6.13455 21.4613 6.16927 21.4777C6.80295 21.7805 7.49523 22.0322 8.24609 22.2327C8.99696 22.4332 9.68056 22.5335 10.2969 22.5335C11.1215 22.5335 11.8464 22.4741 12.4714 22.3555C13.0964 22.2368 13.7778 22.0301 14.5156 21.7355C14.6458 21.6782 14.7782 21.6148 14.9128 21.5452C15.0473 21.4756 15.1949 21.3979 15.3555 21.3119C15.5161 21.226 15.6398 21.1585 15.7266 21.1094L15.1667 20.2132ZM21 6.96652V20.2132L10.9219 17.1931C10.8003 17.2422 9.17274 17.764 6.03906 18.7584C2.90538 19.7528 1.30816 20.25 1.2474 20.25C1.13455 20.25 1.05642 20.1968 1.01302 20.0904C1.01302 20.0822 1.00868 20.0699 1 20.0536V6.8192C1.02604 6.74554 1.0434 6.70461 1.05208 6.69643C1.09549 6.64732 1.18229 6.60231 1.3125 6.56138C2.24132 6.26674 2.88802 6.06213 3.2526 5.94754V1.23326L10.5182 3.66406C10.5356 3.66406 11.2322 3.43899 12.6081 2.98884C13.9839 2.53869 15.3555 2.09468 16.7227 1.65681C18.0898 1.21894 18.7908 1 18.8255 1C18.9991 1 19.0859 1.08594 19.0859 1.25781V6.38951L21 6.96652Z"/>
</mask>
<path d="M9.51562 14.2344C9.50694 14.2589 9.45269 14.2569 9.35286 14.2282C9.25304 14.1996 9.11632 14.1525 8.94271 14.0871L8.68229 13.9766C8.30035 13.8129 7.92274 13.6124 7.54948 13.375C7.48872 13.3341 7.31076 13.2052 7.01562 12.9883C6.72049 12.7714 6.55556 12.6548 6.52083 12.6384C5.93924 13.4814 5.35764 14.2221 4.77604 14.8605C4.07292 15.638 3.61719 16.0882 3.40885 16.2109C3.37413 16.2273 3.2895 16.2437 3.15495 16.26C3.0204 16.2764 2.9401 16.2764 2.91406 16.26C2.96615 16.2273 3.32205 15.8508 3.98177 15.1306C4.16406 14.9342 4.53516 14.4635 5.09505 13.7188C5.65495 12.974 5.99566 12.4911 6.11719 12.2701C6.26476 12.0246 6.48611 11.6215 6.78125 11.0608C7.07639 10.5002 7.23264 10.183 7.25 10.1094C7.18056 10.1012 6.70312 10.2362 5.81771 10.5145C5.74826 10.5309 5.62891 10.5616 5.45964 10.6066C5.29036 10.6516 5.14062 10.6905 5.01042 10.7232C4.88021 10.756 4.80642 10.7764 4.78906 10.7846C4.7717 10.801 4.76302 10.8439 4.76302 10.9135C4.76302 10.9831 4.75868 11.0219 4.75 11.0301C4.7066 11.112 4.57205 11.1734 4.34635 11.2143C4.1467 11.2716 3.94271 11.2716 3.73438 11.2143C3.57812 11.1815 3.4566 11.0956 3.36979 10.9565C3.33507 10.9074 3.31337 10.8132 3.30469 10.6741C3.35677 10.6577 3.46311 10.6373 3.6237 10.6127C3.78429 10.5882 3.91233 10.5636 4.00781 10.5391C4.51128 10.4081 4.96701 10.2772 5.375 10.1462C6.24306 9.85975 6.68576 9.71652 6.70312 9.71652C6.78993 9.70015 6.97656 9.62035 7.26302 9.47712C7.54948 9.33389 7.74045 9.24591 7.83594 9.21317C7.91406 9.18862 8.00738 9.15588 8.11589 9.11495C8.22439 9.07403 8.28733 9.05153 8.30469 9.04743C8.32205 9.04334 8.34809 9.04539 8.38281 9.05357C8.40017 9.15179 8.39583 9.28683 8.36979 9.4587C8.36979 9.47507 8.31554 9.58557 8.20703 9.79018C8.09852 9.99479 7.98351 10.2137 7.86198 10.447C7.74045 10.6802 7.66667 10.8173 7.64062 10.8583C7.42361 11.2675 7.08941 11.8036 6.63802 12.4665L7.47135 12.8103C7.57552 12.8594 7.89887 12.9903 8.44141 13.2031C8.98394 13.4159 9.27691 13.5305 9.32031 13.5469C9.35503 13.5551 9.40061 13.6594 9.45703 13.8599C9.51345 14.0605 9.53299 14.1853 9.51562 14.2344ZM6.84635 8.26786C6.8724 8.39062 6.85503 8.50521 6.79427 8.61161C6.6901 8.79985 6.47309 8.95536 6.14323 9.07812C5.88281 9.17634 5.6224 9.22545 5.36198 9.22545C5.13628 9.20089 4.92361 9.09449 4.72396 8.90625C4.60243 8.78348 4.52431 8.6157 4.48958 8.4029L4.5026 8.36607C4.52865 8.39062 4.61328 8.41109 4.75651 8.42746C4.89974 8.44382 5.01476 8.44382 5.10156 8.42746C5.18837 8.41109 5.4401 8.34561 5.85677 8.23103C6.16927 8.13281 6.40799 8.07552 6.57292 8.05915C6.72049 8.05915 6.81163 8.12872 6.84635 8.26786ZM15.9349 9.85156L16.7552 12.6384L14.9453 12.1228L15.9349 9.85156ZM1.50781 19.673L10.5443 16.8248V4.15513L1.50781 7.01562V19.673ZM17.6667 15.7812L18.9948 16.1618L16.638 8.09598L15.3359 7.7154L12.5234 14.2958L13.8516 14.6763L14.4375 13.3259L17.1849 14.1239L17.6667 15.7812ZM11.1172 3.97098L18.5781 6.22991V1.56473L11.1172 3.97098ZM15.1667 20.2132L17.224 20.3728L16.5208 22.3371L16 21.5268C14.8715 22.2061 13.6736 22.6481 12.4062 22.8527C11.9028 22.9509 11.5078 23 11.2214 23H10.1276C9.44184 23 8.57595 22.8404 7.52995 22.5212C6.48394 22.202 5.6875 21.8542 5.14062 21.4777C5.07118 21.4204 5.03646 21.3549 5.03646 21.2812C5.03646 21.2158 5.05816 21.1605 5.10156 21.1155C5.14497 21.0705 5.20139 21.048 5.27083 21.048C5.30556 21.048 5.38368 21.0787 5.50521 21.1401C5.62674 21.2015 5.75911 21.269 5.90234 21.3426C6.04557 21.4163 6.13455 21.4613 6.16927 21.4777C6.80295 21.7805 7.49523 22.0322 8.24609 22.2327C8.99696 22.4332 9.68056 22.5335 10.2969 22.5335C11.1215 22.5335 11.8464 22.4741 12.4714 22.3555C13.0964 22.2368 13.7778 22.0301 14.5156 21.7355C14.6458 21.6782 14.7782 21.6148 14.9128 21.5452C15.0473 21.4756 15.1949 21.3979 15.3555 21.3119C15.5161 21.226 15.6398 21.1585 15.7266 21.1094L15.1667 20.2132ZM21 6.96652V20.2132L10.9219 17.1931C10.8003 17.2422 9.17274 17.764 6.03906 18.7584C2.90538 19.7528 1.30816 20.25 1.2474 20.25C1.13455 20.25 1.05642 20.1968 1.01302 20.0904C1.01302 20.0822 1.00868 20.0699 1 20.0536V6.8192C1.02604 6.74554 1.0434 6.70461 1.05208 6.69643C1.09549 6.64732 1.18229 6.60231 1.3125 6.56138C2.24132 6.26674 2.88802 6.06213 3.2526 5.94754V1.23326L10.5182 3.66406C10.5356 3.66406 11.2322 3.43899 12.6081 2.98884C13.9839 2.53869 15.3555 2.09468 16.7227 1.65681C18.0898 1.21894 18.7908 1 18.8255 1C18.9991 1 19.0859 1.08594 19.0859 1.25781V6.38951L21 6.96652Z" fill="#2F2F2F"/>
<path d="M9.51562 14.2344C9.50694 14.2589 9.45269 14.2569 9.35286 14.2282C9.25304 14.1996 9.11632 14.1525 8.94271 14.0871L8.68229 13.9766C8.30035 13.8129 7.92274 13.6124 7.54948 13.375C7.48872 13.3341 7.31076 13.2052 7.01562 12.9883C6.72049 12.7714 6.55556 12.6548 6.52083 12.6384C5.93924 13.4814 5.35764 14.2221 4.77604 14.8605C4.07292 15.638 3.61719 16.0882 3.40885 16.2109C3.37413 16.2273 3.2895 16.2437 3.15495 16.26C3.0204 16.2764 2.9401 16.2764 2.91406 16.26C2.96615 16.2273 3.32205 15.8508 3.98177 15.1306C4.16406 14.9342 4.53516 14.4635 5.09505 13.7188C5.65495 12.974 5.99566 12.4911 6.11719 12.2701C6.26476 12.0246 6.48611 11.6215 6.78125 11.0608C7.07639 10.5002 7.23264 10.183 7.25 10.1094C7.18056 10.1012 6.70312 10.2362 5.81771 10.5145C5.74826 10.5309 5.62891 10.5616 5.45964 10.6066C5.29036 10.6516 5.14062 10.6905 5.01042 10.7232C4.88021 10.756 4.80642 10.7764 4.78906 10.7846C4.7717 10.801 4.76302 10.8439 4.76302 10.9135C4.76302 10.9831 4.75868 11.0219 4.75 11.0301C4.7066 11.112 4.57205 11.1734 4.34635 11.2143C4.1467 11.2716 3.94271 11.2716 3.73438 11.2143C3.57812 11.1815 3.4566 11.0956 3.36979 10.9565C3.33507 10.9074 3.31337 10.8132 3.30469 10.6741C3.35677 10.6577 3.46311 10.6373 3.6237 10.6127C3.78429 10.5882 3.91233 10.5636 4.00781 10.5391C4.51128 10.4081 4.96701 10.2772 5.375 10.1462C6.24306 9.85975 6.68576 9.71652 6.70312 9.71652C6.78993 9.70015 6.97656 9.62035 7.26302 9.47712C7.54948 9.33389 7.74045 9.24591 7.83594 9.21317C7.91406 9.18862 8.00738 9.15588 8.11589 9.11495C8.22439 9.07403 8.28733 9.05153 8.30469 9.04743C8.32205 9.04334 8.34809 9.04539 8.38281 9.05357C8.40017 9.15179 8.39583 9.28683 8.36979 9.4587C8.36979 9.47507 8.31554 9.58557 8.20703 9.79018C8.09852 9.99479 7.98351 10.2137 7.86198 10.447C7.74045 10.6802 7.66667 10.8173 7.64062 10.8583C7.42361 11.2675 7.08941 11.8036 6.63802 12.4665L7.47135 12.8103C7.57552 12.8594 7.89887 12.9903 8.44141 13.2031C8.98394 13.4159 9.27691 13.5305 9.32031 13.5469C9.35503 13.5551 9.40061 13.6594 9.45703 13.8599C9.51345 14.0605 9.53299 14.1853 9.51562 14.2344ZM6.84635 8.26786C6.8724 8.39062 6.85503 8.50521 6.79427 8.61161C6.6901 8.79985 6.47309 8.95536 6.14323 9.07812C5.88281 9.17634 5.6224 9.22545 5.36198 9.22545C5.13628 9.20089 4.92361 9.09449 4.72396 8.90625C4.60243 8.78348 4.52431 8.6157 4.48958 8.4029L4.5026 8.36607C4.52865 8.39062 4.61328 8.41109 4.75651 8.42746C4.89974 8.44382 5.01476 8.44382 5.10156 8.42746C5.18837 8.41109 5.4401 8.34561 5.85677 8.23103C6.16927 8.13281 6.40799 8.07552 6.57292 8.05915C6.72049 8.05915 6.81163 8.12872 6.84635 8.26786ZM15.9349 9.85156L16.7552 12.6384L14.9453 12.1228L15.9349 9.85156ZM1.50781 19.673L10.5443 16.8248V4.15513L1.50781 7.01562V19.673ZM17.6667 15.7812L18.9948 16.1618L16.638 8.09598L15.3359 7.7154L12.5234 14.2958L13.8516 14.6763L14.4375 13.3259L17.1849 14.1239L17.6667 15.7812ZM11.1172 3.97098L18.5781 6.22991V1.56473L11.1172 3.97098ZM15.1667 20.2132L17.224 20.3728L16.5208 22.3371L16 21.5268C14.8715 22.2061 13.6736 22.6481 12.4062 22.8527C11.9028 22.9509 11.5078 23 11.2214 23H10.1276C9.44184 23 8.57595 22.8404 7.52995 22.5212C6.48394 22.202 5.6875 21.8542 5.14062 21.4777C5.07118 21.4204 5.03646 21.3549 5.03646 21.2812C5.03646 21.2158 5.05816 21.1605 5.10156 21.1155C5.14497 21.0705 5.20139 21.048 5.27083 21.048C5.30556 21.048 5.38368 21.0787 5.50521 21.1401C5.62674 21.2015 5.75911 21.269 5.90234 21.3426C6.04557 21.4163 6.13455 21.4613 6.16927 21.4777C6.80295 21.7805 7.49523 22.0322 8.24609 22.2327C8.99696 22.4332 9.68056 22.5335 10.2969 22.5335C11.1215 22.5335 11.8464 22.4741 12.4714 22.3555C13.0964 22.2368 13.7778 22.0301 14.5156 21.7355C14.6458 21.6782 14.7782 21.6148 14.9128 21.5452C15.0473 21.4756 15.1949 21.3979 15.3555 21.3119C15.5161 21.226 15.6398 21.1585 15.7266 21.1094L15.1667 20.2132ZM21 6.96652V20.2132L10.9219 17.1931C10.8003 17.2422 9.17274 17.764 6.03906 18.7584C2.90538 19.7528 1.30816 20.25 1.2474 20.25C1.13455 20.25 1.05642 20.1968 1.01302 20.0904C1.01302 20.0822 1.00868 20.0699 1 20.0536V6.8192C1.02604 6.74554 1.0434 6.70461 1.05208 6.69643C1.09549 6.64732 1.18229 6.60231 1.3125 6.56138C2.24132 6.26674 2.88802 6.06213 3.2526 5.94754V1.23326L10.5182 3.66406C10.5356 3.66406 11.2322 3.43899 12.6081 2.98884C13.9839 2.53869 15.3555 2.09468 16.7227 1.65681C18.0898 1.21894 18.7908 1 18.8255 1C18.9991 1 19.0859 1.08594 19.0859 1.25781V6.38951L21 6.96652Z" stroke="#2F2F2F" stroke-width="0.4" mask="url(#path-1-outside-1_104_1042)"/>
</svg>
