<svg width="18" height="18" viewBox="0 0 18 18" fill="none" xmlns="http://www.w3.org/2000/svg">
<path d="M9 2.81236C10.2238 2.81236 11.4201 3.17525 12.4376 3.85514C13.4551 4.53503 14.2482 5.50139 14.7165 6.632C15.1848 7.76262 15.3074 9.00672 15.0686 10.207C14.8299 11.4072 14.2406 12.5097 13.3752 13.3751C12.5099 14.2404 11.4074 14.8297 10.2071 15.0685C9.00687 15.3072 7.76276 15.1847 6.63215 14.7164C5.50153 14.248 4.53517 13.455 3.85528 12.4374C3.17539 11.4199 2.8125 10.2236 2.8125 8.99986C2.8125 8.72635 2.70385 8.46405 2.51045 8.27065C2.31706 8.07726 2.05475 7.96861 1.78125 7.96861C1.50775 7.96861 1.24544 8.07726 1.05205 8.27065C0.858649 8.46405 0.75 8.72635 0.75 8.99986C0.750186 10.851 1.37293 12.6483 2.51808 14.1027C3.66323 15.5571 5.26425 16.5841 7.06367 17.0186C8.86309 17.453 10.7563 17.2697 12.439 16.4981C14.1216 15.7265 15.4958 14.4113 16.3407 12.7643C17.1855 11.1172 17.4519 9.23379 17.0969 7.41701C16.7419 5.60023 15.7863 3.95563 14.3836 2.74767C12.9809 1.5397 11.2127 0.838575 9.3634 0.757035C7.51407 0.675495 5.69105 1.21828 4.1875 2.29811V1.78111C4.1875 1.5076 4.07885 1.2453 3.88545 1.0519C3.69206 0.858505 3.42975 0.749856 3.15625 0.749856C2.88275 0.749856 2.62044 0.858505 2.42705 1.0519C2.23365 1.2453 2.125 1.5076 2.125 1.78111V5.21861C2.125 5.78786 2.587 6.24986 3.15625 6.24986H5.21875C5.49225 6.24986 5.75456 6.14121 5.94795 5.94781C6.14135 5.75441 6.25 5.49211 6.25 5.21861C6.25 4.9451 6.14135 4.6828 5.94795 4.4894C5.75456 4.29601 5.49225 4.18736 5.21875 4.18736H5.11013C6.21015 3.29552 7.58387 2.80994 9 2.81236ZM9.6875 5.90611C9.6875 5.6326 9.57885 5.3703 9.38545 5.1769C9.19206 4.98351 8.92976 4.87486 8.65625 4.87486C8.38275 4.87486 8.12044 4.98351 7.92705 5.1769C7.73365 5.3703 7.625 5.6326 7.625 5.90611V9.34361C7.625 9.91286 8.087 10.3749 8.65625 10.3749H10.7188C10.9923 10.3749 11.2546 10.2662 11.448 10.0728C11.6414 9.87941 11.75 9.61711 11.75 9.34361C11.75 9.0701 11.6414 8.8078 11.448 8.6144C11.2546 8.42101 10.9923 8.31236 10.7188 8.31236H9.6875V5.90611Z" fill="#2F2F2F"/>
</svg>
