<svg width="21" height="19" viewBox="0 0 21 19" fill="none" xmlns="http://www.w3.org/2000/svg">
<path d="M1.27444 1.83439C0.64128 2.52261 0.2875 3.45354 0.2875 4.42188V14.5781C0.2875 15.5465 0.64128 16.4774 1.27444 17.1656C1.90798 17.8542 2.77006 18.2437 3.67188 18.2437H17.3281C18.2299 18.2437 19.092 17.8542 19.7256 17.1656C20.3587 16.4774 20.7125 15.5465 20.7125 14.5781V4.42188C20.7125 3.45354 20.3587 2.52261 19.7256 1.83439C19.092 1.14576 18.2299 0.75625 17.3281 0.75625H3.67188C2.77006 0.75625 1.90798 1.14576 1.27444 1.83439ZM2.51168 3.14237C2.82168 2.80541 3.23932 2.61875 3.67188 2.61875H17.3281C17.7607 2.61875 18.1783 2.80541 18.4883 3.14237C18.7987 3.47974 18.975 3.93981 18.975 4.42188V5.44375H2.025V4.42188C2.025 3.93981 2.2013 3.47974 2.51168 3.14237ZM2.51168 15.8576C2.2013 15.5203 2.025 15.0602 2.025 14.5781V7.30625H18.975V14.5781C18.975 15.0602 18.7987 15.5203 18.4883 15.8576C18.1783 16.1946 17.7607 16.3813 17.3281 16.3813H3.67188C3.23932 16.3813 2.82168 16.1946 2.51168 15.8576ZM16.25 11.6938H14.0938C13.8591 11.6938 13.6369 11.7952 13.4751 11.971C13.3137 12.1464 13.225 12.3819 13.225 12.625C13.225 12.8681 13.3137 13.1036 13.4751 13.279C13.6369 13.4548 13.8591 13.5562 14.0938 13.5562H16.25C16.4846 13.5562 16.7069 13.4548 16.8686 13.279C17.03 13.1036 17.1187 12.8681 17.1187 12.625C17.1187 12.3819 17.03 12.1464 16.8686 11.971C16.7069 11.7952 16.4846 11.6938 16.25 11.6938Z" fill="#2F2F2F" stroke="#2F2F2F" stroke-width="0.3"/>
</svg>
