<svg width="25" height="25" viewBox="0 0 25 25" fill="none" xmlns="http://www.w3.org/2000/svg">
<path d="M16.424 17.4663L18.454 15.4363C18.7275 15.1663 19.0734 14.9814 19.4498 14.9042C19.8263 14.827 20.217 14.8607 20.5747 15.0013L23.0487 15.9891C23.4101 16.1358 23.7201 16.3862 23.9394 16.7088C24.1587 17.0313 24.2777 17.4116 24.2812 17.8016V22.3328C24.2791 22.5982 24.2234 22.8603 24.1173 23.1035C24.0112 23.3468 23.857 23.566 23.6639 23.748C23.4709 23.9301 23.243 24.0711 22.994 24.1628C22.745 24.2544 22.48 24.2947 22.215 24.2813C4.87842 23.2028 1.3803 8.5216 0.718734 2.90285C0.688024 2.62693 0.716083 2.34763 0.801065 2.08334C0.886047 1.81904 1.02603 1.57573 1.21179 1.36942C1.39756 1.1631 1.62491 0.99846 1.87888 0.88632C2.13284 0.77418 2.40768 0.717083 2.6853 0.718787H7.06248C7.45309 0.719943 7.83441 0.837929 8.15741 1.05757C8.48041 1.27721 8.73032 1.58846 8.87498 1.95129L9.8628 4.42535C10.008 4.78157 10.0451 5.17268 9.96932 5.54984C9.89357 5.92699 9.70837 6.27346 9.43686 6.54597L7.40686 8.57597C7.40686 8.57597 8.57592 16.4875 16.424 17.4663Z" fill="#005992" fill-opacity="0.8"/>
</svg>
