<svg width="16" height="18" viewBox="0 0 16 18" fill="none" xmlns="http://www.w3.org/2000/svg">
<path d="M11.9164 16.8135L12 16.852L12.0836 16.8135L13.367 16.2232L13.3675 16.223C13.9136 15.9699 14.3759 15.5715 14.7005 15.073C15.025 14.5745 15.1984 13.9964 15.2 13.4054V13.4048V9.63184V9.43184H15H9H8.8V9.63184L8.8 13.4043L8.8 13.4048C8.80161 13.9958 8.97498 14.5739 9.29955 15.0724C9.62408 15.5709 10.0864 15.9693 10.6325 16.2224L10.633 16.2226L11.9164 16.8135ZM10.6482 14.2305C10.4868 13.9829 10.401 13.6966 10.4 13.4045V10.9985H13.6L13.6 13.4043C13.6 13.4043 13.6 13.4044 13.6 13.4044C13.5991 13.6967 13.5134 13.9831 13.352 14.2309C13.1906 14.4787 12.9599 14.6778 12.6859 14.8047C12.6859 14.8047 12.6858 14.8047 12.6858 14.8048L12.0001 15.1202L11.3142 14.8042C11.3141 14.8041 11.3141 14.8041 11.314 14.8041C11.0402 14.6772 10.8096 14.4782 10.6482 14.2305Z" fill="#2F2F2F" stroke="#2F2F2F" stroke-width="0.4"/>
<path d="M8.39988 15.489V15.289H8.19988H2.39998V1.97487H6.7999L6.7999 5.2034L6.7999 5.20403C6.80103 5.56291 6.9513 5.90469 7.21449 6.15534C7.47734 6.40569 7.83156 6.5452 8.19931 6.54625H8.19988H11.5998V8.06051V8.26051H11.7998H12.9998H13.1998V8.06051V5.20599C13.2023 5.1015 13.1812 4.99797 13.1382 4.90254C13.0956 4.80788 13.0327 4.72375 12.9543 4.65534L8.76126 0.661915C8.68921 0.586969 8.60182 0.528094 8.50522 0.488664C8.40776 0.448886 8.30284 0.429667 8.19747 0.43203L2.19998 0.432029L2.19941 0.432031C1.83166 0.433077 1.47744 0.572589 1.21458 0.822933C0.951398 1.07359 0.801126 1.41537 0.800001 1.77425H0.8V1.77487L0.799999 15.489L0.800001 15.4896C0.801126 15.8485 0.951397 16.1903 1.21458 16.4409C1.47744 16.6913 1.83166 16.8308 2.19941 16.8318H2.19998H8.19988H8.39988V16.6318V15.489ZM8.39988 5.0034V2.47011L11.0598 5.0034H8.39988Z" fill="#2F2F2F" stroke="#2F2F2F" stroke-width="0.4"/>
</svg>
