<svg width="18" height="18" viewBox="0 0 18 18" fill="none" xmlns="http://www.w3.org/2000/svg">
<path d="M8.30556 1.60659C8.54556 0.973586 9.45381 0.973586 9.69456 1.60659L11.2471 5.90709C11.3012 6.04718 11.3966 6.16755 11.5206 6.25231C11.6446 6.33707 11.7914 6.38223 11.9416 6.38184H15.7568C16.4618 6.38184 16.7693 7.25934 16.2151 7.68909L13.5001 10.1318C13.3784 10.2253 13.2896 10.3549 13.2462 10.5021C13.2028 10.6492 13.2071 10.8063 13.2586 10.9508L14.2501 15.1531C14.4916 15.8281 13.7101 16.4078 13.1191 15.9923L9.43131 13.6523C9.30502 13.5636 9.15442 13.516 9.00006 13.516C8.8457 13.516 8.6951 13.5636 8.56881 13.6523L4.88106 15.9923C4.29081 16.4078 3.50856 15.8273 3.75006 15.1531L4.74156 10.9508C4.79299 10.8063 4.79733 10.6492 4.75394 10.5021C4.71055 10.3549 4.62167 10.2253 4.50006 10.1318L1.78506 7.68909C1.23006 7.25934 1.53906 6.38184 2.24256 6.38184H6.05781C6.20803 6.38234 6.35486 6.33721 6.47887 6.25244C6.60288 6.16767 6.69824 6.04724 6.75231 5.90709L8.30481 1.60659H8.30556Z" stroke="#2F2F2F" stroke-width="2" stroke-linecap="round" stroke-linejoin="round"/>
</svg>
