<svg width="23" height="25" viewBox="0 0 23 25" fill="none" xmlns="http://www.w3.org/2000/svg">
<path d="M10.5183 0.928467C10.254 0.928394 9.99703 1.01519 9.78691 1.17548C9.57678 1.33578 9.42516 1.5607 9.35538 1.81561L6.36031 12.741H12.7053C12.8971 12.741 13.0811 12.8172 13.2167 12.9528C13.3523 13.0884 13.4285 13.2724 13.4285 13.4642C13.4285 13.656 13.3523 13.8399 13.2167 13.9756C13.0811 14.1112 12.8971 14.1874 12.7053 14.1874H5.96399L5.30249 16.5981H13.6696C13.8614 16.5981 14.0454 16.6743 14.181 16.8099C14.3166 16.9456 14.3928 17.1295 14.3928 17.3213C14.3928 17.5131 14.3166 17.6971 14.181 17.8327C14.0454 17.9683 13.8614 18.0445 13.6696 18.0445H4.90617L3.65067 22.6249H0.972848C0.78104 22.6249 0.597087 22.7011 0.461458 22.8367C0.325829 22.9723 0.249634 23.1563 0.249634 23.3481C0.249634 23.5399 0.325829 23.7239 0.461458 23.8595C0.597087 23.9951 0.78104 24.0713 0.972848 24.0713H22.0261C22.2179 24.0713 22.4019 23.9951 22.5375 23.8595C22.6731 23.7239 22.7493 23.5399 22.7493 23.3481C22.7493 23.1563 22.6731 22.9723 22.5375 22.8367C22.4019 22.7011 22.2179 22.6249 22.0261 22.6249H19.3502L13.6455 1.81561C13.5757 1.56054 13.4239 1.3355 13.2136 1.17519C13.0033 1.01488 12.7461 0.928183 12.4816 0.928467H10.5173H10.5183Z" fill="#005992" fill-opacity="0.8"/>
</svg>
