<svg width="176" height="176" viewBox="0 0 176 176" fill="none" xmlns="http://www.w3.org/2000/svg">
<path d="M117.25 175.75H97.75V156.25H117.25V175.75ZM97.75 107.5H78.25V156.25H97.75V107.5ZM175.75 88H156.25V127H175.75V88ZM156.25 68.5H136.75V88H156.25V68.5ZM39.25 88H19.75V107.5H39.25V88ZM19.75 68.5H0.25V88H19.75V68.5ZM88 19.75H107.5V0.25H88V19.75ZM14.875 14.875V44.125H44.125V14.875H14.875ZM49 58.75H10C4.6375 58.75 0.25 54.3625 0.25 49V10C0.25 4.6375 4.6375 0.25 10 0.25H49C54.3625 0.25 58.75 4.6375 58.75 10V49C58.75 54.3625 54.3625 58.75 49 58.75ZM14.875 131.875V161.125H44.125V131.875H14.875ZM49 175.75H10C4.6375 175.75 0.25 171.363 0.25 166V127C0.25 121.637 4.6375 117.25 10 117.25H49C54.3625 117.25 58.75 121.637 58.75 127V166C58.75 171.363 54.3625 175.75 49 175.75ZM131.875 14.875V44.125H161.125V14.875H131.875ZM166 58.75H127C121.637 58.75 117.25 54.3625 117.25 49V10C117.25 4.6375 121.637 0.25 127 0.25H166C171.363 0.25 175.75 4.6375 175.75 10V49C175.75 54.3625 171.363 58.75 166 58.75ZM156.25 156.25V127H117.25V146.5H136.75V175.75H175.75V156.25H156.25ZM136.75 88H97.75V107.5H136.75V88ZM97.75 68.5H39.25V88H58.75V107.5H78.25V88H97.75V68.5ZM107.5 58.75V39.25H88V19.75H68.5V58.75H107.5ZM36.8125 22.1875H22.1875V36.8125H36.8125V22.1875ZM36.8125 139.188H22.1875V153.812H36.8125V139.188ZM153.812 22.1875H139.188V36.8125H153.812V22.1875Z" fill="#005992" fill-opacity="0.7"/>
</svg>
