<svg width="22" height="20" viewBox="0 0 22 20" fill="none" xmlns="http://www.w3.org/2000/svg">
<path d="M8.38021 18.787C6.86407 18.3344 5.49096 17.4969 4.39454 16.356C4.74731 15.9376 4.96722 15.4235 5.02612 14.8794C5.08503 14.3353 4.98025 13.786 4.7252 13.3018C4.47015 12.8176 4.07643 12.4205 3.59442 12.1613C3.11241 11.9022 2.56403 11.7927 2.01946 11.847C1.8954 11.2393 1.83305 10.6206 1.83338 10.0003C1.83338 9.04241 1.98004 8.11841 2.25321 7.25033H2.29171C2.7591 7.25048 3.21881 7.1315 3.62744 6.90463C4.03608 6.67776 4.38015 6.35048 4.62716 5.9537C4.87417 5.55692 5.01598 5.10373 5.0392 4.63692C5.06241 4.1701 4.96626 3.70508 4.75983 3.28575C5.83444 2.28512 7.13403 1.55775 8.54888 1.16504C8.77913 1.61714 9.12997 1.99673 9.56257 2.26181C9.99518 2.52689 10.4927 2.66712 11 2.667C11.5074 2.66712 12.0049 2.52689 12.4375 2.26181C12.8701 1.99673 13.221 1.61714 13.4512 1.16504C14.8661 1.55775 16.1656 2.28512 17.2403 3.28575C17.0323 3.70802 16.9362 4.17659 16.9612 4.64661C16.9862 5.11663 17.1314 5.57238 17.383 5.97022C17.6345 6.36806 17.9839 6.69468 18.3978 6.91881C18.8117 7.14295 19.2762 7.2571 19.7469 7.25033C20.026 8.14028 20.1676 9.06764 20.1667 10.0003C20.1667 10.6328 20.1025 11.2507 19.9806 11.8474C19.4361 11.7932 18.8877 11.9026 18.4057 12.1618C17.9236 12.421 17.5299 12.8181 17.2749 13.3023C17.0198 13.7865 16.9151 14.3358 16.974 14.8799C17.0329 15.424 17.2528 15.9381 17.6055 16.3565C16.5091 17.4971 15.136 18.3345 13.6199 18.787C13.4418 18.2321 13.0922 17.7481 12.6214 17.4047C12.1505 17.0613 11.5828 16.8762 11 16.8762C10.4173 16.8762 9.84955 17.0613 9.37872 17.4047C8.90788 17.7481 8.55825 18.2321 8.38021 18.787Z" stroke="#2F2F2F" stroke-width="2" stroke-linejoin="round"/>
<path d="M11.0001 13.2087C11.4214 13.2087 11.8386 13.1257 12.2279 12.9644C12.6171 12.8032 12.9708 12.5669 13.2687 12.269C13.5666 11.971 13.803 11.6174 13.9642 11.2281C14.1254 10.8388 14.2084 10.4216 14.2084 10.0003C14.2084 9.579 14.1254 9.1618 13.9642 8.77255C13.803 8.3833 13.5666 8.02961 13.2687 7.73169C12.9708 7.43377 12.6171 7.19745 12.2279 7.03621C11.8386 6.87498 11.4214 6.79199 11.0001 6.79199C10.1492 6.79199 9.33313 7.13001 8.73145 7.73169C8.12977 8.33337 7.79175 9.14942 7.79175 10.0003C7.79175 10.8512 8.12977 11.6673 8.73145 12.269C9.33313 12.8706 10.1492 13.2087 11.0001 13.2087V13.2087Z" stroke="#2F2F2F" stroke-width="2" stroke-linejoin="round"/>
</svg>
