<svg width="30" height="18" viewBox="0 0 30 18" fill="none" xmlns="http://www.w3.org/2000/svg">
<path d="M10.25 15.9375C10.25 15.6226 10.3751 15.3205 10.5978 15.0978C10.8205 14.8751 11.1226 14.75 11.4375 14.75H18.5625C18.8774 14.75 19.1795 14.8751 19.4022 15.0978C19.6249 15.3205 19.75 15.6226 19.75 15.9375C19.75 16.2524 19.6249 16.5545 19.4022 16.7772C19.1795 16.9999 18.8774 17.125 18.5625 17.125H11.4375C11.1226 17.125 10.8205 16.9999 10.5978 16.7772C10.3751 16.5545 10.25 16.2524 10.25 15.9375ZM5.5 8.8125C5.5 8.49756 5.62511 8.19551 5.84781 7.97281C6.07051 7.75011 6.37256 7.625 6.6875 7.625H23.3125C23.6274 7.625 23.9295 7.75011 24.1522 7.97281C24.3749 8.19551 24.5 8.49756 24.5 8.8125C24.5 9.12744 24.3749 9.42949 24.1522 9.65219C23.9295 9.87489 23.6274 10 23.3125 10H6.6875C6.37256 10 6.07051 9.87489 5.84781 9.65219C5.62511 9.42949 5.5 9.12744 5.5 8.8125ZM0.75 1.6875C0.75 1.37256 0.875111 1.07051 1.09781 0.847811C1.32051 0.625111 1.62256 0.5 1.9375 0.5H28.0625C28.3774 0.5 28.6795 0.625111 28.9022 0.847811C29.1249 1.07051 29.25 1.37256 29.25 1.6875C29.25 2.00244 29.1249 2.30449 28.9022 2.52719C28.6795 2.74989 28.3774 2.875 28.0625 2.875H1.9375C1.62256 2.875 1.32051 2.74989 1.09781 2.52719C0.875111 2.30449 0.75 2.00244 0.75 1.6875Z" fill="#2F2F2F"/>
</svg>
