<svg width="27" height="25" viewBox="0 0 27 25" fill="none" xmlns="http://www.w3.org/2000/svg">
<path d="M25.4911 8.68927L17.8047 7.57218L14.3687 0.606261C14.2748 0.415539 14.1204 0.261144 13.9297 0.167296C13.4514 -0.0688365 12.8701 0.127941 12.631 0.606261L9.19495 7.57218L1.50853 8.68927C1.29661 8.71954 1.10286 8.81944 0.954523 8.97081C0.775188 9.15514 0.676367 9.40312 0.679773 9.66026C0.683179 9.91741 0.788533 10.1627 0.972687 10.3422L6.53392 15.7642L5.22005 23.4203C5.18924 23.5984 5.20895 23.7816 5.27694 23.9491C5.34493 24.1165 5.45849 24.2616 5.60473 24.3678C5.75097 24.474 5.92405 24.5371 6.10434 24.55C6.28462 24.5628 6.4649 24.5249 6.62474 24.4405L13.4998 20.8259L20.3749 24.4405C20.5626 24.5404 20.7806 24.5737 20.9895 24.5374C21.5162 24.4466 21.8704 23.9471 21.7796 23.4203L20.4658 15.7642L26.027 10.3422C26.1784 10.1939 26.2783 10.0001 26.3085 9.78819C26.3903 9.25841 26.0209 8.76798 25.4911 8.68927Z" fill="#FEBF1F"/>
</svg>
