<svg width="77" height="77" viewBox="0 0 77 77" fill="none" xmlns="http://www.w3.org/2000/svg">
<circle cx="38.5" cy="38.5" r="36" fill="#005992" stroke="#F3FCF4" stroke-width="5"/>
<path d="M25.1679 38.6953C25.2413 35.1352 26.6903 31.7417 29.2109 29.2266C30.4804 27.957 31.957 26.957 33.6015 26.2617C35.3047 25.543 37.1133 25.1758 38.9765 25.1758C40.8437 25.1758 42.6523 25.5391 44.3515 26.2617C45.9961 26.957 47.4726 27.957 48.7422 29.2266C49.1328 29.6172 49.4961 30.0273 49.832 30.4531L47.8789 31.9805C47.8323 32.0165 47.7969 32.0649 47.7767 32.1201C47.7564 32.1753 47.7522 32.2351 47.7644 32.2927C47.7767 32.3502 47.8049 32.4031 47.8459 32.4453C47.8869 32.4875 47.9389 32.5173 47.9961 32.5312L54.1211 34.0273C54.3164 34.0742 54.5078 33.9258 54.5078 33.7266L54.539 27.418C54.539 27.1562 54.2383 27.0078 54.0351 27.1719L52.1679 28.6328C49.1054 24.7148 44.3359 22.2031 38.9804 22.2031C29.8203 22.2031 22.3711 29.5508 22.2031 38.6797C22.2021 38.7214 22.2094 38.7629 22.2246 38.8017C22.2398 38.8405 22.2627 38.8759 22.2918 38.9057C22.3209 38.9356 22.3557 38.9593 22.3942 38.9755C22.4326 38.9917 22.4739 39 22.5156 39H24.8594C25.0273 39 25.164 38.8633 25.1679 38.6953ZM55.4843 39H53.1406C52.9726 39 52.832 39.1367 52.8281 39.3047C52.7547 42.8648 51.3058 46.2583 48.7851 48.7734C47.5273 50.0366 46.0361 51.0435 44.3945 51.7383C42.6914 52.457 40.8828 52.8242 39.0195 52.8242C37.1562 52.8242 35.3437 52.4609 33.6445 51.7383C32.0029 51.0435 30.5118 50.0366 29.2539 48.7734C28.8633 48.3828 28.5 47.9727 28.164 47.5469L30.1133 46.0195C30.1598 45.9835 30.1952 45.9351 30.2155 45.8799C30.2357 45.8247 30.2399 45.7649 30.2277 45.7073C30.2155 45.6498 30.1872 45.5969 30.1463 45.5547C30.1053 45.5125 30.0532 45.4827 29.9961 45.4688L23.8711 43.9727C23.6758 43.9258 23.4844 44.0742 23.4844 44.2734L23.4531 50.5898C23.4531 50.8516 23.7539 51 23.957 50.8359L25.8242 49.375C28.8945 53.2852 33.664 55.7969 39.0195 55.7969C48.1797 55.7969 55.6289 48.4492 55.7968 39.3203C55.7979 39.2786 55.7906 39.2371 55.7753 39.1983C55.7601 39.1595 55.7372 39.1241 55.7081 39.0943C55.679 39.0644 55.6442 39.0407 55.6058 39.0245C55.5673 39.0083 55.5261 39 55.4843 39Z" fill="white"/>
</svg>
