<svg width="23" height="26" viewBox="0 0 23 26" fill="none" xmlns="http://www.w3.org/2000/svg">
<path d="M1.09496 13.5417H3.28571V23.1111H6.57142V14.9861H9.85713V23.1111H13.1428V14.9861H16.4285V23.1111H19.7143V13.5417H21.9042C22.5088 13.5417 23 13.0101 23 12.5313C23 12.2417 22.8184 11.9152 22.5441 11.7578L22.5457 11.7202L22.5285 11.6935L22.6385 11.6697L12.3214 5.0115V3.64506C13.9643 4.40989 15.5669 3.09256 18.0714 3.88483V0.866666C15.5652 0.075111 13.9643 1.39172 12.3214 0.626889V0.433333C12.3214 0.194278 11.8031 0 11.5 0C11.1969 0 10.6786 0.194278 10.6786 0.433333V5.0115L0.362249 11.6603L0.584856 11.6754L0.821427 11.6834V11.6848C-1.95844e-07 11.8423 0.184 12.2409 0.184 12.5306C0.183178 13.0101 0.490392 13.5417 1.09496 13.5417ZM2.46428 23.8333L0 26H23L20.5357 23.8333H2.46428Z" fill="#005992" fill-opacity="0.8"/>
</svg>
