<svg width="15" height="18" viewBox="0 0 15 18" fill="none" xmlns="http://www.w3.org/2000/svg">
<path d="M10 14.5096L8.86238 13.0589L8.705 12.8582L8.54762 13.0589L7.84262 13.9579L7.74584 14.0814L7.84262 14.2048L9.84262 16.7552L10 16.9559L10.1574 16.7552L14.1574 11.6543L14.2542 11.5309L14.1574 11.4075L13.4524 10.5084L13.295 10.3077L13.1376 10.5084L10 14.5096Z" fill="#2F2F2F" stroke="#2F2F2F" stroke-width="0.4"/>
<path d="M6.14992 15.489V15.289H5.94992H2.29998V1.97487H6.29991L6.29991 5.2034L6.29991 5.20398C6.30093 5.55724 6.43638 5.89718 6.67895 6.14921C6.92177 6.40149 7.25246 6.54517 7.59927 6.54625H7.59989H10.6998V9.77478V9.97478H10.8998H11.9998H12.1998V9.77478V5.20578C12.2021 5.10389 12.1833 5.00249 12.1444 4.90834L11.9595 4.98461L12.1444 4.90834C12.1059 4.81504 12.0485 4.73075 11.9756 4.66132L8.13227 0.668176C8.06563 0.592585 7.98378 0.532059 7.89186 0.491128L7.81097 0.672776L7.89185 0.491127C7.79914 0.449846 7.69866 0.429609 7.5973 0.43203L2.09998 0.432029L2.09936 0.432031C1.75255 0.433107 1.42186 0.576786 1.17904 0.829067C0.936468 1.08109 0.801016 1.42104 0.8 1.7743V1.77487L0.799999 15.489L0.800001 15.4896C0.801016 15.8428 0.936468 16.1828 1.17904 16.4348C1.42186 16.6871 1.75255 16.8308 2.09936 16.8318H2.09998H5.94992H6.14992V16.6318V15.489ZM7.79989 5.0034V2.49964L10.2098 5.0034H7.79989Z" fill="#2F2F2F" stroke="#2F2F2F" stroke-width="0.4"/>
</svg>
