<svg width="41" height="41" viewBox="0 0 41 41" fill="none" xmlns="http://www.w3.org/2000/svg">
<path d="M20.3968 0.820312C9.5277 0.820312 0.716797 9.63121 0.716797 20.5003C0.716797 31.3694 9.5277 40.1803 20.3968 40.1803C31.2659 40.1803 40.0768 31.3694 40.0768 20.5003C40.0768 9.63121 31.2659 0.820312 20.3968 0.820312ZM28.402 16.9415C28.4102 17.1096 28.4123 17.2777 28.4123 17.4417C28.4123 22.5667 24.5152 28.4728 17.3853 28.4728C15.2786 28.4763 13.2156 27.8712 11.4444 26.7303C11.7458 26.7672 12.0553 26.7815 12.369 26.7815C14.1853 26.7815 15.856 26.1645 17.1824 25.1231C16.3741 25.1072 15.5909 24.8395 14.942 24.3574C14.293 23.8753 13.8107 23.2027 13.5621 22.4335C14.1426 22.5438 14.7405 22.5207 15.3107 22.3658C14.4334 22.1884 13.6445 21.713 13.0777 21.0203C12.5109 20.3276 12.2011 19.4602 12.2009 18.5651V18.518C12.7236 18.807 13.3222 18.9833 13.9577 19.0038C13.1353 18.4563 12.5531 17.6153 12.3301 16.6527C12.1072 15.6902 12.2605 14.6788 12.7585 13.8255C13.7322 15.0227 14.9464 16.0021 16.3226 16.7002C17.6987 17.3984 19.2062 17.7998 20.7473 17.8784C20.5514 17.0467 20.6357 16.1736 20.9872 15.3948C21.3387 14.616 21.9376 13.9751 22.6909 13.5719C23.4442 13.1686 24.3096 13.0254 25.1526 13.1647C25.9956 13.304 26.7689 13.7179 27.3524 14.3421C28.2199 14.1705 29.0519 13.8523 29.8124 13.4012C29.5233 14.2993 28.918 15.062 28.1089 15.5475C28.8773 15.455 29.6277 15.2484 30.3352 14.9346C29.8155 15.7133 29.1608 16.393 28.402 16.9415Z" fill="#005992" fill-opacity="0.7"/>
</svg>
