<svg width="35" height="23" viewBox="0 0 35 23" fill="none" xmlns="http://www.w3.org/2000/svg">
<path d="M26.6228 6.61825C26.1398 6.61825 25.6672 6.662 25.207 6.73725C24.059 2.9835 20.503 0.25 16.2908 0.25C11.1475 0.25 6.98075 4.324 6.98075 9.34825C6.98075 9.79625 7.01575 10.2373 7.0805 10.6712C6.83143 10.6404 6.58072 10.6246 6.32975 10.624C2.83325 10.624 0 13.3925 0 16.8103C0 20.228 2.83325 23 6.32975 23H14V16H9.625L17.5 7.25L25.375 16H21V23H26.6228C31.248 23 35 19.332 35 14.81C35 10.2845 31.248 6.61825 26.6228 6.61825Z" fill="#005992" fill-opacity="0.5"/>
</svg>
