<svg width="22" height="20" viewBox="0 0 22 20" fill="none" xmlns="http://www.w3.org/2000/svg">
<path d="M17.029 1.13672H4.39135C2.64645 1.13672 1.23193 2.55124 1.23193 4.29614V14.8275C1.23193 16.5724 2.64645 17.987 4.39135 17.987H17.029C18.7739 17.987 20.1885 16.5724 20.1885 14.8275V4.29614C20.1885 2.55124 18.7739 1.13672 17.029 1.13672Z" stroke="#2F2F2F" stroke-width="2.10628" stroke-linecap="round" stroke-linejoin="round"/>
<path d="M7.55074 9.56217C8.714 9.56217 9.65702 8.61916 9.65702 7.45589C9.65702 6.29262 8.714 5.34961 7.55074 5.34961C6.38747 5.34961 5.44446 6.29262 5.44446 7.45589C5.44446 8.61916 6.38747 9.56217 7.55074 9.56217Z" stroke="#2F2F2F" stroke-width="2.10628" stroke-linecap="round" stroke-linejoin="round"/>
<path d="M5.44446 13.7747H15.9759M13.8696 5.34961H15.9759H13.8696ZM13.8696 9.56217H15.9759H13.8696Z" stroke="#2F2F2F" stroke-width="2.10628" stroke-linecap="round" stroke-linejoin="round"/>
</svg>
