<svg xmlns="http://www.w3.org/2000/svg" xmlns:xlink="http://www.w3.org/1999/xlink" width="361.415" height="214" viewBox="0 0 361.415 214">
  <defs>
    <linearGradient id="linear-gradient" y1="0.5" x2="1.732" y2="0.5" gradientUnits="objectBoundingBox">
      <stop offset="0" stop-color="#141638"/>
      <stop offset="1" stop-color="#192852"/>
    </linearGradient>
  </defs>
  <g id="Group_675" data-name="Group 675" transform="translate(6706.708 -11755)">
    <rect id="Rectangle_45" data-name="Rectangle 45" width="360" height="214" rx="20" transform="translate(-6706 11755)" fill="url(#linear-gradient)"/>
    <g id="Group_671" data-name="Group 671" transform="translate(-371.921 904.873)">
      <g id="Group_669" data-name="Group 669" transform="translate(-6184.843 10872.637)">
        <path id="Path_62" data-name="Path 62" d="M-6184.843,10884.783l12.244-12.172" transform="translate(6184.843 -10872.476)" fill="none" stroke="#2751a0" stroke-linecap="round" stroke-width="1"/>
        <path id="Path_63" data-name="Path 63" d="M-6184.843,10891.275l19.352-19.191" transform="translate(6184.843 -10871.948)" fill="none" stroke="#2751a0" stroke-linecap="round" stroke-width="1"/>
        <path id="Path_64" data-name="Path 64" d="M-6184.843,10898.439l26.305-26.281" transform="translate(6184.843 -10871.988)" fill="none" stroke="#2751a0" stroke-linecap="round" stroke-width="1"/>
        <path id="Path_65" data-name="Path 65" d="M-6184.843,10905.719l33.567-33.287" transform="translate(6184.843 -10872.262)" fill="none" stroke="#2751a0" stroke-linecap="round" stroke-width="1"/>
        <path id="Path_66" data-name="Path 66" d="M-6184.843,10913.274l40.6-40.441" transform="translate(6184.843 -10872.697)" fill="none" stroke="#2751a0" stroke-linecap="round" stroke-width="1"/>
        <path id="Path_67" data-name="Path 67" d="M-6184.843,10920.077l47.69-47.411" transform="translate(6184.843 -10872.53)" fill="none" stroke="#2751a0" stroke-linecap="round" stroke-width="1"/>
        <path id="Path_68" data-name="Path 68" d="M-6184.843,10926.759l54.414-54.6" transform="translate(6184.843 -10871.989)" fill="none" stroke="#2751a0" stroke-linecap="round" stroke-width="1"/>
        <path id="Path_69" data-name="Path 69" d="M-6184.843,10877.909l5.375-5.272" transform="translate(6184.843 -10872.637)" fill="none" stroke="#2751a0" stroke-linecap="round" stroke-width="1"/>
        <path id="Path_70" data-name="Path 70" d="M-6184.843,10934.689l61.5-61.782" transform="translate(6184.843 -10872.721)" fill="none" stroke="#2751a0" stroke-linecap="round" stroke-width="1"/>
        <path id="Path_71" data-name="Path 71" d="M-6184.843,10940.575l68.315-68.649" transform="translate(6184.843 -10871.79)" fill="none" stroke="#2751a0" stroke-linecap="round" stroke-width="1"/>
        <path id="Path_72" data-name="Path 72" d="M-6184.843,10947.566l75.594-75.49" transform="translate(6184.843 -10872.076)" fill="none" stroke="#2751a0" stroke-linecap="round" stroke-width="1"/>
        <path id="Path_73" data-name="Path 73" d="M-6184.843,10947.566l75.594-75.49" transform="translate(6192.427 -10872.076)" fill="none" stroke="#2751a0" stroke-linecap="round" stroke-width="1"/>
        <path id="Path_74" data-name="Path 74" d="M-6184.843,10947.566l75.594-75.49" transform="translate(6199.322 -10872.076)" fill="none" stroke="#2751a0" stroke-linecap="round" stroke-width="1"/>
        <path id="Path_75" data-name="Path 75" d="M-6184.843,10947.566l75.594-75.49" transform="translate(6206.216 -10872.076)" fill="none" stroke="#2751a0" stroke-linecap="round" stroke-width="1"/>
        <path id="Path_76" data-name="Path 76" d="M-6184.843,10947.566l75.594-75.49" transform="translate(6213.111 -10872.076)" fill="none" stroke="#2751a0" stroke-linecap="round" stroke-width="1"/>
        <path id="Path_77" data-name="Path 77" d="M-6184.843,10947.566l75.594-75.49" transform="translate(6220.695 -10872.076)" fill="none" stroke="#2751a0" stroke-linecap="round" stroke-width="1"/>
        <path id="Path_78" data-name="Path 78" d="M-6184.843,10947.566l75.594-75.49" transform="translate(6227.59 -10872.076)" fill="none" stroke="#2751a0" stroke-linecap="round" stroke-width="1"/>
        <path id="Path_79" data-name="Path 79" d="M-6184.843,10947.566l75.594-75.49" transform="translate(6234.484 -10872.076)" fill="none" stroke="#2751a0" stroke-linecap="round" stroke-width="1"/>
        <path id="Path_80" data-name="Path 80" d="M-6184.843,10947.566l75.594-75.49" transform="translate(6241.379 -10872.076)" fill="none" stroke="#2751a0" stroke-linecap="round" stroke-width="1"/>
        <path id="Path_81" data-name="Path 81" d="M-6184.843,10947.566l75.594-75.49" transform="translate(6248.839 -10872.076)" fill="none" stroke="#2751a0" stroke-linecap="round" stroke-width="1"/>
      </g>
      <g id="Group_670" data-name="Group 670" transform="translate(-5974.078 10948.127) rotate(180)">
        <path id="Path_62-2" data-name="Path 62" d="M0,12.171,12.245,0" transform="translate(0 0.136)" fill="none" stroke="#2751a0" stroke-linecap="round" stroke-width="1"/>
        <path id="Path_63-2" data-name="Path 63" d="M0,19.191,19.352,0" transform="translate(0 0.135)" fill="none" stroke="#2751a0" stroke-linecap="round" stroke-width="1"/>
        <path id="Path_64-2" data-name="Path 64" d="M0,26.28,26.306,0" transform="translate(0 0.17)" fill="none" stroke="#2751a0" stroke-linecap="round" stroke-width="1"/>
        <path id="Path_65-2" data-name="Path 65" d="M0,33.286,33.567,0" transform="translate(0 0.17)" fill="none" stroke="#2751a0" stroke-linecap="round" stroke-width="1"/>
        <path id="Path_66-2" data-name="Path 66" d="M0,40.441,40.6,0" transform="translate(0 0.135)" fill="none" stroke="#2751a0" stroke-linecap="round" stroke-width="1"/>
        <path id="Path_67-2" data-name="Path 67" d="M0,47.41,47.69,0" transform="translate(0 0.135)" fill="none" stroke="#2751a0" stroke-linecap="round" stroke-width="1"/>
        <path id="Path_68-2" data-name="Path 68" d="M0,54.6,54.414,0" transform="translate(0 0.169)" fill="none" stroke="#2751a0" stroke-linecap="round" stroke-width="1"/>
        <path id="Path_69-2" data-name="Path 69" d="M0,5.272,5.375,0" transform="translate(0)" fill="none" stroke="#2751a0" stroke-linecap="round" stroke-width="1"/>
        <path id="Path_70-2" data-name="Path 70" d="M0,61.782,61.5,0" transform="translate(0 0.187)" fill="none" stroke="#2751a0" stroke-linecap="round" stroke-width="1"/>
        <path id="Path_71-2" data-name="Path 71" d="M0,68.648,68.315,0" transform="translate(0 0.135)" fill="none" stroke="#2751a0" stroke-linecap="round" stroke-width="1"/>
        <path id="Path_72-2" data-name="Path 72" d="M0,75.49,75.594,0" transform="translate(0 0)" fill="none" stroke="#2751a0" stroke-linecap="round" stroke-width="1"/>
        <path id="Path_73-2" data-name="Path 73" d="M0,75.49,75.594,0" transform="translate(7.584 0)" fill="none" stroke="#2751a0" stroke-linecap="round" stroke-width="1"/>
        <path id="Path_74-2" data-name="Path 74" d="M0,75.49,75.594,0" transform="translate(14.479 0)" fill="none" stroke="#2751a0" stroke-linecap="round" stroke-width="1"/>
        <path id="Path_75-2" data-name="Path 75" d="M0,75.49,75.594,0" transform="translate(21.374 0)" fill="none" stroke="#2751a0" stroke-linecap="round" stroke-width="1"/>
        <path id="Path_76-2" data-name="Path 76" d="M0,75.49,75.594,0" transform="translate(28.268 0)" fill="none" stroke="#2751a0" stroke-linecap="round" stroke-width="1"/>
        <path id="Path_77-2" data-name="Path 77" d="M0,75.49,75.594,0" transform="translate(35.852 0)" fill="none" stroke="#2751a0" stroke-linecap="round" stroke-width="1"/>
        <path id="Path_78-2" data-name="Path 78" d="M0,75.49,75.594,0" transform="translate(42.747 0)" fill="none" stroke="#2751a0" stroke-linecap="round" stroke-width="1"/>
        <path id="Path_79-2" data-name="Path 79" d="M0,75.49,75.594,0" transform="translate(49.642 0)" fill="none" stroke="#2751a0" stroke-linecap="round" stroke-width="1"/>
        <path id="Path_80-2" data-name="Path 80" d="M0,75.49,75.594,0" transform="translate(56.537 0)" fill="none" stroke="#2751a0" stroke-linecap="round" stroke-width="1"/>
        <path id="Path_81-2" data-name="Path 81" d="M0,75.49,75.594,0" transform="translate(63.997 0)" fill="none" stroke="#2751a0" stroke-linecap="round" stroke-width="1"/>
      </g>
    </g>
    <g id="Group_672" data-name="Group 672" transform="translate(-521.157 942.618)">
      <g id="Group_669-2" data-name="Group 669" transform="translate(-6184.843 10872.637)">
        <path id="Path_62-3" data-name="Path 62" d="M-6184.843,10884.783l12.244-12.172" transform="translate(6184.843 -10872.476)" fill="none" stroke="#2751a0" stroke-linecap="round" stroke-width="1"/>
        <path id="Path_63-3" data-name="Path 63" d="M-6184.843,10891.275l19.352-19.191" transform="translate(6184.843 -10871.948)" fill="none" stroke="#2751a0" stroke-linecap="round" stroke-width="1"/>
        <path id="Path_64-3" data-name="Path 64" d="M-6184.843,10898.439l26.305-26.281" transform="translate(6184.843 -10871.988)" fill="none" stroke="#2751a0" stroke-linecap="round" stroke-width="1"/>
        <path id="Path_65-3" data-name="Path 65" d="M-6184.843,10905.719l33.567-33.287" transform="translate(6184.843 -10872.262)" fill="none" stroke="#2751a0" stroke-linecap="round" stroke-width="1"/>
        <path id="Path_66-3" data-name="Path 66" d="M-6184.843,10913.274l40.6-40.441" transform="translate(6184.843 -10872.697)" fill="none" stroke="#2751a0" stroke-linecap="round" stroke-width="1"/>
        <path id="Path_67-3" data-name="Path 67" d="M-6184.843,10920.077l47.69-47.411" transform="translate(6184.843 -10872.53)" fill="none" stroke="#2751a0" stroke-linecap="round" stroke-width="1"/>
        <path id="Path_68-3" data-name="Path 68" d="M-6184.843,10926.759l54.414-54.6" transform="translate(6184.843 -10871.989)" fill="none" stroke="#2751a0" stroke-linecap="round" stroke-width="1"/>
        <path id="Path_69-3" data-name="Path 69" d="M-6184.843,10877.909l5.375-5.272" transform="translate(6184.843 -10872.637)" fill="none" stroke="#2751a0" stroke-linecap="round" stroke-width="1"/>
        <path id="Path_70-3" data-name="Path 70" d="M-6184.843,10934.689l61.5-61.782" transform="translate(6184.843 -10872.721)" fill="none" stroke="#2751a0" stroke-linecap="round" stroke-width="1"/>
        <path id="Path_71-3" data-name="Path 71" d="M-6184.843,10940.575l68.315-68.649" transform="translate(6184.843 -10871.79)" fill="none" stroke="#2751a0" stroke-linecap="round" stroke-width="1"/>
        <path id="Path_72-3" data-name="Path 72" d="M-6184.843,10947.566l75.594-75.49" transform="translate(6184.843 -10872.076)" fill="none" stroke="#2751a0" stroke-linecap="round" stroke-width="1"/>
        <path id="Path_73-3" data-name="Path 73" d="M-6184.843,10947.566l75.594-75.49" transform="translate(6192.427 -10872.076)" fill="none" stroke="#2751a0" stroke-linecap="round" stroke-width="1"/>
        <path id="Path_74-3" data-name="Path 74" d="M-6184.843,10947.566l75.594-75.49" transform="translate(6199.322 -10872.076)" fill="none" stroke="#2751a0" stroke-linecap="round" stroke-width="1"/>
        <path id="Path_75-3" data-name="Path 75" d="M-6184.843,10947.566l75.594-75.49" transform="translate(6206.216 -10872.076)" fill="none" stroke="#2751a0" stroke-linecap="round" stroke-width="1"/>
        <path id="Path_76-3" data-name="Path 76" d="M-6184.843,10947.566l75.594-75.49" transform="translate(6213.111 -10872.076)" fill="none" stroke="#2751a0" stroke-linecap="round" stroke-width="1"/>
        <path id="Path_77-3" data-name="Path 77" d="M-6184.843,10947.566l75.594-75.49" transform="translate(6220.695 -10872.076)" fill="none" stroke="#2751a0" stroke-linecap="round" stroke-width="1"/>
        <path id="Path_78-3" data-name="Path 78" d="M-6184.843,10947.566l75.594-75.49" transform="translate(6227.59 -10872.076)" fill="none" stroke="#2751a0" stroke-linecap="round" stroke-width="1"/>
        <path id="Path_79-3" data-name="Path 79" d="M-6184.843,10947.566l75.594-75.49" transform="translate(6234.484 -10872.076)" fill="none" stroke="#2751a0" stroke-linecap="round" stroke-width="1"/>
        <path id="Path_80-3" data-name="Path 80" d="M-6184.843,10947.566l75.594-75.49" transform="translate(6241.379 -10872.076)" fill="none" stroke="#2751a0" stroke-linecap="round" stroke-width="1"/>
        <path id="Path_81-3" data-name="Path 81" d="M-6184.843,10947.566l75.594-75.49" transform="translate(6248.839 -10872.076)" fill="none" stroke="#2751a0" stroke-linecap="round" stroke-width="1"/>
      </g>
      <g id="Group_670-2" data-name="Group 670" transform="translate(-5974.078 10948.127) rotate(180)">
        <path id="Path_62-4" data-name="Path 62" d="M0,12.171,12.245,0" transform="translate(0 0.136)" fill="none" stroke="#2751a0" stroke-linecap="round" stroke-width="1"/>
        <path id="Path_63-4" data-name="Path 63" d="M0,19.191,19.352,0" transform="translate(0 0.135)" fill="none" stroke="#2751a0" stroke-linecap="round" stroke-width="1"/>
        <path id="Path_64-4" data-name="Path 64" d="M0,26.28,26.306,0" transform="translate(0 0.17)" fill="none" stroke="#2751a0" stroke-linecap="round" stroke-width="1"/>
        <path id="Path_65-4" data-name="Path 65" d="M0,33.286,33.567,0" transform="translate(0 0.17)" fill="none" stroke="#2751a0" stroke-linecap="round" stroke-width="1"/>
        <path id="Path_66-4" data-name="Path 66" d="M0,40.441,40.6,0" transform="translate(0 0.135)" fill="none" stroke="#2751a0" stroke-linecap="round" stroke-width="1"/>
        <path id="Path_67-4" data-name="Path 67" d="M0,47.41,47.69,0" transform="translate(0 0.135)" fill="none" stroke="#2751a0" stroke-linecap="round" stroke-width="1"/>
        <path id="Path_68-4" data-name="Path 68" d="M0,54.6,54.414,0" transform="translate(0 0.169)" fill="none" stroke="#2751a0" stroke-linecap="round" stroke-width="1"/>
        <path id="Path_69-4" data-name="Path 69" d="M0,5.272,5.375,0" transform="translate(0)" fill="none" stroke="#2751a0" stroke-linecap="round" stroke-width="1"/>
        <path id="Path_70-4" data-name="Path 70" d="M0,61.782,61.5,0" transform="translate(0 0.187)" fill="none" stroke="#2751a0" stroke-linecap="round" stroke-width="1"/>
        <path id="Path_71-4" data-name="Path 71" d="M0,68.648,68.315,0" transform="translate(0 0.135)" fill="none" stroke="#2751a0" stroke-linecap="round" stroke-width="1"/>
        <path id="Path_72-4" data-name="Path 72" d="M0,75.49,75.594,0" transform="translate(0 0)" fill="none" stroke="#2751a0" stroke-linecap="round" stroke-width="1"/>
        <path id="Path_73-4" data-name="Path 73" d="M0,75.49,75.594,0" transform="translate(7.584 0)" fill="none" stroke="#2751a0" stroke-linecap="round" stroke-width="1"/>
        <path id="Path_74-4" data-name="Path 74" d="M0,75.49,75.594,0" transform="translate(14.479 0)" fill="none" stroke="#2751a0" stroke-linecap="round" stroke-width="1"/>
        <path id="Path_75-4" data-name="Path 75" d="M0,75.49,75.594,0" transform="translate(21.374 0)" fill="none" stroke="#2751a0" stroke-linecap="round" stroke-width="1"/>
        <path id="Path_76-4" data-name="Path 76" d="M0,75.49,75.594,0" transform="translate(28.268 0)" fill="none" stroke="#2751a0" stroke-linecap="round" stroke-width="1"/>
        <path id="Path_77-4" data-name="Path 77" d="M0,75.49,75.594,0" transform="translate(35.852 0)" fill="none" stroke="#2751a0" stroke-linecap="round" stroke-width="1"/>
        <path id="Path_78-4" data-name="Path 78" d="M0,75.49,75.594,0" transform="translate(42.747 0)" fill="none" stroke="#2751a0" stroke-linecap="round" stroke-width="1"/>
        <path id="Path_79-4" data-name="Path 79" d="M0,75.49,75.594,0" transform="translate(49.642 0)" fill="none" stroke="#2751a0" stroke-linecap="round" stroke-width="1"/>
        <path id="Path_80-4" data-name="Path 80" d="M0,75.49,75.594,0" transform="translate(56.537 0)" fill="none" stroke="#2751a0" stroke-linecap="round" stroke-width="1"/>
        <path id="Path_81-4" data-name="Path 81" d="M0,75.49,75.594,0" transform="translate(63.997 0)" fill="none" stroke="#2751a0" stroke-linecap="round" stroke-width="1"/>
      </g>
    </g>
    <text id="VISA_Card" data-name="VISA Card" transform="translate(-6675 11805)" fill="#fff" font-size="22" font-family="JosefinSans-Bold, Josefin Sans" font-weight="700"><tspan x="0" y="0">VISA Card</tspan></text>
    <text id="Amderson_Duetoal" data-name="Amderson Duetoal" transform="translate(-6675 11919)" fill="#ac8a0a" font-size="18" font-family="JosefinSans-Bold, Josefin Sans" font-weight="700"><tspan x="0" y="0">Amderson Duetoal</tspan></text>
    <text id="CVV_CVC" data-name="CVV/CVC" transform="translate(-6615 11939)" fill="#fff" font-size="7" font-family="JosefinSans-Regular, Josefin Sans"><tspan x="0" y="0">CVV/CVC</tspan></text>
    <text id="Expiry_Date" data-name="Expiry Date" transform="translate(-6675 11939)" fill="#fff" font-size="7" font-family="JosefinSans-Regular, Josefin Sans"><tspan x="0" y="0">Expiry Date</tspan></text>
    <text id="_635" data-name="635" transform="translate(-6607 11952)" fill="#fff" font-size="11" font-family="JosefinSans-Bold, Josefin Sans" font-weight="700"><tspan x="0" y="0">635</tspan></text>
    <text id="_12_2026" data-name="12/2026" transform="translate(-6676 11952)" fill="#fff" font-size="11" font-family="JosefinSans-Bold, Josefin Sans" font-weight="700"><tspan x="0" y="0">12/2026</tspan></text>
    <g id="Group_674" data-name="Group 674" transform="translate(-493 13.775)">
      <rect id="Rectangle_46" data-name="Rectangle 46" width="35.822" height="35.822" rx="5" transform="translate(-6181.597 11812.403)" fill="#ea9c35"/>
      <g id="Group_673" data-name="Group 673" transform="translate(-6182 11812)">
        <path id="Path_82" data-name="Path 82" d="M-6211.981,11810.552v13.282h5.364l4.6-4.343h8.3" transform="translate(6229.816 -11810.552)" fill="none" stroke="#6c4b18" stroke-width="1"/>
        <path id="Path_83" data-name="Path 83" d="M-6205.021,11827.784v10.6l4.087,3.959H-6192" transform="translate(6228.221 -11814.21)" fill="none" stroke="#6c4b18" stroke-width="1"/>
        <path id="Path_84" data-name="Path 84" d="M-6205.021,11834.246h12.9" transform="translate(6228.221 -11815.746)" fill="none" stroke="#6c4b18" stroke-width="1"/>
        <path id="Path_85" data-name="Path 85" d="M-6206.541,11841.372h-5.108v12" transform="translate(6230.02 -11817.151)" fill="none" stroke="#6c4b18" stroke-width="1"/>
        <path id="Path_86" data-name="Path 86" d="M-6216.9,11841.372h-4.92l-4.791,4.47h-9.063" transform="translate(6235.675 -11817.152)" fill="none" stroke="#6c4b18" stroke-width="1"/>
        <path id="Path_87" data-name="Path 87" d="M-6221.959,11839.775v-5.363h-14.048" transform="translate(6236.007 -11815.739)" fill="none" stroke="#6c4b18" stroke-width="1"/>
        <path id="Path_88" data-name="Path 88" d="M-6221.921,11831.563v-4.725l-4.853-4.854h-9.067" transform="translate(6235.969 -11813.015)" fill="none" stroke="#6c4b18" stroke-width="1"/>
        <path id="Path_89" data-name="Path 89" d="M-6213.437,11827.784h-4.9" transform="translate(6231.665 -11814.502)" fill="none" stroke="#6c4b18" stroke-width="1"/>
      </g>
    </g>
    <text id="_5689_5687_9867_2345" data-name="5689 5687 9867 2345" transform="translate(-6675 11885)" fill="#dcc46c" font-size="20" font-family="JosefinSans-Regular, Josefin Sans" letter-spacing="0.1em"><tspan x="0" y="0">5689 5687 9867 2345</tspan></text>
  </g>
</svg>
