<svg width="30.455" height="30.455" xmlns="http://www.w3.org/2000/svg"><path d="M15.23.003C6.818.003.003 6.818.003 15.23A15.225 15.225 0 0 0 15.23 30.457c8.412 0 15.227-6.815 15.227-15.227C30.457 6.818 23.642.003 15.23.003zm8.105 17.683h-5.65v5.649a.739.739 0 0 1-.736.736h-3.438a.739.739 0 0 1-.737-.736v-5.65h-5.65a.739.739 0 0 1-.736-.736v-3.438c0-.406.332-.737.737-.737h5.649v-5.65c0-.404.331-.736.737-.736h3.438c.405 0 .737.332.737.737v5.649h5.649c.405 0 .736.331.736.737v3.438a.739.739 0 0 1-.736.737z" fill-rule="evenodd" opacity=".5"/></svg>