<svg xmlns="http://www.w3.org/2000/svg" width="42" height="42" viewBox="235 830 42 42"><g data-name="Group 10"><path d="M235 850.95a21 21 0 1 1 0 .1" fill-rule="evenodd" data-name="Ellipse 14"/><g data-name="Icon ionic-logo-apple"><path d="M261.457 843.818a6.67 6.67 0 0 0-.921.062c-1.735.24-2.671 1.098-4.085 1.098a5.115 5.115 0 0 1-1.653-.318c-.712-.24-1.423-.554-2.247-.72a5.616 5.616 0 0 0-1.12-.115c-1.978 0-4.086 1.225-5.445 3.319a8.514 8.514 0 0 0-.054.084c-1.816 2.881-1.607 8.19 1.089 12.883a17.824 17.824 0 0 0 .416.687 25.375 25.375 0 0 0 .337.518c.629.938 1.366 1.875 2.224 2.488a3.407 3.407 0 0 0 1.953.7h.035c1.63 0 2.148-1.065 4.287-1.142a6.833 6.833 0 0 1 .206-.005h.035a5.953 5.953 0 0 1 .686.038c1.707.198 2.232 1.101 3.723 1.101h.035a3.479 3.479 0 0 0 2.15-.9c.964-.792 1.783-1.977 2.441-3.009a28.863 28.863 0 0 0 .303-.484c.51-.835.798-1.425 1.219-2.381a97.462 97.462 0 0 0 .18-.411 5.757 5.757 0 0 1-3.01-2.697c-1.205-2.272-.95-5.27 1.053-7.176a6.008 6.008 0 0 1 1.19-.878 7.693 7.693 0 0 0-1.998-1.818 6.13 6.13 0 0 0-2.15-.845 5.023 5.023 0 0 0-.879-.08Z" fill="#fff" fill-rule="evenodd" data-name="Path 6"/><path d="M260.937 837.496c-1.407.099-3.045 1.02-4.008 2.222-.798.997-1.466 2.435-1.359 3.873a3.927 3.927 0 0 0 .051.402h.113a3.71 3.71 0 0 0 .234-.007 5.301 5.301 0 0 0 3.689-2.11 6.754 6.754 0 0 0 1.047-1.977c.247-.753.353-1.572.233-2.403Z" fill="#fff" fill-rule="evenodd" data-name="Path 7"/></g></g></svg>