<svg width="42" height="42" xmlns="http://www.w3.org/2000/svg"><g><path d="M0 21C0 9.402 9.402 0 21 0s21 9.402 21 21-9.402 21-21 21S0 32.598 0 21z" fill-rule="evenodd" opacity=".5"/><g><path d="M26.456 13.831c-.308 0-.616.02-.921.063-1.735.24-2.671 1.097-4.085 1.097a5.115 5.115 0 0 1-1.653-.317c-.712-.24-1.423-.555-2.247-.721a5.616 5.616 0 0 0-1.12-.115c-1.978 0-4.086 1.226-5.445 3.32a8.514 8.514 0 0 0-.054.083c-1.816 2.882-1.607 8.19 1.089 12.883.133.232.272.462.416.688.11.174.223.346.338.518.628.937 1.365 1.875 2.223 2.488.563.43 1.245.675 1.953.699h.035c1.63 0 2.148-1.064 4.287-1.142.069-.002.137-.004.206-.004h.035c.23 0 .459.012.686.038 1.707.198 2.232 1.101 3.723 1.101h.035a3.479 3.479 0 0 0 2.15-.9c.964-.793 1.783-1.977 2.441-3.01.103-.16.204-.321.303-.484.51-.834.798-1.424 1.22-2.38l.179-.412a5.757 5.757 0 0 1-3.01-2.696c-1.205-2.273-.949-5.27 1.053-7.177.36-.34.76-.635 1.19-.878a7.693 7.693 0 0 0-1.998-1.818 6.13 6.13 0 0 0-2.15-.845 5.023 5.023 0 0 0-.879-.079z" fill="#fff" fill-rule="evenodd"/><path d="M25.936 7.51c-1.406.098-3.045 1.02-4.008 2.222-.797.997-1.465 2.435-1.358 3.873.01.134.026.269.05.402h.113c.078 0 .156-.003.234-.008a5.301 5.301 0 0 0 3.69-2.108 6.754 6.754 0 0 0 1.046-1.978 5.282 5.282 0 0 0 .233-2.403z" fill="#fff" fill-rule="evenodd"/></g></g></svg>