<svg xmlns="http://www.w3.org/2000/svg" width="39.33" height="54.43" viewBox="39.224 21.992 39.33 54.43"><path d="M63.397 68.08v8.342h-5.038v-8.21a348.37 348.37 0 0 1-1.23-.003c-.793-.002-1.476-.008-2.048-.017a81.872 81.872 0 0 1-.712-.013v8.243H49.33V68.08c-.392 0-.98-.006-1.766-.017a267.51 267.51 0 0 0-.554-.007c-.357-.004-.665-.007-.923-.008a63.482 63.482 0 0 0-.322-.001h-6.542l1.014-5.986h3.63c.902 0 1.49-.38 1.765-1.138a2.84 2.84 0 0 0 .133-.53v-13.15h.523a3.22 3.22 0 0 0-.493-.032 6.38 6.38 0 0 0-.03 0v-9.388a3.095 3.095 0 0 0-.402-1.075c-.331-.527-.83-.873-1.496-1.037a4.228 4.228 0 0 0-1.013-.112h-3.631v-5.365l6.935.033a222.122 222.122 0 0 0 .983-.002c.92-.004 1.65-.015 2.19-.03v-8.244h5.037v8.08c1.772-.044 3.094-.066 3.967-.066a53.214 53.214 0 0 1 .023 0v-8.014h5.038v8.243c1.723.153 3.25.398 4.58.736 1.33.338 2.562.829 3.696 1.472a7.493 7.493 0 0 1 2.698 2.551 7.771 7.771 0 0 1 .986 2.421 9.954 9.954 0 0 1 .208 1.325 12.885 12.885 0 0 1 .061 1.016c.062 3.16-1.159 5.508-3.662 7.04a10.077 10.077 0 0 1-.684.383 12.98 12.98 0 0 1 2.55.88c1.316.624 2.374 1.454 3.174 2.489a6.957 6.957 0 0 1 1.187 2.438c.32 1.16.428 2.51.326 4.049a18.863 18.863 0 0 1-.04.513 14.22 14.22 0 0 1-.381 2.183 10.84 10.84 0 0 1-.683 1.906 9.896 9.896 0 0 1-1.078 1.79 8.142 8.142 0 0 1-1.032 1.121 9.617 9.617 0 0 1-1.708 1.213 12.665 12.665 0 0 1-1.465.7 19.332 19.332 0 0 1-3.974 1.13 32.425 32.425 0 0 1-2.08.286c-.732.078-1.507.14-2.326.185a54.682 54.682 0 0 1-.353.019Zm-8.93-17.041v11.056a16.028 16.028 0 0 1 .122 0l1.031.015a374.805 374.805 0 0 1 .057.001 147.082 147.082 0 0 0 .454.007c.434.006.806.01 1.116.01a20.847 20.847 0 0 0 .342-.004c.256-.004.555-.012.898-.025a77.082 77.082 0 0 0 .494-.02 45.487 45.487 0 0 0 .79-.042c.26-.016.503-.034.73-.053a23.072 23.072 0 0 0 .394-.036c.409-.042.869-.106 1.38-.193a32.738 32.738 0 0 0 .484-.085 16.329 16.329 0 0 0 .812-.17c.371-.089.706-.185 1.003-.288a10.333 10.333 0 0 0 .96-.391 12.562 12.562 0 0 0 .594-.296c.534-.284.965-.61 1.292-.982a4.489 4.489 0 0 0 .668-1.01 5.265 5.265 0 0 0 .134-.298c.207-.502.31-1.058.31-1.668a4.824 4.824 0 0 0-.138-1.178 3.987 3.987 0 0 0-.352-.916 5.273 5.273 0 0 0-.664-.972 4.485 4.485 0 0 0-.547-.532 4.947 4.947 0 0 0-.757-.505 7.14 7.14 0 0 0-.818-.38 9.036 9.036 0 0 0-.305-.113 18.527 18.527 0 0 0-1.117-.356 13.581 13.581 0 0 0-1.026-.25 13.601 13.601 0 0 0-.8-.133c-.48-.066-1.02-.12-1.62-.16a63.113 63.113 0 0 0-.68-.044 33.5 33.5 0 0 0-1.27-.052 16.534 16.534 0 0 0-.307-.003 50.667 50.667 0 0 0-.44.002c-.401.004-.87.012-1.403.024a152.869 152.869 0 0 0-.267.007 402.868 402.868 0 0 1-.449.011c-.595.014-.963.022-1.105.022Zm0-15.08v10.042a9.903 9.903 0 0 1 .09 0l.774.012a559.042 559.042 0 0 1 .264.005c.599.01 1.079.01 1.441.002a14.914 14.914 0 0 0 .08-.002 49.844 49.844 0 0 0 .311-.01c.344-.013.785-.031 1.325-.056.52-.023.978-.061 1.373-.113a8.908 8.908 0 0 0 .426-.067 24.614 24.614 0 0 0 .574-.112c.17-.035.346-.073.532-.114a44.586 44.586 0 0 0 .579-.134 7.386 7.386 0 0 0 .701-.2c.338-.117.633-.252.885-.405a8.867 8.867 0 0 0 1.063-.758 9.862 9.862 0 0 0 .147-.125 3.148 3.148 0 0 0 .884-1.26 4.285 4.285 0 0 0 .268-1.137c.017-.172.026-.349.026-.53 0-.72-.136-1.358-.409-1.914a4.559 4.559 0 0 0-.998-1.374 3.929 3.929 0 0 0-.638-.47 5.672 5.672 0 0 0-.709-.356 7.16 7.16 0 0 0-.223-.09 13.503 13.503 0 0 0-.884-.306 9.772 9.772 0 0 0-.805-.21 8.074 8.074 0 0 0-.11-.023c-.375-.075-.809-.14-1.302-.194a25.766 25.766 0 0 0-.71-.068 19.034 19.034 0 0 0-1.897-.082c-.468.011-1.057.022-1.766.033a508.658 508.658 0 0 1-.37.005c-.49.008-.798.011-.922.011Z" fill="#e19600" fill-rule="evenodd" data-name="Icon metro-bitcoin"/></svg>