<svg xmlns="http://www.w3.org/2000/svg" width="15.059" height="15.059" viewBox="12.704 10.135 15.059 15.059"><path d="M27.763 17.664a7.53 7.53 0 0 1-7.53 7.53 7.53 7.53 0 0 1-7.529-7.53 7.53 7.53 0 1 1 15.059 0Zm-9.469-.876a.608.608 0 0 0-.027-.01.734.734 0 0 0-.059-.017l.386-1.547a.608.608 0 0 0 0-.035.414.414 0 0 0-.255-.4.727.727 0 0 0-.13-.045c0-.012-.6-.15-.6-.15l.22-.882 1.139.285-.001.004a23.811 23.811 0 0 0 .426.101 94.152 94.152 0 0 0 .102.023l.338-1.357.826.206-.332 1.33a144.544 144.544 0 0 1 .13.03 28.942 28.942 0 0 1 .532.126l.33-1.321.826.206-.339 1.357c.979.337 1.71.832 1.674 1.718a1.698 1.698 0 0 1-.018.182 1.79 1.79 0 0 1-.155.526 1.26 1.26 0 0 1-.9.686c.672.35 1.045.869.842 1.726a2.782 2.782 0 0 1-.082.278 2.31 2.31 0 0 1-.197.427c-.439.731-1.193.884-2.155.775a7.715 7.715 0 0 1-.563-.087l-.341 1.37-.827-.206.338-1.351a31.531 31.531 0 0 1-.659-.171l-.338 1.358-.826-.206.342-1.373c-.193-.05-.389-.102-.589-.152l-1.075-.268.41-.945s.566.15.6.15c.235.057.339-.095.38-.197l.54-2.166.079.02m.746 2.785.454-1.819a3.15 3.15 0 0 0 .01.003c.57.14 2.344.42 2.079 1.483-.242.97-1.798.528-2.441.359a8.02 8.02 0 0 0-.102-.026Zm.661-2.651.411-1.65c.452.113 1.873.32 1.744 1.215a.922.922 0 0 1-.018.092c-.233.933-1.67.459-2.137.343Z" fill-rule="evenodd" data-name="Icon awesome-bitcoin"/></svg>