<svg width="27" height="27" xmlns="http://www.w3.org/2000/svg"><path d="M0 11.556v11.75a1.449 1.449 0 0 0 1.397 1.426c2.302.12 6.96.563 10.18 2.185.494.248 1.08-.09 1.08-.626V13.319a.702.702 0 0 0-.339-.605c-.79-.47-1.63-.854-2.503-1.145-2.48-.856-5.334-1.222-7.323-1.379a42.155 42.155 0 0 0-.92-.062C.714 10.079 0 10.732 0 11.556zm14.344 1.772v12.961c0 .527.566.864 1.055.641a15.89 15.89 0 0 1 2.77-1.055c2.744-.787 5.732-1.052 7.434-1.142.434-.02.837-.23 1.104-.572.19-.244.293-.545.293-.855v-11.75c0-.824-.715-1.477-1.572-1.428-.406.023-.812.052-1.218.086-2.724.235-6.841.855-9.528 2.5a.715.715 0 0 0-.338.614zm4.219-8.265a5.062 5.062 0 1 0-10.125 0 5.062 5.062 0 0 0 10.124 0z" fill-rule="evenodd" opacity=".5"/></svg>