<svg width="33.57" height="23.45" xmlns="http://www.w3.org/2000/svg"><path d="M16.602-.009h-5.863a.98.98 0 0 0-.977.978v21.495a.98.98 0 0 0 .977.977h5.863a.98.98 0 0 0 .977-.977V.969a.98.98 0 0 0-.977-.978zm-9.771 0H.969A.98.98 0 0 0-.01.97v21.495c0 .537.44.977.978.977H6.83a.98.98 0 0 0 .977-.977V.969a.98.98 0 0 0-.977-.978zm16.521 1.511L18.117 4.14a.978.978 0 0 0-.433 1.312l8.793 17.452a.978.978 0 0 0 1.312.432l5.235-2.637a.978.978 0 0 0 .433-1.313l-8.793-17.45a.978.978 0 0 0-1.312-.434zM5.854 5.854H1.946V3.9h3.908v1.954zm9.77 0h-3.908V3.9h3.909v1.954zm12.702 16.61a.977.977 0 1 1-1.954 0 .977.977 0 0 1 1.954 0z" fill-rule="evenodd" opacity=".5"/></svg>