<svg width="23.625" height="27" xmlns="http://www.w3.org/2000/svg"><path d="M2.531 27h18.563a2.532 2.532 0 0 0 2.531-2.531V10.125H0v14.344A2.532 2.532 0 0 0 2.531 27zM21.094 3.375h-2.532V.844A.846.846 0 0 0 17.72 0H16.03a.846.846 0 0 0-.843.844v2.531h-6.75V.844A.846.846 0 0 0 7.593 0H5.906a.846.846 0 0 0-.843.844v2.531H2.53A2.532 2.532 0 0 0 0 5.906v2.532h23.625V5.905a2.532 2.532 0 0 0-2.531-2.531zM17.508 13.5h2.11c.347 0 .632.285.632.633v2.11a.635.635 0 0 1-.633.632h-2.11a.635.635 0 0 1-.632-.633v-2.11c0-.347.285-.632.633-.632zm0 6.75h2.11c.347 0 .632.285.632.633v2.11a.635.635 0 0 1-.633.632h-2.11a.635.635 0 0 1-.632-.633v-2.11c0-.347.285-.632.633-.632zm-13.5-6.75h2.11c.348.001.631.284.632.633v2.11a.635.635 0 0 1-.633.632h-2.11a.635.635 0 0 1-.632-.633v-2.11c0-.347.285-.632.633-.632zm6.75 0h2.11c.347 0 .632.285.632.633v2.11a.635.635 0 0 1-.633.632h-2.11a.635.635 0 0 1-.632-.633v-2.11a.635.635 0 0 1 .633-.632zm-6.75 6.75h2.11c.348.001.631.284.632.633v2.11a.635.635 0 0 1-.633.632h-2.11a.635.635 0 0 1-.632-.633v-2.11c0-.347.285-.632.633-.632zm6.75 0h2.11c.347 0 .632.285.632.633v2.11a.635.635 0 0 1-.633.632h-2.11a.635.635 0 0 1-.632-.633v-2.11a.635.635 0 0 1 .633-.632z" fill-rule="evenodd" opacity=".5"/></svg>