<svg width="26.334" height="26.334" xmlns="http://www.w3.org/2000/svg"><path d="M26.094 21.154l-7.988-7.989 7.988-7.989a.815.815 0 0 0 .24-.582.82.82 0 0 0-.24-.582L22.32.238a.817.817 0 0 0-.87-.188.818.818 0 0 0-.293.188l-7.99 7.99L5.18.238a.818.818 0 0 0-.582-.24c-.21 0-.421.08-.582.24L.241 4.013a.823.823 0 0 0 0 1.164l7.99 7.99-7.99 7.988a.823.823 0 0 0 0 1.164l3.774 3.774a.817.817 0 0 0 .87.188c.11-.04.21-.105.294-.188l7.989-7.99 7.989 7.99a.823.823 0 0 0 1.164 0l3.773-3.774a.823.823 0 0 0 0-1.164z" fill="#fff" fill-rule="evenodd"/></svg>