<svg width="27" height="27" xmlns="http://www.w3.org/2000/svg"><path d="M13.5.002C6.044.002 0 6.046 0 13.502s6.044 13.5 13.5 13.5S27 20.958 27 13.502 20.956.002 13.5.002zm6.866 8.06l-3.59 7.857c-.174.38-.48.685-.86.859L8.06 20.369c-.907.414-1.84-.52-1.427-1.426l3.592-7.858c.174-.38.479-.685.859-.858l7.857-3.591c.018-.009.036-.016.054-.023.87-.347 1.742.524 1.395 1.395a1.184 1.184 0 0 1-.024.054zM12.27 12.27a1.74 1.74 0 0 0 .894 2.94 1.741 1.741 0 1 0-.894-2.94z" fill-rule="evenodd" opacity=".5"/></svg>