<svg xmlns="http://www.w3.org/2000/svg" width="23.022" height="14.564" viewBox="8 10.382 23.022 14.564"><path d="m29.811 21.911.035-10.353-18.811.011v-1.187h19.987v11.53h-1.21Zm-.61 1.822-1.21-.001.035-10.353-18.811.012v-1.188h19.987v11.53Zm-1.782 1.213H8V14.023h19.419v10.923ZM26.205 15.2H9.214v8.534h16.99v-8.534Zm-1.759 7.927H17.71c1.673 0 3.03-1.625 3.035-3.632a4.412 4.412 0 0 0 0-.01 4.14 4.14 0 0 0-.555-2.098 2.92 2.92 0 0 0-2.48-1.542h6.737a.9.9 0 0 0-.062.293.658.658 0 0 0 0 .01.91.91 0 0 0 .91.91.863.863 0 0 0 .286-.055 1.648 1.648 0 0 0 .018-.006v4.977a.92.92 0 0 0-.291-.061.643.643 0 0 0-.013 0 .91.91 0 0 0-.909.911.888.888 0 0 0 .061.303Zm-6.737-7.282h-6.736a1.83 1.83 0 0 1 .008.023.868.868 0 0 1 .053.28.91.91 0 0 1-.91.91.658.658 0 0 1-.01 0 .9.9 0 0 1-.293-.06v4.977a1.827 1.827 0 0 1 .022-.008.868.868 0 0 1 .281-.054.91.91 0 0 1 .91.911.63.63 0 0 1 0 .005.91.91 0 0 1-.061.298h6.736c-1.676 0-3.034-1.63-3.034-3.641a4.407 4.407 0 0 1 0-.01c.004-2.006 1.36-3.63 3.033-3.63Zm.398 6.094v.663h-.597v-.584l-.022.001c-.169 0-.326-.014-.472-.04a3.344 3.344 0 0 1-.193-.043 2.472 2.472 0 0 1-.17-.05 2.052 2.052 0 0 1-.022-.007c-.085-.03-.16-.06-.223-.093a1.222 1.222 0 0 1-.055-.03 1.401 1.401 0 0 1-.059-.034.602.602 0 0 1-.102-.078.224.224 0 0 1-.04-.056.327.327 0 0 1-.023-.056.434.434 0 0 1-.008-.03 1.296 1.296 0 0 1-.02-.268 3.01 3.01 0 0 1 0-.082c0-.026.002-.05.003-.072a1.174 1.174 0 0 1 .004-.043.663.663 0 0 1 .015-.096.374.374 0 0 1 .01-.033.228.228 0 0 1 .012-.028.119.119 0 0 1 .033-.043.112.112 0 0 1 .06-.02.125.125 0 0 1 .006 0 .132.132 0 0 1 .035.005c.031.009.07.028.116.058a2.3 2.3 0 0 0 .157.091 3.545 3.545 0 0 0 .09.047 1.833 1.833 0 0 0 .145.064c.05.02.103.038.16.056a3.14 3.14 0 0 0 .058.018 1.436 1.436 0 0 0 .223.047c.072.01.149.015.23.016a2.35 2.35 0 0 0 .034 0 1.303 1.303 0 0 0 .173-.01.97.97 0 0 0 .153-.034.827.827 0 0 0 .134-.052.665.665 0 0 0 .111-.07.533.533 0 0 0 .153-.198.601.601 0 0 0 .05-.198.742.742 0 0 0 .004-.064.463.463 0 0 0-.091-.287.829.829 0 0 0-.143-.145 1.075 1.075 0 0 0-.094-.068 2.447 2.447 0 0 0-.332-.173 22.37 22.37 0 0 1-.333-.15 31 31 0 0 1-.05-.023c-.13-.06-.259-.13-.382-.207a1.531 1.531 0 0 1-.332-.277 1.28 1.28 0 0 1-.199-.297 1.476 1.476 0 0 1-.038-.083 1.134 1.134 0 0 1-.067-.238 1.61 1.61 0 0 1-.023-.231 1.995 1.995 0 0 1 0-.058 1.616 1.616 0 0 1 .028-.312 1.232 1.232 0 0 1 .102-.307c.088-.178.205-.326.353-.444.148-.117.322-.205.523-.263a2.192 2.192 0 0 1 .32-.066v-.627h.596v.627a.398.398 0 0 0 .033.002.35.35 0 0 1 .038.003 2.54 2.54 0 0 1 .23.045 2.064 2.064 0 0 1 .096.027 2.21 2.21 0 0 1 .143.048 1.467 1.467 0 0 1 .126.053 1.565 1.565 0 0 1 .052.027c.05.025.083.048.103.067a.362.362 0 0 1 .023.023.242.242 0 0 1 .016.02.146.146 0 0 1 .012.02.177.177 0 0 1 .009.02.305.305 0 0 1 .008.026.477.477 0 0 1 .005.023.527.527 0 0 1 .01.076.94.94 0 0 1 .003.035 1.557 1.557 0 0 1 .002.053l.002.053a4.265 4.265 0 0 1 0 .059 3.72 3.72 0 0 1 0 .078l-.003.057a1.761 1.761 0 0 1-.002.051 1.096 1.096 0 0 1-.006.05.841.841 0 0 1-.006.04.616.616 0 0 1-.007.035.287.287 0 0 1-.01.028.123.123 0 0 1-.027.044.084.084 0 0 1-.037.02.12.12 0 0 1-.028.004.147.147 0 0 1-.002 0 .104.104 0 0 1-.026-.004.449.449 0 0 1-.101-.046 1.115 1.115 0 0 1-.006-.003 1.882 1.882 0 0 0-.075-.041 3.186 3.186 0 0 0-.09-.045 5.003 5.003 0 0 0-.059-.029 1.821 1.821 0 0 0-.138-.057 2.445 2.445 0 0 0-.158-.053 2.795 2.795 0 0 0-.01-.003 1.261 1.261 0 0 0-.232-.044 1.562 1.562 0 0 0-.152-.007.948.948 0 0 0-.258.031.637.637 0 0 0-.026.009.69.69 0 0 0-.108.045.507.507 0 0 0-.095.064.43.43 0 0 0-.121.168.547.547 0 0 0-.04.208.503.503 0 0 0 .023.154.439.439 0 0 0 .066.129c.06.08.139.15.24.212a2.247 2.247 0 0 0 .191.106 3.136 3.136 0 0 0 .148.068 21.58 21.58 0 0 1 .386.172c.132.062.26.13.387.208a1.536 1.536 0 0 1 .338.276 1.274 1.274 0 0 1 .215.325 1.437 1.437 0 0 1 .024.054 1.135 1.135 0 0 1 .07.253c.014.08.021.168.021.26a1.757 1.757 0 0 1-.032.342 1.348 1.348 0 0 1-.112.337 1.402 1.402 0 0 1-.391.487 1.657 1.657 0 0 1-.465.257 1.952 1.952 0 0 1-.111.037c-.017.005-.035.008-.053.012a.778.778 0 0 0-.034.006Zm5.064-3.717c-.503 0-.91.543-.91 1.214 0 .67.407 1.213.91 1.213.424 0 .78-.385.88-.908a1.603 1.603 0 0 0 .03-.305 1.521 1.521 0 0 0-.135-.636 1.08 1.08 0 0 0-.366-.449.73.73 0 0 0-.41-.129Zm-10.923 0a.81.81 0 0 0-.64.35 1.35 1.35 0 0 0-.241.558 1.603 1.603 0 0 0-.03.306 1.52 1.52 0 0 0 .135.635c.089.191.215.347.366.449a.729.729 0 0 0 .41.129c.423 0 .779-.385.88-.908a1.603 1.603 0 0 0 .03-.305c0-.671-.408-1.214-.91-1.214Z" fill-rule="evenodd" data-name="Icon metro-dollars"/></svg>