<svg xmlns="http://www.w3.org/2000/svg" width="14.625" height="14.625" viewBox="170.671 457.188 14.625 14.625"><path d="M170.671 464.5a7.311 7.311 0 0 0 7.313 7.313 7.311 7.311 0 0 0 7.312-7.313 7.311 7.311 0 0 0-7.312-7.313 7.311 7.311 0 0 0-7.313 7.313Zm11.12-.566-3.315 3.305a.679.679 0 0 1-.362.17.675.675 0 0 1-.573-.191l-3.365-3.354a.677.677 0 0 1-.189-.367.676.676 0 0 1 .143-.542.692.692 0 0 1 .046-.051.677.677 0 0 1 .367-.19.676.676 0 0 1 .542.143.692.692 0 0 1 .051.047l2.851 2.88 2.848-2.81a.681.681 0 0 1 .938-.02.68.68 0 0 1 .022.02.666.666 0 0 1 .17.287.687.687 0 0 1 .027.191.67.67 0 0 1-.001.04.682.682 0 0 1-.146.381.69.69 0 0 1-.054.061Z" fill-rule="evenodd" data-name="Icon ionic-ios-arrow-dropdown-circle"/></svg>