<svg xmlns="http://www.w3.org/2000/svg" width="16.354" height="15.392" viewBox="10.677 9.943 16.354 15.392"><path d="M17.41 18.6v-7.133a.485.485 0 0 0-.472-.487.452.452 0 0 0-.063.004 7.21 7.21 0 0 0-6.198 7.136 7.399 7.399 0 0 0 .004.251 7.306 7.306 0 0 0 7.215 6.964 6.958 6.958 0 0 0 .087 0 7.153 7.153 0 0 0 3.386-.897 7.23 7.23 0 0 0 .68-.427.477.477 0 0 0 .074-.696.49.49 0 0 0-.026-.028L17.41 18.6Zm1.444-8.17v6.728h6.727c.275 0 .506-.231.487-.505a7.232 7.232 0 0 0-6.709-6.71.456.456 0 0 0-.031 0 .485.485 0 0 0-.474.488Zm7.69 8.17H19.41l4.751 4.752a.495.495 0 0 0 .31.143.463.463 0 0 0 .353-.119.457.457 0 0 0 .004-.004 7.2 7.2 0 0 0 2.199-4.235.453.453 0 0 0 .004-.063.485.485 0 0 0-.487-.473Z" fill-rule="evenodd" data-name="Icon awesome-chart-pie"/></svg>