<svg xmlns="http://www.w3.org/2000/svg" width="42" height="42" viewBox="186 830 42 42"><g data-name="Group 12"><path d="M186 850.95a21 21 0 1 1 0 .1" fill-rule="evenodd" data-name="Ellipse 13"/><path d="m213.66 852.789.794-5.18h-4.97v-3.36a2.621 2.621 0 0 1 1.18-2.391c.431-.255 1.002-.408 1.74-.408h2.26v-4.41a7.586 7.586 0 0 0-.052-.008c-.332-.054-2.182-.341-3.959-.341a7.769 7.769 0 0 0-3.237.643c-2.208 1.007-3.53 3.17-3.53 6.328v3.947h-4.55v5.18h4.55v12.52h5.599v-12.52h4.174Z" fill="#fff" fill-rule="evenodd" data-name="Icon awesome-facebook-f"/></g></svg>