<svg width="42" height="42" xmlns="http://www.w3.org/2000/svg"><g><path d="M0 21C0 9.402 9.402 0 21 0s21 9.402 21 21-9.402 21-21 21S0 32.598 0 21z" fill-rule="evenodd" opacity=".5"/><path d="M27.663 22.788l.794-5.18h-4.97v-3.36a2.621 2.621 0 0 1 1.18-2.391c.431-.255 1.002-.408 1.74-.408h2.26V7.04a7.586 7.586 0 0 0-.052-.008c-.332-.054-2.182-.341-3.958-.341a7.769 7.769 0 0 0-3.238.644c-2.208 1.006-3.53 3.17-3.53 6.327v3.948h-4.55v5.179h4.55v12.52h5.599v-12.52h4.175z" fill="#fff" fill-rule="evenodd"/></g></svg>