<svg xmlns="http://www.w3.org/2000/svg" width="42" height="42" viewBox="137 830 42 42"><g data-name="Group 11"><path d="M137 850.95a21 21 0 1 1 0 .1" fill-rule="evenodd" data-name="Ellipse 12"/><path d="m167.826 840.435-3.895 3.745c-5.094-4.916-14.568-1.223-14.568 6.82a8.963 8.963 0 0 0 8.868 9.036 10.192 10.192 0 0 0 2.283-.247c3.97-.91 5.555-4.126 5.84-5.921h-8.123v-4.922h13.622c.127.7.217 1.373.225 2.26a14.398 14.398 0 0 1 0 .129 14.903 14.903 0 0 1-1.904 7.516c-2.305 3.986-6.557 6.458-11.943 6.458A14.292 14.292 0 0 1 143.92 851a14.292 14.292 0 0 1 14.31-14.31 14.17 14.17 0 0 1 5.136.932 13.816 13.816 0 0 1 4.459 2.813Z" fill="#fff" fill-rule="evenodd" data-name="Icon awesome-google"/></g></svg>