<svg width="42" height="42" xmlns="http://www.w3.org/2000/svg"><g><path d="M0 21C0 9.402 9.402 0 21 0s21 9.402 21 21-9.402 21-21 21S0 32.598 0 21z" fill-rule="evenodd" opacity=".5"/><path d="M30.824 10.437l-3.894 3.745c-5.095-4.916-14.57-1.223-14.57 6.82a8.963 8.963 0 0 0 8.87 9.035c.767.004 1.533-.078 2.283-.246 3.97-.91 5.555-4.127 5.84-5.922h-8.124v-4.921h13.623a12.562 12.562 0 0 1 .225 2.388c.04 2.63-.618 5.223-1.905 7.517-2.305 3.985-6.557 6.458-11.943 6.458A14.292 14.292 0 0 1 6.92 21 14.292 14.292 0 0 1 21.23 6.693a14.17 14.17 0 0 1 5.135.932 13.816 13.816 0 0 1 4.46 2.813z" fill="#fff" fill-rule="evenodd"/></g></svg>