<svg width="24" height="24" xmlns="http://www.w3.org/2000/svg"><path d="M12.005.005c-6.629 0-12 5.371-12 12 0 6.628 5.371 12 12 12 6.628 0 12-5.372 12-12 0-6.629-5.372-12-12-12zm.727 13.696v.456H10.73l-.018-.496c-.098-1.189.318-1.927 1.362-2.539.95-.568 1.363-.933 1.384-1.613v-.054a1.18 1.18 0 0 0-.69-1.04 1.867 1.867 0 0 0-.861-.2 1.68 1.68 0 0 0-.799.189 1.408 1.408 0 0 0-.729 1.05c-.009.06-.015.12-.018.18H8.312a3.02 3.02 0 0 1 1.928-2.846c.44-.182.948-.293 1.52-.32.095-.005.19-.007.285-.007a4.859 4.859 0 0 1 1.627.262c1.248.444 2.025 1.416 2.025 2.663.006.388-.07.772-.222 1.13-.179.405-.464.754-.852 1.064a4.704 4.704 0 0 1-.547.373 8.049 8.049 0 0 0-.293.177c-.76.486-1.038.89-1.05 1.524l-.001.047zm-1.899 3.447a1.254 1.254 0 0 0 1.083.386 1.192 1.192 0 0 0 1.081-1.18 1.158 1.158 0 0 0-.352-.834 1.266 1.266 0 0 0-.952-.352 1.205 1.205 0 0 0-1.17 1.187c-.002.294.11.578.31.793z" fill-rule="evenodd" opacity=".5"/></svg>