<svg width="29.25" height="29.25" xmlns="http://www.w3.org/2000/svg"><path d="M14.63.005C6.551.005.005 6.551.005 14.63A14.623 14.623 0 0 0 14.63 29.255c8.079 0 14.625-6.546 14.625-14.625S22.709.005 14.63.005zm0 19.406a4.786 4.786 0 0 1-4.781-4.781 4.786 4.786 0 0 1 4.781-4.781 4.786 4.786 0 0 1 4.781 4.781 4.786 4.786 0 0 1-4.781 4.781zm3.84 7.285l-.416-6.251a6.773 6.773 0 0 0 2.398-2.405l6.244.422a12.59 12.59 0 0 1-3.115 5.119 12.613 12.613 0 0 1-5.112 3.115zM10.79 2.564l.402 6.258a6.906 6.906 0 0 0-2.384 2.384l-6.25-.415a12.705 12.705 0 0 1 3.121-5.112 12.567 12.567 0 0 1 5.112-3.115zm15.906 8.227l-6.244.422a6.751 6.751 0 0 0-2.384-2.39l.401-6.259a12.612 12.612 0 0 1 5.112 3.115 12.612 12.612 0 0 1 3.115 5.112zM2.564 18.469l6.258-.4a6.807 6.807 0 0 0 2.377 2.376l-.408 6.25a12.612 12.612 0 0 1-5.112-3.114 12.612 12.612 0 0 1-3.115-5.112z" fill-rule="evenodd" opacity=".5"/></svg>