<svg width="25.72" height="25.72" xmlns="http://www.w3.org/2000/svg">
    <g>
        <path
            d="M12.706 3.462l-9.643 7.715a.26.26 0 0 0-.093.191v14.218c0 .068.055.123.124.124H9.77a.124.124 0 0 0 .123-.124v-8.654c0-.068.056-.124.124-.124h5.687c.068 0 .124.056.124.124v8.654c0 .068.055.124.123.124h6.677a.124.124 0 0 0 .123-.124V11.368a.25.25 0 0 0-.092-.191l-9.644-7.715a.243.243 0 0 0-.31 0z"
            fill-rule="evenodd" />
        <path
            d="M25.383 9.66L13.7.303a1.346 1.346 0 0 0-.847-.297c-.308 0-.607.104-.847.297L6.918 4.437V1.83a.124.124 0 0 0-.123-.124h-3.71a.124.124 0 0 0-.123.124v5.7L.322 9.697a.872.872 0 0 0-.328.674c0 .232.091.454.254.618a.871.871 0 0 0 1.156.062l11.368-9.15a.125.125 0 0 1 .02-.012c.022-.012.041-.012.06-.012a.132.132 0 0 1 .065.016.227.227 0 0 1 .016.009l11.368 9.111a.87.87 0 0 0 1.416-.723.879.879 0 0 0-.334-.63z"
            fill-rule="evenodd" />
    </g>
</svg>