<svg xmlns="http://www.w3.org/2000/svg" width="14.564" height="14.565" viewBox="10.677 10.382 14.564 14.565"><path d="m22.612 22.29 2.63 2.656h-.845l-2.289-2.314a6.645 6.645 0 0 0-.375.054c-1.35.225-3.789.825-6.37-1.085a8.193 8.193 0 0 1-.225-.172c-2.732-2.166-2.778-4.73-4.138-9.873a65.055 65.055 0 0 0-.322-1.174 28.536 28.536 0 0 1 3.144.162c11.839 1.315 8.79 10.228 8.79 11.735a1.068 1.068 0 0 0 0 .011Zm-9.343-10.412a11.823 11.823 0 0 0-.15-.07c-1.292-.589-.168.258-.032.359a3.168 3.168 0 0 0 .012.01 6.42 6.42 0 0 1 1.514 1.473c.434.58.784 1.215 1.134 1.88a305.407 305.407 0 0 1 .285.545 32.081 32.081 0 0 0 .554 1.016c.795 1.395 1.823 2.897 3.1 3.835a5.256 5.256 0 0 0 1.034.6c2.057.887 1.162.432.268-.222a10.729 10.729 0 0 1-.073-.054 3.283 3.283 0 0 1-.367-.329c-.85-.87-1.893-2.592-2.544-3.814a25.508 25.508 0 0 1-.048-.09 966.514 966.514 0 0 1-.131-.249c-.913-1.73-1.826-3.404-4.026-4.619a9.714 9.714 0 0 0-.53-.271Z" fill-rule="evenodd" data-name="Icon awesome-envira"/></svg>