<svg xmlns="http://www.w3.org/2000/svg" width="29.243" height="29.248" viewBox="42.165 69.163 29.243 29.248"><g data-name="Icon ionic-ios-chatboxes"><path d="M68.736 77.77H53.155a2.683 2.683 0 0 0-2.679 2.679v10.849a2.677 2.677 0 0 0 2.679 2.672h8.916a.768.768 0 0 1 .534.225l4.43 4.085a.475.475 0 0 0 .122.086c.206.1.451.03.516-.179a.376.376 0 0 0 .016-.111v-3.558c0-.422.267-.555.689-.555h.07c1.304 0 2.614-.928 2.902-2.167a2.231 2.231 0 0 0 .058-.505V80.449a2.724 2.724 0 0 0 0-.013 2.668 2.668 0 0 0-2.672-2.666Z" fill="#fff" fill-rule="evenodd" data-name="Path 39"/><path d="M51.053 76.047h12.473v-4.591a2.293 2.293 0 0 0-2.292-2.293H44.457a2.293 2.293 0 0 0-2.292 2.293V83.07a2.293 2.293 0 0 0 2.292 2.292h4.296V78.34a2.303 2.303 0 0 1 2.3-2.292Z" fill="#fff" fill-rule="evenodd" data-name="Path 40"/></g></svg>