<svg width="27" height="15.75" xmlns="http://www.w3.org/2000/svg"><g opacity=".6"><path d="M25.875 2.255H1.125A1.128 1.128 0 0 1 0 1.13 1.128 1.128 0 0 1 1.125.005h24.75C26.494.005 27 .511 27 1.13s-.506 1.125-1.125 1.125zM25.875 9.005H1.125A1.128 1.128 0 0 1 0 7.88a1.128 1.128 0 0 1 1.125-1.125h24.75c.619 0 1.125.506 1.125 1.125s-.506 1.125-1.125 1.125zM25.875 15.755H1.125A1.128 1.128 0 0 1 0 14.63a1.128 1.128 0 0 1 1.125-1.125h24.75c.619 0 1.125.506 1.125 1.125s-.506 1.125-1.125 1.125z" fill-rule="evenodd"/></g></svg>