<svg xmlns="http://www.w3.org/2000/svg" width="24.455" height="20.693" viewBox="223.273 42.154 24.455 20.693"><g data-name="Icon ionic-ios-options"><path d="M242.36 59.554h4.427a.943.943 0 0 1 .94.94.943.943 0 0 1-.94.941h-4.426a2.359 2.359 0 0 1-2.13 1.411 2.393 2.393 0 0 1-.028 0 2.35 2.35 0 0 1-1.815-.857 2.362 2.362 0 0 1-.342-.554h-13.833a.943.943 0 0 1-.94-.94.943.943 0 0 1 .94-.94h13.833a2.359 2.359 0 0 1 2.129-1.411 2.393 2.393 0 0 1 .028 0 2.35 2.35 0 0 1 1.816.856 2.362 2.362 0 0 1 .342.554Z" fill-rule="evenodd" data-name="Path 48"/><path d="M232.955 51.56h13.832a.943.943 0 0 1 .94.94.943.943 0 0 1-.94.94h-13.832a2.359 2.359 0 0 1-2.13 1.411 2.393 2.393 0 0 1-.028 0 2.35 2.35 0 0 1-1.815-.856 2.362 2.362 0 0 1-.342-.554h-4.427a.943.943 0 0 1-.94-.941.943.943 0 0 1 .94-.94h4.427a2.359 2.359 0 0 1 2.13-1.411 2.393 2.393 0 0 1 .027 0 2.35 2.35 0 0 1 1.816.856 2.362 2.362 0 0 1 .342.554Z" fill-rule="evenodd" data-name="Path 49"/><path d="M242.36 43.565h4.427c.517 0 .94.423.94.94 0 .517-.423.94-.94.94h-4.426a2.359 2.359 0 0 1-2.13 1.411 2.393 2.393 0 0 1-.028 0 2.35 2.35 0 0 1-1.815-.856 2.362 2.362 0 0 1-.342-.554h-13.833a.943.943 0 0 1-.94-.94c0-.518.423-.941.94-.941h13.833a2.359 2.359 0 0 1 2.129-1.411 2.393 2.393 0 0 1 .028 0 2.35 2.35 0 0 1 1.816.857 2.362 2.362 0 0 1 .342.554Z" fill-rule="evenodd" data-name="Path 50"/></g></svg>