<svg width="20.938" height="30.455" xmlns="http://www.w3.org/2000/svg"><path d="M19.986 11.42h-.952a.951.951 0 0 0-.952.952v2.855a7.623 7.623 0 0 1-8.374 7.577c-3.955-.386-6.853-3.942-6.853-7.916v-2.516a.951.951 0 0 0-.952-.951H.952a.951.951 0 0 0-.952.951v2.389c0 5.332 3.805 10.085 9.041 10.807V27.6h-3.33a.951.951 0 0 0-.953.952v.952c0 .526.426.952.952.952h9.517a.951.951 0 0 0 .952-.952v-.952a.951.951 0 0 0-.952-.951h-3.33v-2.01c5.097-.699 9.04-5.075 9.04-10.363v-2.855a.951.951 0 0 0-.951-.951zm-3.807 3.807V5.71a5.71 5.71 0 1 0-11.42 0v9.517a5.71 5.71 0 1 0 11.42 0z" fill-rule="evenodd" opacity=".5"/></svg>