<svg width="30.27" height="25.94" xmlns="http://www.w3.org/2000/svg"><g opacity=".5"><path d="M29.187 0H10.81c-.595 0-1.081.52-1.081 1.115v2.128H2.838A2.846 2.846 0 0 0 0 6.081V20.1c0 3.216 2.635 5.844 5.81 5.844h18.897c3.047 0 5.56-2.493 5.56-5.54V1.08A1.084 1.084 0 0 0 29.188 0zm-4.48 23.782H10.492a5.648 5.648 0 0 0 1.399-3.682V2.23h16.215v18.174c0 .898-.365 1.743-1.007 2.385-.642.641-1.5.993-2.392.993zM2.162 20.1V6.702a1.286 1.286 0 0 1 1.284-1.297 1.286 1.286 0 0 1 1.283 1.297v12.756c0 .594.487 1.08 1.081 1.08h3.885a3.48 3.48 0 0 1-.806 1.796c-.097.114-.2.223-.309.326a3.996 3.996 0 0 1-2.736 1.122c-.976 0-1.912-.39-2.601-1.081A3.66 3.66 0 0 1 2.162 20.1zM9.729 5.405v12.972H6.89V6.702a3.663 3.663 0 0 0-.128-1.03 2.442 2.442 0 0 0-.095-.267h3.06z" fill-rule="evenodd"/><path d="M14.588 4.863h10.81v3.783h-10.81V4.862zM14.588 10.81h10.81v2.162h-10.81V10.81zM14.588 15.13h10.81v2.162h-10.81V15.13zM25.405 19.46h-10.81v.024c-.001.21-.026 1.705-.377 2.062a.226.226 0 0 1-.163.076h10.047c.15.002.3-.02.444-.067.851-.287.86-1.426.86-2.077v-.018z" fill-rule="evenodd"/></g></svg>