<svg xmlns="http://www.w3.org/2000/svg" width="25.435" height="12.718" viewBox="6.793 12.229 25.435 12.718"><path d="m31.823 14.785-8.497 2.53-2.006-1.002a2.546 2.546 0 0 0-1.138-.269h-2.26v-1.908h2.225a.636.636 0 0 0 .636-.635v-.636a.636.636 0 0 0-.636-.636h-6.359a.636.636 0 0 0-.636.636v.636a.636.636 0 0 0 .636.635h2.226v1.908h-2.226l-5.495-.999a1.268 1.268 0 0 0-.23-.021c-.687 0-1.27.558-1.27 1.272v3.774a1.272 1.272 0 0 0 1.045 1.25l2.77.505v1.85a1.272 1.272 0 0 0 1.273 1.271h10.914a1.27 1.27 0 0 0 .905-.378l8.435-8.534c.06-.06.093-.14.093-.225v-.719a.318.318 0 0 0-.317-.318.319.319 0 0 0-.08.01.33.33 0 0 0-.008.003Zm-3.198 8.466c0 .936.76 1.695 1.696 1.695a1.696 1.696 0 0 0 1.696-1.695 1.273 1.273 0 0 0-.038-.286c-.252-1.071-1.658-3.106-1.658-3.106a6.363 6.363 0 0 0-.019.028c-.186.273-1.677 2.486-1.677 3.364ZM10.61 19.886 8.7 19.539v-2.481l1.908.347v2.481Z" fill-rule="evenodd" data-name="Icon awesome-oil-can"/></svg>