<svg xmlns="http://www.w3.org/2000/svg" width="53.799" height="53.799" viewBox="5.101 528.101 53.799 53.799"><path d="M32 528.1c-14.86 0-26.9 12.04-26.9 26.9A26.895 26.895 0 0 0 32 581.9c14.86 0 26.9-12.04 26.9-26.9A26.895 26.895 0 0 0 32 528.1Zm12.55 29.503-19.09 10.955c-1.597.89-3.579-.113-3.843-1.876a2.705 2.705 0 0 1-.03-.402v-22.56c0-1.996 2.148-3.233 3.873-2.278l19.09 11.606c1.612.904 1.763 3.1.453 4.238a2.649 2.649 0 0 1-.453.317Z" fill="#fff" fill-rule="evenodd" data-name="Icon awesome-play-circle"/></svg>