<svg width="25.716" height="25.716" xmlns="http://www.w3.org/2000/svg"><path d="M13.407 3.232h-1.082c-1.835.117-2.897.913-3.488 1.611a4.247 4.247 0 0 0-.487.71c-.487.882-.61 1.804-.563 2.378.005.068.014.135.025.202.03.159.055.318.076.478.116.839.157 1.725.116 1.921a.896.896 0 0 1-.004.014c-.011.036-.022.064-.033.098-.13.34-.229.704-.025 1.706.03.152.066.304.105.455.195.741.443 1.196.65 1.472.028.037.056.072.086.106.019.14.042.278.071.415.12.58.323 1.16.498 1.539.16.34.235.803.235 1.459l-.001.17c-.005.415-.034.45-.138.484a72.175 72.175 0 0 0-4.968 1.726 11.029 11.029 0 0 1-2.744-7.313 11.053 11.053 0 0 1 3.258-7.87 11.053 11.053 0 0 1 7.869-3.257 11.053 11.053 0 0 1 7.87 3.258 11.053 11.053 0 0 1 3.257 7.869 11.025 11.025 0 0 1-2.733 7.3 87.942 87.942 0 0 0-5.115-1.737c-.128-.04-.145-.08-.145-.655l.003-.116c.027-.433.194-.867.37-1.249l.035-.075c.024-.05.046-.1.068-.15a7.33 7.33 0 0 0 .5-1.804c.046-.053.09-.109.13-.166.24-.338.524-.91.711-1.867.018-.092.035-.184.05-.276.13-.797.043-1.124-.074-1.43-.013-.038-.031-.075-.038-.106a.548.548 0 0 1-.008-.06c-.03-.33.037-1.423.193-2.3a9.28 9.28 0 0 1 .007-.038c.109-.6-.01-1.822-.73-2.907a4.356 4.356 0 0 0-.19-.264c-.508-.652-1.436-1.434-3.056-1.673a6.725 6.725 0 0 0-.561-.058zM12.863.005A12.852 12.852 0 0 0 .079 11.509a12.237 12.237 0 0 0 0 2.708C.753 20.683 6.218 25.72 12.863 25.72c7.103 0 12.858-5.755 12.858-12.858A12.856 12.856 0 0 0 12.863.005z" fill-rule="evenodd" opacity=".5"/></svg>