<svg xmlns="http://www.w3.org/2000/svg" width="29.21" height="29.215" viewBox="365.497 65.609 29.21 29.215"><path d="m394.31 90.867-5.689-5.688a1.368 1.368 0 0 0-.97-.4h-.93a11.799 11.799 0 0 0 2.485-6.517 12.085 12.085 0 0 0 .025-.785c0-6.556-5.311-11.868-11.867-11.868a11.866 11.866 0 0 0-11.867 11.868c0 6.555 5.311 11.867 11.867 11.867a11.81 11.81 0 0 0 7.303-2.51v.93a1.368 1.368 0 0 0 .4.97l5.688 5.688a1.364 1.364 0 0 0 1.934 0l1.615-1.615a1.376 1.376 0 0 0 .005-1.94Zm-24.249-13.39a7.299 7.299 0 0 0 7.303 7.303 7.299 7.299 0 0 0 7.303-7.303c0-4.04-3.27-7.303-7.303-7.303a7.299 7.299 0 0 0-7.303 7.303Z" fill-rule="evenodd" data-name="Icon awesome-search"/></svg>