<svg width="29.21" height="29.215" xmlns="http://www.w3.org/2000/svg"><path d="M28.813 25.258l-5.689-5.688a1.368 1.368 0 0 0-.97-.4h-.93a11.799 11.799 0 0 0 2.51-7.303C23.735 5.312 18.424 0 11.868 0A11.866 11.866 0 0 0 0 11.867c0 6.556 5.312 11.868 11.867 11.868a11.81 11.81 0 0 0 7.303-2.51v.93c0 .363.143.712.4.97l5.688 5.688a1.364 1.364 0 0 0 1.934 0l1.615-1.615a1.376 1.376 0 0 0 .006-1.94zM4.564 11.868a7.299 7.299 0 0 0 7.303 7.302 7.299 7.299 0 0 0 7.303-7.303c0-4.04-3.269-7.303-7.303-7.303a7.299 7.299 0 0 0-7.303 7.303z" fill-rule="evenodd" opacity=".5"/></svg>