<svg width="27" height="27.007" xmlns="http://www.w3.org/2000/svg"><path d="M24.771 13.5c0-1.477.921-2.735 2.229-3.241a13.772 13.772 0 0 0-1.666-4.015 3.474 3.474 0 0 1-3.867-.71 3.444 3.444 0 0 1-1.015-2.478c.003-.479.105-.951.297-1.39A13.73 13.73 0 0 0 16.741 0 3.477 3.477 0 0 1 13.5 2.229 3.477 3.477 0 0 1 10.259 0C8.84.34 7.485.902 6.244 1.666a3.467 3.467 0 0 1-4.585 4.578A14.074 14.074 0 0 0 0 10.266a3.47 3.47 0 0 1 2.229 3.241 3.478 3.478 0 0 1-2.222 3.241c.34 1.418.902 2.774 1.666 4.015a3.505 3.505 0 0 1 1.407-.295 3.474 3.474 0 0 1 2.454 1.012 3.448 3.448 0 0 1 1.013 2.453c0 .485-.1.964-.296 1.408a13.852 13.852 0 0 0 4.015 1.666 3.462 3.462 0 0 1 3.234-2.222 3.462 3.462 0 0 1 3.234 2.222 13.772 13.772 0 0 0 4.015-1.666 3.477 3.477 0 0 1 .717-3.86 3.442 3.442 0 0 1 2.454-1.013 3.502 3.502 0 0 1 1.407.295 13.856 13.856 0 0 0 1.666-4.015 3.49 3.49 0 0 1-2.222-3.248zm-11.208 5.618a5.623 5.623 0 0 1-5.625-5.625c0-3.1 2.51-5.625 5.625-5.625a5.623 5.623 0 0 1 5.625 5.625c0 3.1-2.51 5.625-5.625 5.625z" fill-rule="evenodd" opacity=".5"/></svg>