<svg width="21.76" height="26.64" xmlns="http://www.w3.org/2000/svg"><g><g opacity=".5"><path d="M6.43 26.644h2.967a.496.496 0 0 0 .494-.495V13.704a.496.496 0 0 0-.494-.494H6.43a.496.496 0 0 0-.495.494V26.15c0 .272.223.495.495.495zM.5 26.64h2.967a.496.496 0 0 0 .494-.494v-8.902a.496.496 0 0 0-.494-.494H.5a.496.496 0 0 0-.495.494v8.902c0 .272.223.495.495.495zM12.376 26.639h2.955a.499.499 0 0 0 .5-.501V10.903a.499.499 0 0 0-.5-.5h-2.955a.499.499 0 0 0-.501.5v15.235a.499.499 0 0 0 .5.5zM17.805 7.36v18.78a.499.499 0 0 0 .5.501h2.956a.499.499 0 0 0 .5-.5V7.36a.499.499 0 0 0-.5-.501h-2.955a.499.499 0 0 0-.501.5z" fill-rule="evenodd"/></g><path d="M20.395 0h-4.894a.606.606 0 0 0-.612.6.606.606 0 0 0 .612.6h3.391l-5.591 5.76-3.48-3.407a.613.613 0 0 0-.434-.174.62.62 0 0 0-.433.174L.742 14.198a.586.586 0 0 0-.17.433.55.55 0 0 0 .17.413.613.613 0 0 0 .434.174.62.62 0 0 0 .433-.174L9.387 4.821l3.48 3.408a.613.613 0 0 0 .434.174.62.62 0 0 0 .434-.174l6.053-6.155v3.31c0 .329.275.6.611.6a.606.606 0 0 0 .612-.6V.6a.612.612 0 0 0-.616-.6z" fill-rule="evenodd" opacity=".5"/></g></svg>