<svg xmlns="http://www.w3.org/2000/svg" width="25.342" height="16.895" viewBox="37.658 455.053 25.342 16.895"><path d="M63 456.46v14.08a1.35 1.35 0 0 1-.405.976 1.716 1.716 0 0 1-.012.013 1.422 1.422 0 0 1-.488.326 1.364 1.364 0 0 1-.502.092H39.066a1.35 1.35 0 0 1-.976-.405 1.716 1.716 0 0 1-.014-.013 1.422 1.422 0 0 1-.326-.487 1.364 1.364 0 0 1-.092-.502v-14.08a1.35 1.35 0 0 1 .405-.976 1.716 1.716 0 0 1 .013-.013 1.422 1.422 0 0 1 .488-.326 1.364 1.364 0 0 1 .502-.092h22.527a1.35 1.35 0 0 1 .976.405 1.716 1.716 0 0 1 .014.013 1.422 1.422 0 0 1 .326.487 1.364 1.364 0 0 1 .091.503Zm-12.539 8.844-.242-.121-.253 1.584c.448.205.987.326 1.619.362a7.3 7.3 0 0 0 .416.012 6.073 6.073 0 0 0 .048 0c.931 0 1.68-.217 2.246-.65.571-.436.866-1.017.885-1.743a2.827 2.827 0 0 0 0-.016c0-.652-.361-1.206-1.084-1.662a4.712 4.712 0 0 0-.456-.252 10.64 10.64 0 0 1-.25-.132 4.142 4.142 0 0 1-.53-.33.81.81 0 0 1-.123-.115.51.51 0 0 1-.097-.165.423.423 0 0 1-.023-.138c0-.145.073-.275.22-.387a.966.966 0 0 1 .05-.036.92.92 0 0 1 .246-.114c.078-.024.165-.042.26-.053a2.303 2.303 0 0 1 .27-.015 4.13 4.13 0 0 1 .058 0c.245 0 .476.022.693.066a2.751 2.751 0 0 1 .612.198l.165.088.253-1.529a4.458 4.458 0 0 0-1.639-.297 4.63 4.63 0 0 0-.945.092 3.188 3.188 0 0 0-1.111.448 2.842 2.842 0 0 0-.155.11 2.272 2.272 0 0 0-.573.615 2.032 2.032 0 0 0-.296 1.067 1.554 1.554 0 0 0 0 .015c0 .568.312 1.072.935 1.512a4.898 4.898 0 0 0 .66.387c.352.169.598.319.737.45a.793.793 0 0 1 .12.141.522.522 0 0 1 .089.27.506.506 0 0 1 0 .019.518.518 0 0 1-.197.418.794.794 0 0 1-.133.088 1.49 1.49 0 0 1-.513.16 1.896 1.896 0 0 1-.246.016 4.264 4.264 0 0 1-1.06-.128 3.662 3.662 0 0 1-.656-.235Zm-4.993-5.324-1.782 4.818-.187-.979a3.82 3.82 0 0 0-.629-1.085 4.678 4.678 0 0 0-.306-.34 4.409 4.409 0 0 0-1.007-.767 4.01 4.01 0 0 0-.434-.206l1.485 5.61h1.925l2.87-7.05h-1.935Zm14.65 0h-1.407a1.316 1.316 0 0 0-.37.049.88.88 0 0 0-.587.545l-2.706 6.468h1.914l.385-1.056h2.332a12.419 12.419 0 0 1 .03.133l.133.644a193.743 193.743 0 0 1 .057.279h1.694l-1.474-7.062Zm-13.121 7.062h1.826l1.144-7.062H48.14l-1.144 7.062Zm-3.498-3.223-.638-3.245c-.08-.389-.346-.587-.8-.594a1.632 1.632 0 0 0-.025 0h-2.948l-.022.143a7.865 7.865 0 0 1 1.965.77 5.347 5.347 0 0 1 2.468 2.926Zm15.883.715h-1.518c.103-.271.345-.928.726-1.969l.033-.099a8.435 8.435 0 0 0 .023-.059l.073-.19a25.69 25.69 0 0 0 .014-.037 7.892 7.892 0 0 0 .03-.084c.026-.068.046-.128.061-.178a2.307 2.307 0 0 0 .008-.024l.132.605.418 2.035Z" fill="#004251" fill-rule="evenodd" data-name="Icon metro-visa"/></svg>