<svg xmlns="http://www.w3.org/2000/svg" width="17.926" height="17.926" viewBox="29.537 56.537 17.926 17.926"><path d="m32.809 71.191.407-.407a.876.876 0 0 1 .535-.253.857.857 0 0 1 .6.167.864.864 0 0 1 .017.015 6.618 6.618 0 0 0 3.66 1.42 6.761 6.761 0 0 0 .472.017 6.646 6.646 0 0 0 6.65-6.65 6.646 6.646 0 0 0-6.65-6.65 6.621 6.621 0 0 0-3.558 1.03 6.673 6.673 0 0 0-.998.775l1.834 1.834a.578.578 0 0 1-.409.987h-5.253a.578.578 0 0 1-.579-.578v-5.254a.572.572 0 0 1 .094-.319.58.58 0 0 1 .893-.09l1.785 1.784a8.931 8.931 0 0 1 5.522-2.457 9.089 9.089 0 0 1 .67-.025 8.963 8.963 0 0 1 8.962 8.946 9.032 9.032 0 0 1 0 .017 8.983 8.983 0 0 1-8.956 8.963 8.837 8.837 0 0 1-.007 0 8.925 8.925 0 0 1-5.625-1.985.857.857 0 0 1-.284-.423.869.869 0 0 1 .159-.798.881.881 0 0 1 .059-.066Zm8.116-2.86.355-.457a.864.864 0 0 0 .17-.39.867.867 0 0 0-.28-.792.88.88 0 0 0-.042-.035l-1.471-1.144V61.74a.867.867 0 0 0-.868-.867h-.578a.867.867 0 0 0-.867.867v4.903l2.364 1.839a.864.864 0 0 0 .39.17.867.867 0 0 0 .792-.28.88.88 0 0 0 .035-.043Z" fill="#fff" fill-rule="evenodd" data-name="Icon awesome-history"/></svg>