<svg width="29.25" height="27" xmlns="http://www.w3.org/2000/svg"><g opacity=".5"><path d="M25.026 6.75H4.214a4.222 4.222 0 0 0-4.219 4.219V22.78A4.222 4.222 0 0 0 4.214 27h20.812a4.222 4.222 0 0 0 4.219-4.219V10.97a4.222 4.222 0 0 0-4.219-4.219zM20.74.07L4.224 3.298c-1.031.229-2.436 1.116-2.921 2.274a2.131 2.131 0 0 0-.173.826.89.89 0 0 1 .028-.033c.18-.204 1.233-1.284 3.362-1.302h20.235V3.62c0-.755-.256-1.69-.72-2.337a2.456 2.456 0 0 0-.257-.307A3.33 3.33 0 0 0 20.74.07z" fill-rule="evenodd"/></g></svg>