<svg xmlns="http://www.w3.org/2000/svg" width="133" height="129.971" viewBox="0 0 133 129.971">
  <g id="Group_420" data-name="Group 420" transform="translate(-142 -252.686)">
    <circle id="Ellipse_31" data-name="Ellipse 31" cx="52" cy="52" r="52" transform="translate(155 276)" fill="#5662c1"/>
    <circle id="Ellipse_32" data-name="Ellipse 32" cx="9.5" cy="9.5" r="9.5" transform="translate(142 282)" fill="#5662c1" opacity="0.3"/>
    <circle id="Ellipse_33" data-name="Ellipse 33" cx="6.5" cy="6.5" r="6.5" transform="translate(262 294)" fill="#5662c1" opacity="0.4"/>
    <rect id="Rectangle_24" data-name="Rectangle 24" width="8" height="8" transform="translate(212.657 252.686) rotate(45)" fill="#5662c1" opacity="0.3"/>
    <rect id="Rectangle_25" data-name="Rectangle 25" width="8" height="8" transform="translate(256.343 371.343) rotate(45)" fill="#5662c1" opacity="0.3"/>
    <path id="Polygon_1" data-name="Polygon 1" d="M9,0l9,15H0Z" transform="translate(142 360)" fill="#5662c1" opacity="0.3"/>
    <path id="Icon_ionic-ios-lock" data-name="Icon ionic-ios-lock" d="M34.936,17.871H32.52v-4.7a9.664,9.664,0,1,0-19.327-.131v4.832H10.777A4.038,4.038,0,0,0,6.75,21.9V41.225a4.038,4.038,0,0,0,4.027,4.027H34.936a4.038,4.038,0,0,0,4.027-4.027V21.9A4.038,4.038,0,0,0,34.936,17.871ZM24.266,30.434v6.926a1.443,1.443,0,0,1-1.339,1.45,1.411,1.411,0,0,1-1.48-1.409V30.434a3.221,3.221,0,1,1,2.819,0ZM29.7,17.871H16.011V13.039a6.845,6.845,0,0,1,13.69,0Z" transform="translate(184.144 303.749)" fill="#fff"/>
  </g>
</svg>
