<svg xmlns="http://www.w3.org/2000/svg" width="14.796" height="11.837" viewBox="0 0 14.796 11.837">
  <path id="Icon_awesome-eye-slash" data-name="Icon awesome-eye-slash" d="M7.4,9.247a3.317,3.317,0,0,1-3.3-3.077L1.669,4.3A7.705,7.705,0,0,0,.82,5.581a.748.748,0,0,0,0,.675,7.415,7.415,0,0,0,6.578,4.1,7.181,7.181,0,0,0,1.8-.242L8,9.187A3.332,3.332,0,0,1,7.4,9.247Zm7.255,1.343L12.1,8.615a7.658,7.658,0,0,0,1.878-2.36.748.748,0,0,0,0-.675A7.415,7.415,0,0,0,7.4,1.479a7.124,7.124,0,0,0-3.406.872L1.051.078A.37.37,0,0,0,.532.143L.078.727a.37.37,0,0,0,.065.519l13.6,10.512a.37.37,0,0,0,.519-.065l.454-.584a.37.37,0,0,0-.065-.519ZM10.405,7.307l-.909-.7A2.191,2.191,0,0,0,6.813,3.786a1.1,1.1,0,0,1,.215.652,1.078,1.078,0,0,1-.036.231l-1.7-1.315A3.29,3.29,0,0,1,7.4,2.589a3.327,3.327,0,0,1,3.329,3.329,3.25,3.25,0,0,1-.321,1.39Z" transform="translate(0 0)" fill="#273193"/>
</svg>
