<svg enable-background="new 0 0 80 80" viewBox="0 0 80 80" xmlns="http://www.w3.org/2000/svg"><path d="m11.47 78.97c-5.19-1.69-8.44-6-8.45-11.41-.02-18.39-.02-36.79 0-55.18.01-5.14 3.12-9.43 7.92-11.19h.01c1.15-.42 2.37-.64 3.59-.64 8.02 0 16.04-.01 24.06-.01 1.07 0 2.14.01 3.21.02.31 0 .58.14.87.22 6.28 1.59 9.63 5.85 9.65 12.29.01 3.08 0 6.16 0 9.23.32.17.59.32.86.46 8.92 4.67 13.8 12.07 13.84 22.11s-4.81 17.47-13.7 22.18c-.73.38-.99.77-1.06 1.6-.49 5.47-4.72 10.01-9.74 10.56-8.95.09-17.91.19-26.86.28m31.74-58.83c0-2.67.01-5.24 0-7.8-.02-5-3.46-7.93-8.84-7.3-7.18.84-14.43.78-21.62 0-5.65-.62-9 2.24-9.01 7.51v26.98c0 9.15-.01 18.3.01 27.44.01 3.86 2.81 6.99 6.52 7.02 8.79.09 17.57.07 26.36.01 3.09-.02 5.68-2.29 6.24-5.28-8.28 1.3-15.52-.87-21.85-6.69v1.31c-.02 2.12-.85 3.24-2.41 3.28-1.63.04-2.52-1.13-2.52-3.32 0-6.63 0-13.26 0-19.89 0-6.17-.01-12.33.01-18.5.01-1.59.98-2.64 2.38-2.68 1.45-.05 2.48 1.03 2.54 2.68.02.57 0 1.14 0 1.92 6.82-6.01 11.99-7.54 22.19-6.69zm-22.2 24.28c0 2.72-.07 5.45.04 8.17.04.91.32 1.93.82 2.69 5.03 7.72 14.81 10.87 23.42 7.6 8.73-3.31 13.87-12.19 12.47-21.52-1.22-8.12-7.43-14.61-15.57-16.29-7.89-1.62-16.29 1.95-20.49 8.76-.4.65-.63 1.51-.65 2.28-.09 2.76-.04 5.53-.04 8.31z" fill="#020202"/><path d="m68.49 12.86c1.96 0 3.81-.02 5.65 0 1.79.02 2.88 1.01 2.85 2.51-.03 1.44-1.1 2.39-2.8 2.42-1.88.02-3.77.01-5.64.01 0 .17-.04.29.01.35 1.29 1.57 1.38 2.88.26 3.92s-2.51.86-3.9-.52c-1.35-1.33-2.69-2.67-4.03-4.03-1.59-1.61-1.6-2.77-.04-4.35 1.33-1.35 2.68-2.69 4.03-4.02 1.41-1.4 2.77-1.61 3.9-.6 1.15 1.02 1.08 2.33-.18 3.92-.05.06-.05.17-.11.39z" fill="#040404"/><path d="m27.67 15.33c-2.26 0-4.51.01-6.77 0-1.95-.01-3.07-.89-3.09-2.43-.03-1.56 1.09-2.5 3.01-2.5 4.56-.01 9.12-.01 13.69 0 1.91 0 3.04.96 3.02 2.5-.03 1.54-1.14 2.42-3.09 2.43-2.26.01-4.51 0-6.77 0z" fill="#020202"/><path d="m45.17 32.61c.78 0 1.61-.06 2.42.01 1.35.12 2.29 1.17 2.28 2.46-.01 1.28-.95 2.35-2.31 2.42-1.59.08-3.18.01-4.77.04-1.69.03-2.76.99-2.76 2.45-.01 1.4.97 2.34 2.59 2.48 3.69.32 6.27 2.47 7.01 5.83s-.69 6.3-3.95 8.23c-.3.18-.65.52-.7.83-.23 1.41-.98 2.29-2.4 2.35-1.45.06-2.24-.82-2.57-2.18-.02-.08-.11-.14-.22-.27-.77 0-1.59.06-2.41-.01-1.35-.12-2.28-1.18-2.27-2.46.01-1.29.95-2.35 2.31-2.42 1.59-.08 3.18-.01 4.77-.04 1.69-.03 2.76-1 2.76-2.45 0-1.4-.98-2.33-2.59-2.47-3.7-.33-6.27-2.47-7.01-5.84s.69-6.31 3.95-8.23c.3-.18.66-.51.71-.82.23-1.41.97-2.29 2.4-2.35 1.45-.06 2.24.82 2.57 2.17 0 .08.09.14.19.27z" fill="#030303"/></svg>