<svg enable-background="new 0 0 80 80" viewBox="0 0 80 80" xmlns="http://www.w3.org/2000/svg"><g fill="#010101"><path d="m8.05 7.91c-2.7 0-5.28 0-7.9 0 0-2.67 0-5.27 0-7.91h79.71v7.88c-2.56 0-5.16 0-7.88 0v1.18 65.89c0 .53-.01 1.06-.1 1.58-.32 1.86-1.8 3.18-3.68 3.24-1.78.05-3.56.02-5.33.02-16.69 0-33.38-.04-50.07.04-3.13.01-4.76-1.99-4.76-4.79.04-21.96.01-43.92.01-65.89 0-.37 0-.74 0-1.24zm55.89.06c-16 0-31.92 0-47.83 0v63.82h47.83c0-21.29 0-42.53 0-63.82z"/><path d="m36.02 20.14c0-1.35 0-2.72 0-4.16h7.95v4.33c5.83 1.62 9.05 5.41 9.66 11.5-2.7 0-5.31 0-7.66 0-.58-1.01-.96-2.06-1.68-2.78-.98-.99-2.41-1.08-3.76-1.12-2.54-.07-4.98.31-7.09 1.86-.98.72-1.62 1.61-1.38 2.94.21 1.18.93 1.86 1.96 2.3 1.91.8 3.95.85 5.97.87 2.6.03 5.17.24 7.66 1 6.34 1.92 9.7 7.75 7.88 13.81-1.17 3.91-3.99 6.29-7.67 7.74-1.24.49-2.54.8-3.9 1.22v4.15c-2.67 0-5.27 0-7.93 0 0-1.4 0-2.77 0-4.24-4.15-.76-7.82-2.35-10.22-6.02-1.09-1.67-1.75-3.5-1.77-5.6h7.89c.63 2.29 2.49 3.13 4.62 3.57 2.67.54 5.34.57 7.92-.43.91-.35 1.8-.89 2.53-1.53 1.54-1.36 1.34-3.52-.49-4.43-1.22-.61-2.64-.93-4-1.1-2.16-.26-4.38-.11-6.52-.45-1.97-.31-4-.78-5.8-1.62-7.66-3.58-8.34-13.99-1.32-18.89 1.92-1.34 4.06-2.15 6.33-2.63.21-.04.42-.09.63-.15.07-.02.11-.08.19-.14z"/></g></svg>