<svg enable-background="new 0 0 80 80" viewBox="0 0 80 80" xmlns="http://www.w3.org/2000/svg"><path d="m18.65 78.95c0-.81 0-1.53 0-2.38h4.91c0-1.72 0-3.32 0-5.08-.45 0-.91 0-1.36 0-4.82 0-9.64.01-14.46 0-4.07-.01-6.72-2.62-6.73-6.65-.01-13.2-.01-26.41 0-39.61 0-3.86 2.66-6.52 6.5-6.56 1.14-.01 2.28 0 3.56 0 0-3.61 0-7.1 0-10.6.01-4.47 2.53-7.01 7-7.01h43.86c4.47 0 7 2.53 7.01 7 .01 3.35 0 6.71 0 10.06 0 .1.01.21.04.54 1.1 0 2.23-.01 3.35 0 3.97.03 6.65 2.63 6.66 6.56.02 13.26.02 26.51 0 39.77-.01 3.83-2.71 6.48-6.57 6.49-5.29.02-10.58.01-15.97.01v4.97h4.84v2.49c-14.14 0-28.32 0-42.64 0zm26.39-35.13c5.9 0 11.6.02 17.31-.01 2.49-.01 4.05-1.53 4.06-4 .02-10.74.02-21.47 0-32.21 0-2.49-1.54-4.02-4.03-4.03-14.93-.02-29.85-.02-44.78 0-2.47 0-4 1.56-4.01 4.05-.02 10.68-.02 21.37 0 32.05 0 2.59 1.52 4.1 4.09 4.13s5.13 0 7.7.01c2.88.01 5.92-.56 8.59.19 2.72.76 5.08 2.81 7.6 4.31 1.09.65 2.18 1.3 3.47 2.08 0-2.35 0-4.38 0-6.57zm2.51 11.01c-4.44-2.66-8.63-5.22-12.87-7.67-.81-.47-1.83-.77-2.76-.78-4.66-.08-9.33-.03-13.99-.04-4.26-.01-6.86-2.59-6.86-6.83-.01-5.66 0-11.32-.01-16.97 0-.45-.05-.89-.07-1.35-.99 0-1.83 0-2.67 0-3.51 0-4.8 1.31-4.8 4.85v31.28 1.53h72.95c0-4.05 0-8.02 0-11.99 0-7.18.01-14.36-.01-21.53 0-2.2-1.22-3.83-3.15-4.05-1.42-.16-2.88-.03-4.39-.03 0 6.27.02 12.39-.01 18.52-.01 3.93-2.68 6.57-6.63 6.59-4.45.02-8.91 0-13.36.01-.45 0-.9.05-1.39.08.02 2.76.02 5.43.02 8.38zm-44.03 6.63v2.43c0 3.85 1.22 5.08 5.04 5.08h62.99c.52 0 1.05.03 1.57-.04 1.68-.2 3.1-1.45 3.28-3.12.15-1.43.03-2.88.03-4.36-24.32.01-48.5.01-72.91.01zm50.23 15.02c0-1.71 0-3.31 0-4.9-9.22 0-18.36 0-27.5 0v4.9z" fill="#010101"/><path d="m25.33 21.17c.41 0 .74-.31.79-.71 1.09-9.27 6.32-14.51 14.24-14.38 6.08.1 13.3 4.84 13.53 14.28.01.43.36.76.79.77 2.11.05 4 .71 5.42 2.52 1.61 2.05 1.37 4.45 1.25 6.78-.18 3.4-2.51 5.39-6.78 5.86-.39.04-.69.36-.71.76-.01.16-.02.32-.03.49-.14 2.22-1.61 3.69-3.84 3.75-1.68.05-3.37-.03-5.04.03-.66.03-1.52.48-1.96.97-1.17 1.32-2.54 1.82-4.06 1.34-1.65-.52-2.72-1.97-2.69-3.64.02-1.62 1.06-3 2.64-3.52 1.62-.54 3.08.04 4.28 1.49.35.42 1.04.74 1.6.79 1.41.11 2.83.04 4.24.04 1.88 0 2.26-.13 2.29-1.66.01-.44-.32-.8-.76-.82l-.88-.04c-.41-.02-.75-.37-.75-.8v-13.47c0-.43.33-.78.76-.8l.91-.04c.4-.02.74-.37.74-.79.03-4-1.44-7.31-4.82-9.66-3.87-2.7-8.03-2.91-12.12-.55-3.91 2.26-5.68 5.74-5.69 10.22 0 .44.36.81.8.81h.85c.44 0 .8.36.8.8v13.26c0 .44-.36.8-.8.8-2.34 0-4.7.01-7.07-.01-.3 0-.6-.17-.89-.29-3.2-1.4-4.6-5.03-3.67-9.45.65-3.07 3.13-5.04 6.46-5.1.06-.02.12-.03.17-.03zm1.6 12.51h.87c.44 0 .8-.36.8-.8v-8.34c0-.42-.33-.77-.74-.8-4.23-.31-6.1.55-6.65 2.94-.6 2.6-.18 4.71 1.15 5.88.52.46 1.34.1 1.34-.59v-4.9c0-.44.36-.8.8-.8h.85c.44 0 .8.36.8.8v5.8c-.01.45.34.81.78.81zm29.41-1.61c0 .68.8 1.06 1.31.61 1.56-1.37 1.53-4.02.94-6.41-.57-2.31-2.97-3.12-6.5-2.52-.38.07-.67.4-.67.79v8.31c0 .44.36.8.8.8h.89c.44 0 .8-.36.8-.8v-5.75c0-.44.36-.8.8-.8h.84c.44 0 .8.36.8.8v4.97zm-15.65 7.04c-.29-.45-.94-.48-1.28-.07s-.58.71-.58 1.02c0 .41.69 1.14 1.1 1.16.42.02 1.19-.61 1.23-1.02.03-.32-.17-.65-.47-1.09z" fill="#040404"/><path d="m6.07 51.28c0-.81 0-1.53 0-2.34h20v2.34c-6.6 0-13.22 0-20 0z"/><path d="m73.91 48.95v2.31c-6.62 0-13.24 0-19.97 0 0-.7 0-1.45 0-2.31z"/><path d="m21.1 53.97v2.34c-4.98 0-9.93 0-14.97 0 0-.74 0-1.5 0-2.34z"/><path d="m68.9 53.97v2.34c-4.98 0-9.93 0-14.97 0 0-.74 0-1.49 0-2.34z"/><path d="m23.7 56.29c0-.75 0-1.47 0-2.3h2.35v2.3c-.67 0-1.42 0-2.35 0z"/><path d="m71.55 53.94h2.3v2.35c-.68 0-1.43 0-2.3 0 0-.68 0-1.43 0-2.35z"/><path d="m43.73 64.02v2.36c-2.48 0-4.91 0-7.42 0 0-.77 0-1.52 0-2.36z"/><path d="m31.31 64h2.33v2.39c-.81 0-1.56 0-2.33 0 0-.84 0-1.64 0-2.39z"/><path d="m46.34 66.35c0-.75 0-1.47 0-2.3h2.35v2.3c-.67 0-1.43 0-2.35 0z"/></svg>