<svg width="76" height="76" viewBox="0 0 76 76" fill="none" xmlns="http://www.w3.org/2000/svg">
<rect width="76" height="76" rx="10" fill="#31A44A"/>
<path fill-rule="evenodd" clip-rule="evenodd" d="M41.766 0H66C71.5228 0 76 4.47715 76 10V30.9031C72.4358 32.9649 68.2977 34.145 63.884 34.145C50.5011 34.145 39.6521 23.296 39.6521 9.91308C39.6521 6.3813 40.4077 3.026 41.766 0Z" fill="black" fill-opacity="0.1"/>
<path fill-rule="evenodd" clip-rule="evenodd" d="M43.988 75.9999C42.8526 58.1688 28.0307 44.0579 9.91302 44.0579C6.46548 44.0579 3.13728 44.5688 0 45.5191V56.1801C3.0244 54.8166 6.3801 54.0579 9.91302 54.0579C22.5053 54.0579 32.8461 63.6974 33.9588 75.9999H43.988Z" fill="black" fill-opacity="0.05"/>
<circle cx="26.4349" cy="18.7247" r="6.6087" fill="black" fill-opacity="0.1"/>
<circle cx="48.4637" cy="57.2754" r="4.4058" fill="black" fill-opacity="0.07"/>
</svg>
