<svg width="59" height="59" viewBox="0 0 59 59" fill="none" xmlns="http://www.w3.org/2000/svg">
<rect x="0.988281" y="0.987061" width="57.4391" height="57.4391" rx="10" fill="#F79B2B"/>
<path fill-rule="evenodd" clip-rule="evenodd" d="M32.5538 0.987061H48.4274C53.9502 0.987061 58.4274 5.46421 58.4274 10.9871V24.3429C55.7335 25.9013 52.6059 26.7933 49.27 26.7933C39.1555 26.7933 30.9561 18.5938 30.9561 8.47933C30.9561 5.81002 31.5271 3.2741 32.5538 0.987061Z" fill="black" fill-opacity="0.1"/>
<path fill-rule="evenodd" clip-rule="evenodd" d="M34.234 58.4263C33.376 44.9498 22.1739 34.2849 8.48081 34.2849C5.87506 34.2849 3.35951 34.6711 0.988281 35.3894V46.1701C3.21806 44.9675 5.76972 44.2849 8.48081 44.2849C16.648 44.2849 23.3684 50.4793 24.2002 58.4263H34.234Z" fill="black" fill-opacity="0.05"/>
<circle cx="20.9664" cy="15.1387" r="4.9947" fill="black" fill-opacity="0.1"/>
<circle cx="37.6159" cy="44.2746" r="3.3298" fill="black" fill-opacity="0.07"/>
</svg>
