<svg width="58" height="58" viewBox="0 0 58 58" fill="none" xmlns="http://www.w3.org/2000/svg">
<rect width="57.4391" height="57.4391" rx="10" fill="#9F2DF8"/>
<path fill-rule="evenodd" clip-rule="evenodd" d="M31.5655 0H47.4391C52.9619 0 57.4391 4.47715 57.4391 10V23.3559C54.7453 24.9143 51.6176 25.8062 48.2817 25.8062C38.1672 25.8062 29.9678 17.6068 29.9678 7.49227C29.9678 4.82296 30.5388 2.28704 31.5655 0Z" fill="black" fill-opacity="0.1"/>
<path fill-rule="evenodd" clip-rule="evenodd" d="M33.2457 57.4392C32.3877 43.9627 21.1856 33.2979 7.49253 33.2979C4.88678 33.2979 2.37123 33.6841 0 34.4024V45.1831C2.22978 43.9804 4.78144 43.2979 7.49253 43.2979C15.6597 43.2979 22.3801 49.4923 23.2119 57.4392H33.2457Z" fill="black" fill-opacity="0.05"/>
<circle cx="19.9781" cy="14.1517" r="4.9947" fill="black" fill-opacity="0.1"/>
<circle cx="36.6277" cy="43.2876" r="3.3298" fill="black" fill-opacity="0.07"/>
</svg>
