<svg xmlns="http://www.w3.org/2000/svg" width="20.346" height="28.158" viewBox="0 0 20.346 28.158">
  <path id="Icon_metro-bitcoin" data-name="Icon metro-bitcoin" d="M26.748,13.071a4.011,4.011,0,0,1-2.217,4.366,5.082,5.082,0,0,1,2.961,1.743,5.015,5.015,0,0,1,.761,3.621,6.4,6.4,0,0,1-.55,2.115,4.669,4.669,0,0,1-1.091,1.506,5.555,5.555,0,0,1-1.641.99A10,10,0,0,1,22.915,28a20.389,20.389,0,0,1-2.462.254v4.315H17.847V28.317q-1.354,0-2.064-.017v4.264H13.177V28.25q-.3,0-.914-.008t-.931-.008H7.948l.525-3.1h1.878a.9.9,0,0,0,.981-.863v-6.8H11.6a1.721,1.721,0,0,0-.271-.017V12.6a1.344,1.344,0,0,0-1.506-1.151H7.948V8.671l3.587.017q1.083,0,1.641-.017V4.407h2.606v4.18q1.388-.034,2.064-.034V4.407h2.606V8.671a15.1,15.1,0,0,1,2.369.381,7.7,7.7,0,0,1,1.912.761,3.877,3.877,0,0,1,1.4,1.32,4.318,4.318,0,0,1,.618,1.938ZM23.11,22.293a2.258,2.258,0,0,0-.254-1.083,2.537,2.537,0,0,0-.626-.778,3.213,3.213,0,0,0-.973-.516,8.215,8.215,0,0,0-1.108-.313A10.006,10.006,0,0,0,18.9,19.45q-.744-.051-1.168-.051t-1.091.017q-.668.017-.8.017v5.72q.135,0,.626.008t.812.008q.322,0,.9-.025t.99-.068q.415-.042.965-.144a6.477,6.477,0,0,0,.939-.237,5.75,5.75,0,0,0,.8-.355,2.345,2.345,0,0,0,.668-.508,2.392,2.392,0,0,0,.415-.677,2.243,2.243,0,0,0,.161-.863Zm-1.2-8.055a2.221,2.221,0,0,0-.212-.99,2.358,2.358,0,0,0-.516-.711,2.53,2.53,0,0,0-.812-.474,5.816,5.816,0,0,0-.931-.279,9.317,9.317,0,0,0-1.041-.135q-.618-.051-.981-.042t-.914.017q-.55.008-.668.008v5.2l.584.008q.5.008.787,0t.846-.034a7.156,7.156,0,0,0,.931-.093q.372-.068.871-.186a2.869,2.869,0,0,0,.821-.313,4.646,4.646,0,0,0,.626-.457,1.628,1.628,0,0,0,.457-.651,2.347,2.347,0,0,0,.152-.863Z" transform="translate(-7.948 -4.407)" fill="#fff"/>
</svg>
