<svg xmlns="http://www.w3.org/2000/svg" width="15.282" height="17.829" viewBox="0 0 15.282 17.829">
  <path id="Icon_metro-language" data-name="Icon metro-language" d="M11.277,12.929q-.01.03-.124,0t-.313-.114l-.2-.09a5.961,5.961,0,0,1-.866-.488q-.07-.05-.408-.313t-.378-.284a16.95,16.95,0,0,1-1.333,1.8,7.4,7.4,0,0,1-1.045,1.094.788.788,0,0,1-.194.04.383.383,0,0,1-.184,0q.06-.04.816-.915.209-.239.851-1.144a13.91,13.91,0,0,0,.781-1.174q.169-.3.507-.98a7.755,7.755,0,0,0,.358-.771,8.176,8.176,0,0,0-1.094.328q-.08.02-.274.075l-.343.095a1.7,1.7,0,0,0-.169.05.169.169,0,0,0-.02.1.221.221,0,0,1-.01.095q-.05.1-.308.149a.8.8,0,0,1-.468,0,.42.42,0,0,1-.279-.209.506.506,0,0,1-.05-.229,1.923,1.923,0,0,1,.244-.05,2.971,2.971,0,0,0,.294-.06q.577-.159,1.045-.318.995-.348,1.015-.348a2.207,2.207,0,0,0,.428-.194,4.5,4.5,0,0,1,.438-.214q.09-.03.214-.08t.144-.055a.133.133,0,0,1,.06,0,1.132,1.132,0,0,1-.01.328,2.119,2.119,0,0,1-.124.269q-.124.249-.264.532t-.169.333a14.922,14.922,0,0,1-.766,1.3l.637.279q.119.06.741.318l.672.279q.04.01.1.254a.754.754,0,0,1,.045.3ZM9.237,8.093a.4.4,0,0,1-.04.279.9.9,0,0,1-.5.378,1.6,1.6,0,0,1-.6.119.823.823,0,0,1-.488-.259A.748.748,0,0,1,7.436,8.2l.01-.03a.426.426,0,0,0,.194.05.865.865,0,0,0,.264,0q.1-.02.577-.159a2.841,2.841,0,0,1,.547-.139.2.2,0,0,1,.209.169Zm6.945,1.283.627,2.258-1.383-.418ZM5.158,17.336l6.9-2.308V4.76l-6.9,2.318V17.336ZM17.5,14.182l1.015.308-1.8-6.537-.995-.308-2.149,5.333,1.015.308.448-1.094,2.1.647Zm-5-9.571,5.7,1.831V2.661Zm3.094,13.163,1.572.129L16.629,19.5l-.4-.657a7.375,7.375,0,0,1-2.746,1.075,4.768,4.768,0,0,1-.905.119h-.836a6.724,6.724,0,0,1-1.985-.388A6.607,6.607,0,0,1,7.934,18.8a.207.207,0,0,1-.08-.159.192.192,0,0,1,.05-.134.167.167,0,0,1,.129-.055.56.56,0,0,1,.179.075l.3.164.2.109a8.815,8.815,0,0,0,1.587.612,5.8,5.8,0,0,0,1.567.244,8.49,8.49,0,0,0,1.662-.144,8.2,8.2,0,0,0,1.562-.5q.149-.07.3-.154t.338-.189q.184-.1.284-.164ZM20.052,7.039V17.774l-7.7-2.448q-.139.06-3.731,1.269T4.959,17.8a.18.18,0,0,1-.179-.129.077.077,0,0,0-.01-.03V6.919a.444.444,0,0,1,.04-.1.448.448,0,0,1,.2-.109q1.055-.348,1.482-.5V2.393l5.552,1.97q.02,0,1.6-.547t3.144-1.079Q18.351,2.2,18.39,2.2q.2,0,.2.209V6.571Z" transform="translate(-4.77 -2.203)" fill="#273193"/>
</svg>
