<?xml version="1.0" encoding="utf-8"?>
<!-- Generator: Adobe Illustrator 25.2.1, SVG Export Plug-In . SVG Version: 6.00 Build 0)  -->
<svg version="1.1" id="Layer_1" xmlns="http://www.w3.org/2000/svg" xmlns:xlink="http://www.w3.org/1999/xlink" x="0px" y="0px"
	 viewBox="0 0 1920 1080" style="enable-background:new 0 0 1920 1080;" xml:space="preserve">
<style type="text/css">
	.st0{fill:#17A2B8;}
	.st1{fill:#76BD1D;}
	.st2{font-family:'Khand-Regular';}
	.st3{font-size:272.5045px;}
	.st4{display:none;}
	.st5{display:inline;fill:#FFFFFF;}
	.st6{display:inline;}
	.st7{fill:#FFFFFF;}
</style>
<g id="Blue">
	<g>
		<path class="st0" d="M670.1,401.4c-1.6,44.4-7.7,88-20.6,130.5c-5.2,17.2-11.5,34-19.2,50.2c-12.8,26.9-28.5,51.7-50.2,72.4
			c-19,18.2-40.8,31.1-66.6,37.5c-12.9,3.2-24.8,0.8-36.8-3c-25.6-8.2-46.6-23.6-64.5-43.2c-22.5-24.6-38.2-53.2-50.4-84
			c-11.9-30.1-19.6-61.3-24.8-93.3c-0.9-5.8-1.8-11.6-2.5-17.4c-0.9-7.3-1.5-14.8-2-22.2c-1.1-15.9-1.6-31.7-1.7-47.6
			c0-2.6,0.8-3.5,3.3-4.1c53.5-13.4,107-26.8,160.4-40.3c1.5-0.4,2.9-0.3,4.4,0c55.8,13.4,111.7,26.8,167.5,40
			c2.9,0.7,4.1,1.6,3.9,4.8C669.9,388.3,670.1,394.9,670.1,401.4z M351.4,394c0,1.4,0,2.5,0,3.6c0.5,30,3.7,59.6,9.6,89
			c7.5,37.3,19.2,73,38.1,106.2c12.2,21.4,26.9,40.7,46.3,56.1c13.5,10.8,28.5,18.8,45.4,22.8c4.1,1,8.3,2.2,12.6,1.4
			c6.8-1.3,13.5-3,20-5.6c22.5-8.8,40.4-23.7,55.7-42c20.9-25,35.1-53.7,45.8-84.3c16.3-46.5,23.4-94.6,24.6-143.8
			c0.1-2.7-0.7-3.7-3.3-4.3c-49-11.6-98-23.4-147-35.1c-1.9-0.5-3.6-0.4-5.5,0.1c-33.9,8.5-67.7,17-101.6,25.5
			C378.7,387,365.1,390.5,351.4,394z"/>
		<path class="st0" d="M538.8,513.3c-0.7-6-5.9-10.6-12.1-10.6c-18,0-36,0-54,0c-1.3,0-2.6,0.1-3.9,0.6c-4.5,1.6-7.4,4.7-8.1,9.4
			c-0.8,4.9,0.8,9,5,12c0.2,0.1,0.3,0.2,0.5,0.3c0,0,0,0,0,0c0.1,0.1,0.2,0.1,0.3,0.2c0.1,0.2,0.3,0.3,0.5,0.3c0,0,0,0,0,0
			c0.2,0.1,0.3,0.2,0.5,0.3c0.1,0.2,0.3,0.2,0.5,0.2c0.2,0.2,0.5,0.3,0.8,0.3c0.3,0.3,0.7,0.2,1,0.3c0,0,0,0,0,0
			c0.9,0.5,1.8,0.4,2.7,0.4c18.1,0,36.2,0,54.4,0c0.6,0,1.2,0.1,1.7-0.2c0.3,0,0.6,0,0.9-0.1C535.6,525.1,539.5,519.5,538.8,513.3z"
			/>
		<g>
			<g>
				<path class="st1" d="M422.3,521.4c-0.9-10.4,0.1-20.5,3.3-30.5c5.5-17.2,15.7-30.9,30.6-41.2c2.4-1.7,5-3.1,7.5-4.7
					c0.5,0.1,0.8-0.3,1.2-0.5c9.8-4.9,20.1-7.7,31-8.3c11.2-0.6,22.1,1.1,32.6,5.1c10.7,4.1,20,10.4,28.1,18.5
					c0.2,0.2,0.7,0.4,0.5,1c-0.6,0-1.2,0-1.8,0c-27.3,0-54.6,0-81.9,0c-0.5,0-1,0-1.5,0.1c-0.4,0-0.9,0.1-1.3,0.1
					c-5.8,0.8-10.3,6.2-10.2,12c0.1,6.1,4.7,11.3,10.5,11.9c0.4,0.1,0.9,0.2,1.4,0.1c0.4,0,0.8,0.1,1.3,0.1c13.8,0,27.6,0,41.4,0
					c1.2,0,2.4-0.1,3.6-0.1c0.7,0.3,1.4,0.3,2.1,0c1.2,0.2,2.4,0.2,3.6,0c0.4,0.2,0.7,0.2,1.1,0c0.6,0.1,1.2,0.2,1.8,0
					c0.3,0.2,0.6,0.2,0.9,0.2c5.4,0,10.9,0,16.3,0c0.3,0,0.6-0.1,0.9-0.2c2,0.2,4.1,0.1,6.1,0c2.6,0,5.2,0,7.8,0c-2.6,0-5.2,0-7.8,0
					c0.4,0,0.8,0.1,1.3,0.1c15,0,29.9,0,44.9,0c0.4,0,0.8,0.1,1.1-0.1c0-0.1,0.1-0.2,0-0.3c-2.7-8.5-6.3-16.6-11.1-24.2
					c-3.1-4.8-6.6-9.3-10.3-13.7c-4.3-5.1-9.2-9.5-14.5-13.5c-17.7-13.5-37.8-20.6-60.1-21.2c-13.3-0.3-26.1,1.8-38.5,6.5
					c-5.3,2-10.5,4.4-15.3,7.4c-0.1,0.1-0.2,0.1-0.2,0.2c-0.1,0-0.2,0.1-0.3,0.1c-0.1,0.1-0.2,0.1-0.2,0.2c0,0,0,0,0,0
					c-0.3,0.2-0.5,0.3-0.8,0.5c0,0,0,0,0,0c-0.2,0.1-0.3,0.2-0.5,0.3c0,0,0,0,0,0c-0.4,0.1-0.8,0.4-1.1,0.7c0,0,0,0,0,0
					c-0.2,0.1-0.3,0.2-0.5,0.3c0,0,0,0,0,0c-7.8,4.8-14.6,10.8-20.8,17.6c-5.7,6.3-10.5,13.2-14.4,20.7c-4.8,9.2-8.2,19-10,29.2
					c-1.3,7.4-1.8,14.9-1.5,22.4c0.1,2.8,0.2,5.7,0.8,8.5c8,0,16,0,24,0C422.8,525,422.5,523.2,422.3,521.4z"/>
				<path class="st1" d="M602.6,506.8c-0.1-1.4-0.3-2.7-0.5-4c-8.1,0-16,0-24,0c0.1,2.5,0.5,4.8,0.7,7.2c0.5,6.4,0,12.6-1,18.9
					c-0.7,4.1-1.9,8-3,11.9c-0.1,0.2-0.3,0.4-0.3,0.6c-2.1,6.1-5,11.8-8.6,17.1c-8.5,12.7-19.8,22.2-33.9,28.3
					c-8.8,3.9-18.1,6-27.8,6.4c-10.7,0.4-21-1.2-31-5c-2.6-1-5.1-2-7.6-3.3c-6.2-3.2-12-7-17.1-11.7c-1.7-1.5-3.5-3-4.9-4.9
					c0.3,0,0.6,0,0.9,0c27.3,0,54.6,0,81.9,0c0.4,0,0.9-0.1,1.3-0.1c5.2,0,9.9-4,11.1-9c1.8-8-3.9-15.1-12.2-15.1c-41,0-82,0-123,0
					c-0.4,0-0.7-0.1-1.1,0.1c1.9,6.5,4.6,12.6,7.7,18.6c1.9,3.8,4.2,7.4,6.7,10.8c5.7,7.9,12.3,15,20,21.1
					c9.4,7.5,19.8,13.1,31.1,17.1c4.9,1.7,9.9,2.9,14.9,3.8c4.3,0.7,8.5,1.3,12.9,1.4c0.9,0.2,1.7,0.2,2.6,0.1
					c1.9,0.1,3.7,0.1,5.6,0c0.7,0.2,1.5,0.1,2.2-0.1c9.6-0.4,18.9-2.2,28-5.4c18.1-6.3,33.2-16.8,45.4-31.5c3-3.5,5.6-7.3,8-11.2
					c2-3.2,3.8-6.4,5.3-9.8l0,0c0.2-0.4,0.4-0.7,0.5-1.1c1.2-2.3,2.1-4.7,3-7.1c2.9-7.8,4.8-15.8,5.7-24.1
					C603,520.2,603,513.5,602.6,506.8z"/>
			</g>
		</g>
	</g>
	<g>
		<text transform="matrix(1.397 0 0 1 730.2007 607.9531)" class="st0 st2 st3">ESCROC</text>
	</g>
</g>
<g class="st4">
	<path class="st5" d="M562.1,434.8c-1.6,44.4-7.7,88-20.6,130.5c-5.2,17.2-11.5,34-19.2,50.2c-12.8,26.9-28.5,51.7-50.2,72.4
		c-19,18.2-40.8,31.1-66.6,37.5c-12.9,3.2-24.8,0.8-36.8-3c-25.6-8.2-46.6-23.6-64.5-43.2c-22.5-24.6-38.2-53.2-50.4-84
		c-11.9-30.1-19.6-61.3-24.8-93.3c-0.9-5.8-1.8-11.6-2.5-17.4c-0.9-7.3-1.5-14.8-2-22.2c-1.1-15.9-1.6-31.7-1.7-47.6
		c0-2.6,0.8-3.5,3.3-4.1c53.5-13.4,107-26.8,160.4-40.3c1.5-0.4,2.9-0.3,4.4,0c55.8,13.4,111.7,26.8,167.5,40
		c2.9,0.7,4.1,1.6,3.9,4.8C561.9,421.7,562.1,428.3,562.1,434.8z M243.4,427.4c0,1.4,0,2.5,0,3.6c0.5,30,3.7,59.6,9.6,89
		c7.5,37.3,19.2,73,38.1,106.2c12.2,21.4,26.9,40.7,46.3,56.1c13.5,10.8,28.5,18.8,45.4,22.8c4.1,1,8.3,2.2,12.6,1.4
		c6.8-1.3,13.5-3,20-5.6c22.5-8.8,40.4-23.7,55.7-42c20.9-25,35.1-53.7,45.8-84.3c16.3-46.5,23.4-94.6,24.6-143.8
		c0.1-2.7-0.7-3.7-3.3-4.3c-49-11.6-98-23.4-147-35.1c-1.9-0.5-3.6-0.4-5.5,0.1c-33.9,8.5-67.7,17-101.6,25.5
		C270.7,420.4,257.1,423.9,243.4,427.4z"/>
	<path class="st5" d="M430.8,546.7c-0.7-6-5.9-10.6-12.1-10.6c-18,0-36,0-54,0c-1.3,0-2.6,0.1-3.9,0.6c-4.5,1.6-7.4,4.7-8.1,9.4
		c-0.8,4.9,0.8,9,5,12c0.2,0.1,0.3,0.2,0.5,0.3c0,0,0,0,0,0c0.1,0.1,0.2,0.1,0.3,0.2c0.1,0.2,0.3,0.3,0.5,0.3c0,0,0,0,0,0
		c0.2,0.1,0.3,0.2,0.5,0.3c0.1,0.2,0.3,0.2,0.5,0.2c0.2,0.2,0.5,0.3,0.8,0.3c0.3,0.3,0.7,0.2,1,0.3c0,0,0,0,0,0
		c0.9,0.5,1.8,0.4,2.7,0.4c18.1,0,36.2,0,54.4,0c0.6,0,1.2,0.1,1.7-0.2c0.3,0,0.6,0,0.9-0.1C427.6,558.5,431.5,552.9,430.8,546.7z"
		/>
	<g class="st6">
		<g>
			<path class="st1" d="M314.3,554.8c-0.9-10.4,0.1-20.5,3.3-30.5c5.5-17.2,15.7-30.9,30.6-41.2c2.4-1.7,5-3.1,7.5-4.7
				c0.5,0.1,0.8-0.3,1.2-0.5c9.8-4.9,20.1-7.7,31-8.3c11.2-0.6,22.1,1.1,32.6,5.1c10.7,4.1,20,10.4,28.1,18.5c0.2,0.2,0.7,0.4,0.5,1
				c-0.6,0-1.2,0-1.8,0c-27.3,0-54.6,0-81.9,0c-0.5,0-1,0-1.5,0.1c-0.4,0-0.9,0.1-1.3,0.1c-5.8,0.8-10.3,6.2-10.2,12
				c0.1,6.1,4.7,11.2,10.5,11.9c0.4,0.1,0.9,0.2,1.4,0.1c0.4,0,0.8,0.1,1.3,0.1c13.8,0,27.6,0,41.4,0c1.2,0,2.4-0.1,3.6-0.1
				c0.7,0.3,1.4,0.3,2.1,0c1.2,0.2,2.4,0.2,3.6,0c0.4,0.2,0.7,0.2,1.1,0c0.6,0.1,1.2,0.2,1.8,0c0.3,0.2,0.6,0.2,0.9,0.2
				c5.4,0,10.9,0,16.3,0c0.3,0,0.6-0.1,0.9-0.2c2,0.2,4.1,0.1,6.1,0c2.6,0,5.2,0,7.8,0c-2.6,0-5.2,0-7.8,0c0.4,0,0.8,0.1,1.3,0.1
				c15,0,29.9,0,44.9,0c0.4,0,0.8,0.1,1.1-0.1c0-0.1,0.1-0.2,0-0.3c-2.7-8.5-6.3-16.6-11.1-24.2c-3.1-4.8-6.6-9.3-10.3-13.7
				c-4.3-5.1-9.2-9.5-14.5-13.5c-17.7-13.5-37.8-20.6-60.1-21.2c-13.3-0.3-26.1,1.8-38.5,6.5c-5.3,2-10.5,4.4-15.3,7.4
				c-0.1,0.1-0.2,0.1-0.2,0.2c-0.1,0-0.2,0.1-0.3,0.1c-0.1,0.1-0.2,0.1-0.2,0.2c0,0,0,0,0,0c-0.3,0.2-0.5,0.3-0.8,0.5c0,0,0,0,0,0
				c-0.2,0.1-0.3,0.2-0.5,0.3c0,0,0,0,0,0c-0.4,0.1-0.8,0.4-1.1,0.7c0,0,0,0,0,0c-0.2,0.1-0.3,0.2-0.5,0.3c0,0,0,0,0,0
				c-7.8,4.8-14.6,10.8-20.8,17.6c-5.7,6.3-10.5,13.2-14.4,20.7c-4.8,9.2-8.2,19-10,29.2c-1.3,7.4-1.8,14.9-1.5,22.4
				c0.1,2.8,0.2,5.7,0.8,8.5c8,0,16,0,24,0C314.8,558.5,314.5,556.6,314.3,554.8z"/>
			<path class="st1" d="M494.6,540.3c-0.1-1.4-0.3-2.7-0.5-4c-8.1,0-16,0-24,0c0.1,2.5,0.5,4.8,0.7,7.2c0.5,6.4,0,12.6-1,18.9
				c-0.7,4.1-1.9,8-3,11.9c-0.1,0.2-0.3,0.4-0.3,0.6c-2.1,6.1-5,11.8-8.6,17.1c-8.5,12.7-19.8,22.2-33.9,28.3
				c-8.8,3.9-18.1,6-27.8,6.4c-10.7,0.4-21-1.2-31-5c-2.6-1-5.1-2-7.6-3.3c-6.2-3.2-12-7-17.1-11.7c-1.7-1.5-3.5-3-4.9-4.9
				c0.3,0,0.6,0,0.9,0c27.3,0,54.6,0,81.9,0c0.4,0,0.9-0.1,1.3-0.1c5.2,0,9.9-4,11.1-9c1.8-8-3.9-15.1-12.2-15.1c-41,0-82,0-123,0
				c-0.4,0-0.7-0.1-1.1,0.1c1.9,6.5,4.6,12.6,7.7,18.6c1.9,3.8,4.2,7.4,6.7,10.8c5.7,7.9,12.3,15,20,21.1
				c9.4,7.5,19.8,13.1,31.1,17.1c4.9,1.7,9.9,2.9,14.9,3.8c4.3,0.7,8.5,1.3,12.9,1.4c0.9,0.2,1.7,0.2,2.6,0.1c1.9,0.1,3.7,0.1,5.6,0
				c0.7,0.2,1.5,0.1,2.2-0.1c9.6-0.4,18.9-2.2,28-5.4c18.1-6.3,33.2-16.8,45.4-31.5c3-3.5,5.6-7.3,8-11.2c2-3.2,3.8-6.4,5.3-9.8l0,0
				c0.2-0.4,0.4-0.7,0.5-1.1c1.2-2.3,2.1-4.7,3-7.1c2.9-7.8,4.8-15.8,5.7-24.1C495,553.6,495,546.9,494.6,540.3z"/>
		</g>
	</g>
	<g class="st6">
		<text transform="matrix(1.397 0 0 1 622.2007 641.3817)" class="st7 st2 st3">ESCROC</text>
	</g>
</g>
</svg>
