<svg id="Layer_1" data-name="Layer 1" xmlns="http://www.w3.org/2000/svg" viewBox="0 0 481.04 507"><defs><style>.cls-1{fill:#17a2b8;}.cls-2{fill:#76bd1d;}</style></defs><path class="cls-1" d="M496.36,96c-2.22,63-11,125-29.22,185.43A506.74,506.74,0,0,1,440,352.75c-18.12,38.17-40.44,73.46-71.11,102.91-26.91,25.85-57.84,44.22-94.39,53.25-18.22,4.5-35.12,1.14-52.08-4.33-36.31-11.7-66-33.5-91.45-61.43C99.08,408.23,76.76,367.49,59.49,323.8,42.58,281,31.7,236.63,24.34,191.28c-1.34-8.21-2.59-16.51-3.59-24.7-1.27-10.41-2.11-21-2.82-31.52q-2.26-33.79-2.45-67.67c0-3.71,1.16-4.93,4.64-5.8Q133.8,33.13,247.43,4.37a12.28,12.28,0,0,1,6.17,0Q372.27,33,491,61.31c4,1,5.76,2.2,5.53,6.78C496,77.37,496.36,86.7,496.36,96ZM44.78,85.46c0,2,0,3.54,0,5.09A698.47,698.47,0,0,0,58.43,217c10.68,52.93,27.26,103.78,54,150.91,17.24,30.36,38.14,57.76,65.59,79.71,19.15,15.31,40.31,26.68,64.26,32.38,5.85,1.39,11.7,3.18,17.87,2.05a152.63,152.63,0,0,0,28.38-7.9c31.85-12.54,57.28-33.69,79-59.71,29.61-35.54,49.69-76.34,64.84-119.75,23.07-66.11,33.22-134.46,34.91-204.28.09-3.9-1-5.24-4.65-6.12Q358.45,59.48,254.33,34.39a15.69,15.69,0,0,0-7.82.1Q174.57,52.66,102.6,70.73C83.41,75.56,64.24,80.49,44.78,85.46Z" transform="translate(-15.48 -4)"/><path class="cls-1" d="M310.31,255a17.29,17.29,0,0,0-17.16-15.08q-38.23-.06-76.47,0a15.8,15.8,0,0,0-5.54.83c-6.34,2.29-10.42,6.73-11.48,13.39-1.11,7,1.19,12.82,7.1,17l.7.48h0l.43.26a.89.89,0,0,0,.74.41h0l.7.38a.83.83,0,0,0,.76.33,1.39,1.39,0,0,0,1.09.41c.4.4.94.34,1.44.4l0,0a7.21,7.21,0,0,0,3.88.64h77A4.13,4.13,0,0,0,296,274a10.56,10.56,0,0,0,1.26-.14A17.25,17.25,0,0,0,310.31,255Z" transform="translate(-15.48 -4)"/><path class="cls-2" d="M145.29,266.5a110.88,110.88,0,0,1,4.62-43.28c7.78-24.47,22.3-43.9,43.3-58.49,3.41-2.37,7-4.43,10.57-6.63.67.1,1.13-.37,1.66-.64a109.29,109.29,0,0,1,43.94-11.74A110.39,110.39,0,0,1,295.57,153a112.05,112.05,0,0,1,39.79,26.33c.34.35.95.62.69,1.42H217.46c-.73,0-1.45.07-2.18.11s-1.21.09-1.81.17A17.28,17.28,0,0,0,199,198.18c.21,8.63,6.69,16,14.91,16.91a3.62,3.62,0,0,0,1.93.11c.61,0,1.21.13,1.81.13q29.31,0,58.62,0c1.69,0,3.38-.12,5.08-.18a4.16,4.16,0,0,0,2.95,0,19.48,19.48,0,0,0,5.06,0,1.31,1.31,0,0,0,1.51,0,4.93,4.93,0,0,0,2.5,0,1.83,1.83,0,0,0,1.23.24h23.11a6.71,6.71,0,0,0,1.22-.23,75.47,75.47,0,0,0,8.64.06h0c.6.06,1.2.17,1.79.17q31.8,0,63.61,0a2.72,2.72,0,0,0,1.59-.18c0-.13.07-.25,0-.36a141.53,141.53,0,0,0-15.78-34.34A183.69,183.69,0,0,0,364.3,161a130,130,0,0,0-20.5-19.24,145.11,145.11,0,0,0-139.69-20.84,124.27,124.27,0,0,0-21.75,10.53l-.33.24-.37.13-.35.26h0l-1.08.68h0l-.71.42h0a3.19,3.19,0,0,0-1.53,1h0l-.71.41v0a136.67,136.67,0,0,0-29.4,25A139.1,139.1,0,0,0,127.42,189a145.21,145.21,0,0,0-14.21,41.52,142.85,142.85,0,0,0-2.12,31.79,78.89,78.89,0,0,0,1.13,12.08h34C145.88,271.67,145.5,269.09,145.29,266.5Z" transform="translate(-15.48 -4)"/><path class="cls-2" d="M400.64,245.82c-.12-1.92-.46-3.83-.69-5.74h-34c.2,3.5.7,6.85,1,10.23a110.31,110.31,0,0,1-1.41,26.86,139.26,139.26,0,0,1-4.25,17,5.08,5.08,0,0,0-.45.78,102.93,102.93,0,0,1-12.17,24.35,109.25,109.25,0,0,1-48,40.21,107.22,107.22,0,0,1-39.34,9,113,113,0,0,1-54.63-11.7,112.32,112.32,0,0,1-24.27-16.57c-2.43-2.19-5-4.26-6.9-7,.43,0,.85,0,1.28,0l116.05,0c.6,0,1.21-.07,1.81-.11,7.32,0,14.05-5.73,15.67-12.85,2.59-11.38-5.55-21.48-17.3-21.48q-87.11,0-174.2,0c-.51,0-1-.17-1.52.15a146.79,146.79,0,0,0,10.88,26.4,121.54,121.54,0,0,0,9.51,15.39A148,148,0,0,0,210,395a133.24,133.24,0,0,0,21.16,5.42,112.8,112.8,0,0,0,18.26,1.95,9.76,9.76,0,0,0,3.73.16,55.87,55.87,0,0,0,7.87-.06,6.15,6.15,0,0,0,3.1-.11,138.15,138.15,0,0,0,39.68-7.6,144.48,144.48,0,0,0,75.69-60.65A100,100,0,0,0,387,320.11l0,0,.77-1.51a73.85,73.85,0,0,0,4.28-10,147.15,147.15,0,0,0,8.14-34.27A156.22,156.22,0,0,0,400.64,245.82Z" transform="translate(-15.48 -4)"/></svg>