<svg width="32" height="32" viewBox="0 0 32 32" fill="none" xmlns="http://www.w3.org/2000/svg">
<rect width="32" height="32" rx="7" fill="#005454"/>
<path d="M20.4444 21.7154H16.8889L12.9333 24.3465C12.7998 24.4355 12.6447 24.4866 12.4844 24.4943C12.3242 24.502 12.1648 24.4661 12.0234 24.3904C11.882 24.3146 11.7637 24.2019 11.6813 24.0643C11.5989 23.9266 11.5555 23.7692 11.5555 23.6087V21.7154C8.88886 21.7154 7.11108 19.9376 7.11108 17.2709V11.9376C7.11108 9.27094 8.88886 7.49316 11.5555 7.49316H20.4444C23.1111 7.49316 24.8889 9.27094 24.8889 11.9376V17.2709C24.8889 19.9376 23.1111 21.7154 20.4444 21.7154Z" stroke="white" stroke-width="1.5" stroke-miterlimit="10" stroke-linecap="round" stroke-linejoin="round"/>
<path d="M16 15.4307V15.244C16 14.6396 16.3733 14.3196 16.7466 14.0618C17.1111 13.8129 17.4755 13.4929 17.4755 12.9062C17.4755 12.0884 16.8177 11.4307 16 11.4307C15.1822 11.4307 14.5244 12.0884 14.5244 12.9062M15.9955 17.5551H16.0044" stroke="white" stroke-width="1.5" stroke-linecap="round" stroke-linejoin="round"/>
</svg>
