<svg width="32" height="32" viewBox="0 0 32 32" fill="none" xmlns="http://www.w3.org/2000/svg">
<rect width="32" height="32" rx="7" fill="#005454"/>
<path d="M15.9999 18.6663C16.7072 18.6663 17.3854 18.3854 17.8855 17.8853C18.3856 17.3852 18.6666 16.7069 18.6666 15.9997C18.6666 15.2924 18.3856 14.6142 17.8855 14.1141C17.3854 13.614 16.7072 13.333 15.9999 13.333C15.2927 13.333 14.6144 13.614 14.1143 14.1141C13.6142 14.6142 13.3333 15.2924 13.3333 15.9997C13.3333 16.7069 13.6142 17.3852 14.1143 17.8853C14.6144 18.3854 15.2927 18.6663 15.9999 18.6663Z" stroke="white" stroke-width="1.5" stroke-miterlimit="10" stroke-linecap="round" stroke-linejoin="round"/>
<path d="M7.11108 16.7817V15.2173C7.11108 14.2928 7.86664 13.5284 8.79997 13.5284C10.4089 13.5284 11.0666 12.3906 10.2578 10.9951C9.79553 10.1951 10.0711 9.15507 10.88 8.69284L12.4178 7.81284C13.12 7.39507 14.0266 7.64395 14.4444 8.34618L14.5422 8.51507C15.3422 9.91062 16.6578 9.91062 17.4666 8.51507L17.5644 8.34618C17.9822 7.64395 18.8889 7.39507 19.5911 7.81284L21.1289 8.69284C21.9378 9.15507 22.2133 10.1951 21.7511 10.9951C20.9422 12.3906 21.6 13.5284 23.2089 13.5284C24.1333 13.5284 24.8978 14.284 24.8978 15.2173V16.7817C24.8978 17.7062 24.1422 18.4706 23.2089 18.4706C21.6 18.4706 20.9422 19.6084 21.7511 21.004C22.2133 21.8128 21.9378 22.844 21.1289 23.3062L19.5911 24.1862C18.8889 24.604 17.9822 24.3551 17.5644 23.6528L17.4666 23.484C16.6666 22.0884 15.3511 22.0884 14.5422 23.484L14.4444 23.6528C14.0266 24.3551 13.12 24.604 12.4178 24.1862L10.88 23.3062C10.4925 23.0831 10.2094 22.7154 10.0927 22.2838C9.97607 21.8521 10.0354 21.3919 10.2578 21.004C11.0666 19.6084 10.4089 18.4706 8.79997 18.4706C7.86664 18.4706 7.11108 17.7062 7.11108 16.7817Z" stroke="white" stroke-width="1.5" stroke-miterlimit="10" stroke-linecap="round" stroke-linejoin="round"/>
</svg>
