<svg xmlns="http://www.w3.org/2000/svg" width="24.923" height="22.431" viewBox="0 0 24.923 22.431">
  <path id="Icon_material-business-center" data-name="Icon material-business-center" d="M12.969,20.7V19.454H4.259l-.012,4.985a2.484,2.484,0,0,0,2.492,2.492H24.185a2.484,2.484,0,0,0,2.492-2.492V19.454H17.954V20.7ZM25.431,9.485h-5V6.992L17.941,4.5H12.957L10.464,6.992V9.485H5.492A2.5,2.5,0,0,0,3,11.977v3.738a2.484,2.484,0,0,0,2.492,2.492h7.477V15.715h4.985v2.492h7.477a2.5,2.5,0,0,0,2.492-2.492V11.977A2.5,2.5,0,0,0,25.431,9.485Zm-7.477,0H12.969V6.992h4.985Z" transform="translate(-3 -4.5)"/>
</svg>
