<svg xmlns="http://www.w3.org/2000/svg" width="19.845" height="25.799" viewBox="0 0 19.845 25.799">
  <path id="Icon_ionic-ios-lock" data-name="Icon ionic-ios-lock" d="M24.114,12.305H22.626v-2.9a5.954,5.954,0,1,0-11.907-.081v2.977H9.231A2.488,2.488,0,0,0,6.75,14.786V26.692a2.488,2.488,0,0,0,2.481,2.481H24.114a2.488,2.488,0,0,0,2.481-2.481V14.786A2.488,2.488,0,0,0,24.114,12.305Zm-6.574,7.739v4.267a.889.889,0,0,1-.825.893.869.869,0,0,1-.912-.868V20.044a1.984,1.984,0,1,1,1.736,0Zm3.349-7.739H12.455V9.328a4.217,4.217,0,0,1,8.434,0Z" transform="translate(-6.75 -3.374)"/>
</svg>
