<svg xmlns="http://www.w3.org/2000/svg" width="25.273" height="23.467" viewBox="0 0 25.273 23.467">
  <path id="Icon_ionic-ios-star-half" data-name="Icon ionic-ios-star-half" d="M26.564,11.5h-8.3L15.744,3.973a.914.914,0,0,0-1.715,0L11.507,11.5H3.153a.905.905,0,0,0-.9.9.663.663,0,0,0,.017.152.867.867,0,0,0,.378.637L9.465,18l-2.618,7.61a.905.905,0,0,0,.31,1.015.873.873,0,0,0,.508.22,1.106,1.106,0,0,0,.564-.2L14.886,21.9l6.657,4.744a1.057,1.057,0,0,0,.564.2.81.81,0,0,0,.5-.22.894.894,0,0,0,.31-1.015L20.3,18l6.764-4.851L27.229,13a.946.946,0,0,0,.293-.6A.955.955,0,0,0,26.564,11.5ZM23.89,13.484l-4.5,3.232a1.584,1.584,0,0,0-.575,1.794l1.7,4.947a.226.226,0,0,1-.344.259L15.8,20.6l-.006-.006a2.1,2.1,0,0,1-.908-1.721V7.059a.11.11,0,0,1,.214-.034h0L16.771,12a1.577,1.577,0,0,0,1.495,1.077h5.489A.225.225,0,0,1,23.89,13.484Z" transform="translate(-2.25 -3.375)"/>
</svg>
