<svg xmlns="http://www.w3.org/2000/svg" width="25.307" height="21.084" viewBox="0 0 25.307 21.084">
  <path id="Icon_ionic-ios-share-alt" data-name="Icon ionic-ios-share-alt" d="M29.585,15.606l-9.3-8.7a.475.475,0,0,0-.369-.158c-.29.013-.659.217-.659.527v4.362a.282.282,0,0,1-.237.27C9.778,13.326,5.884,20.245,4.507,27.427c-.053.283.329.547.507.323,3.374-4.25,7.479-7.024,13.969-7.077a.326.326,0,0,1,.277.316v4.283a.566.566,0,0,0,.955.349l9.363-8.849a.728.728,0,0,0,.231-.553A.883.883,0,0,0,29.585,15.606Z" transform="translate(-4.502 -6.749)"/>
</svg>
