<svg xmlns="http://www.w3.org/2000/svg" width="23.437" height="23.815" viewBox="0 0 23.437 23.815">
  <path id="Icon_awesome-power-off" data-name="Icon awesome-power-off" d="M19.086,2.556a11.717,11.717,0,1,1-13.618,0,1.138,1.138,0,0,1,1.654.364l.747,1.328a1.134,1.134,0,0,1-.312,1.465,7.938,7.938,0,1,0,9.446,0,1.127,1.127,0,0,1-.307-1.46l.747-1.328a1.133,1.133,0,0,1,1.644-.369Zm-4.914,9.918V1.134A1.131,1.131,0,0,0,13.037,0H11.525a1.131,1.131,0,0,0-1.134,1.134V12.475a1.131,1.131,0,0,0,1.134,1.134h1.512A1.131,1.131,0,0,0,14.171,12.475Z" transform="translate(-0.562)"/>
</svg>
