<svg xmlns="http://www.w3.org/2000/svg" width="20.828" height="20.828" viewBox="0 0 20.828 20.828">
  <path id="Icon_awesome-history" data-name="Icon awesome-history" d="M21.39,10.957a10.414,10.414,0,0,1-16.95,8.128,1.007,1.007,0,0,1-.077-1.5l.473-.473a1.01,1.01,0,0,1,1.339-.083A7.727,7.727,0,1,0,5.683,5.347L7.814,7.478a.672.672,0,0,1-.475,1.147h-6.1a.672.672,0,0,1-.672-.672v-6.1a.672.672,0,0,1,1.147-.475L3.783,3.447a10.414,10.414,0,0,1,17.608,7.51Zm-7.6,3.308.412-.53a1.008,1.008,0,0,0-.177-1.414L12.32,10.991V6.609A1.008,1.008,0,0,0,11.312,5.6h-.672A1.008,1.008,0,0,0,9.633,6.609v5.7l2.747,2.136A1.008,1.008,0,0,0,13.794,14.265Z" transform="translate(-0.563 -0.563)"/>
</svg>
