<svg width="165" height="187" viewBox="0 0 165 187" fill="none" xmlns="http://www.w3.org/2000/svg">
<circle cx="14.5" cy="55.5" r="14.5" fill="#008FDB" fill-opacity="0.2"/>
<circle cx="152" cy="173" r="13" fill="#008FDB" fill-opacity="0.3"/>
<circle cx="37" cy="8" r="8" fill="#008FDB" fill-opacity="0.25"/>
<path fill-rule="evenodd" clip-rule="evenodd" d="M86.5 36.5417C46.7593 36.5417 14.5416 68.7594 14.5416 108.5C14.5416 148.241 46.7593 180.458 86.5 180.458C126.241 180.458 158.458 148.241 158.458 108.5C158.458 68.7594 126.241 36.5417 86.5 36.5417ZM117.691 96.3325C118.265 95.676 118.702 94.9113 118.977 94.0833C119.251 93.2553 119.357 92.3808 119.289 91.5112C119.22 90.6416 118.978 89.7945 118.578 89.0198C118.177 88.245 117.625 87.5582 116.955 86.9998C116.285 86.4414 115.51 86.0226 114.676 85.7681C113.841 85.5137 112.964 85.4286 112.097 85.518C111.229 85.6074 110.388 85.8694 109.623 86.2887C108.858 86.7079 108.185 87.2759 107.643 87.9592L79.5135 121.708L64.9583 107.146C63.7245 105.954 62.072 105.295 60.3568 105.31C58.6416 105.325 57.0009 106.013 55.788 107.226C54.5751 108.438 53.8872 110.079 53.8723 111.794C53.8574 113.51 54.5167 115.162 55.7083 116.396L75.3333 136.021C75.9761 136.663 76.7456 137.165 77.5929 137.493C78.4402 137.822 79.3466 137.97 80.2544 137.929C81.1622 137.887 82.0515 137.658 82.8655 137.254C83.6795 136.85 84.4004 136.281 84.9823 135.583L117.691 96.3325Z" fill="#008FDB"/>
</svg>
