<svg width="175" height="192" viewBox="0 0 175 192" fill="none" xmlns="http://www.w3.org/2000/svg">
<circle cx="14.5" cy="55.5" r="14.5" fill="#DF4976" fill-opacity="0.2"/>
<circle cx="152" cy="173" r="13" fill="#DF4976" fill-opacity="0.3"/>
<circle cx="37" cy="8" r="8" fill="#DF4976" fill-opacity="0.25"/>
<path d="M140.087 55.9125C112.3 28.125 66.6999 28.125 38.9124 55.9125C11.1249 83.7 11.1249 129.3 38.9124 157.088C66.6999 184.875 111.587 184.875 139.375 157.088C167.162 129.3 167.875 83.7 140.087 55.9125ZM109.45 136.425L89.4999 116.475L69.5499 136.425L59.5749 126.45L79.5249 106.5L59.5749 86.55L69.5499 76.575L89.4999 96.525L109.45 76.575L119.425 86.55L99.4749 106.5L119.425 126.45L109.45 136.425Z" fill="#DF4976"/>
</svg>
