<svg width="178" height="193" viewBox="0 0 178 193" fill="none" xmlns="http://www.w3.org/2000/svg">
<circle cx="14.5" cy="55.5" r="14.5" fill="#008FDB" fill-opacity="0.2"/>
<circle cx="152" cy="173" r="13" fill="#008FDB" fill-opacity="0.3"/>
<circle cx="37" cy="8" r="8" fill="#008FDB" fill-opacity="0.25"/>
<path d="M156.493 63.5056C146.233 60.7672 136.209 57.209 126.519 52.8653C116.986 48.7297 107.782 43.8708 98.9902 38.3311L96.5 36.7917L94.055 38.3764C85.2627 43.9161 76.0596 48.775 66.5261 52.9106C56.8198 57.2411 46.7811 60.7842 36.5069 63.5056L33.1111 64.3658V102.128C33.1111 162.754 94.3719 185.439 94.9605 185.665L96.5 186.208L98.0394 185.665C98.6733 185.665 159.889 162.8 159.889 102.128V64.3658L156.493 63.5056ZM135.801 93.6153L85.2258 142.742L56.6102 114.081C55.4094 112.88 54.7348 111.251 54.7348 109.553C54.7348 107.855 55.4094 106.226 56.6102 105.025C57.8111 103.824 59.4398 103.15 61.138 103.15C62.8363 103.15 64.465 103.824 65.6658 105.025L85.3616 125.083L126.972 84.3333C127.567 83.7387 128.272 83.2671 129.049 82.9453C129.826 82.6235 130.659 82.4579 131.5 82.4579C132.341 82.4579 133.173 82.6235 133.95 82.9453C134.727 83.2671 135.433 83.7387 136.027 84.3333C136.622 84.9279 137.094 85.6338 137.416 86.4107C137.737 87.1876 137.903 88.0202 137.903 88.8611C137.903 89.702 137.737 90.5347 137.416 91.3115C137.094 92.0884 136.622 92.7943 136.027 93.3889L135.801 93.6153Z" fill="#008FDB"/>
</svg>
