<svg width="25" height="24" viewBox="0 0 25 24" fill="none" xmlns="http://www.w3.org/2000/svg">
<path d="M11.8637 4.04876C12.1273 4.01958 12.3685 3.88688 12.5343 3.67984C12.7001 3.4728 12.7768 3.20838 12.7477 2.94476C12.7185 2.68113 12.5858 2.4399 12.3787 2.27411C12.1717 2.10833 11.9073 2.03159 11.6437 2.06076C6.64166 2.61376 2.75366 6.85176 2.75366 11.9998C2.75366 17.5228 7.23066 21.9998 12.7537 21.9998C17.8997 21.9998 22.1367 18.1128 22.6927 13.1138C22.7218 12.8501 22.6451 12.5857 22.4793 12.3787C22.3135 12.1716 22.0723 12.0389 21.8087 12.0098C21.545 11.9806 21.2806 12.0573 21.0736 12.2231C20.8665 12.3889 20.7338 12.6301 20.7047 12.8938C20.4744 14.9239 19.4761 16.7889 17.9147 18.1066C16.3532 19.4243 14.3469 20.0946 12.3069 19.9803C10.267 19.866 8.34811 18.9756 6.94367 17.4917C5.53924 16.0078 4.75568 14.0429 4.75366 11.9998C4.75372 10.0321 5.47885 8.13342 6.79048 6.66666C8.1021 5.19989 9.90822 4.26788 11.8637 4.04876ZM15.5207 2.39076C15.2679 2.32699 15.0003 2.36443 14.7747 2.49509C14.5492 2.62575 14.3836 2.83931 14.3132 3.09028C14.2428 3.34125 14.2732 3.60979 14.3978 3.83869C14.5225 4.06759 14.7316 4.23877 14.9807 4.31576C15.2677 4.39676 15.5497 4.49376 15.8227 4.60576C16.0683 4.70614 16.3437 4.70486 16.5883 4.60218C16.8329 4.4995 17.0268 4.30385 17.1272 4.05826C17.2275 3.81267 17.2263 3.53726 17.1236 3.29262C17.0209 3.04798 16.8253 2.85414 16.5797 2.75376C16.2339 2.61272 15.8803 2.49152 15.5207 2.39076ZM18.1027 4.69076C18.1915 4.59404 18.2985 4.51576 18.4176 4.4604C18.5367 4.40503 18.6655 4.37367 18.7967 4.3681C18.9279 4.36253 19.059 4.38286 19.1823 4.42792C19.3057 4.47299 19.4189 4.54191 19.5157 4.63076C19.7277 4.82476 19.9307 5.02776 20.1247 5.23876C20.3039 5.43422 20.3982 5.6929 20.3868 5.95789C20.3754 6.22288 20.2591 6.47247 20.0637 6.65176C19.8682 6.83105 19.6095 6.92534 19.3445 6.9139C19.0795 6.90246 18.8299 6.78622 18.6507 6.59076C18.4958 6.42182 18.3336 6.25967 18.1647 6.10476C18.0678 6.01606 17.9894 5.90915 17.9338 5.79013C17.8783 5.67111 17.8467 5.54231 17.841 5.4111C17.8352 5.27989 17.8554 5.14883 17.9003 5.0254C17.9452 4.90197 18.0139 4.7886 18.1027 4.69176V4.69076ZM11.7537 5.99976C12.0189 5.99976 12.2732 6.10512 12.4608 6.29265C12.6483 6.48019 12.7537 6.73454 12.7537 6.99976V11.9998H15.7537C16.0189 11.9998 16.2732 12.1051 16.4608 12.2927C16.6483 12.4802 16.7537 12.7345 16.7537 12.9998C16.7537 13.265 16.6483 13.5193 16.4608 13.7069C16.2732 13.8944 16.0189 13.9998 15.7537 13.9998H11.7537C11.4884 13.9998 11.2341 13.8944 11.0466 13.7069C10.859 13.5193 10.7537 13.265 10.7537 12.9998V6.99976C10.7537 6.73454 10.859 6.48019 11.0466 6.29265C11.2341 6.10512 11.4884 5.99976 11.7537 5.99976ZM20.6937 7.62276C20.9391 7.5224 21.2144 7.52365 21.4589 7.62623C21.7035 7.72881 21.8973 7.92432 21.9977 8.16976C22.1394 8.51686 22.2613 8.87177 22.3627 9.23276C22.4021 9.36034 22.4156 9.49453 22.4023 9.62741C22.3891 9.76029 22.3493 9.88916 22.2855 10.0064C22.2216 10.1237 22.1349 10.227 22.0304 10.3102C21.926 10.3934 21.8059 10.4549 21.6774 10.491C21.5488 10.527 21.4143 10.537 21.2818 10.5202C21.1493 10.5035 21.0215 10.4603 20.906 10.3934C20.7904 10.3265 20.6895 10.2371 20.609 10.1305C20.5286 10.0239 20.4703 9.90224 20.4377 9.77276C20.3567 9.48549 20.2596 9.20303 20.1467 8.92676C20.0462 8.68142 20.0474 8.40626 20.1497 8.16174C20.2521 7.91722 20.4474 7.72335 20.6927 7.62276H20.6937Z" fill="white" fill-opacity="0.4"/>
</svg>
