<svg width="47" height="47" viewBox="0 0 47 47" fill="none" xmlns="http://www.w3.org/2000/svg">
<circle cx="23.5" cy="23.5" r="23.5" fill="white" fill-opacity="0.1"/>
<path d="M21.29 33.0002C20.4638 32.9962 19.6467 32.8279 18.8861 32.5052C18.1256 32.1824 17.4369 31.7116 16.86 31.1202C16.2875 30.5775 15.8275 29.9273 15.5066 29.2067C15.1856 28.4861 15.0099 27.7093 14.9894 26.9208C14.969 26.1322 15.1043 25.3474 15.3875 24.6111C15.6707 23.8749 16.0963 23.2017 16.64 22.6302L24 15.2002C24.393 14.8078 24.8615 14.4992 25.3771 14.293C25.8927 14.0867 26.4448 13.9871 27 14.0002C27.5947 14.0022 28.1831 14.1226 28.7307 14.3544C29.2784 14.5862 29.7745 14.9247 30.19 15.3502C31.017 16.1464 31.4966 17.2367 31.5247 18.3843C31.5527 19.532 31.1271 20.6444 30.34 21.4802L22.94 28.9102C22.703 29.1488 22.4209 29.3379 22.1102 29.4667C21.7995 29.5954 21.4663 29.6612 21.13 29.6602C20.7667 29.6606 20.4069 29.5883 20.072 29.4475C19.7371 29.3067 19.4338 29.1001 19.18 28.8402C18.6727 28.349 18.3798 27.6775 18.3648 26.9716C18.3498 26.2657 18.614 25.5824 19.1 25.0702L25.93 18.2102C26.1244 18.0811 26.3578 18.024 26.5898 18.0489C26.8218 18.0737 27.0378 18.179 27.2004 18.3463C27.3631 18.5137 27.462 18.7326 27.4802 18.9653C27.4984 19.1979 27.4346 19.4296 27.3 19.6202L20.47 26.4802C20.3561 26.6174 20.3007 26.7938 20.3156 26.9715C20.3306 27.1492 20.4148 27.3139 20.55 27.4302C20.6907 27.5718 20.8804 27.6542 21.08 27.6602C21.1539 27.6612 21.2273 27.6476 21.296 27.6202C21.3647 27.5927 21.4272 27.5519 21.48 27.5002L28.87 20.0702C29.2848 19.6093 29.5016 19.0038 29.4735 18.3844C29.4455 17.765 29.1748 17.1816 28.72 16.7602C28.2976 16.3216 27.7231 16.0616 27.1149 16.0337C26.5066 16.0058 25.9108 16.2121 25.45 16.6102L18.06 24.0002C17.7006 24.3861 17.4212 24.8394 17.2376 25.3337C17.0541 25.8281 16.9701 26.354 16.9906 26.8809C17.011 27.4079 17.1355 27.9256 17.3568 28.4043C17.5781 28.883 17.8918 29.3132 18.28 29.6702C18.6693 30.0737 19.1351 30.3956 19.6502 30.6171C20.1653 30.8386 20.7193 30.9552 21.28 30.9602C21.7634 30.9641 22.2428 30.8725 22.6908 30.6905C23.1387 30.5086 23.5462 30.24 23.89 29.9002L31.28 22.4702C31.3726 22.3769 31.4826 22.3028 31.6038 22.2521C31.725 22.2014 31.8551 22.1751 31.9865 22.1746C32.1179 22.1741 32.2481 22.1996 32.3696 22.2494C32.4912 22.2993 32.6018 22.3726 32.695 22.4652C32.7882 22.5577 32.8623 22.6678 32.913 22.789C32.9637 22.9102 32.9901 23.0402 32.9906 23.1716C32.991 23.303 32.9656 23.4332 32.9157 23.5548C32.8659 23.6764 32.7926 23.7869 32.7 23.8802L25.31 31.3102C24.7853 31.8441 24.1597 32.2685 23.4696 32.5586C22.7795 32.8487 22.0386 32.9988 21.29 33.0002Z" fill="white"/>
</svg>
