<svg width="16" height="13" viewBox="0 0 16 13" fill="none" xmlns="http://www.w3.org/2000/svg">
<g clip-path="url(#clip0_30_73)">
<path d="M5.63998 2.44594L7.5194 2.44594L7.5194 1.86123L9.39882 1.86123L9.39882 2.44594L11.2782 2.44594L11.2782 11.2166L5.63998 11.2166L5.63998 2.44594ZM3.76056 2.15358L3.76056 11.5089C3.76056 11.9933 4.39163 12.386 5.17013 12.386L11.7481 12.386C12.5266 12.386 13.1577 11.9933 13.1577 11.5089L13.1577 2.15358C13.1577 1.66919 12.5266 1.27652 11.7481 1.27652L11.2782 1.27652L11.2782 1.13034C11.2782 0.888144 10.9627 0.69181 10.5735 0.69181L6.34476 0.691811C5.95552 0.691811 5.63998 0.888144 5.63998 1.13034L5.63998 1.27652L5.17012 1.27652C4.39163 1.27652 3.76056 1.66919 3.76056 2.15358ZM6.57969 3.03065L6.57969 10.6319L10.3385 10.6319L10.3385 3.03065L6.57969 3.03065Z" fill="white" fill-opacity="0.7"/>
</g>
<defs>
<clipPath id="clip0_30_73">
<rect width="11.6942" height="15.0354" fill="white" transform="translate(0.941422 12.386) rotate(-90)"/>
</clipPath>
</defs>
</svg>
