<svg width="28" height="28" viewBox="0 0 28 28" fill="none" xmlns="http://www.w3.org/2000/svg">
<path d="M22.1666 4.66659H19.8333V3.49992C19.8333 3.1905 19.7104 2.89375 19.4916 2.67496C19.2728 2.45617 18.9761 2.33325 18.6666 2.33325C18.3572 2.33325 18.0605 2.45617 17.8417 2.67496C17.6229 2.89375 17.5 3.1905 17.5 3.49992V4.66659H10.5V3.49992C10.5 3.1905 10.3771 2.89375 10.1583 2.67496C9.93948 2.45617 9.64273 2.33325 9.33331 2.33325C9.02389 2.33325 8.72715 2.45617 8.50836 2.67496C8.28956 2.89375 8.16665 3.1905 8.16665 3.49992V4.66659H5.83331C4.90506 4.66659 4.01482 5.03533 3.35844 5.69171C2.70206 6.34809 2.33331 7.23833 2.33331 8.16659V22.1666C2.33331 23.0948 2.70206 23.9851 3.35844 24.6415C4.01482 25.2978 4.90506 25.6666 5.83331 25.6666H22.1666C23.0949 25.6666 23.9851 25.2978 24.6415 24.6415C25.2979 23.9851 25.6666 23.0948 25.6666 22.1666V8.16659C25.6666 7.23833 25.2979 6.34809 24.6415 5.69171C23.9851 5.03533 23.0949 4.66659 22.1666 4.66659V4.66659ZM23.3333 22.1666C23.3333 22.476 23.2104 22.7728 22.9916 22.9915C22.7728 23.2103 22.4761 23.3333 22.1666 23.3333H5.83331C5.52389 23.3333 5.22715 23.2103 5.00836 22.9915C4.78956 22.7728 4.66665 22.476 4.66665 22.1666V13.9999H23.3333V22.1666ZM23.3333 11.6666H4.66665V8.16659C4.66665 7.85717 4.78956 7.56042 5.00836 7.34163C5.22715 7.12284 5.52389 6.99992 5.83331 6.99992H8.16665V8.16659C8.16665 8.476 8.28956 8.77275 8.50836 8.99154C8.72715 9.21034 9.02389 9.33325 9.33331 9.33325C9.64273 9.33325 9.93948 9.21034 10.1583 8.99154C10.3771 8.77275 10.5 8.476 10.5 8.16659V6.99992H17.5V8.16659C17.5 8.476 17.6229 8.77275 17.8417 8.99154C18.0605 9.21034 18.3572 9.33325 18.6666 9.33325C18.9761 9.33325 19.2728 9.21034 19.4916 8.99154C19.7104 8.77275 19.8333 8.476 19.8333 8.16659V6.99992H22.1666C22.4761 6.99992 22.7728 7.12284 22.9916 7.34163C23.2104 7.56042 23.3333 7.85717 23.3333 8.16659V11.6666Z" fill="white"/>
</svg>
