<svg width="47" height="47" viewBox="0 0 47 47" fill="none" xmlns="http://www.w3.org/2000/svg">
<circle cx="23.5" cy="23.5" r="23.5" fill="white" fill-opacity="0.1"/>
<path d="M32.9375 17.6016H29.4844L28.6617 15.2961C28.6049 15.1383 28.5007 15.002 28.3635 14.9056C28.2262 14.8093 28.0626 14.7577 27.8949 14.7578H20.1051C19.7623 14.7578 19.4551 14.9736 19.3408 15.2961L18.5156 17.6016H15.0625C13.9402 17.6016 13.0312 18.5105 13.0312 19.6328V31.2109C13.0312 32.3332 13.9402 33.2422 15.0625 33.2422H32.9375C34.0598 33.2422 34.9688 32.3332 34.9688 31.2109V19.6328C34.9688 18.5105 34.0598 17.6016 32.9375 17.6016ZM24 29.1797C21.7555 29.1797 19.9375 27.3617 19.9375 25.1172C19.9375 22.8727 21.7555 21.0547 24 21.0547C26.2445 21.0547 28.0625 22.8727 28.0625 25.1172C28.0625 27.3617 26.2445 29.1797 24 29.1797ZM21.5625 25.1172C21.5625 25.7637 21.8193 26.3836 22.2764 26.8408C22.7335 27.2979 23.3535 27.5547 24 27.5547C24.6465 27.5547 25.2665 27.2979 25.7236 26.8408C26.1807 26.3836 26.4375 25.7637 26.4375 25.1172C26.4375 24.4707 26.1807 23.8507 25.7236 23.3936C25.2665 22.9365 24.6465 22.6797 24 22.6797C23.3535 22.6797 22.7335 22.9365 22.2764 23.3936C21.8193 23.8507 21.5625 24.4707 21.5625 25.1172Z" fill="white"/>
</svg>
