<svg width="18" height="19" viewBox="0 0 18 19" fill="none" xmlns="http://www.w3.org/2000/svg">
<path d="M11.9467 1.83838H6.05333C3.6157 1.83838 1.63333 3.82075 1.63333 6.25838V15.835C1.63333 16.0304 1.71094 16.2178 1.8491 16.3559C1.98725 16.4941 2.17462 16.5717 2.37 16.5717H11.9467C14.3843 16.5717 16.3667 14.5893 16.3667 12.1517V6.25838C16.3667 3.82075 14.3843 1.83838 11.9467 1.83838ZM14.8933 12.1517C14.8933 13.7768 13.5718 15.0984 11.9467 15.0984H3.10666V6.25838C3.10666 4.63329 4.42824 3.31171 6.05333 3.31171H11.9467C13.5718 3.31171 14.8933 4.63329 14.8933 6.25838V12.1517Z" fill="white" fill-opacity="0.8"/>
<path d="M5.31667 6.99487H12.6833V8.46821H5.31667V6.99487ZM5.31667 9.94154H10.4733V11.4149H5.31667V9.94154Z" fill="white" fill-opacity="0.8"/>
</svg>
