<svg width="32" height="32" viewBox="0 0 32 32" fill="none" xmlns="http://www.w3.org/2000/svg">
<g clip-path="url(#clip0_81_2106)">
<path d="M9.82283 16.7376V15.2555L21.6838 15.2551V16.7381L9.82283 16.7376Z" fill="white" fill-opacity="0.4"/>
<path d="M9.08192 9.32482C8.19882 10.1971 7.49765 11.2359 7.0191 12.3812C6.54055 13.5265 6.29413 14.7553 6.29413 15.9966C6.29413 17.2378 6.54055 18.4667 7.0191 19.612C7.49765 20.7572 8.19882 21.7961 9.08192 22.6683C9.95415 23.5514 10.993 24.2526 12.1383 24.7312C13.2836 25.2097 14.5124 25.4561 15.7537 25.4561C16.9949 25.4561 18.2238 25.2097 19.3691 24.7312C20.5143 24.2526 21.5532 23.5514 22.4254 22.6683C23.3085 21.7961 24.0097 20.7572 24.4883 19.612C24.9668 18.4667 25.2132 17.2378 25.2132 15.9966C25.2132 14.7553 24.9668 13.5265 24.4883 12.3812C24.0097 11.2359 23.3085 10.1971 22.4254 9.32483C21.5532 8.44172 20.5143 7.74055 19.3691 7.262C18.2238 6.78345 16.9949 6.53703 15.7537 6.53703C14.5124 6.53703 13.2836 6.78345 12.1383 7.262C10.993 7.74055 9.95415 8.44172 9.08192 9.32482ZM21.4723 21.7152C20.3413 22.8463 18.9003 23.6165 17.3315 23.9286C15.7627 24.2406 14.1365 24.0805 12.6588 23.4684C11.181 22.8562 9.91792 21.8197 9.02926 20.4897C8.14061 19.1597 7.66629 17.5961 7.66629 15.9966C7.66629 14.397 8.14061 12.8334 9.02926 11.5035C9.91792 10.1735 11.181 9.13692 12.6588 8.52481C14.1365 7.91269 15.7627 7.75253 17.3315 8.06459C18.9003 8.37664 20.3413 9.14689 21.4723 10.2779C22.9833 11.7977 23.8314 13.8536 23.8314 15.9966C23.8314 18.1396 22.9833 20.1955 21.4723 21.7152Z" fill="white" fill-opacity="0.4"/>
</g>
<defs>
<clipPath id="clip0_81_2106">
<rect width="21.5664" height="21.5664" fill="white" transform="translate(0.503906 15.9966) rotate(-45)"/>
</clipPath>
</defs>
</svg>
