<svg width="16" height="13" viewBox="0 0 16 13" fill="none" xmlns="http://www.w3.org/2000/svg">
<path d="M7.9375 7.92187C8.40163 7.92187 8.84675 7.77207 9.17494 7.50542C9.50313 7.23876 9.6875 6.8771 9.6875 6.5C9.6875 6.45836 9.68516 6.4171 9.68078 6.37635L7.78531 7.91641C7.83547 7.91997 7.88609 7.92187 7.9375 7.92187ZM13.73 2.10183L13.0625 1.56C13.0391 1.54096 13.0073 1.53027 12.9741 1.53027C12.941 1.53027 12.9092 1.54096 12.8858 1.56L11.1777 2.94823C10.2354 2.55696 9.17615 2.36133 8 2.36133C4.99687 2.36133 2.75625 3.63213 1.27812 6.17373C1.21871 6.27595 1.1879 6.38759 1.1879 6.50063C1.1879 6.61368 1.21871 6.72532 1.27812 6.82754C1.86875 7.83834 2.57995 8.64851 3.41172 9.25805L1.75875 10.6006C1.73532 10.6196 1.72217 10.6455 1.72217 10.6724C1.72217 10.6993 1.73532 10.7251 1.75875 10.7442L2.42578 11.2861C2.44922 11.3052 2.481 11.3159 2.51414 11.3159C2.54728 11.3159 2.57906 11.3052 2.6025 11.2861L13.73 2.24554C13.7416 2.23611 13.7508 2.22491 13.7571 2.21258C13.7634 2.20025 13.7667 2.18704 13.7667 2.17369C13.7667 2.16034 13.7634 2.14713 13.7571 2.1348C13.7508 2.12247 13.7416 2.11127 13.73 2.10183ZM5.1875 6.5C5.18746 6.11407 5.31044 5.73471 5.54448 5.39888C5.77852 5.06304 6.11562 4.78219 6.52296 4.58368C6.93029 4.38516 7.39397 4.27576 7.86881 4.26612C8.34365 4.25648 8.81347 4.34693 9.2325 4.52867L8.47281 5.14591C8.16644 5.06621 7.83896 5.05661 7.52631 5.11817C7.21366 5.17973 6.92793 5.31007 6.70045 5.4949C6.47298 5.67972 6.31256 5.91188 6.23679 6.16591C6.16102 6.41993 6.17284 6.68601 6.27094 6.93494L5.51125 7.55219C5.29806 7.22856 5.18683 6.86707 5.1875 6.5Z" fill="white"/>
<path d="M14.7219 6.17247C14.1719 5.23133 13.5172 4.4639 12.758 3.87018L10.5058 5.70021C10.6956 6.10343 10.7377 6.54269 10.6269 6.96492C10.5162 7.38716 10.2573 7.7743 9.88157 8.07957C9.50585 8.38484 9.02937 8.59518 8.5097 8.68518C7.99003 8.77518 7.4494 8.74099 6.95313 8.58674L5.04282 10.1389C5.92907 10.4721 6.9148 10.6387 8 10.6387C11.0031 10.6387 13.2438 9.36788 14.7219 6.82628C14.7813 6.72407 14.8121 6.61242 14.8121 6.49938C14.8121 6.38633 14.7813 6.27469 14.7219 6.17247Z" fill="white"/>
</svg>
