<svg width="36" height="36" viewBox="0 0 36 36" fill="none" xmlns="http://www.w3.org/2000/svg">
<circle cx="18" cy="18" r="18" fill="white" fill-opacity="0.2"/>
<circle cx="18" cy="18" r="15" fill="white"/>
<path fill-rule="evenodd" clip-rule="evenodd" d="M3 18.0838C3 25.5413 8.41625 31.7425 15.5 33V22.1663H11.75V18H15.5V14.6663C15.5 10.9163 17.9163 8.83375 21.3337 8.83375C22.4163 8.83375 23.5837 9 24.6663 9.16625V13H22.75C20.9163 13 20.5 13.9163 20.5 15.0837V18H24.5L23.8337 22.1663H20.5V33C27.5837 31.7425 33 25.5425 33 18.0838C33 9.7875 26.25 3 18 3C9.75 3 3 9.7875 3 18.0838Z" fill="#0066FF"/>
</svg>
