<svg width="36" height="36" viewBox="0 0 36 36" fill="none" xmlns="http://www.w3.org/2000/svg">
<circle cx="18" cy="18" r="18" fill="white" fill-opacity="0.2"/>
<circle cx="18" cy="18" r="15" fill="white"/>
<path d="M28.6226 15.8784H27.75V15.8334H18V20.1667H24.1224C23.2292 22.6893 20.8291 24.5001 18 24.5001C14.4103 24.5001 11.5 21.5897 11.5 18.0001C11.5 14.4105 14.4103 11.5001 18 11.5001C19.6569 11.5001 21.1644 12.1252 22.3122 13.1462L25.3764 10.082C23.4415 8.27879 20.8535 7.16675 18 7.16675C12.0173 7.16675 7.16663 12.0174 7.16663 18.0001C7.16663 23.9828 12.0173 28.8334 18 28.8334C23.9827 28.8334 28.8333 23.9828 28.8333 18.0001C28.8333 17.2737 28.7585 16.5647 28.6226 15.8784Z" fill="#FFC107"/>
<path d="M8.41577 12.9577L11.9751 15.568C12.9381 13.1836 15.2706 11.5001 18 11.5001C19.657 11.5001 21.1644 12.1252 22.3122 13.1462L25.3764 10.082C23.4416 8.27879 20.8535 7.16675 18 7.16675C13.8389 7.16675 10.2304 9.51596 8.41577 12.9577Z" fill="#FF3D00"/>
<path d="M18 28.8332C20.7982 28.8332 23.3408 27.7623 25.2632 26.0209L21.9103 23.1836C20.7861 24.0386 19.4123 24.501 18 24.4999C15.1822 24.4999 12.7897 22.7032 11.8883 20.1958L8.35559 22.9177C10.1485 26.426 13.7896 28.8332 18 28.8332Z" fill="#4CAF50"/>
<path d="M28.6226 15.8782H27.75V15.8333H18V20.1666H24.1225C23.6952 21.3671 22.9256 22.4162 21.9087 23.1842L21.9103 23.1831L25.2632 26.0204C25.026 26.236 28.8333 23.4166 28.8333 17.9999C28.8333 17.2735 28.7586 16.5645 28.6226 15.8782Z" fill="#1976D2"/>
</svg>
