<svg width="36" height="36" viewBox="0 0 36 36" fill="none" xmlns="http://www.w3.org/2000/svg">
<circle cx="18" cy="18" r="18" fill="white" fill-opacity="0.2"/>
<circle cx="18" cy="18" r="15" fill="white"/>
<path d="M18 2.63989C9.51682 2.63989 2.64001 9.51669 2.64001 17.9999C2.64001 26.4831 9.51682 33.3599 18 33.3599C26.4832 33.3599 33.36 26.4831 33.36 17.9999C33.36 9.51669 26.4832 2.63989 18 2.63989ZM14.24 24.3663H11.1296V14.3567H14.24V24.3663ZM12.6656 13.1279C11.6832 13.1279 11.048 12.4319 11.048 11.5711C11.048 10.6927 11.7024 10.0175 12.7056 10.0175C13.7088 10.0175 14.3232 10.6927 14.3424 11.5711C14.3424 12.4319 13.7088 13.1279 12.6656 13.1279ZM25.6 24.3663H22.4896V18.8191C22.4896 17.5279 22.0384 16.6511 20.9136 16.6511C20.0544 16.6511 19.544 17.2447 19.3184 17.8159C19.2352 18.0191 19.2144 18.3071 19.2144 18.5935V24.3647H16.1024V17.5487C16.1024 16.2991 16.0624 15.2543 16.0208 14.3551H18.7232L18.8656 15.7455H18.928C19.3376 15.0927 20.3408 14.1295 22.0192 14.1295C24.0656 14.1295 25.6 15.5007 25.6 18.4479V24.3663Z" fill="#2184DF"/>
</svg>
