<svg width="27" height="27" viewBox="0 0 27 27" fill="none" xmlns="http://www.w3.org/2000/svg">
<path d="M11.7815 14.3761C11.5385 14.365 11.2956 14.354 11.0417 14.354C8.36958 14.354 5.87416 15.0938 3.74312 16.3636C2.77145 16.9378 2.20833 18.0198 2.20833 19.1571V20.979C2.20833 21.5863 2.7052 22.0832 3.31249 22.0832H12.4329C11.653 20.9707 11.1819 19.6713 11.0674 18.3175C10.953 16.9637 11.1994 15.6037 11.7815 14.3761Z" fill="white" fill-opacity="0.4"/>
<path d="M11.0417 13.2498C13.4809 13.2498 15.4583 11.2724 15.4583 8.83317C15.4583 6.39391 13.4809 4.4165 11.0417 4.4165C8.60241 4.4165 6.625 6.39391 6.625 8.83317C6.625 11.2724 8.60241 13.2498 11.0417 13.2498Z" fill="white" fill-opacity="0.4"/>
<path d="M22.9115 17.6665C22.9115 17.4236 22.8783 17.2028 22.8452 16.9709L23.7727 16.1649C23.9715 15.9882 24.0156 15.7011 23.8831 15.4692L23.2317 14.343C23.1693 14.2321 23.0696 14.1469 22.9504 14.1024C22.8311 14.0579 22.7 14.0571 22.5802 14.1001L21.4098 14.4976C21.0565 14.1994 20.659 13.9676 20.2173 13.8019L19.9744 12.5984C19.9484 12.474 19.8804 12.3623 19.782 12.2819C19.6835 12.2015 19.5604 12.1573 19.4333 12.1567H18.1304C17.8654 12.1567 17.6446 12.3444 17.5894 12.5984L17.3465 13.8019C16.9048 13.9676 16.5073 14.1994 16.154 14.4976L14.9835 14.1001C14.8636 14.0589 14.7331 14.0606 14.6143 14.1049C14.4955 14.1492 14.3958 14.2333 14.3321 14.343L13.6806 15.4692C13.5481 15.7011 13.5923 15.9882 13.791 16.1649L14.7185 16.9709C14.6854 17.2028 14.6523 17.4236 14.6523 17.6665C14.6523 17.9094 14.6854 18.1303 14.7185 18.3622L13.791 19.1682C13.5923 19.3449 13.5481 19.6319 13.6806 19.8638L14.3321 20.9901C14.4646 21.2219 14.7406 21.3213 14.9835 21.233L16.154 20.8355C16.5073 21.1336 16.9048 21.3655 17.3465 21.5311L17.5894 22.7347C17.6446 22.9886 17.8654 23.1763 18.1304 23.1763H19.4333C19.6983 23.1763 19.9192 22.9886 19.9744 22.7347L20.2173 21.5311C20.659 21.3655 21.0565 21.1336 21.4098 20.8355L22.5802 21.233C22.8342 21.3213 23.0992 21.2109 23.2317 20.9901L23.8831 19.8638C24.0156 19.6319 23.9715 19.3449 23.7727 19.1682L22.8452 18.3622C22.8783 18.1303 22.9115 17.9094 22.9115 17.6665ZM18.7708 19.8749C17.5563 19.8749 16.5625 18.8811 16.5625 17.6665C16.5625 16.4519 17.5563 15.4582 18.7708 15.4582C19.9854 15.4582 20.9792 16.4519 20.9792 17.6665C20.9792 18.8811 19.9854 19.8749 18.7708 19.8749Z" fill="white" fill-opacity="0.4"/>
</svg>
