<svg width="30" height="30" viewBox="0 0 30 30" fill="none" xmlns="http://www.w3.org/2000/svg">
<path d="M25.3125 13.1251C25.5611 13.1251 25.7996 13.0263 25.9754 12.8505C26.1512 12.6747 26.25 12.4362 26.25 12.1876V4.68945C26.25 4.44081 26.1512 4.20236 25.9754 4.02654C25.7996 3.85073 25.5611 3.75195 25.3125 3.75195H17.8125C17.5639 3.75195 17.3254 3.85073 17.1496 4.02654C16.9738 4.20236 16.875 4.44081 16.875 4.68945V12.1876C16.875 12.4362 16.9738 12.6747 17.1496 12.8505C17.3254 13.0263 17.5639 13.1251 17.8125 13.1251H25.3125ZM12.1875 13.1251C12.4361 13.1251 12.6746 13.0263 12.8504 12.8505C13.0262 12.6747 13.125 12.4362 13.125 12.1876V4.68945C13.125 4.44081 13.0262 4.20236 12.8504 4.02654C12.6746 3.85073 12.4361 3.75195 12.1875 3.75195H4.68937C4.44073 3.75195 4.20228 3.85073 4.02646 4.02654C3.85065 4.20236 3.75187 4.44081 3.75187 4.68945V12.1876C3.75187 12.4362 3.85065 12.6747 4.02646 12.8505C4.20228 13.0263 4.44073 13.1251 4.68937 13.1251H12.1875ZM25.3125 26.2501C25.5611 26.2501 25.7996 26.1513 25.9754 25.9755C26.1512 25.7997 26.25 25.5612 26.25 25.3126V17.8126C26.25 17.5639 26.1512 17.3255 25.9754 17.1497C25.7996 16.9739 25.5611 16.8751 25.3125 16.8751H17.8125C17.5639 16.8751 17.3254 16.9739 17.1496 17.1497C16.9738 17.3255 16.875 17.5639 16.875 17.8126V25.3126C16.875 25.5612 16.9738 25.7997 17.1496 25.9755C17.3254 26.1513 17.5639 26.2501 17.8125 26.2501H25.3125ZM12.1875 26.2501C12.4361 26.2501 12.6746 26.1513 12.8504 25.9755C13.0262 25.7997 13.125 25.5612 13.125 25.3126V17.8126C13.125 17.5639 13.0262 17.3255 12.8504 17.1497C12.6746 16.9739 12.4361 16.8751 12.1875 16.8751H4.68937C4.44073 16.8751 4.20228 16.9739 4.02646 17.1497C3.85065 17.3255 3.75187 17.5639 3.75187 17.8126V25.3126C3.75187 25.5612 3.85065 25.7997 4.02646 25.9755C4.20228 26.1513 4.44073 26.2501 4.68937 26.2501H12.1875Z" fill="white"/>
</svg>
