<svg width="19" height="22" viewBox="0 0 19 22" fill="none" xmlns="http://www.w3.org/2000/svg">
<g clip-path="url(#clip0_75_968)">
<path d="M18.6347 15.5671C17.8153 14.6751 16.2822 13.3332 16.2822 8.9375C16.2822 5.59883 13.9716 2.92617 10.8561 2.27047V1.375C10.8561 0.615742 10.2488 0 9.49985 0C8.75087 0 8.14355 0.615742 8.14355 1.375V2.27047C5.02806 2.92617 2.71753 5.59883 2.71753 8.9375C2.71753 13.3332 1.18438 14.6751 0.365002 15.5671C0.110538 15.8443 -0.00227432 16.1756 -0.000153783 16.5C0.0045114 17.2047 0.550337 17.875 1.36123 17.875H17.6385C18.4494 17.875 18.9956 17.2047 18.9998 16.5C19.002 16.1756 18.8892 15.8439 18.6347 15.5671ZM2.86384 15.8125C3.7638 14.6107 4.74773 12.6186 4.75239 8.96242C4.75239 8.95383 4.74985 8.94609 4.74985 8.9375C4.74985 6.27945 6.87632 4.125 9.49985 4.125C12.1234 4.125 14.2498 6.27945 14.2498 8.9375C14.2498 8.94609 14.2473 8.95383 14.2473 8.96242C14.252 12.6191 15.2359 14.6111 16.1359 15.8125H2.86384ZM9.49985 22C10.9978 22 12.2129 20.7689 12.2129 19.25H6.78683C6.78683 20.7689 8.0019 22 9.49985 22Z" fill="white" fill-opacity="0.4"/>
</g>
<defs>
<clipPath id="clip0_75_968">
<rect width="19" height="22" fill="white"/>
</clipPath>
</defs>
</svg>
