<svg width="22" height="22" viewBox="0 0 22 22" fill="none" xmlns="http://www.w3.org/2000/svg">
<path fill-rule="evenodd" clip-rule="evenodd" d="M15.1215 1.48884C16.1831 1.70521 17.1657 2.20683 17.9636 2.93977C18.7614 3.67272 19.3445 4.60927 19.65 5.64874C19.933 6.60184 19.9751 7.61022 19.7724 8.58437C19.4794 9.91902 18.742 11.1147 17.6809 11.9756C16.6198 12.8365 15.2978 13.3118 13.9314 13.3235C13.3548 13.3235 12.7809 13.2406 12.2293 13.0734L11.1762 14.3082L10.6772 14.5386H9.39371V16.5132L8.7355 17.1714H6.76086V19.146L6.10265 19.8043H2.15338L1.49516 19.146V16.1091L1.68736 15.6444L8.23526 9.09646C8.04943 8.49792 7.96055 7.8735 7.97197 7.24688C7.98397 6.37019 8.18922 5.50694 8.5731 4.71867C8.95697 3.9304 9.51002 3.23651 10.1928 2.68649C10.8756 2.13646 11.6713 1.74383 12.5232 1.53658C13.3752 1.32934 14.2623 1.31259 15.1215 1.48752V1.48884ZM16.8565 10.9671C17.6835 10.2974 18.2586 9.36684 18.4876 8.32767L18.4928 8.33425C18.6559 7.57441 18.6266 6.78586 18.4075 6.04025C18.1883 5.29464 17.7864 4.6156 17.2381 4.06484C16.6898 3.51407 16.0126 3.10904 15.268 2.88653C14.5234 2.66403 13.735 2.63112 12.9744 2.79078C11.9486 3.01846 11.0285 3.58277 10.3605 4.39387C9.69256 5.20497 9.31515 6.21623 9.2884 7.26663C9.27524 7.86692 9.38055 8.46194 9.60303 9.01748L9.45822 9.73229L2.81159 16.3816V18.4878H5.44444V16.5132L6.10265 15.855H8.07729V13.8803L8.7355 13.2221H10.3745L11.5276 11.8846L12.2662 11.7003C12.7985 11.9084 13.3652 12.0147 13.9367 12.0137C15.0004 12.0055 16.0298 11.6365 16.8565 10.9671ZM15.7534 7.37063C15.8572 7.2272 15.931 7.06431 15.9703 6.89171C16.0097 6.7191 16.0139 6.54033 15.9826 6.36607C15.9513 6.19182 15.8852 6.02567 15.7882 5.87757C15.6911 5.72947 15.5653 5.60245 15.418 5.50412C15.2708 5.40579 15.1053 5.33817 14.9313 5.30531C14.7573 5.27244 14.5785 5.275 14.4056 5.31283C14.2326 5.35067 14.0691 5.423 13.9247 5.52551C13.7804 5.62801 13.6582 5.75858 13.5655 5.9094C13.3871 6.19952 13.3281 6.54748 13.4009 6.88018C13.4737 7.21288 13.6726 7.50442 13.9558 7.69357C14.239 7.88272 14.5845 7.95475 14.9197 7.89453C15.2549 7.83431 15.5537 7.64653 15.7534 7.37063Z" fill="white" fill-opacity="0.4"/>
</svg>
