<svg width="26" height="26" viewBox="0 0 26 26" fill="none" xmlns="http://www.w3.org/2000/svg">
<path d="M22.75 7.58333C22.7602 7.50785 22.7602 7.43132 22.75 7.35583C22.7405 7.29223 22.7223 7.23025 22.6958 7.17167C22.6672 7.11872 22.6346 7.06802 22.5983 7.02C22.5571 6.95148 22.506 6.88942 22.4466 6.83583L22.3166 6.76C22.2541 6.71337 22.1846 6.67682 22.1108 6.65167H21.8941C21.8281 6.58774 21.751 6.53635 21.6666 6.5H16.25C15.9626 6.5 15.6871 6.61414 15.4839 6.8173C15.2808 7.02047 15.1666 7.29602 15.1666 7.58333C15.1666 7.87065 15.2808 8.1462 15.4839 8.34937C15.6871 8.55253 15.9626 8.66667 16.25 8.66667H19.3158L14.9825 13.7692L10.3025 10.985C10.0808 10.8532 9.81935 10.8047 9.56516 10.8484C9.31098 10.8921 9.08072 11.025 8.91579 11.2233L3.49912 17.7233C3.4079 17.8328 3.33918 17.9592 3.29688 18.0953C3.25458 18.2313 3.23954 18.3744 3.25262 18.5163C3.2657 18.6582 3.30665 18.7961 3.37312 18.9222C3.43958 19.0482 3.53026 19.1599 3.63995 19.2508C3.83486 19.4123 4.08016 19.5005 4.33329 19.5C4.49244 19.5003 4.6497 19.4654 4.79387 19.398C4.93804 19.3306 5.0656 19.2323 5.16745 19.11L9.98829 13.325L14.6141 16.0983C14.8335 16.2285 15.0918 16.277 15.3435 16.2354C15.5952 16.1938 15.8241 16.0647 15.99 15.8708L20.5833 10.5083V13C20.5833 13.2873 20.6974 13.5629 20.9006 13.766C21.1038 13.9692 21.3793 14.0833 21.6666 14.0833C21.9539 14.0833 22.2295 13.9692 22.4327 13.766C22.6358 13.5629 22.75 13.2873 22.75 13V7.58333Z" fill="white" fill-opacity="0.4"/>
</svg>
