<svg width="36" height="36" viewBox="0 0 36 36" fill="none" xmlns="http://www.w3.org/2000/svg">
<circle cx="18" cy="18" r="18" fill="white" fill-opacity="0.2"/>
<circle cx="18" cy="18" r="15" fill="white"/>
<g clip-path="url(#clip0_48_265)">
<path d="M18 3C14.5026 2.99778 11.1143 4.21777 8.42103 6.44902C5.72777 8.68026 3.89885 11.7825 3.2505 15.2193C2.60215 18.6561 3.17513 22.2115 4.87036 25.2706C6.5656 28.3297 9.27652 30.7003 12.5344 31.9725C12.4031 30.7856 12.2831 28.9613 12.585 27.6656C12.8588 26.4938 14.3438 20.2088 14.3438 20.2088C14.3438 20.2088 13.8956 19.3106 13.8956 17.9831C13.8956 15.8963 15.105 14.34 16.6106 14.34C17.8894 14.34 18.5081 15.3 18.5081 16.4531C18.5081 17.7394 17.6888 19.6631 17.265 21.4463C16.9125 22.9388 18.015 24.1575 19.4869 24.1575C22.1531 24.1575 24.2025 21.345 24.2025 17.2875C24.2025 13.6969 21.6206 11.1863 17.9363 11.1863C13.6688 11.1863 11.1638 14.3869 11.1638 17.6944C11.1638 18.9844 11.6606 20.3663 12.2794 21.1181C12.3327 21.1748 12.3704 21.2443 12.3888 21.3199C12.4072 21.3955 12.4057 21.4746 12.3844 21.5494C12.27 22.0219 12.0169 23.0419 11.9681 23.25C11.9025 23.5238 11.7506 23.5819 11.4656 23.4506C9.59064 22.5788 8.42064 19.8394 8.42064 17.6381C8.42064 12.9075 11.8594 8.56313 18.3319 8.56313C23.535 8.56313 27.5794 12.27 27.5794 17.2256C27.5794 22.395 24.3188 26.5556 19.7963 26.5556C18.2756 26.5556 16.8469 25.7663 16.3575 24.8325L15.4238 28.3988C15.0844 29.7019 14.1694 31.335 13.5581 32.3306C15.6206 32.9683 17.7964 33.1533 19.9369 32.873C22.0774 32.5927 24.1322 31.8536 25.9608 30.7063C27.7895 29.559 29.349 28.0305 30.5328 26.2253C31.7166 24.42 32.4967 22.3805 32.82 20.246C33.1432 18.1116 33.0019 15.9325 32.4058 13.8577C31.8096 11.7828 30.7726 9.86112 29.3656 8.22382C27.9587 6.58652 26.2148 5.2722 24.2533 4.37065C22.2918 3.46911 20.1588 3.00158 18 3Z" fill="#C91111"/>
</g>
<defs>
<clipPath id="clip0_48_265">
<rect width="30" height="30" fill="white" transform="translate(3 3)"/>
</clipPath>
</defs>
</svg>
