<svg width="20" height="20" viewBox="0 0 20 20" fill="none" xmlns="http://www.w3.org/2000/svg">
<g clip-path="url(#clip0_65_1323)">
<path d="M19.9552 0.857258C20.0007 0.743678 20.0118 0.619252 19.9872 0.499407C19.9626 0.379562 19.9034 0.269567 19.8169 0.183059C19.7304 0.0965504 19.6204 0.0373335 19.5006 0.0127492C19.3807 -0.0118351 19.2563 -0.000705742 19.1427 0.0447576L0.958955 7.31851H0.957705L0.392705 7.54351C0.285693 7.58619 0.192562 7.65763 0.123599 7.74992C0.054637 7.84221 0.0125273 7.95177 0.0019216 8.06649C-0.00868407 8.18122 0.0126271 8.29664 0.063501 8.40001C0.114375 8.50338 0.192832 8.59068 0.290205 8.65226L0.802705 8.97726L0.803955 8.97976L7.0477 12.9523L9.0352 16.0748C10.0002 17.4998 10.0002 16.2498 10.0002 15.6248C10.0001 14.8305 10.1681 14.0452 10.4933 13.3206C10.8185 12.5959 11.2935 11.9484 11.887 11.4205C12.4805 10.8927 13.1791 10.4965 13.9367 10.2581C14.6943 10.0197 15.4939 9.94442 16.2827 10.0373L19.9552 0.857258ZM17.664 3.21976L8.29645 12.5873L8.0277 12.1648C7.97846 12.0872 7.91274 12.0215 7.8352 11.9723L7.4127 11.7035L16.7802 2.33601L18.2527 1.74726L17.6652 3.21976H17.664Z" fill="white" fill-opacity="0.6"/>
<path d="M20 15.625C20 16.7853 19.5391 17.8981 18.7186 18.7186C17.8981 19.5391 16.7853 20 15.625 20C14.4647 20 13.3519 19.5391 12.5314 18.7186C11.7109 17.8981 11.25 16.7853 11.25 15.625C11.25 14.4647 11.7109 13.3519 12.5314 12.5314C13.3519 11.7109 14.4647 11.25 15.625 11.25C16.7853 11.25 17.8981 11.7109 18.7186 12.5314C19.5391 13.3519 20 14.4647 20 15.625ZM17.5087 13.5263C17.4383 13.484 17.3603 13.4561 17.2791 13.4441C17.1979 13.4321 17.1151 13.4361 17.0355 13.4561C16.9558 13.4761 16.8809 13.5115 16.815 13.5605C16.7491 13.6094 16.6934 13.6708 16.6512 13.7413L15.1888 16.1788L14.505 15.495C14.3876 15.3776 14.2285 15.3117 14.0625 15.3117C13.8965 15.3117 13.7374 15.3776 13.62 15.495C13.5026 15.6124 13.4367 15.7715 13.4367 15.9375C13.4367 16.1035 13.5026 16.2626 13.62 16.38L14.5875 17.3462C14.6882 17.4471 14.8106 17.5238 14.9454 17.5702C15.0801 17.6167 15.2237 17.6319 15.3652 17.6145C15.5067 17.5972 15.6424 17.5478 15.7619 17.4701C15.8814 17.3924 15.9817 17.2885 16.055 17.1662L17.7238 14.3837C17.766 14.3133 17.7939 14.2353 17.8059 14.1541C17.8179 14.0729 17.8139 13.9901 17.7939 13.9105C17.7739 13.8308 17.7385 13.7559 17.6895 13.69C17.6406 13.6241 17.5792 13.5684 17.5087 13.5263Z" fill="white" fill-opacity="0.6"/>
</g>
<defs>
<clipPath id="clip0_65_1323">
<rect width="20" height="20" fill="white"/>
</clipPath>
</defs>
</svg>
