<svg width="34" height="34" viewBox="0 0 34 34" fill="none" xmlns="http://www.w3.org/2000/svg">
<path d="M17 2.125C8.78555 2.125 2.125 8.78555 2.125 17C2.125 25.2145 8.78555 31.875 17 31.875C25.2145 31.875 31.875 25.2145 31.875 17C31.875 8.78555 25.2145 2.125 17 2.125ZM17 29.3516C10.1801 29.3516 4.64844 23.8199 4.64844 17C4.64844 10.1801 10.1801 4.64844 17 4.64844C23.8199 4.64844 29.3516 10.1801 29.3516 17C29.3516 23.8199 23.8199 29.3516 17 29.3516Z" fill="#3985ED"/>
<path d="M20.7055 10.5154C19.7094 9.64219 18.3945 9.16406 17 9.16406C15.6055 9.16406 14.2906 9.64551 13.2945 10.5154C12.2586 11.4219 11.6875 12.6404 11.6875 13.9453V14.1977C11.6875 14.3438 11.807 14.4633 11.9531 14.4633H13.5469C13.693 14.4633 13.8125 14.3438 13.8125 14.1977V13.9453C13.8125 12.4811 15.2436 11.2891 17 11.2891C18.7564 11.2891 20.1875 12.4811 20.1875 13.9453C20.1875 14.9779 19.457 15.9242 18.3248 16.3592C17.6209 16.6281 17.0232 17.0996 16.5949 17.7172C16.16 18.348 15.9342 19.1051 15.9342 19.8721V20.5859C15.9342 20.732 16.0537 20.8516 16.1998 20.8516H17.7936C17.9397 20.8516 18.0592 20.732 18.0592 20.5859V19.8322C18.0609 19.5099 18.1597 19.1956 18.3427 18.9302C18.5257 18.6649 18.7845 18.4608 19.0852 18.3447C21.0441 17.591 22.3092 15.8645 22.3092 13.9453C22.3125 12.6404 21.7414 11.4219 20.7055 10.5154ZM15.6719 24.3047C15.6719 24.6569 15.8118 24.9947 16.0609 25.2438C16.3099 25.4929 16.6478 25.6328 17 25.6328C17.3522 25.6328 17.6901 25.4929 17.9391 25.2438C18.1882 24.9947 18.3281 24.6569 18.3281 24.3047C18.3281 23.9524 18.1882 23.6146 17.9391 23.3656C17.6901 23.1165 17.3522 22.9766 17 22.9766C16.6478 22.9766 16.3099 23.1165 16.0609 23.3656C15.8118 23.6146 15.6719 23.9524 15.6719 24.3047Z" fill="#3985ED"/>
</svg>
