<svg width="34" height="34" viewBox="0 0 34 34" fill="none" xmlns="http://www.w3.org/2000/svg">
<g clip-path="url(#clip0_81_1587)">
<path d="M14.8787 19.123L19.1213 14.8803M14.8787 10.6377L15.5858 9.93058C16.711 8.80537 18.2371 8.17322 19.8284 8.17322C21.4197 8.17322 22.9458 8.80537 24.0711 9.93058C25.1963 11.0558 25.8284 12.5819 25.8284 14.1732C25.8284 15.7645 25.1963 17.2906 24.0711 18.4159L23.3639 19.123M19.1213 23.3656L18.4142 24.0727C17.289 25.1979 15.7629 25.8301 14.1716 25.8301C12.5803 25.8301 11.0541 25.1979 9.92892 24.0727C8.8037 22.9475 8.17156 21.4214 8.17156 19.8301C8.17156 18.2388 8.8037 16.7127 9.92892 15.5874L10.636 14.8803" stroke="white" stroke-opacity="0.6" stroke-width="2" stroke-linecap="round" stroke-linejoin="round"/>
</g>
<defs>
<clipPath id="clip0_81_1587">
<rect width="24" height="24" fill="white" transform="translate(0.0294189 17.0015) rotate(-45)"/>
</clipPath>
</defs>
</svg>
