<svg width="22" height="24" viewBox="0 0 22 24" fill="none" xmlns="http://www.w3.org/2000/svg">
<path d="M15.3257 19.5862L14.7391 14.6757C14.6559 13.9802 14.3326 13.3404 13.8299 12.8766C13.3272 12.4128 12.6797 12.157 12.0092 12.1572H9.98891C9.31876 12.1574 8.67174 12.4135 8.1694 12.8772C7.66707 13.341 7.34401 13.9805 7.26091 14.6757L6.67333 19.5862C6.64108 19.856 6.6641 20.1299 6.74087 20.3896C6.81763 20.6494 6.94638 20.8891 7.11856 21.0929C7.29074 21.2966 7.50242 21.4598 7.73953 21.5714C7.97664 21.6831 8.23377 21.7408 8.49383 21.7406H13.5062C13.7661 21.7406 14.0232 21.6829 14.2602 21.5711C14.4972 21.4594 14.7087 21.2963 14.8808 21.0925C15.0529 20.8888 15.1816 20.6491 15.2583 20.3894C15.335 20.1297 15.358 19.8559 15.3257 19.5862V19.5862Z" stroke="white" stroke-opacity="0.4" stroke-width="2" stroke-linecap="round" stroke-linejoin="round"/>
<path d="M11 8.32373C12.5188 8.32373 13.75 7.03655 13.75 5.44873C13.75 3.86091 12.5188 2.57373 11 2.57373C9.48122 2.57373 8.25 3.86091 8.25 5.44873C8.25 7.03655 9.48122 8.32373 11 8.32373Z" stroke="white" stroke-opacity="0.4" stroke-width="2"/>
<path d="M3.66666 11.1986C4.67918 11.1986 5.49999 10.3404 5.49999 9.2819C5.49999 8.22336 4.67918 7.36523 3.66666 7.36523C2.65414 7.36523 1.83333 8.22336 1.83333 9.2819C1.83333 10.3404 2.65414 11.1986 3.66666 11.1986Z" stroke="white" stroke-opacity="0.4" stroke-width="2"/>
<path d="M18.3333 11.1986C19.3459 11.1986 20.1667 10.3404 20.1667 9.2819C20.1667 8.22336 19.3459 7.36523 18.3333 7.36523C17.3208 7.36523 16.5 8.22336 16.5 9.2819C16.5 10.3404 17.3208 11.1986 18.3333 11.1986Z" stroke="white" stroke-opacity="0.4" stroke-width="2"/>
<path d="M3.66667 14.0737H3.38617C2.95218 14.0737 2.53225 14.2346 2.20108 14.5278C1.86991 14.821 1.64898 15.2276 1.57759 15.6751L1.27234 17.5918C1.22853 17.8664 1.24247 18.1477 1.31319 18.4161C1.38391 18.6845 1.50971 18.9335 1.68184 19.146C1.85396 19.3584 2.06829 19.5291 2.3099 19.6461C2.55152 19.7632 2.81462 19.8238 3.08092 19.8237H6.41667M18.3333 14.0737H18.6138C19.0478 14.0737 19.4678 14.2346 19.7989 14.5278C20.1301 14.821 20.351 15.2276 20.4224 15.6751L20.7277 17.5918C20.7715 17.8664 20.7575 18.1477 20.6868 18.4161C20.6161 18.6845 20.4903 18.9335 20.3182 19.146C20.146 19.3584 19.9317 19.5291 19.6901 19.6461C19.4485 19.7632 19.1854 19.8238 18.9191 19.8237H15.5833" stroke="white" stroke-opacity="0.4" stroke-width="2" stroke-linecap="round" stroke-linejoin="round"/>
</svg>
