<svg width="26" height="26" viewBox="0 0 26 26" fill="none" xmlns="http://www.w3.org/2000/svg">
<path d="M12.9999 5.4165C8.22134 5.4165 4.33325 9.30459 4.33325 14.0832C4.33325 18.8618 8.22134 22.7498 12.9999 22.7498C17.7785 22.7498 21.6666 18.8618 21.6666 14.0832C21.6666 9.30459 17.7785 5.4165 12.9999 5.4165ZM12.9999 20.5832C9.41517 20.5832 6.49992 17.6679 6.49992 14.0832C6.49992 10.4984 9.41517 7.58317 12.9999 7.58317C16.5847 7.58317 19.4999 10.4984 19.4999 14.0832C19.4999 17.6679 16.5847 20.5832 12.9999 20.5832Z" fill="white" fill-opacity="0.4"/>
<path d="M11.9167 9.74984H14.0833V15.1665H11.9167V9.74984ZM9.75 2.1665H16.25V4.33317H9.75V2.1665ZM20.9007 8.34909L18.7341 6.18242L20.2659 4.65059L22.4326 6.81725L20.9007 8.34909Z" fill="white" fill-opacity="0.4"/>
</svg>
