<svg width="4" height="21" viewBox="0 0 4 21" fill="none" xmlns="http://www.w3.org/2000/svg">
<path d="M1 2.20508C1 2.75736 1.44772 3.20508 2 3.20508C2.55228 3.20508 3 2.75736 3 2.20508C3 1.65279 2.55228 1.20508 2 1.20508C1.44772 1.20508 1 1.65279 1 2.20508Z" stroke="white" stroke-width="2"/>
<path d="M1 10.2051C1 10.7574 1.44772 11.2051 2 11.2051C2.55228 11.2051 3 10.7574 3 10.2051C3 9.65279 2.55228 9.20508 2 9.20508C1.44772 9.20508 1 9.65279 1 10.2051Z" stroke="white" stroke-width="2"/>
<path d="M1 18.2051C1 18.7574 1.44772 19.2051 2 19.2051C2.55228 19.2051 3 18.7574 3 18.2051C3 17.6528 2.55228 17.2051 2 17.2051C1.44772 17.2051 1 17.6528 1 18.2051Z" stroke="white" stroke-width="2"/>
</svg>
