<svg width="58" height="26" viewBox="0 0 58 26" fill="none" xmlns="http://www.w3.org/2000/svg">
<rect width="55.767" height="18.9471" rx="9.47355" transform="matrix(0.993652 0.112497 -0.115928 0.993258 2.19653 0)" fill="#08418F"/>
<rect x="0.885986" y="5.7334" width="55.8216" height="18.6072" rx="9.3036" fill="#3985ED"/>
<path d="M11.2937 16.7877C11.2937 16.6489 11.2721 16.5256 11.229 16.4177C11.1889 16.3098 11.1164 16.2111 11.0116 16.1217C10.9068 16.0323 10.7588 15.9459 10.5676 15.8627C10.3795 15.7764 10.139 15.6885 9.84614 15.5991C9.52548 15.5004 9.22949 15.391 8.95817 15.2707C8.68993 15.1474 8.45561 15.0056 8.2552 14.8452C8.05479 14.6818 7.89908 14.4953 7.78809 14.2856C7.67709 14.0729 7.6216 13.8278 7.6216 13.5503C7.6216 13.2759 7.67863 13.0261 7.79271 12.8011C7.90988 12.576 8.07483 12.3817 8.28757 12.2183C8.5034 12.0518 8.75776 11.9239 9.05067 11.8345C9.34357 11.742 9.66731 11.6957 10.0219 11.6957C10.5214 11.6957 10.9515 11.7882 11.3122 11.9732C11.676 12.1582 11.9551 12.4064 12.1493 12.7178C12.3466 13.0292 12.4453 13.373 12.4453 13.7492H11.2937C11.2937 13.5272 11.2459 13.3314 11.1503 13.1618C11.0578 12.9891 10.916 12.8535 10.7249 12.7548C10.5368 12.6562 10.2978 12.6068 10.008 12.6068C9.7336 12.6068 9.50544 12.6484 9.32353 12.7317C9.14162 12.8149 9.00596 12.9275 8.91655 13.0693C8.82713 13.2111 8.78243 13.3715 8.78243 13.5503C8.78243 13.6767 8.81172 13.7923 8.8703 13.8971C8.92888 13.9989 9.01829 14.0945 9.13854 14.1839C9.25878 14.2702 9.40986 14.3519 9.59177 14.429C9.77368 14.5061 9.98797 14.5801 10.2346 14.651C10.6077 14.762 10.933 14.8853 11.2105 15.021C11.488 15.1536 11.7192 15.3046 11.9042 15.4742C12.0892 15.6438 12.2279 15.8365 12.3204 16.0523C12.4129 16.2651 12.4592 16.5071 12.4592 16.7784C12.4592 17.0621 12.4021 17.318 12.288 17.5461C12.174 17.7712 12.0106 17.9639 11.7978 18.1242C11.5882 18.2815 11.3353 18.4033 11.0393 18.4896C10.7464 18.5728 10.4196 18.6145 10.0589 18.6145C9.73514 18.6145 9.41603 18.5713 9.10154 18.485C8.79014 18.3986 8.50648 18.2676 8.25057 18.0919C7.99466 17.913 7.79117 17.691 7.64009 17.4259C7.48902 17.1576 7.41348 16.8447 7.41348 16.487H8.57431C8.57431 16.706 8.61131 16.8925 8.68531 17.0467C8.76239 17.2008 8.86876 17.3272 9.00442 17.4259C9.14008 17.5215 9.29732 17.5924 9.47615 17.6386C9.65806 17.6849 9.8523 17.708 10.0589 17.708C10.3302 17.708 10.5568 17.6695 10.7387 17.5924C10.9237 17.5153 11.0625 17.4074 11.155 17.2686C11.2475 17.1299 11.2937 16.9696 11.2937 16.7877ZM16.196 17.5184V15.132C16.196 14.9531 16.1637 14.799 16.0989 14.6695C16.0342 14.54 15.9355 14.4398 15.8029 14.3689C15.6734 14.298 15.51 14.2625 15.3127 14.2625C15.1308 14.2625 14.9735 14.2933 14.841 14.355C14.7084 14.4167 14.6051 14.4999 14.5311 14.6047C14.4571 14.7096 14.4201 14.8283 14.4201 14.9609H13.3101C13.3101 14.7635 13.3579 14.5724 13.4535 14.3874C13.5491 14.2024 13.6878 14.0374 13.8697 13.8925C14.0516 13.7476 14.269 13.6335 14.5218 13.5503C14.7747 13.467 15.0583 13.4254 15.3728 13.4254C15.749 13.4254 16.0819 13.4886 16.3718 13.615C16.6647 13.7414 16.8944 13.9326 17.0609 14.1885C17.2304 14.4413 17.3152 14.7589 17.3152 15.1412V17.3658C17.3152 17.5939 17.3306 17.799 17.3615 17.9809C17.3954 18.1597 17.4432 18.3154 17.5049 18.448V18.522H16.3625C16.3101 18.4017 16.2685 18.2491 16.2376 18.0641C16.2099 17.876 16.196 17.6941 16.196 17.5184ZM16.3579 15.4788L16.3671 16.1679H15.567C15.3605 16.1679 15.1786 16.188 15.0213 16.2281C14.8641 16.2651 14.733 16.3206 14.6282 16.3946C14.5234 16.4685 14.4448 16.558 14.3923 16.6628C14.3399 16.7676 14.3137 16.8863 14.3137 17.0189C14.3137 17.1515 14.3446 17.2733 14.4062 17.3843C14.4679 17.4922 14.5573 17.577 14.6745 17.6386C14.7947 17.7003 14.9396 17.7311 15.1092 17.7311C15.3373 17.7311 15.5362 17.6849 15.7058 17.5924C15.8785 17.4968 16.0141 17.3812 16.1128 17.2455C16.2114 17.1068 16.2639 16.9757 16.27 16.8524L16.6308 17.3473C16.5938 17.4737 16.5306 17.6093 16.4411 17.7543C16.3517 17.8992 16.2346 18.0379 16.0897 18.1705C15.9478 18.3 15.7767 18.4064 15.5763 18.4896C15.379 18.5728 15.1508 18.6145 14.8918 18.6145C14.565 18.6145 14.2736 18.5497 14.0177 18.4202C13.7618 18.2876 13.5614 18.1104 13.4165 17.8884C13.2716 17.6633 13.1991 17.4089 13.1991 17.1253C13.1991 16.8601 13.2485 16.6258 13.3471 16.4223C13.4489 16.2157 13.5969 16.0431 13.7911 15.9043C13.9884 15.7656 14.2289 15.6607 14.5126 15.5898C14.7962 15.5158 15.12 15.4788 15.4838 15.4788H16.3579ZM20.0346 17.6386L21.2602 13.5179H22.4164L20.6775 18.522H19.956L20.0346 17.6386ZM19.0958 13.5179L20.3445 17.6571L20.4046 18.522H19.6831L17.935 13.5179H19.0958ZM25.2468 18.6145C24.8768 18.6145 24.5423 18.5543 24.2432 18.4341C23.9472 18.3108 23.6944 18.1397 23.4848 17.9207C23.2782 17.7018 23.1194 17.4444 23.0084 17.1484C22.8974 16.8524 22.8419 16.5333 22.8419 16.1911V16.0061C22.8419 15.6145 22.8989 15.2599 23.013 14.9424C23.1271 14.6248 23.2859 14.3535 23.4894 14.1284C23.6929 13.9002 23.9334 13.726 24.2109 13.6058C24.4883 13.4855 24.789 13.4254 25.1127 13.4254C25.4703 13.4254 25.7833 13.4855 26.0515 13.6058C26.3198 13.726 26.5418 13.8956 26.7175 14.1145C26.8963 14.3303 27.0289 14.5878 27.1152 14.8869C27.2047 15.1859 27.2494 15.5158 27.2494 15.8766V16.3529H23.383V15.5528H26.1487V15.465C26.1425 15.2646 26.1024 15.0765 26.0284 14.9007C25.9575 14.725 25.848 14.5832 25.7 14.4752C25.5521 14.3673 25.3547 14.3134 25.1081 14.3134C24.9231 14.3134 24.7581 14.3535 24.6132 14.4336C24.4714 14.5107 24.3527 14.6232 24.2571 14.7712C24.1615 14.9192 24.0875 15.0981 24.0351 15.3077C23.9858 15.5143 23.9611 15.7471 23.9611 16.0061V16.1911C23.9611 16.41 23.9904 16.6135 24.049 16.8015C24.1106 16.9865 24.2001 17.1484 24.3172 17.2871C24.4344 17.4259 24.5762 17.5353 24.7427 17.6155C24.9092 17.6926 25.0988 17.7311 25.3116 17.7311C25.5798 17.7311 25.8187 17.6772 26.0284 17.5693C26.2381 17.4613 26.42 17.3087 26.5741 17.1114L27.1615 17.6803C27.0536 17.8375 26.9133 17.9886 26.7406 18.1335C26.568 18.2753 26.3568 18.3909 26.107 18.4803C25.8604 18.5698 25.5736 18.6145 25.2468 18.6145ZM31.5828 15.391L30.6949 15.1736L31.0602 11.7882H34.6907V12.7317H31.9852L31.8002 14.3828C31.905 14.3211 32.0499 14.261 32.2349 14.2024C32.4199 14.1407 32.6311 14.1099 32.8685 14.1099C33.1861 14.1099 33.4698 14.1623 33.7195 14.2671C33.9723 14.3689 34.1866 14.5184 34.3623 14.7157C34.5381 14.91 34.6722 15.1474 34.7647 15.428C34.8572 15.7055 34.9035 16.0184 34.9035 16.3668C34.9035 16.6782 34.8572 16.9696 34.7647 17.2409C34.6753 17.5122 34.5396 17.7512 34.3577 17.9577C34.1758 18.1643 33.9461 18.3262 33.6686 18.4434C33.3942 18.5574 33.0689 18.6145 32.6928 18.6145C32.4122 18.6145 32.1424 18.5744 31.8834 18.4942C31.6275 18.411 31.3978 18.2892 31.1943 18.1289C30.9908 17.9655 30.8274 17.765 30.7041 17.5276C30.5808 17.2871 30.5099 17.0112 30.4914 16.6998H31.5828C31.6106 16.9187 31.6707 17.1052 31.7632 17.2594C31.8588 17.4105 31.9852 17.5261 32.1424 17.6063C32.2997 17.6864 32.4816 17.7265 32.6882 17.7265C32.8762 17.7265 33.0381 17.6941 33.1738 17.6294C33.3094 17.5616 33.422 17.466 33.5114 17.3426C33.6039 17.2162 33.6717 17.0682 33.7149 16.8987C33.7611 16.7291 33.7842 16.541 33.7842 16.3344C33.7842 16.1371 33.758 15.9567 33.7056 15.7933C33.6563 15.6299 33.5808 15.4881 33.479 15.3678C33.3803 15.2476 33.2555 15.1551 33.1044 15.0904C32.9533 15.0225 32.7791 14.9886 32.5818 14.9886C32.3166 14.9886 32.1131 15.0271 31.9713 15.1042C31.8326 15.1813 31.7031 15.2769 31.5828 15.391ZM40.185 14.5909V15.6916C40.185 16.2188 40.1326 16.669 40.0278 17.042C39.926 17.412 39.778 17.7126 39.5838 17.9439C39.3895 18.1751 39.1568 18.3447 38.8854 18.4526C38.6172 18.5605 38.3166 18.6145 37.9836 18.6145C37.7184 18.6145 37.4718 18.5806 37.2436 18.5127C37.0185 18.4449 36.815 18.3385 36.6331 18.1936C36.4512 18.0487 36.2955 17.8622 36.166 17.634C36.0396 17.4028 35.941 17.1268 35.87 16.8062C35.8022 16.4855 35.7683 16.114 35.7683 15.6916V14.5909C35.7683 14.0606 35.8207 13.6135 35.9255 13.2497C36.0304 12.8828 36.1799 12.5852 36.3741 12.3571C36.5684 12.1258 36.7996 11.9578 37.0679 11.853C37.3392 11.7481 37.6413 11.6957 37.9743 11.6957C38.2426 11.6957 38.4892 11.7296 38.7143 11.7975C38.9425 11.8622 39.146 11.9655 39.3248 12.1073C39.5067 12.2492 39.6609 12.4342 39.7873 12.6623C39.9168 12.8874 40.0154 13.1603 40.0833 13.4809C40.1511 13.7985 40.185 14.1685 40.185 14.5909ZM39.0704 15.8488V14.4244C39.0704 14.1561 39.055 13.9203 39.0242 13.7168C38.9933 13.5102 38.9471 13.336 38.8854 13.1942C38.8268 13.0493 38.7528 12.9321 38.6634 12.8427C38.574 12.7502 38.4723 12.6839 38.3582 12.6438C38.2441 12.6007 38.1162 12.5791 37.9743 12.5791C37.8017 12.5791 37.6475 12.613 37.5119 12.6808C37.3762 12.7456 37.2621 12.8504 37.1696 12.9953C37.0771 13.1402 37.0062 13.3314 36.9569 13.5688C36.9106 13.8031 36.8875 14.0883 36.8875 14.4244V15.8488C36.8875 16.1201 36.9029 16.3591 36.9338 16.5657C36.9646 16.7722 37.0108 16.9495 37.0725 17.0975C37.1342 17.2424 37.2082 17.3627 37.2945 17.4583C37.3839 17.5508 37.4856 17.6186 37.5997 17.6618C37.7169 17.7049 37.8448 17.7265 37.9836 17.7265C38.1593 17.7265 38.315 17.6926 38.4507 17.6248C38.5864 17.5569 38.7004 17.449 38.7929 17.301C38.8854 17.1499 38.9548 16.9542 39.001 16.7137C39.0473 16.4732 39.0704 16.1849 39.0704 15.8488ZM41.1331 13.4393V13.0832C41.1331 12.8273 41.1886 12.5945 41.2996 12.3848C41.4106 12.1752 41.5725 12.0071 41.7852 11.8807C41.9979 11.7543 42.2538 11.6911 42.5529 11.6911C42.8612 11.6911 43.1202 11.7543 43.3299 11.8807C43.5426 12.0071 43.7045 12.1752 43.8155 12.3848C43.9265 12.5945 43.982 12.8273 43.982 13.0832V13.4393C43.982 13.689 43.9265 13.9187 43.8155 14.1284C43.7076 14.338 43.5473 14.5061 43.3345 14.6325C43.1249 14.7589 42.8674 14.8221 42.5622 14.8221C42.26 14.8221 42.001 14.7589 41.7852 14.6325C41.5725 14.5061 41.4106 14.338 41.2996 14.1284C41.1886 13.9187 41.1331 13.689 41.1331 13.4393ZM41.9054 13.0832V13.4393C41.9054 13.5626 41.9286 13.6798 41.9748 13.7908C42.0241 13.9018 42.0981 13.9912 42.1968 14.059C42.2955 14.1268 42.4173 14.1608 42.5622 14.1608C42.7102 14.1608 42.8304 14.1268 42.9229 14.059C43.0185 13.9912 43.0894 13.9018 43.1356 13.7908C43.1819 13.6798 43.205 13.5626 43.205 13.4393V13.0832C43.205 12.9568 43.1804 12.8381 43.131 12.7271C43.0848 12.613 43.0139 12.522 42.9183 12.4542C42.8227 12.3864 42.7009 12.3525 42.5529 12.3525C42.4111 12.3525 42.2908 12.3864 42.1922 12.4542C42.0966 12.522 42.0241 12.613 41.9748 12.7271C41.9286 12.8381 41.9054 12.9568 41.9054 13.0832ZM44.3797 17.2316V16.8709C44.3797 16.6181 44.4352 16.3868 44.5462 16.1772C44.6603 15.9675 44.8237 15.7995 45.0364 15.6731C45.2492 15.5467 45.5051 15.4835 45.8042 15.4835C46.1125 15.4835 46.3715 15.5467 46.5811 15.6731C46.7939 15.7995 46.9542 15.9675 47.0621 16.1772C47.1731 16.3868 47.2286 16.6181 47.2286 16.8709V17.2316C47.2286 17.4845 47.1731 17.7157 47.0621 17.9254C46.9542 18.135 46.7954 18.3031 46.5858 18.4295C46.3761 18.5559 46.1202 18.6191 45.818 18.6191C45.5128 18.6191 45.2523 18.5559 45.0364 18.4295C44.8237 18.3031 44.6603 18.135 44.5462 17.9254C44.4352 17.7157 44.3797 17.4845 44.3797 17.2316ZM45.1567 16.8709V17.2316C45.1567 17.355 45.1814 17.4721 45.2307 17.5831C45.2831 17.6941 45.3586 17.7851 45.4573 17.856C45.556 17.9238 45.6747 17.9577 45.8134 17.9577C45.9707 17.9577 46.0971 17.9238 46.1927 17.856C46.2882 17.7851 46.3561 17.6957 46.3961 17.5878C46.4393 17.4768 46.4609 17.3581 46.4609 17.2316V16.8709C46.4609 16.7445 46.4362 16.6258 46.3869 16.5148C46.3407 16.4038 46.2682 16.3144 46.1695 16.2466C46.074 16.1787 45.9522 16.1448 45.8042 16.1448C45.6593 16.1448 45.539 16.1787 45.4434 16.2466C45.3479 16.3144 45.2754 16.4038 45.2261 16.5148C45.1798 16.6258 45.1567 16.7445 45.1567 16.8709ZM46.0817 12.7502L42.7934 18.0132L42.2246 17.6849L45.5128 12.4218L46.0817 12.7502Z" fill="white"/>
<circle cx="51.8342" cy="15.0368" r="1.32909" fill="white"/>
</svg>
