<svg width="21" height="22" viewBox="0 0 21 22" fill="none" xmlns="http://www.w3.org/2000/svg">
<g clip-path="url(#clip0_75_939)">
<path d="M11.8125 11.1572C11.8125 11.8832 11.226 12.4697 10.5 12.4697C9.77402 12.4697 9.1875 11.8832 9.1875 11.1572V1.96973C9.1875 1.24498 9.77402 0.657227 10.5 0.657227C11.226 0.657227 11.8125 1.24498 11.8125 1.96973V11.1572ZM3.28125 11.1572C3.28125 15.1439 6.51328 18.376 10.5 18.376C14.4867 18.376 17.7188 15.1439 17.7188 11.1572C17.7188 8.92598 16.7057 6.92851 15.1143 5.60371C14.5564 5.14023 14.4785 4.31295 14.942 3.75555C15.4055 3.19814 16.234 3.12227 16.7918 3.58574C18.9574 5.39043 20.3438 8.11387 20.3438 11.1203C20.3438 16.5918 15.9346 21.001 10.5 21.001C5.06543 21.001 0.65625 16.5918 0.65625 11.1203C0.65625 8.11387 2.04053 5.39043 4.2082 3.58574C4.76602 3.12227 5.59453 3.19814 6.05801 3.75555C6.48457 4.31295 6.44355 5.14023 5.88574 5.60371C4.29434 6.92851 3.28125 8.92598 3.28125 11.1572Z" fill="white" fill-opacity="0.4"/>
</g>
<defs>
<clipPath id="clip0_75_939">
<rect width="21" height="21" fill="white" transform="translate(0 0.657227)"/>
</clipPath>
</defs>
</svg>
