<svg width="17" height="13" viewBox="0 0 17 13" fill="none" xmlns="http://www.w3.org/2000/svg">
<g clip-path="url(#clip0_30_75)">
<path d="M5.90942 7.26975H4.71912C4.49991 7.26975 4.32236 7.43328 4.32236 7.63519V12.0205C4.32236 12.2224 4.49991 12.386 4.71912 12.386H5.90942C6.12864 12.386 6.30619 12.2224 6.30619 12.0205V7.63519C6.30619 7.43328 6.12864 7.26975 5.90942 7.26975ZM2.73529 9.46241H1.54499C1.32578 9.46241 1.14822 9.62594 1.14822 9.82785V12.0205C1.14822 12.2224 1.32578 12.386 1.54499 12.386H2.73529C2.9545 12.386 3.13206 12.2224 3.13206 12.0205V9.82785C3.13206 9.62594 2.9545 9.46241 2.73529 9.46241ZM9.08356 5.07709H7.89326C7.67404 5.07709 7.49649 5.24062 7.49649 5.44253V12.0205C7.49649 12.2224 7.67404 12.386 7.89326 12.386H9.08356C9.30277 12.386 9.48032 12.2224 9.48032 12.0205V5.44253C9.48032 5.24062 9.30277 5.07709 9.08356 5.07709ZM12.2577 2.88443H11.0674C10.8482 2.88443 10.6706 3.04797 10.6706 3.24987V12.0205C10.6706 12.2224 10.8482 12.386 11.0674 12.386H12.2577C12.4769 12.386 12.6545 12.2224 12.6545 12.0205V3.24987C12.6545 3.04797 12.4769 2.88443 12.2577 2.88443ZM15.4318 0.691772H14.2415C14.0223 0.691772 13.8448 0.855308 13.8448 1.05722V12.0205C13.8448 12.2224 14.0223 12.386 14.2415 12.386H15.4318C15.651 12.386 15.8286 12.2224 15.8286 12.0205V1.05722C15.8286 0.855308 15.651 0.691772 15.4318 0.691772Z" fill="white" fill-opacity="0.7"/>
</g>
<defs>
<clipPath id="clip0_30_75">
<rect width="15.8707" height="11.6942" fill="white" transform="translate(0.55307 0.691772)"/>
</clipPath>
</defs>
</svg>
