<svg width="26" height="26" viewBox="0 0 26 26" fill="none" xmlns="http://www.w3.org/2000/svg">
<path d="M5.41666 8.66667C5.10972 8.66667 4.85225 8.56267 4.64425 8.35467C4.43697 8.14739 4.33333 7.89028 4.33333 7.58333C4.33333 7.27639 4.43697 7.01892 4.64425 6.81092C4.85225 6.60364 5.10972 6.5 5.41666 6.5H20.5833C20.8903 6.5 21.1474 6.60364 21.3547 6.81092C21.5627 7.01892 21.6667 7.27639 21.6667 7.58333C21.6667 7.89028 21.5627 8.14739 21.3547 8.35467C21.1474 8.56267 20.8903 8.66667 20.5833 8.66667H5.41666ZM7.58333 14.0833C7.27638 14.0833 7.01891 13.9793 6.81091 13.7713C6.60363 13.5641 6.49999 13.3069 6.49999 13C6.49999 12.6931 6.60363 12.4356 6.81091 12.2276C7.01891 12.0203 7.27638 11.9167 7.58333 11.9167H18.4167C18.7236 11.9167 18.9811 12.0203 19.1891 12.2276C19.3964 12.4356 19.5 12.6931 19.5 13C19.5 13.3069 19.3964 13.5641 19.1891 13.7713C18.9811 13.9793 18.7236 14.0833 18.4167 14.0833H7.58333Z" fill="white"/>
<path d="M9.75 19.5C9.44305 19.5 9.18558 19.396 8.97758 19.188C8.7703 18.9807 8.66666 18.7236 8.66666 18.4167C8.66666 18.1097 8.7703 17.8523 8.97758 17.6442C9.18558 17.437 9.44305 17.3333 9.75 17.3333H16.25C16.5569 17.3333 16.8144 17.437 17.0224 17.6442C17.2297 17.8523 17.3333 18.1097 17.3333 18.4167C17.3333 18.7236 17.2297 18.9807 17.0224 19.188C16.8144 19.396 16.5569 19.5 16.25 19.5H9.75Z" fill="white"/>
</svg>
