<svg width="20" height="20" viewBox="0 0 20 20" fill="none" xmlns="http://www.w3.org/2000/svg">
<path d="M9.99998 1.11133C8.24192 1.11133 6.52334 1.63265 5.06157 2.60938C3.5998 3.5861 2.46049 4.97435 1.78771 6.59859C1.11494 8.22282 0.938906 10.0101 1.28189 11.7344C1.62487 13.4586 2.47145 15.0425 3.71458 16.2856C4.95772 17.5287 6.54157 18.3753 8.26584 18.7183C9.99012 19.0613 11.7774 18.8853 13.4016 18.2125C15.0258 17.5397 16.4141 16.4004 17.3908 14.9386C18.3675 13.4768 18.8889 11.7583 18.8889 10.0002C18.8889 7.64274 17.9524 5.38181 16.2854 3.71482C14.6184 2.04783 12.3575 1.11133 9.99998 1.11133ZM15.8055 7.01688L8.50553 14.3113L4.19442 10.0002C4.04708 9.85287 3.9643 9.65304 3.9643 9.44466C3.9643 9.23629 4.04708 9.03645 4.19442 8.88911C4.34176 8.74176 4.5416 8.65899 4.74998 8.65899C4.95835 8.65899 5.15819 8.74176 5.30553 8.88911L8.51664 12.1002L14.7055 5.91688C14.7785 5.84393 14.8651 5.78606 14.9604 5.74657C15.0557 5.70709 15.1579 5.68677 15.2611 5.68677C15.3643 5.68677 15.4664 5.70709 15.5618 5.74657C15.6571 5.78606 15.7437 5.84393 15.8166 5.91688C15.8896 5.98984 15.9475 6.07645 15.987 6.17177C16.0264 6.2671 16.0468 6.36926 16.0468 6.47244C16.0468 6.57562 16.0264 6.67778 15.987 6.7731C15.9475 6.86843 15.8896 6.95504 15.8166 7.02799L15.8055 7.01688Z" fill="white" fill-opacity="0.4"/>
</svg>
