<svg width="36" height="36" viewBox="0 0 36 36" fill="none" xmlns="http://www.w3.org/2000/svg">
<circle cx="18" cy="18" r="18" fill="white" fill-opacity="0.2"/>
<circle cx="18" cy="18" r="14" fill="white"/>
<path d="M18 3.125C9.78555 3.125 3.125 9.78555 3.125 18C3.125 26.2145 9.78555 32.875 18 32.875C26.2145 32.875 32.875 26.2145 32.875 18C32.875 9.78555 26.2145 3.125 18 3.125ZM25.1486 14.3377C25.1586 14.4938 25.1586 14.6564 25.1586 14.8158C25.1586 19.69 21.4465 25.3047 14.6631 25.3047C12.5713 25.3047 10.6322 24.6971 8.99863 23.6512C9.29746 23.6844 9.58301 23.6977 9.88848 23.6977C11.615 23.6977 13.2021 23.1133 14.4672 22.1238C12.8469 22.0906 11.4855 21.0281 11.0207 19.5672C11.5885 19.6502 12.0998 19.6502 12.6842 19.5008C11.8499 19.3313 11.1 18.8782 10.5619 18.2184C10.0238 17.5587 9.73072 16.733 9.73242 15.8816V15.8352C10.2205 16.1107 10.7949 16.2801 11.3959 16.3033C10.8907 15.9666 10.4764 15.5105 10.1897 14.9753C9.90297 14.4401 9.75275 13.8425 9.75234 13.2354C9.75234 12.548 9.93164 11.9205 10.2537 11.376C11.1798 12.516 12.3353 13.4483 13.6453 14.1125C14.9553 14.7766 16.3903 15.1577 17.8572 15.2309C17.3359 12.724 19.2086 10.6953 21.4598 10.6953C22.5223 10.6953 23.4785 11.1402 24.1525 11.8574C24.9859 11.7014 25.7828 11.3893 26.4934 10.9709C26.2178 11.8242 25.64 12.5447 24.873 12.9996C25.6168 12.9199 26.334 12.7141 26.998 12.4252C26.4967 13.1623 25.8691 13.8164 25.1486 14.3377V14.3377Z" fill="#27AAD3"/>
</svg>
