<svg width="19" height="19" viewBox="0 0 19 19" fill="none" xmlns="http://www.w3.org/2000/svg">
<path d="M9.5 11.875C10.8117 11.875 11.875 10.8117 11.875 9.5C11.875 8.18832 10.8117 7.125 9.5 7.125C8.18832 7.125 7.125 8.18832 7.125 9.5C7.125 10.8117 8.18832 11.875 9.5 11.875Z" fill="white" fill-opacity="0.3"/>
<path d="M18.3706 9.29812C17.6723 7.49173 16.4599 5.92955 14.8834 4.80468C13.3069 3.6798 11.4353 3.04153 9.49999 2.96875C7.56467 3.04153 5.6931 3.6798 4.11658 4.80468C2.54006 5.92955 1.32771 7.49173 0.629367 9.29812C0.582203 9.42858 0.582203 9.57142 0.629367 9.70188C1.32771 11.5083 2.54006 13.0704 4.11658 14.1953C5.6931 15.3202 7.56467 15.9585 9.49999 16.0312C11.4353 15.9585 13.3069 15.3202 14.8834 14.1953C16.4599 13.0704 17.6723 11.5083 18.3706 9.70188C18.4178 9.57142 18.4178 9.42858 18.3706 9.29812ZM9.49999 13.3594C8.73668 13.3594 7.99051 13.133 7.35584 12.709C6.72117 12.2849 6.2265 11.6821 5.93439 10.9769C5.64229 10.2717 5.56586 9.49572 5.71477 8.74707C5.86369 7.99843 6.23126 7.31075 6.771 6.77101C7.31074 6.23127 7.99842 5.8637 8.74706 5.71478C9.49571 5.56587 10.2717 5.6423 10.9769 5.9344C11.6821 6.22651 12.2849 6.72118 12.7089 7.35585C13.133 7.99052 13.3594 8.73669 13.3594 9.5C13.3578 10.5231 12.9507 11.5038 12.2272 12.2273C11.5038 12.9507 10.5231 13.3578 9.49999 13.3594Z" fill="white" fill-opacity="0.3"/>
</svg>
