<svg width="54" height="54" viewBox="0 0 54 54" fill="none" xmlns="http://www.w3.org/2000/svg">
<path d="M33.3 10.3792L48.3773 35.4914C50.544 39.0982 49.4798 43.8434 45.999 46.0889C44.8308 46.8454 43.469 47.2485 42.0773 47.2499H11.9205C7.82325 47.2499 4.5 43.8074 4.5 39.5572C4.5 38.1194 4.88925 36.7132 5.6205 35.4914L20.7 10.3792C22.8645 6.77243 27.441 5.66768 30.9217 7.91318C31.8848 8.53418 32.6993 9.37793 33.3 10.3792ZM28.305 12.2669C28.0296 12.0898 27.721 11.9703 27.3981 11.9156C27.0752 11.861 26.7445 11.8725 26.4262 11.9492C26.1078 12.026 25.8083 12.1665 25.5457 12.3622C25.2831 12.558 25.063 12.8049 24.8985 13.0882L9.82125 38.2049C9.57633 38.6142 9.44724 39.0824 9.44775 39.5594C9.44775 40.9769 10.5547 42.1244 11.9227 42.1244H42.075C42.5385 42.1244 42.9907 41.9894 43.3823 41.7374C43.944 41.3642 44.3402 40.7886 44.4881 40.1305C44.6361 39.4725 44.5244 38.7827 44.1765 38.2049L29.0992 13.0882C28.9015 12.7575 28.6306 12.4765 28.3073 12.2669H28.305ZM27 38.2499C26.4033 38.2499 25.831 38.0129 25.409 37.5909C24.9871 37.169 24.75 36.5967 24.75 35.9999C24.75 35.4032 24.9871 34.8309 25.409 34.4089C25.831 33.987 26.4033 33.7499 27 33.7499C27.5967 33.7499 28.169 33.987 28.591 34.4089C29.0129 34.8309 29.25 35.4032 29.25 35.9999C29.25 36.5967 29.0129 37.169 28.591 37.5909C28.169 38.0129 27.5967 38.2499 27 38.2499ZM27 17.9999C27.5967 17.9999 28.169 18.237 28.591 18.6589C29.0129 19.0809 29.25 19.6532 29.25 20.2499V29.2499C29.25 29.8467 29.0129 30.419 28.591 30.8409C28.169 31.2629 27.5967 31.4999 27 31.4999C26.4033 31.4999 25.831 31.2629 25.409 30.8409C24.9871 30.419 24.75 29.8467 24.75 29.2499V20.2499C24.75 19.6532 24.9871 19.0809 25.409 18.6589C25.831 18.237 26.4033 17.9999 27 17.9999Z" fill="#FF7A00"/>
</svg>
