<svg width="16" height="14" viewBox="0 0 16 14" fill="none" xmlns="http://www.w3.org/2000/svg">
<g clip-path="url(#clip0_30_77)">
<path d="M14.9158 4.48193C10.7536 0.471761 4.28014 0.47323 0.119573 4.48193C-0.0368884 4.63267 -0.0399424 4.88791 0.111351 5.04429L0.915743 5.87559C1.05999 6.02486 1.2921 6.02805 1.44198 5.88489C4.87004 2.61352 10.1648 2.61278 13.5936 5.88489C13.7435 6.02805 13.9756 6.02462 14.1199 5.87559L14.9242 5.04429C15.0753 4.88791 15.0722 4.63267 14.9158 4.48193ZM7.51768 9.30578C6.68721 9.30578 6.01414 10.0069 6.01414 10.872C6.01414 11.737 6.68721 12.4381 7.51768 12.4381C8.34815 12.4381 9.02122 11.737 9.02122 10.872C9.02122 10.0069 8.34815 9.30578 7.51768 9.30578ZM12.279 7.26019C9.57118 4.7658 5.46112 4.76849 2.7564 7.26019C2.5943 7.40947 2.58913 7.66862 2.74301 7.82671L3.5521 8.6585C3.69306 8.80337 3.92 8.81316 4.07012 8.67808C6.04233 6.90217 8.99749 6.90609 10.965 8.67808C11.1151 8.81316 11.3421 8.80362 11.483 8.6585L12.2921 7.82671C12.4462 7.66862 12.4408 7.40922 12.279 7.26019Z" fill="white" fill-opacity="0.7"/>
</g>
<defs>
<clipPath id="clip0_30_77">
<rect width="15.0354" height="12.5295" fill="white" transform="translate(0 0.691772)"/>
</clipPath>
</defs>
</svg>
