<svg width="34" height="34" viewBox="0 0 34 34" fill="none" xmlns="http://www.w3.org/2000/svg">
<path d="M31.4801 1.66383L31.907 2.09147C32.0695 2.25417 32.1805 2.46102 32.2264 2.6863C32.2723 2.91156 32.251 3.14534 32.1652 3.35859C32.1651 3.35862 32.1651 3.35865 32.1651 3.35868L21.4206 30.2225L21.4206 30.2226C21.3088 30.5018 21.1221 30.7449 20.8811 30.9249C20.6401 31.1049 20.3541 31.215 20.0546 31.2429C19.7551 31.2709 19.4537 31.2156 19.1836 31.0833C18.9134 30.951 18.6851 30.7467 18.5235 30.4929L18.5235 30.4928L12.6852 21.3153L3.50912 15.4765L31.4801 1.66383ZM31.4801 1.66383V1.82115M31.4801 1.66383V1.82115M31.4801 1.82115C31.4255 1.80123 31.3693 1.7853 31.312 1.77361C31.0867 1.72773 30.853 1.74901 30.6398 1.83481C30.6397 1.83484 30.6397 1.83487 30.6396 1.83489L3.77942 12.577C3.49963 12.6885 3.2561 12.8752 3.07569 13.1165C2.89528 13.3577 2.78502 13.6441 2.75706 13.944C2.7291 14.2439 2.78453 14.5458 2.91724 14.8162C3.0499 15.0865 3.25462 15.3149 3.50884 15.4763L31.4801 1.82115ZM27.8623 7.79378L19.7563 28.0604L15.0277 20.63L27.8623 7.79378ZM5.93931 14.2415L26.2062 6.13337L13.3705 18.969L5.93931 14.2415Z" fill="#0567E1" stroke="#0567E1" stroke-width="0.5"/>
</svg>
