<svg width="34" height="34" viewBox="0 0 34 34" fill="none" xmlns="http://www.w3.org/2000/svg">
<path d="M16.9085 20.4042L16.9085 20.4041H16.9045H16.8301C16.1373 20.4041 15.567 19.8338 15.567 19.141C15.567 18.4482 16.1373 17.8779 16.8301 17.8779C17.5229 17.8779 18.0932 18.4482 18.0932 19.141C18.0932 19.6488 18.5004 20.056 19.0082 20.056C19.5161 20.056 19.9232 19.6488 19.9232 19.141C19.9232 17.7512 19.0052 16.5841 17.7451 16.1916V15.1141C17.7451 14.6063 17.3379 14.1991 16.8301 14.1991C16.3222 14.1991 15.9151 14.6063 15.9151 15.1141V16.1916C14.655 16.5841 13.737 17.7512 13.737 19.141L13.737 19.1412C13.7381 19.9449 14.0526 20.7164 14.6135 21.292C15.1744 21.8675 15.9376 22.2016 16.741 22.2234L16.741 22.2235H16.7451H16.8195C17.5122 22.2235 18.0826 22.7938 18.0826 23.4866C18.0826 24.1794 17.5122 24.7497 16.8195 24.7497C16.1274 24.7497 15.567 24.1908 15.567 23.4866C15.567 22.9788 15.1598 22.5716 14.652 22.5716C14.1441 22.5716 13.737 22.9788 13.737 23.4866L13.737 23.4868C13.738 24.1663 13.9627 24.8265 14.3765 25.3654C14.7667 25.8737 15.3047 26.2474 15.9151 26.4363V27.5135C15.9151 28.0213 16.3222 28.4285 16.8301 28.4285C17.3379 28.4285 17.7451 28.0213 17.7451 27.5135V26.436C19.0052 26.0435 19.9232 24.8764 19.9232 23.4866C19.9232 21.8107 18.5826 20.4488 16.9085 20.4042Z" fill="#0567E1" stroke="#0567E1" stroke-width="0.3"/>
<path d="M11.0625 5.50006L11.0537 5.48078C10.8506 5.03404 10.8004 4.53282 10.9107 4.05465C11.0211 3.57649 11.286 3.14801 11.6644 2.83551C12.0428 2.523 12.5136 2.34388 13.004 2.32584C13.4495 2.30945 13.8887 2.42685 14.2655 2.66132L15.1171 1.71038L15.1173 1.71013C15.3331 1.47029 15.5969 1.2786 15.8917 1.14756C16.1865 1.01653 16.5056 0.949076 16.8282 0.949613C17.1509 0.950149 17.4697 1.01866 17.7641 1.15068C18.0585 1.28269 18.3217 1.47526 18.5367 1.71582L18.5395 1.71905L18.5395 1.71909L19.35 2.68048C19.7268 2.4523 20.1638 2.34039 20.606 2.36062C21.0938 2.38295 21.5608 2.56492 21.9351 2.87854C22.3094 3.19216 22.5704 3.62007 22.6778 4.09645C22.7852 4.57283 22.7331 5.07131 22.5296 5.51522L22.5251 5.52514L22.5191 5.5343L22.3566 5.78505L22.3507 5.79406L22.3437 5.80214L19.8889 8.61213C19.9548 8.77393 19.9879 8.94709 19.9865 9.12155C26.0834 10.5486 30.6225 16.0195 30.6119 22.5528M11.0625 5.50006L30.4619 22.5526M11.0625 5.50006L11.0762 5.51616L13.9511 8.88013M11.0625 5.50006L13.9511 8.88013M30.6119 22.5528L30.4619 22.5526M30.6119 22.5528C30.6119 22.5527 30.6119 22.5527 30.6119 22.5526H30.4619M30.6119 22.5528C30.6117 28.3539 25.9036 33.0609 20.1025 33.0609H13.5469C7.74566 33.0609 3.0375 28.3527 3.0375 22.5515C3.0375 15.9919 7.61497 10.5025 13.7508 9.10371M30.4619 22.5526C30.4619 28.271 25.8209 32.9109 20.1025 32.9109H13.5469C7.8285 32.9109 3.1875 28.2699 3.1875 22.5515C3.1875 16.0469 7.73819 10.6058 13.8306 9.23945M13.7508 9.10371L13.7188 9.13937L13.8306 9.23945M13.7508 9.10371L13.9511 8.88013M13.7508 9.10371C13.7664 9.10014 13.7821 9.0966 13.7977 9.09309L13.8306 9.23945M13.8306 9.23945L13.9511 8.88013M28.1869 22.5494V22.5491C28.1974 16.2721 23.1095 11.184 16.83 11.184C10.5506 11.184 5.46253 16.2721 5.4625 22.5515L28.1869 22.5494ZM28.1869 22.5494V22.5515M28.1869 22.5494V22.5515M28.1869 22.5515C28.1869 22.5515 28.1869 22.5515 28.1869 22.5515C28.186 24.6954 27.334 26.7512 25.8181 28.2671M28.1869 22.5515L25.8181 28.2671M25.8181 28.2671C24.3022 29.783 22.2463 30.635 20.1025 30.6359M25.8181 28.2671L20.1025 30.6359M20.1025 30.6359C20.1025 30.6359 20.1025 30.6359 20.1024 30.6359M20.1025 30.6359H20.1024M20.1024 30.6359H13.5469H20.1024ZM7.83129 28.2671C9.34722 29.783 11.403 30.635 13.5469 30.6359L7.83129 28.2671ZM7.83129 28.2671C6.31536 26.7512 5.46334 24.6954 5.4625 22.5515L7.83129 28.2671ZM15.2953 6.74027L13.8953 5.12235C14.193 5.18192 14.5018 5.18103 14.8027 5.1174C15.2898 5.01442 15.7291 4.75289 16.0517 4.37373L16.0519 4.37384L16.0563 4.36808L16.7928 3.41248L17.6164 4.38815L17.6173 4.38919C17.9325 4.75581 18.3578 5.01075 18.8297 5.11601C19.1226 5.18133 19.4237 5.18684 19.7155 5.13431L18.3131 6.74027H15.2953Z" fill="#0567E1" stroke="#0567E1" stroke-width="0.3"/>
</svg>
