<svg width="60" height="60" viewBox="0 0 60 60" fill="none" xmlns="http://www.w3.org/2000/svg">
<circle cx="29.7414" cy="29.7414" r="29.7414" fill="#04679D" fill-opacity="0.2"/>
<path d="M22.3059 16.3577H19.3318C18.543 16.3577 17.7865 16.671 17.2288 17.2288C16.671 17.7865 16.3577 18.543 16.3577 19.3318V22.3059M37.1766 16.3577H40.1508C40.9396 16.3577 41.696 16.671 42.2538 17.2288C42.8116 17.7865 43.1249 18.543 43.1249 19.3318V22.3059M35.6896 23.793V26.7671M23.793 23.793V26.7671M25.2801 35.6896C25.2801 35.6896 26.7671 37.1766 29.7413 37.1766C32.7154 37.1766 34.2025 35.6896 34.2025 35.6896M29.7413 23.793V31.2284H28.2542M22.3059 43.1249H19.3318C18.543 43.1249 17.7865 42.8116 17.2288 42.2538C16.671 41.696 16.3577 40.9396 16.3577 40.1508V37.1766M37.1766 43.1249H40.1508C40.9396 43.1249 41.696 42.8116 42.2538 42.2538C42.8116 41.696 43.1249 40.9396 43.1249 40.1508V37.1766" stroke="#04679D" stroke-width="2.37931" stroke-linecap="round" stroke-linejoin="round"/>
</svg>
