<svg width="60" height="60" viewBox="0 0 60 60" fill="none" xmlns="http://www.w3.org/2000/svg">
<circle cx="30.2587" cy="29.7414" r="29.7414" fill="#1D29E1" fill-opacity="0.2"/>
<path d="M39.6286 17.144C39.4982 17.1443 39.3701 17.1097 39.2577 17.0436C36.1642 15.3874 33.4895 14.6848 30.2831 14.6848C27.0926 14.6848 24.0632 15.471 21.3077 17.0436C20.918 17.2639 20.4377 17.1105 20.2119 16.7062C20.1111 16.5111 20.0883 16.2849 20.1483 16.0736C20.2082 15.8623 20.3464 15.6818 20.5346 15.5686C23.5065 13.8831 26.8665 13.0018 30.2831 13.0118C33.7147 13.0118 36.7121 13.7981 39.9994 15.5547C40.1912 15.6601 40.334 15.8366 40.3972 16.0461C40.4604 16.2557 40.439 16.4817 40.3375 16.6756C40.2765 16.8132 40.1773 16.9305 40.0516 17.0136C39.926 17.0966 39.7792 17.1419 39.6286 17.144ZM16.5704 25.927C16.403 25.9258 16.24 25.8733 16.1034 25.7764C15.9257 25.6444 15.8062 25.4485 15.77 25.23C15.7339 25.0116 15.7839 24.7876 15.9096 24.6054C17.5052 22.2632 19.5343 20.423 21.9524 19.1348C27.0117 16.4274 33.4895 16.4079 38.5649 19.1181C40.9823 20.4063 43.0121 22.2298 44.6077 24.5552C44.7329 24.7376 44.7826 24.9614 44.7465 25.1797C44.7104 25.398 44.5912 25.5938 44.4139 25.7262C44.3279 25.7905 44.2296 25.8365 44.1251 25.8613C44.0207 25.886 43.9122 25.8891 43.8065 25.8703C43.7008 25.8515 43.6 25.8112 43.5105 25.7519C43.421 25.6925 43.3446 25.6155 43.2861 25.5255C41.8362 23.4176 39.9994 21.7613 37.8239 20.607C33.1996 18.1478 27.2857 18.1478 22.6774 20.6237C20.4858 21.7948 18.6491 23.4678 17.1992 25.5729C17.1367 25.6837 17.045 25.7752 16.9342 25.8376C16.8234 25.9001 16.6976 25.931 16.5704 25.927ZM26.6409 46.1223C26.5344 46.1233 26.4289 46.1015 26.3316 46.0582C26.2344 46.0149 26.1475 45.9512 26.077 45.8714C24.6752 44.4131 23.9154 43.4735 22.8384 41.452C21.7231 39.3943 21.1466 36.8848 21.1466 34.1914C21.1466 29.2227 25.2391 25.1742 30.267 25.1742C35.2949 25.1742 39.3902 29.2227 39.3902 34.1914C39.3934 34.2991 39.3749 34.4065 39.3358 34.507C39.2968 34.6074 39.2379 34.6991 39.1628 34.7764C39.0877 34.8538 38.9979 34.9153 38.8986 34.9573C38.7993 34.9992 38.6925 35.0209 38.5847 35.0209C38.4769 35.0209 38.3702 34.9992 38.2709 34.9573C38.1716 34.9153 38.0817 34.8538 38.0066 34.7764C37.9315 34.6991 37.8727 34.6074 37.8336 34.507C37.7946 34.4065 37.7761 34.2991 37.7793 34.1914C37.7793 30.1428 34.4111 26.8471 30.2705 26.8471C26.13 26.8471 22.7583 30.1428 22.7583 34.1914C22.7583 36.6004 23.2734 38.8255 24.2562 40.6322C25.2879 42.5561 25.9989 43.3759 27.2376 44.6808C27.3845 44.8432 27.4658 45.0543 27.4658 45.2733C27.4658 45.4923 27.3845 45.7034 27.2376 45.8658C27.0794 46.0254 26.8655 46.1173 26.6409 46.1223ZM38.1947 43.0274C36.2771 43.0274 34.5853 42.5255 33.1996 41.5384C32.0189 40.7109 31.0544 39.6118 30.3872 38.3337C29.72 37.0556 29.3697 35.6359 29.3657 34.1942C29.3612 34.0855 29.3787 33.9771 29.4172 33.8754C29.4556 33.7737 29.5142 33.6808 29.5895 33.6023C29.6648 33.5239 29.7551 33.4614 29.8552 33.4188C29.9552 33.3761 30.0628 33.3541 30.1715 33.3541C30.2803 33.3541 30.3879 33.3761 30.4879 33.4188C30.5879 33.4614 30.6783 33.5239 30.7535 33.6023C30.8288 33.6808 30.8874 33.7737 30.9259 33.8754C30.9644 33.9771 30.9818 34.0855 30.9773 34.1942C30.98 35.3652 31.2656 36.5183 31.8099 37.5553C32.3541 38.5922 33.1407 39.4824 34.103 40.1499C35.2468 40.9529 36.5845 41.3349 38.1961 41.3349C38.7574 41.3249 39.3169 41.269 39.8691 41.1676C40.304 41.0839 40.723 41.3851 40.8031 41.8535C40.844 42.0697 40.7974 42.2932 40.6737 42.4751C40.5499 42.657 40.3591 42.7824 40.143 42.8238C39.5012 42.9506 38.849 43.0178 38.1947 43.0246V43.0274ZM34.9555 46.4709C34.8847 46.4679 34.8145 46.4567 34.7464 46.4374C32.1839 45.7013 30.5082 44.7143 28.7516 42.9242C26.4952 40.5988 25.2551 37.5038 25.2551 34.1914C25.2551 31.4812 27.4788 29.2729 30.2175 29.2729C32.9563 29.2729 35.1806 31.4812 35.1806 34.1914C35.1806 35.9814 36.6793 37.4369 38.5321 37.4369C40.3849 37.4369 41.8836 35.9814 41.8836 34.1914C41.8836 27.8843 36.6465 22.7651 30.2015 22.7651C25.6253 22.7651 21.4359 25.4084 19.5511 29.5071C18.9237 30.8622 18.6003 32.4515 18.6003 34.1914C18.6003 35.4963 18.7125 37.554 19.6793 40.2307C19.841 40.6657 19.6312 41.1509 19.2123 41.3014C19.1127 41.3393 19.0065 41.3567 18.9001 41.3526C18.7936 41.3484 18.6891 41.3228 18.5928 41.2772C18.4965 41.2316 18.4104 41.1671 18.3397 41.0874C18.269 41.0077 18.2151 40.9145 18.1813 40.8135C17.4039 38.6922 17.0056 36.4507 17.0047 34.1914C17.0047 32.1838 17.3755 30.3575 18.1005 28.771C20.2439 24.1007 24.9972 21.0754 30.2015 21.0754C37.5332 21.0754 43.4952 26.9475 43.4952 34.1747C43.4952 36.8848 41.2716 39.0931 38.5321 39.0931C35.7926 39.0931 33.569 36.8848 33.569 34.1747C33.5697 32.3846 32.071 30.9263 30.2182 30.9263C28.3654 30.9263 26.8667 32.3818 26.8667 34.1719C26.8667 37.0298 27.9305 39.7093 29.8802 41.7169C31.4137 43.2895 32.8775 44.1566 35.1493 44.8118C35.5842 44.9289 35.8261 45.3974 35.7132 45.8323C35.678 46.0089 35.5838 46.1683 35.4462 46.2843C35.3085 46.4003 35.1355 46.4661 34.9555 46.4709Z" fill="#1D29E1"/>
</svg>
