<svg width="40" height="40" viewBox="0 0 40 40" fill="none" xmlns="http://www.w3.org/2000/svg">
<circle cx="20" cy="20" r="13" fill="white"/>
<path fill-rule="evenodd" clip-rule="evenodd" d="M20 0.75C9.36875 0.75 0.75 9.36875 0.75 20C0.75 30.6313 9.36875 39.25 20 39.25C30.6313 39.25 39.25 30.6313 39.25 20C39.25 9.36875 30.6313 0.75 20 0.75ZM21.75 27C21.75 27.4641 21.5656 27.9093 21.2374 28.2374C20.9092 28.5656 20.4641 28.75 20 28.75C19.5359 28.75 19.0908 28.5656 18.7626 28.2374C18.4344 27.9093 18.25 27.4641 18.25 27V21.75H13C12.5359 21.75 12.0908 21.5656 11.7626 21.2374C11.4344 20.9092 11.25 20.4641 11.25 20C11.25 19.5359 11.4344 19.0908 11.7626 18.7626C12.0908 18.4344 12.5359 18.25 13 18.25H18.25V13C18.25 12.5359 18.4344 12.0908 18.7626 11.7626C19.0908 11.4344 19.5359 11.25 20 11.25C20.4641 11.25 20.9092 11.4344 21.2374 11.7626C21.5656 12.0908 21.75 12.5359 21.75 13V18.25H27C27.4641 18.25 27.9093 18.4344 28.2374 18.7626C28.5656 19.0908 28.75 19.5359 28.75 20C28.75 20.4641 28.5656 20.9092 28.2374 21.2374C27.9093 21.5656 27.4641 21.75 27 21.75H21.75V27Z" fill="#008FDB"/>
</svg>
