<svg width="20" height="20" viewBox="0 0 20 20" fill="none" xmlns="http://www.w3.org/2000/svg">
<path d="M9.99998 12.75C8.31331 12.75 8.16665 11.9617 8.16665 11.8333H6.33331C6.33331 12.6767 6.93831 14.1708 9.08331 14.51V15.5H10.9166V14.51C12.75 14.1983 13.6666 13.0158 13.6666 11.8333C13.6666 10.8067 13.19 9.08333 9.99998 9.08333C8.16665 9.08333 8.16665 8.50583 8.16665 8.16667C8.16665 7.8275 8.80831 7.25 9.99998 7.25C11.1916 7.25 11.2741 7.83667 11.2833 8.16667H13.1166C13.1043 7.54219 12.8797 6.94054 12.4798 6.46071C12.0799 5.98088 11.5286 5.65146 10.9166 5.52667V4.5H9.08331V5.49917C7.24998 5.80167 6.33331 6.98417 6.33331 8.16667C6.33331 9.19333 6.80998 10.9167 9.99998 10.9167C11.8333 10.9167 11.8333 11.54 11.8333 11.8333C11.8333 12.1267 11.265 12.75 9.99998 12.75Z" fill="#001825"/>
<path d="M3.58331 0.833496H0.833313V2.66683H2.66665V18.2502C2.66665 18.4933 2.76322 18.7264 2.93513 18.8983C3.10704 19.0703 3.3402 19.1668 3.58331 19.1668H16.4166C16.6598 19.1668 16.8929 19.0703 17.0648 18.8983C17.2367 18.7264 17.3333 18.4933 17.3333 18.2502V2.66683H19.1666V0.833496H3.58331ZM15.5 17.3335H4.49998V2.66683H15.5V17.3335Z" fill="#001825"/>
</svg>
