<svg width="15" height="13" viewBox="0 0 15 13" fill="none" xmlns="http://www.w3.org/2000/svg">
<path d="M9.84375 6.96875C9.84375 7.59035 9.59682 8.18649 9.15728 8.62603C8.71774 9.06557 8.1216 9.3125 7.5 9.3125C6.8784 9.3125 6.28226 9.06557 5.84272 8.62603C5.40318 8.18649 5.15625 7.59035 5.15625 6.96875C5.15625 6.34715 5.40318 5.75101 5.84272 5.31147C6.28226 4.87193 6.8784 4.625 7.5 4.625C8.1216 4.625 8.71774 4.87193 9.15728 5.31147C9.59682 5.75101 9.84375 6.34715 9.84375 6.96875Z" fill="#001825"/>
<path d="M1.875 2.75C1.37772 2.75 0.900806 2.94754 0.549175 3.29917C0.197544 3.65081 0 4.12772 0 4.625L0 10.25C0 10.7473 0.197544 11.2242 0.549175 11.5758C0.900806 11.9275 1.37772 12.125 1.875 12.125H13.125C13.6223 12.125 14.0992 11.9275 14.4508 11.5758C14.8025 11.2242 15 10.7473 15 10.25V4.625C15 4.12772 14.8025 3.65081 14.4508 3.29917C14.0992 2.94754 13.6223 2.75 13.125 2.75H12.0262C11.529 2.74989 11.0522 2.55228 10.7006 2.20063L9.92438 1.42437C9.57283 1.07272 9.09599 0.875106 8.59875 0.875H6.40125C5.90401 0.875106 5.42717 1.07272 5.07562 1.42437L4.29938 2.20063C3.94783 2.55228 3.47099 2.74989 2.97375 2.75H1.875ZM2.34375 4.625C2.21943 4.625 2.1002 4.57561 2.01229 4.48771C1.92439 4.3998 1.875 4.28057 1.875 4.15625C1.875 4.03193 1.92439 3.9127 2.01229 3.82479C2.1002 3.73689 2.21943 3.6875 2.34375 3.6875C2.46807 3.6875 2.5873 3.73689 2.67521 3.82479C2.76311 3.9127 2.8125 4.03193 2.8125 4.15625C2.8125 4.28057 2.76311 4.3998 2.67521 4.48771C2.5873 4.57561 2.46807 4.625 2.34375 4.625ZM10.7812 6.96875C10.7812 7.83899 10.4355 8.67359 9.82019 9.28894C9.20484 9.9043 8.37024 10.25 7.5 10.25C6.62976 10.25 5.79516 9.9043 5.17981 9.28894C4.56445 8.67359 4.21875 7.83899 4.21875 6.96875C4.21875 6.09851 4.56445 5.26391 5.17981 4.64856C5.79516 4.0332 6.62976 3.6875 7.5 3.6875C8.37024 3.6875 9.20484 4.0332 9.82019 4.64856C10.4355 5.26391 10.7812 6.09851 10.7812 6.96875Z" fill="#001825"/>
</svg>
