<svg width="50" height="50" viewBox="0 0 50 50" fill="none" xmlns="http://www.w3.org/2000/svg">
<circle cx="25" cy="25" r="25" fill="#008FDB"/>
<path d="M19.2969 30.8788L20.7032 29.1215L16.1762 25.5001L20.7032 21.8788L19.2969 20.1215L13.6719 24.6215C13.5401 24.7269 13.4337 24.8606 13.3606 25.0127C13.2875 25.1648 13.2495 25.3314 13.2495 25.5001C13.2495 25.6689 13.2875 25.8355 13.3606 25.9876C13.4337 26.1397 13.5401 26.2734 13.6719 26.3788L19.2969 30.8788ZM29.7032 20.1215L28.2969 21.8788L32.8239 25.5001L28.2969 29.1215L29.7032 30.8788L35.3282 26.3788C35.46 26.2734 35.5664 26.1397 35.6395 25.9876C35.7126 25.8355 35.7506 25.6689 35.7506 25.5001C35.7506 25.3314 35.7126 25.1648 35.6395 25.0127C35.5664 24.8606 35.46 24.7269 35.3282 24.6215L29.7032 20.1215ZM27.848 15.6181L23.348 35.8681L21.1509 35.3799L25.6509 15.1299L27.848 15.6181Z" fill="white"/>
</svg>
