<svg width="21" height="19" viewBox="0 0 21 19" fill="none" xmlns="http://www.w3.org/2000/svg">
<path d="M19.25 0.75H1.75C1.51794 0.75 1.29538 0.842187 1.13128 1.00628C0.967187 1.17038 0.875 1.39294 0.875 1.625V8.625C0.875 8.85706 0.967187 9.07962 1.13128 9.24372C1.29538 9.40781 1.51794 9.5 1.75 9.5H4.375V17.375C4.375 17.6071 4.46719 17.8296 4.63128 17.9937C4.79538 18.1578 5.01794 18.25 5.25 18.25H15.75C15.9821 18.25 16.2046 18.1578 16.3687 17.9937C16.5328 17.8296 16.625 17.6071 16.625 17.375V9.5H19.25C19.4821 9.5 19.7046 9.40781 19.8687 9.24372C20.0328 9.07962 20.125 8.85706 20.125 8.625V1.625C20.125 1.39294 20.0328 1.17038 19.8687 1.00628C19.7046 0.842187 19.4821 0.75 19.25 0.75ZM6.125 16.5V14.75C6.58913 14.75 7.03425 14.9344 7.36244 15.2626C7.69063 15.5908 7.875 16.0359 7.875 16.5H6.125ZM14.875 16.5H13.125C13.125 16.0359 13.3094 15.5908 13.6376 15.2626C13.9658 14.9344 14.4109 14.75 14.875 14.75V16.5ZM14.875 13C13.9467 13 13.0565 13.3687 12.4001 14.0251C11.7437 14.6815 11.375 15.5717 11.375 16.5H9.625C9.625 15.5717 9.25625 14.6815 8.59987 14.0251C7.9435 13.3687 7.05326 13 6.125 13V6H14.875V13ZM18.375 7.75H16.625V5.125C16.625 4.89294 16.5328 4.67038 16.3687 4.50628C16.2046 4.34219 15.9821 4.25 15.75 4.25H5.25C5.01794 4.25 4.79538 4.34219 4.63128 4.50628C4.46719 4.67038 4.375 4.89294 4.375 5.125V7.75H2.625V2.5H18.375V7.75ZM10.5 12.125C11.0192 12.125 11.5267 11.971 11.9584 11.6826C12.3901 11.3942 12.7265 10.9842 12.9252 10.5045C13.1239 10.0249 13.1758 9.49709 13.0746 8.98789C12.9733 8.47869 12.7233 8.01096 12.3562 7.64384C11.989 7.27673 11.5213 7.02672 11.0121 6.92544C10.5029 6.82415 9.97511 6.87614 9.49546 7.07482C9.0158 7.2735 8.60583 7.60995 8.31739 8.04163C8.02895 8.47331 7.875 8.98082 7.875 9.5C7.875 10.1962 8.15156 10.8639 8.64384 11.3562C9.13613 11.8484 9.80381 12.125 10.5 12.125ZM10.5 8.625C10.6731 8.625 10.8422 8.67632 10.9861 8.77246C11.13 8.86861 11.2422 9.00527 11.3084 9.16515C11.3746 9.32504 11.3919 9.50097 11.3582 9.6707C11.3244 9.84044 11.2411 9.99635 11.1187 10.1187C10.9963 10.2411 10.8404 10.3244 10.6707 10.3582C10.501 10.3919 10.325 10.3746 10.1652 10.3084C10.0053 10.2422 9.86861 10.13 9.77246 9.98612C9.67632 9.84223 9.625 9.67306 9.625 9.5C9.625 9.26794 9.71719 9.04538 9.88128 8.88128C10.0454 8.71719 10.2679 8.625 10.5 8.625Z" fill="#496B7D"/>
</svg>
