<svg width="22" height="22" viewBox="0 0 22 22" fill="none" xmlns="http://www.w3.org/2000/svg">
<path fill-rule="evenodd" clip-rule="evenodd" d="M14.6667 8.25016C14.6667 9.22262 14.2804 10.1553 13.5928 10.8429C12.9051 11.5305 11.9725 11.9168 11 11.9168C10.0276 11.9168 9.09495 11.5305 8.40732 10.8429C7.71968 10.1553 7.33337 9.22262 7.33337 8.25016C7.33337 7.2777 7.71968 6.34507 8.40732 5.65744C9.09495 4.9698 10.0276 4.5835 11 4.5835C11.9725 4.5835 12.9051 4.9698 13.5928 5.65744C14.2804 6.34507 14.6667 7.2777 14.6667 8.25016ZM12.8334 8.25016C12.8334 8.73639 12.6402 9.20271 12.2964 9.54652C11.9526 9.89034 11.4863 10.0835 11 10.0835C10.5138 10.0835 10.0475 9.89034 9.70368 9.54652C9.35986 9.20271 9.16671 8.73639 9.16671 8.25016C9.16671 7.76393 9.35986 7.29762 9.70368 6.9538C10.0475 6.60998 10.5138 6.41683 11 6.41683C11.4863 6.41683 11.9526 6.60998 12.2964 6.9538C12.6402 7.29762 12.8334 7.76393 12.8334 8.25016Z" fill="#496B7D"/>
<path fill-rule="evenodd" clip-rule="evenodd" d="M11 0.916748C5.43127 0.916748 0.916687 5.43133 0.916687 11.0001C0.916687 16.5688 5.43127 21.0834 11 21.0834C16.5688 21.0834 21.0834 16.5688 21.0834 11.0001C21.0834 5.43133 16.5688 0.916748 11 0.916748ZM2.75002 11.0001C2.75002 12.9159 3.4036 14.6796 4.49902 16.0802C5.26832 15.07 6.26076 14.2513 7.39883 13.688C8.53691 13.1248 9.78979 12.8323 11.0596 12.8334C12.313 12.8322 13.5501 13.1171 14.6767 13.6665C15.8033 14.2158 16.7897 15.015 17.5606 16.0032C18.3548 14.9616 18.8896 13.7457 19.1207 12.4563C19.3517 11.1669 19.2724 9.84099 18.8893 8.58832C18.5062 7.33565 17.8303 6.19221 16.9176 5.25262C16.0048 4.31302 14.8814 3.60429 13.6404 3.18505C12.3993 2.76581 11.0763 2.64812 9.78073 2.84172C8.48517 3.03532 7.25433 3.53465 6.19006 4.29838C5.12579 5.06211 4.25868 6.0683 3.66048 7.23368C3.06228 8.39906 2.75019 9.69014 2.75002 11.0001ZM11 19.2501C9.10614 19.2529 7.26943 18.6014 5.80069 17.4058C6.39187 16.5594 7.17875 15.8684 8.09436 15.3915C9.00998 14.9147 10.0272 14.666 11.0596 14.6667C12.0791 14.6659 13.0841 14.9084 13.991 15.3739C14.898 15.8394 15.6809 16.5146 16.2745 17.3434C14.7944 18.5779 12.9274 19.2528 11 19.2501Z" fill="#496B7D"/>
</svg>
