<svg width="21" height="21" viewBox="0 0 21 21" fill="none" xmlns="http://www.w3.org/2000/svg">
<path d="M10.4179 12.7969C11.0271 12.7969 11.6113 12.5549 12.0421 12.1241C12.4728 11.6934 12.7148 11.1092 12.7148 10.5C12.7148 10.4327 12.7117 10.3661 12.706 10.3003L10.2182 12.7881C10.284 12.7938 10.3505 12.7969 10.4179 12.7969ZM18.0206 3.39527L17.1445 2.52C17.1137 2.48926 17.072 2.47198 17.0285 2.47198C16.985 2.47198 16.9433 2.48926 16.9126 2.52L14.6706 4.76253C13.4339 4.13048 12.0437 3.81445 10.5 3.81445C6.55836 3.81445 3.61754 5.86728 1.6775 9.97295C1.59952 10.1381 1.55908 10.3184 1.55908 10.501C1.55908 10.6836 1.59952 10.864 1.6775 11.0291C2.4527 12.6619 3.38615 13.9707 4.47785 14.9553L2.30833 17.124C2.27758 17.1548 2.26031 17.1965 2.26031 17.24C2.26031 17.2835 2.27758 17.3252 2.30833 17.356L3.1838 18.2314C3.21457 18.2622 3.25628 18.2795 3.29978 18.2795C3.34327 18.2795 3.38498 18.2622 3.41575 18.2314L18.0206 3.62742C18.0358 3.61218 18.0479 3.59409 18.0562 3.57417C18.0645 3.55426 18.0687 3.53291 18.0687 3.51135C18.0687 3.48979 18.0645 3.46844 18.0562 3.44852C18.0479 3.4286 18.0358 3.41051 18.0206 3.39527ZM6.80856 10.5C6.8085 9.87657 6.96992 9.26376 7.2771 8.72126C7.58427 8.17877 8.02672 7.72508 8.56135 7.4044C9.09597 7.08373 9.70455 6.90699 10.3278 6.89142C10.951 6.87585 11.5676 7.02197 12.1176 7.31555L11.1205 8.31264C10.7184 8.18388 10.2886 8.16837 9.87825 8.26782C9.4679 8.36726 9.09287 8.57782 8.79431 8.87638C8.49575 9.17494 8.2852 9.54997 8.18575 9.96032C8.08631 10.3707 8.10181 10.8005 8.23057 11.2026L7.23348 12.1997C6.95367 11.6769 6.80769 11.093 6.80856 10.5Z" fill="#001825"/>
<path d="M19.3224 9.9709C18.6005 8.45059 17.7413 7.21089 16.7448 6.25181L13.7888 9.20801C14.038 9.85937 14.0932 10.5689 13.9478 11.251C13.8024 11.9331 13.4626 12.5585 12.9695 13.0516C12.4764 13.5447 11.851 13.8845 11.1689 14.0299C10.4869 14.1753 9.7773 14.12 9.12594 13.8709L6.61865 16.3782C7.78186 16.9164 9.07563 17.1855 10.5 17.1855C14.4416 17.1855 17.3824 15.1327 19.3224 11.0271C19.4004 10.8619 19.4409 10.6816 19.4409 10.499C19.4409 10.3164 19.4004 10.136 19.3224 9.9709Z" fill="#001825"/>
</svg>
