<svg width="50" height="50" viewBox="0 0 50 50" fill="none" xmlns="http://www.w3.org/2000/svg">
<circle cx="25" cy="25" r="25" fill="#008FDB"/>
<path d="M17.5714 33.7501C17.1459 33.7509 16.7221 33.695 16.3114 33.5839C15.0784 33.2323 14.0324 32.4114 13.3977 31.2974C12.763 30.1834 12.5902 28.8651 12.9164 27.6251L14.9551 19.8901C15.1139 19.2641 15.3962 18.6762 15.7853 18.1608C16.1745 17.6454 16.6627 17.2129 17.2214 16.8889C17.7653 16.5738 18.3663 16.3698 18.9896 16.2887C19.613 16.2076 20.2462 16.251 20.8526 16.4164C21.4973 16.5954 22.0977 16.9064 22.6158 17.3296C23.134 17.7529 23.5585 18.2792 23.8626 18.8751H26.1376C26.4404 18.2782 26.8645 17.7512 27.3828 17.3277C27.9012 16.9043 28.5023 16.5939 29.1476 16.4164C29.754 16.251 30.3873 16.2076 31.0106 16.2887C31.6339 16.3698 32.2349 16.5738 32.7789 16.8889C33.3348 17.2121 33.8212 17.6422 34.2102 18.1543C34.5991 18.6664 34.8829 19.2504 35.0451 19.8726L37.0839 27.6251C37.4149 28.8687 37.2435 30.1925 36.6066 31.3107C35.9698 32.4289 34.9186 33.2517 33.6801 33.6014C33.0737 33.7667 32.4405 33.8101 31.8171 33.729C31.1938 33.6479 30.5928 33.4439 30.0489 33.1289C29.492 32.8068 29.0049 32.3771 28.6158 31.8648C28.2267 31.3525 27.9435 30.768 27.7826 30.1451L27.6251 29.3751H22.3751L22.1739 30.1276C22.013 30.7505 21.7298 31.335 21.3407 31.8473C20.9516 32.3596 20.4644 32.7893 19.9076 33.1114C19.1967 33.5214 18.3921 33.7414 17.5714 33.7501V33.7501ZM19.6014 18.0001C19.0733 18.0019 18.5548 18.1406 18.0964 18.4026C17.3779 18.8242 16.8556 19.5132 16.6439 20.3189L14.6051 28.0539C14.3918 28.8508 14.4996 29.6996 14.9053 30.4178C15.3111 31.1361 15.9825 31.6665 16.7751 31.8951C17.1579 31.9995 17.5577 32.027 17.9512 31.976C18.3447 31.9249 18.7241 31.7963 19.0676 31.5976C19.4252 31.3912 19.738 31.1153 19.9874 30.7862C20.2368 30.4571 20.418 30.0815 20.5201 29.6814L21.0626 27.6251H28.9376L29.4714 29.6814C29.5753 30.0807 29.7572 30.4556 30.0064 30.7844C30.2557 31.1133 30.5675 31.3896 30.9239 31.5976C31.269 31.7961 31.65 31.9245 32.0449 31.9756C32.4397 32.0266 32.8408 31.9993 33.2251 31.8951C34.0187 31.6687 34.6909 31.1382 35.0956 30.4189C35.5003 29.6996 35.6048 28.8497 35.3864 28.0539L33.3476 20.3189C33.246 19.9197 33.0661 19.5447 32.8182 19.2157C32.5704 18.8868 32.2595 18.6104 31.9039 18.4026C31.5587 18.2041 31.1778 18.0757 30.7829 18.0247C30.388 17.9736 29.9869 18.001 29.6026 18.1051C29.1274 18.2406 28.6913 18.4875 28.3306 18.8254C27.9699 19.1632 27.6951 19.5822 27.5289 20.0476L27.3189 20.6251H22.6814L22.4714 20.0476C22.3037 19.5816 22.0273 19.1623 21.6651 18.8245C21.3029 18.4866 20.8654 18.24 20.3889 18.1051C20.1321 18.0359 19.8673 18.0006 19.6014 18.0001V18.0001Z" fill="white"/>
<path d="M19.75 25C19.4039 25 19.0655 24.8974 18.7778 24.7051C18.49 24.5128 18.2657 24.2395 18.1332 23.9197C18.0008 23.5999 17.9661 23.2481 18.0336 22.9086C18.1012 22.5691 18.2678 22.2573 18.5126 22.0126C18.7573 21.7678 19.0691 21.6012 19.4086 21.5336C19.7481 21.4661 20.0999 21.5008 20.4197 21.6332C20.7395 21.7657 21.0128 21.99 21.2051 22.2778C21.3974 22.5655 21.5 22.9039 21.5 23.25C21.5 23.7141 21.3156 24.1592 20.9874 24.4874C20.6592 24.8156 20.2141 25 19.75 25Z" fill="white"/>
<path d="M30.25 22.375C30.7332 22.375 31.125 21.9832 31.125 21.5C31.125 21.0168 30.7332 20.625 30.25 20.625C29.7668 20.625 29.375 21.0168 29.375 21.5C29.375 21.9832 29.7668 22.375 30.25 22.375Z" fill="white"/>
<path d="M30.25 25.875C30.7332 25.875 31.125 25.4832 31.125 25C31.125 24.5168 30.7332 24.125 30.25 24.125C29.7668 24.125 29.375 24.5168 29.375 25C29.375 25.4832 29.7668 25.875 30.25 25.875Z" fill="white"/>
<path d="M28.5 24.125C28.9832 24.125 29.375 23.7332 29.375 23.25C29.375 22.7668 28.9832 22.375 28.5 22.375C28.0168 22.375 27.625 22.7668 27.625 23.25C27.625 23.7332 28.0168 24.125 28.5 24.125Z" fill="white"/>
<path d="M32 24.125C32.4832 24.125 32.875 23.7332 32.875 23.25C32.875 22.7668 32.4832 22.375 32 22.375C31.5168 22.375 31.125 22.7668 31.125 23.25C31.125 23.7332 31.5168 24.125 32 24.125Z" fill="white"/>
</svg>
