<svg width="19" height="19" viewBox="0 0 19 19" fill="none" xmlns="http://www.w3.org/2000/svg">
<path d="M10.7226 8.2777C10.0741 7.62951 9.19477 7.26538 8.2779 7.26538C7.36103 7.26538 6.4817 7.62951 5.83324 8.2777L3.38778 10.7224C2.73931 11.3708 2.375 12.2504 2.375 13.1674C2.375 14.0845 2.73931 14.964 3.38778 15.6125C4.03625 16.261 4.91576 16.6253 5.83284 16.6253C6.74992 16.6253 7.62943 16.261 8.2779 15.6125L9.50024 14.3902" stroke="#008FDB" stroke-width="2" stroke-linecap="round" stroke-linejoin="round"/>
<path d="M8.27783 10.7223C8.92629 11.3705 9.80563 11.7346 10.7225 11.7346C11.6394 11.7346 12.5187 11.3705 13.1672 10.7223L15.6126 8.27766C16.2611 7.62919 16.6254 6.74967 16.6254 5.8326C16.6254 4.91552 16.2611 4.036 15.6126 3.38753C14.9642 2.73906 14.0846 2.37476 13.1676 2.37476C12.2505 2.37476 11.371 2.73906 10.7225 3.38753L9.50017 4.60987" stroke="#008FDB" stroke-width="2" stroke-linecap="round" stroke-linejoin="round"/>
</svg>
