<svg width="5" height="18" viewBox="0 0 5 18" fill="none" xmlns="http://www.w3.org/2000/svg">
<path d="M2.5 11C3.60457 11 4.5 10.1046 4.5 9C4.5 7.89543 3.60457 7 2.5 7C1.39543 7 0.5 7.89543 0.5 9C0.5 10.1046 1.39543 11 2.5 11Z" fill="#001825"/>
<path d="M2.5 4C3.60457 4 4.5 3.10457 4.5 2C4.5 0.89543 3.60457 0 2.5 0C1.39543 0 0.5 0.89543 0.5 2C0.5 3.10457 1.39543 4 2.5 4Z" fill="#001825"/>
<path d="M2.5 18C3.60457 18 4.5 17.1046 4.5 16C4.5 14.8954 3.60457 14 2.5 14C1.39543 14 0.5 14.8954 0.5 16C0.5 17.1046 1.39543 18 2.5 18Z" fill="#001825"/>
</svg>
