<svg width="23" height="18" viewBox="0 0 23 18" fill="none" xmlns="http://www.w3.org/2000/svg">
<path d="M1.5 0.125037C1.26794 0.125037 1.04538 0.217224 0.881282 0.381319C0.717187 0.545413 0.625 0.767972 0.625 1.00004C0.625 1.2321 0.717187 1.45466 0.881282 1.61876C1.04538 1.78285 1.26794 1.87504 1.5 1.87504H3.4425L5.7385 11.0625C5.93362 11.8413 6.631 12.375 7.43338 12.375H18.3446C19.1348 12.375 19.8059 11.85 20.0133 11.0888L22.2812 2.75004H20.449L18.3438 10.625H7.4325L5.13737 1.43754C5.04257 1.06061 4.82402 0.726405 4.51672 0.488436C4.20942 0.250468 3.83116 0.122504 3.4425 0.125037H1.5ZM17.25 12.375C15.8106 12.375 14.625 13.5607 14.625 15C14.625 16.4394 15.8106 17.625 17.25 17.625C18.6894 17.625 19.875 16.4394 19.875 15C19.875 13.5607 18.6894 12.375 17.25 12.375ZM9.375 12.375C7.93563 12.375 6.75 13.5607 6.75 15C6.75 16.4394 7.93563 17.625 9.375 17.625C10.8144 17.625 12 16.4394 12 15C12 13.5607 10.8144 12.375 9.375 12.375ZM12 0.125037V4.50004H9.375L12.875 8.00004L16.375 4.50004H13.75V0.125037H12ZM9.375 14.125C9.8685 14.125 10.25 14.5065 10.25 15C10.25 15.4935 9.8685 15.875 9.375 15.875C8.8815 15.875 8.5 15.4935 8.5 15C8.5 14.5065 8.8815 14.125 9.375 14.125ZM17.25 14.125C17.7435 14.125 18.125 14.5065 18.125 15C18.125 15.4935 17.7435 15.875 17.25 15.875C16.7565 15.875 16.375 15.4935 16.375 15C16.375 14.5065 16.7565 14.125 17.25 14.125Z" fill="#7C96A5"/>
</svg>
