<svg width="24" height="24" viewBox="0 0 24 24" fill="none" xmlns="http://www.w3.org/2000/svg">
<path d="M12 0.333374C5.55654 0.333374 0.333374 5.55654 0.333374 12C0.333374 18.4435 5.55654 23.6667 12 23.6667C18.4435 23.6667 23.6667 18.4435 23.6667 12C23.6667 5.55654 18.4435 0.333374 12 0.333374ZM12 21.9167C10.6977 21.9166 9.40811 21.66 8.20492 21.1616C7.00173 20.6631 5.9085 19.9326 4.98766 19.0116C4.06681 18.0906 3.33637 16.9973 2.83806 15.7941C2.33974 14.5908 2.0833 13.3012 2.08337 11.9989C2.08345 10.6965 2.34004 9.40694 2.8385 8.20375C3.33696 7.00056 4.06753 5.90734 4.98848 4.98649C5.90944 4.06564 7.00275 3.33521 8.206 2.83689C9.40924 2.33857 10.6989 2.08213 12.0012 2.08221C14.6314 2.08236 17.1539 3.12736 19.0136 4.98732C20.8733 6.84727 21.918 9.36982 21.9179 12C21.9177 14.6303 20.8727 17.1527 19.0128 19.0124C17.1528 20.8722 14.6303 21.9169 12 21.9167ZM12 12.5834C8.45571 12.5834 5.58337 14.5994 5.58337 16.6667C5.58337 18.734 8.45571 20.75 12 20.75C15.5444 20.75 18.4167 18.734 18.4167 16.6667C18.4167 14.5994 15.5444 12.5834 12 12.5834ZM12 12C12.9283 12 13.8185 11.6313 14.4749 10.9749C15.1313 10.3185 15.5 9.4283 15.5 8.50004C15.5 7.57178 15.1313 6.68154 14.4749 6.02517C13.8185 5.36879 12.9283 5.00004 12 5.00004C11.0718 5.00004 10.1815 5.36879 9.52517 6.02517C8.86879 6.68154 8.50004 7.57178 8.50004 8.50004C8.50004 9.4283 8.86879 10.3185 9.52517 10.9749C10.1815 11.6313 11.0718 12 12 12Z" fill="#001825"/>
</svg>
