<svg width="20" height="20" viewBox="0 0 20 20" fill="none" xmlns="http://www.w3.org/2000/svg">
<path d="M9.22834 2.194C9.495 1.49067 10.5042 1.49067 10.7717 2.194L12.4967 6.97234C12.5568 7.12799 12.6628 7.26174 12.8006 7.35592C12.9384 7.45009 13.1015 7.50028 13.2683 7.49984H17.5075C18.2908 7.49984 18.6325 8.47484 18.0167 8.95234L15 11.6665C14.8649 11.7704 14.7661 11.9144 14.7179 12.0779C14.6697 12.2414 14.6745 12.4159 14.7317 12.5765L15.8333 17.2457C16.1017 17.9957 15.2333 18.6398 14.5767 18.1782L10.4792 15.5782C10.3388 15.4796 10.1715 15.4266 10 15.4266C9.82849 15.4266 9.66116 15.4796 9.52084 15.5782L5.42334 18.1782C4.7675 18.6398 3.89834 17.9948 4.16667 17.2457L5.26834 12.5765C5.32549 12.4159 5.3303 12.2414 5.28209 12.0779C5.23389 11.9144 5.13513 11.7704 5 11.6665L1.98334 8.95234C1.36667 8.47484 1.71 7.49984 2.49167 7.49984H6.73084C6.89775 7.50039 7.06089 7.45026 7.19868 7.35606C7.33648 7.26187 7.44242 7.12806 7.5025 6.97234L9.2275 2.194H9.22834Z" stroke="#7C96A5" stroke-width="2" stroke-linecap="round" stroke-linejoin="round"/>
</svg>
