<svg width="20" height="19" viewBox="0 0 20 19" fill="none" xmlns="http://www.w3.org/2000/svg">
<path d="M12.0587 0.946975C12.1797 0.88786 12.3149 0.863928 12.4489 0.877906C12.5828 0.891885 12.7101 0.943212 12.8163 1.02604L19.2851 6.05729C19.3685 6.12206 19.4365 6.20441 19.4845 6.29848C19.5325 6.39255 19.5591 6.49604 19.5625 6.60157C19.566 6.70711 19.5461 6.8121 19.5044 6.90909C19.4626 7.00608 19.4 7.09267 19.321 7.16273L12.8523 12.9127C12.7487 13.0047 12.6207 13.0648 12.4837 13.0858C12.3468 13.1067 12.2067 13.0877 12.0803 13.0309C11.9539 12.974 11.8467 12.8819 11.7715 12.7656C11.6962 12.6493 11.6562 12.5136 11.6562 12.3751V9.5806C11.317 9.6381 10.8742 9.73873 10.3567 9.91123C9.10181 10.331 7.40413 11.1748 5.69637 12.884C5.59188 12.9889 5.45755 13.0589 5.31174 13.0846C5.16592 13.1102 5.01574 13.0902 4.88172 13.0273C4.7477 12.9644 4.63638 12.8616 4.56298 12.7331C4.48958 12.6045 4.45767 12.4564 4.47162 12.309C4.67719 10.0507 5.33556 8.40329 6.23112 7.21591C6.99978 6.19106 8.04436 5.40625 9.24269 4.95329C10.0156 4.66035 10.8305 4.4934 11.6562 4.45879V1.59385C11.656 1.45914 11.6936 1.32707 11.7647 1.21269C11.8359 1.09832 11.9378 1.00625 12.0587 0.946975ZM0.875 5.90635C0.875 4.95323 1.25363 4.03914 1.92759 3.36519C2.60154 2.69123 3.51563 2.3126 4.46875 2.3126H7.34375C7.53437 2.3126 7.71719 2.38833 7.85198 2.52312C7.98677 2.65791 8.0625 2.84073 8.0625 3.03135C8.0625 3.22197 7.98677 3.40479 7.85198 3.53958C7.71719 3.67437 7.53437 3.7501 7.34375 3.7501H4.46875C3.89688 3.7501 3.34843 3.97728 2.94405 4.38165C2.53968 4.78603 2.3125 5.33448 2.3125 5.90635V14.5313C2.3125 15.1032 2.53968 15.6517 2.94405 16.056C3.34843 16.4604 3.89688 16.6876 4.46875 16.6876H13.0938C13.6656 16.6876 14.2141 16.4604 14.6184 16.056C15.0228 15.6517 15.25 15.1032 15.25 14.5313V13.0938C15.25 12.9032 15.3257 12.7204 15.4605 12.5856C15.5953 12.4508 15.7781 12.3751 15.9688 12.3751C16.1594 12.3751 16.3422 12.4508 16.477 12.5856C16.6118 12.7204 16.6875 12.9032 16.6875 13.0938V14.5313C16.6875 15.4845 16.3089 16.3986 15.6349 17.0725C14.961 17.7465 14.0469 18.1251 13.0938 18.1251H4.46875C3.51563 18.1251 2.60154 17.7465 1.92759 17.0725C1.25363 16.3986 0.875 15.4845 0.875 14.5313V5.90635Z" fill="#7C96A5"/>
</svg>
