<svg width="18" height="18" viewBox="0 0 18 18" fill="none" xmlns="http://www.w3.org/2000/svg">
<path d="M9 2.24993C10.335 2.24993 11.6401 2.64581 12.7501 3.38751C13.8601 4.12921 14.7253 5.18342 15.2362 6.41682C15.7471 7.65022 15.8808 9.00742 15.6203 10.3168C15.3599 11.6262 14.717 12.8289 13.773 13.7729C12.829 14.7169 11.6262 15.3598 10.3169 15.6202C9.00749 15.8807 7.65029 15.747 6.41689 15.2361C5.18349 14.7252 4.12928 13.8601 3.38758 12.75C2.64588 11.64 2.25 10.335 2.25 8.99993C2.25 8.70156 2.13147 8.41541 1.9205 8.20444C1.70952 7.99346 1.42337 7.87493 1.125 7.87493C0.826631 7.87493 0.540483 7.99346 0.329505 8.20444C0.118526 8.41541 6.28765e-09 8.70156 0 8.99993C0.000202886 11.0193 0.679556 12.98 1.92881 14.5666C3.17807 16.1533 4.92463 17.2737 6.88764 17.7476C8.85064 18.2216 10.916 18.0216 12.7516 17.1798C14.5872 16.338 16.0864 14.9034 17.008 13.1065C17.9297 11.3097 18.2202 9.25513 17.833 7.27319C17.4457 5.29125 16.4032 3.49714 14.873 2.17936C13.3428 0.861581 11.4139 0.0967155 9.39644 0.0077633C7.37898 -0.0811889 5.39023 0.510941 3.75 1.68893V1.12493C3.75 0.826563 3.63147 0.540415 3.4205 0.329437C3.20952 0.118458 2.92337 -6.80349e-05 2.625 -6.80349e-05C2.32663 -6.80349e-05 2.04048 0.118458 1.8295 0.329437C1.61853 0.540415 1.5 0.826563 1.5 1.12493V4.87493C1.5 5.49593 2.004 5.99993 2.625 5.99993H4.875C5.17337 5.99993 5.45952 5.88141 5.6705 5.67043C5.88147 5.45945 6 5.1733 6 4.87493C6 4.57656 5.88147 4.29041 5.6705 4.07944C5.45952 3.86846 5.17337 3.74993 4.875 3.74993H4.7565C5.95653 2.77702 7.45513 2.2473 9 2.24993ZM9.75 5.62493C9.75 5.32656 9.63147 5.04041 9.42049 4.82944C9.20952 4.61846 8.92337 4.49993 8.625 4.49993C8.32663 4.49993 8.04048 4.61846 7.8295 4.82944C7.61853 5.04041 7.5 5.32656 7.5 5.62493V9.37493C7.5 9.99593 8.004 10.4999 8.625 10.4999H10.875C11.1734 10.4999 11.4595 10.3814 11.6705 10.1704C11.8815 9.95945 12 9.6733 12 9.37493C12 9.07656 11.8815 8.79041 11.6705 8.57944C11.4595 8.36846 11.1734 8.24993 10.875 8.24993H9.75V5.62493Z" fill="#7C96A5"/>
</svg>
