<svg enable-background="new 0 0 80 80" viewBox="0 0 80 80" xmlns="http://www.w3.org/2000/svg"><g fill="#242424"><path d="m39.37 0h1.25c.55.31 1.18.53 1.65.93 2.24 1.93 4.74 3.45 7.41 4.72 6.38 3.03 13.15 4.3 20.17 4.35 1.87.01 3.16 1.11 3.44 2.95.83 5.29 1.62 10.58 2.47 15.87.72 4.44 1 8.88.34 13.36-1.53 10.47-6.4 19.05-14.55 25.78-3.03 2.5-6.49 4.3-9.92 6.14-3.67 1.97-7.35 3.93-11.02 5.9-.47 0-.94 0-1.41 0-.41-.21-.82-.42-1.22-.64-4.01-2.18-8.01-4.41-12.04-6.55-4.55-2.41-8.69-5.32-12.1-9.2-8-9.09-11.42-19.69-10.02-31.7.73-6.32 1.89-12.59 2.87-18.89.31-1.96 1.55-3.01 3.53-3.03 3.99-.03 7.94-.45 11.82-1.42 5.5-1.36 10.61-3.57 15.09-7.13.69-.55 1.49-.96 2.24-1.44zm-26.47 16.6c-.04.13-.07.2-.08.27-.62 3.98-1.22 7.97-1.86 11.95-.67 4.1-1.13 8.2-.51 12.35 1.5 10.09 6.43 18.08 14.99 23.58 4.56 2.93 9.47 5.31 14.23 7.91.21.11.6.04.83-.08 3.93-2.13 7.84-4.28 11.77-6.41 4.9-2.66 8.92-6.28 11.98-10.95 4.52-6.9 6.34-14.47 5.29-22.66-.46-3.64-1.07-7.25-1.62-10.88-.26-1.69-.53-3.37-.8-5.07-9.97-.32-18.99-3.3-27.12-8.94-8.19 5.67-17.22 8.64-27.1 8.93z"/><path d="m33.34 45.3c2.01-2.01 3.93-3.95 5.86-5.88 3.84-3.85 7.69-7.7 11.54-11.54 1.5-1.5 3.55-1.56 4.92-.17 1.33 1.36 1.26 3.41-.2 4.87-6.51 6.52-13.03 13.03-19.54 19.54-1.63 1.63-3.53 1.63-5.15.02-2.1-2.09-4.2-4.19-6.29-6.29-1.52-1.52-1.59-3.54-.19-4.92 1.38-1.36 3.41-1.27 4.93.24 1.35 1.35 2.71 2.72 4.12 4.13z"/></g></svg>