<svg enable-background="new 0 0 80 80" viewBox="0 0 80 80" xmlns="http://www.w3.org/2000/svg"><g fill="#010101"><path d="m40.01 35.26c5.46 0 10.91.08 16.36-.03 3.29-.06 5.26 2.15 5.21 5.17-.09 5.62-.02 11.24-.03 16.86 0 3.38-1.78 5.15-5.18 5.15-10.97 0-21.93 0-32.9 0-3.17 0-5.01-1.82-5.01-4.98 0-5.73 0-11.46 0-17.19 0-3.16 1.83-4.98 5.01-4.98zm-8.46 13.61c.01-1.96-1.56-3.56-3.51-3.55-1.91 0-3.48 1.57-3.49 3.48-.01 1.98 1.53 3.54 3.51 3.53 1.93 0 3.48-1.53 3.49-3.46zm11.96.04c.03-1.97-1.52-3.57-3.46-3.6-1.91-.02-3.51 1.53-3.54 3.44-.03 1.99 1.49 3.56 3.46 3.58 1.94.02 3.51-1.5 3.54-3.42zm11.97-.1c-.01-1.92-1.56-3.49-3.48-3.5-1.94-.01-3.53 1.58-3.52 3.53.01 1.93 1.54 3.47 3.48 3.48 1.96.02 3.52-1.53 3.52-3.51z"/><path d="m64.79 9.81c0-1.96-.02-3.76.01-5.56.02-1.34 1.18-2.16 2.3-1.65.64.29.99.8.99 1.5.01 3.16.01 6.31 0 9.47 0 .7-.37 1.21-1.01 1.49-.73.32-1.35.08-1.89-.44-1.89-1.84-3.92-3.5-6.17-4.89-7.2-4.44-15.01-6.29-23.4-5.14-12.99 1.78-22.48 8.66-28.05 20.46-4.8 10.16-4.48 20.5.35 30.66.11.22.23.44.33.67.42.94.16 1.87-.65 2.29-.86.45-1.79.13-2.29-.83-1.27-2.43-2.28-4.96-2.99-7.61-4.33-16.31 1.81-32.98 15.78-42.52 7.29-4.98 15.42-7.16 24.25-6.64 8.19.48 15.5 3.3 21.95 8.36.12.1.24.2.49.38z"/><path d="m15.23 70.16c0 1.89-.01 3.65 0 5.41 0 .71-.19 1.32-.83 1.7-1.03.63-2.43-.04-2.45-1.27-.06-3.24-.03-6.48-.01-9.72 0-.66.41-1.13 1.02-1.39.7-.29 1.3-.09 1.82.41 1.6 1.54 3.28 2.97 5.12 4.21 5.22 3.52 10.95 5.61 17.24 6.03 11.93.8 21.94-3.29 29.87-12.2 5-5.61 7.8-12.26 8.56-19.75.71-6.98-.56-13.59-3.72-19.85-.55-1.09-.31-2.05.6-2.49.86-.42 1.77-.08 2.27.89 1.63 3.19 2.84 6.53 3.51 10.05 2.11 10.99.04 21.15-6.39 30.28-6.1 8.66-14.49 14.02-24.95 15.86-11.49 2.03-21.88-.67-31.13-7.78-.12-.1-.27-.2-.53-.39z"/><path d="m54.6 31.96c-1.16 0-2.18 0-3.3 0 0-1.86-.01-3.71 0-5.55.01-1.2-.12-2.37-.46-3.52-1.53-5.3-6.76-8.81-12.1-8.11-5.71.75-9.92 5.37-10.01 11.01-.03 2.04-.01 4.08-.01 6.16-1.12 0-2.16 0-3.26 0-.07-5.07-.55-10.15 2.78-14.58 3.59-4.78 9.6-6.94 15.55-5.44 5.49 1.39 9.87 6.31 10.62 12.02.37 2.63.12 5.28.19 8.01z"/></g></svg>