<svg enable-background="new 0 0 80 80" viewBox="0 0 80 80" xmlns="http://www.w3.org/2000/svg"><path d="m45.63 45.68c-15.24 0-30.36 0-45.58 0 0-15.23 0-30.41 0-45.68h45.58zm-5.67-39.95c-11.52 0-22.86 0-34.19 0v34.17h34.19c0-11.42 0-22.74 0-34.17z"/><path d="m34.32 80c0-9.51 0-18.92 0-28.43h5.62v22.71h34.29c0-11.34 0-22.7 0-34.21-7.51 0-15.05 0-22.68 0 0-1.96 0-3.77 0-5.69h28.41v45.63c-15.15-.01-30.31-.01-45.64-.01z"/><path d="m52.04 64.19c-1.28-3.35-2.48-6.48-3.75-9.8-1.5 0-3.33 0-5.3 0 0-1.9 0-3.71 0-5.68h11.21c0-1.96 0-3.77 0-5.71h5.73v5.51h11.42v5.74c-1.81 0-3.69 0-5.26 0-1.31 3.41-2.53 6.6-3.9 10.17 2.8.52 5.91 1.09 9.17 1.69v5.39c-4.46.02-8.8-.66-12.85-2.71-.94-.48-1.64-.54-2.62-.04-4.04 2.08-8.4 2.75-12.97 2.74 0-1.95 0-3.77 0-5.41 2.72-.49 5.34-.94 7.95-1.45.52-.09.99-.37 1.17-.44zm2.51-9.8c.31 2.38.97 4.49 2.95 6.67.95-2.43 1.74-4.45 2.61-6.67-2.16 0-3.8 0-5.56 0z" fill="#020202"/><path d="m39.96 5.73v34.17c-11.39 0-22.74 0-34.19 0 0-11.34 0-22.7 0-34.17zm-31.41 31.36c1.98 0 4.09.58 5.45-.18 1.15-.65 1.42-2.85 2.08-4.36.02-.05.02-.14.06-.16.46-.33.93-.92 1.4-.93 3.51-.08 7.03-.09 10.54.01.51.01 1.21.58 1.45 1.07.73 1.48 1.27 3.06 1.85 4.5h5.71c-3.71-9.29-7.36-18.45-11.06-27.59-.16-.39-.67-.88-1.05-.91-1.42-.11-2.86-.11-4.28 0-.39.03-.92.49-1.07.88-3.69 9.14-7.34 18.3-11.08 27.67z" fill="#e3e3e3"/><path d="m54.55 54.39h5.56c-.87 2.22-1.66 4.24-2.61 6.67-1.98-2.18-2.65-4.29-2.95-6.67z" fill="#dfdfdf"/><path d="m8.55 37.09c3.74-9.37 7.4-18.53 11.09-27.67.16-.39.69-.85 1.07-.88 1.42-.1 2.86-.11 4.28 0 .38.03.89.51 1.05.91 3.69 9.14 7.34 18.3 11.06 27.59-1.94 0-3.75 0-5.71 0-.58-1.44-1.12-3.02-1.85-4.5-.24-.49-.94-1.06-1.45-1.07-3.51-.09-7.03-.09-10.54-.01-.48.01-.94.6-1.4.93-.04.03-.04.11-.06.16-.66 1.51-.94 3.72-2.08 4.36-1.37.76-3.48.18-5.46.18zm10.3-11.46h7.96c-1.29-3.23-2.55-6.38-3.98-9.95-1.42 3.55-2.68 6.69-3.98 9.95z" fill="#030303"/><path d="m18.85 25.63c1.3-3.25 2.56-6.39 3.99-9.95 1.43 3.58 2.69 6.72 3.98 9.95-2.72 0-5.25 0-7.97 0z" fill="#dfdfdf"/></svg>