<svg enable-background="new 0 0 80 80" viewBox="0 0 80 80" xmlns="http://www.w3.org/2000/svg"><path d="m11.39 38.45c-2.02 2.03-3.91 3.92-5.78 5.82-.72.73-1.54 1.1-2.56.88-2.03-.45-2.74-2.86-1.27-4.39 1.31-1.37 2.68-2.69 4.02-4.03 2.08-2.09 4.17-4.18 6.25-6.28 1.16-1.17 2.72-1.19 3.88-.03 3.37 3.37 6.73 6.75 10.1 10.13 1.22 1.23 1.3 2.8.22 3.88-1.09 1.09-2.65 1.02-3.88-.21-1.88-1.87-3.74-3.75-5.71-5.72-.12 2.06 0 3.98.39 5.89 2.02 9.97 9.81 17.35 19.85 18.81 11.67 1.7 23.27-6.27 25.88-17.77 2.99-13.22-5.33-25.95-18.61-28.44-1.3-.24-2.63-.3-3.96-.37-1.65-.08-2.81-1.13-2.79-2.64.01-1.51 1.2-2.58 2.84-2.57 13.62.07 25.62 10.2 27.89 23.54 2.63 15.47-7.1 29.8-22.47 33.09-14.8 3.17-30.15-6.6-33.43-21.37-.52-2.33-.57-4.76-.83-7.15-.05-.29-.03-.58-.03-1.07z" fill="#020202"/><path d="m79 40.01c-.01 17.73-12.16 33.36-29.38 37.78-3.08.79-6.21 1.19-9.39 1.21-1.64.01-2.83-1.07-2.83-2.58-.01-1.51 1.14-2.59 2.8-2.62 14.15-.29 26.21-8.64 31.33-21.69 4.89-12.44 1.69-26.99-7.95-36.26-5.22-5.03-11.39-8.15-18.55-9.26-1.6-.25-3.23-.3-4.85-.37-1.64-.08-2.8-1.15-2.78-2.65.02-1.52 1.2-2.58 2.86-2.57 17.94.1 33.69 12.72 37.74 30.24.66 2.89.99 5.81 1 8.77z" fill="#020202"/><path d="m37.4 26.98c0-.85-.01-1.66 0-2.47.02-1.57 1.14-2.73 2.62-2.71 1.45.01 2.55 1.15 2.58 2.68.01.81 0 1.62 0 2.52.83 0 1.63-.01 2.43 0 1.59.01 2.75 1.09 2.76 2.57.02 1.51-1.15 2.62-2.79 2.63-2.46.01-4.93 0-7.39 0-1.64 0-2.82 1.09-2.82 2.6 0 1.5 1.17 2.58 2.82 2.6 2.13.04 4.29-.08 6.4.18 3.6.45 6.37 3.87 6.38 7.59s-2.72 7.04-6.32 7.67c-.45.08-.91.13-1.48.2v1.06c0 2.87-.79 4.11-2.62 4.1-1.81-.01-2.58-1.24-2.58-4.14 0-.32 0-.64 0-1.06-.83 0-1.63.01-2.43 0-1.59-.01-2.75-1.09-2.77-2.57-.02-1.51 1.15-2.62 2.79-2.63 2.44-.01 4.87 0 7.31 0 1.71 0 2.9-1.07 2.9-2.6s-1.19-2.58-2.9-2.6c-2.03-.02-4.08.13-6.08-.15-4.1-.58-6.85-4.12-6.6-8.19.24-3.91 3.47-7.03 7.51-7.25.06-.01.11-.02.28-.03z" fill="#010101"/></svg>