<svg enable-background="new 0 0 80 80" viewBox="0 0 80 80" xmlns="http://www.w3.org/2000/svg"><g fill="#030303"><path d="m58.95 62.11c-4.99 5.01-9.68 9.72-14.36 14.42-3.28 3.29-5.85 3.29-9.15 0-4.67-4.67-9.32-9.34-13.98-14-2.42 2.36-4.79 4.69-7.19 6.99-.44.42-.26.89-.26 1.36.02 3.11-2.21 5.48-5.18 5.48-2.9 0-5.26-2.41-5.19-5.31.07-3.01 2.57-5.21 5.76-5.02.57.03 1.01.05 1.45-.41 1.99-2.07 4.02-4.09 6.03-6.14.22-.23.42-.49.71-.82-4.72-4.71-9.42-9.4-14.11-14.09-3.3-3.29-3.3-5.86-.02-9.14 4.7-4.69 9.4-9.39 14.46-14.44-2.44-2.28-4.82-4.48-7.16-6.72-.43-.41-.84-.34-1.33-.31-3.22.18-5.71-1.97-5.79-4.99-.09-2.92 2.21-5.33 5.12-5.35 3.04-.03 5.29 2.33 5.24 5.56-.01.56-.02 1.03.43 1.47 2.32 2.26 4.62 4.55 6.98 6.88 4.77-4.78 9.54-9.57 14.32-14.35 2.9-2.9 5.68-2.91 8.57-.02 4.78 4.78 9.55 9.57 14.68 14.71 2.29-2.42 4.54-4.82 6.82-7.18.42-.44.27-.88.24-1.35-.16-3.11 1.98-5.59 4.92-5.71 2.92-.12 5.37 2.15 5.43 5.05.06 3.05-2.31 5.38-5.49 5.32-.62-.01-1.12-.01-1.6.49-2.22 2.29-4.47 4.55-6.8 6.9 4.06 4.06 8.14 8.13 12.23 12.21.84.84 1.7 1.67 2.52 2.53 2.34 2.42 2.36 5.37-.01 7.76-4.53 4.58-9.1 9.11-13.66 13.66-.34.34-.74.63-1.12.94 2.44 2.5 4.77 4.87 7.08 7.26.42.44.89.26 1.36.25 3.1-.03 5.47 2.22 5.47 5.19 0 2.89-2.42 5.25-5.31 5.18-2.94-.07-5.19-2.56-5.04-5.61.02-.52.2-1-.28-1.5-2.26-2.33-4.47-4.7-6.79-7.15zm14.34-21.94c-11.18-11.21-22.35-22.42-33.39-33.49-11.05 11.05-22.21 22.21-33.17 33.16 11.14 11.13 22.36 22.34 33.46 33.42 11-10.99 22.16-22.16 33.1-33.09z"/><path d="m49.1 29.62c1.09-.03 1.47.72 1.02 1.98-1.5 4.16-3.02 8.31-4.53 12.46-1.21 3.34-2.42 6.69-3.64 10.04-.24.65-.38 1.44-1.29 1.45-.9.01-1.06-.78-1.32-1.42-1.12-2.8-2.28-5.59-3.34-8.42-.34-.89-.87-1.4-1.74-1.73-2.87-1.1-5.72-2.24-8.57-3.38-.6-.24-1.28-.46-1.25-1.29s.72-1 1.32-1.22c7.5-2.73 15-5.45 22.49-8.17.32-.11.62-.22.85-.3z"/></g></svg>