<svg enable-background="new 0 0 80 80" viewBox="0 0 80 80" xmlns="http://www.w3.org/2000/svg"><g fill="#0c0c0c"><path d="m62.38 52.24c1.7 0 3.18-.1 4.65.02 2.73.23 4.66 2.08 4.7 4.77.1 6.05.1 12.11-.01 18.16-.05 2.66-2.1 4.66-4.78 4.68-10.7.07-21.4.08-32.09-.01-2.91-.02-4.34-1.88-5.03-6-3.8 0-7.64 0-11.49 0-6.75 0-10.13-3.36-10.13-10.08 0-17.88 0-35.76 0-53.64 0-6.63 3.35-9.97 10-9.99 10.28-.02 20.55-.02 30.83-.08.81 0 1.31.3 1.81.83 3.64 3.92 7.26 7.86 10.94 11.74.69.73.61 1.51.61 2.33v34.63c-.01.77-.01 1.54-.01 2.64zm-2.24-.13c0-12.54 0-24.88 0-37.33-3.21 0-6.3-.08-9.38.03-1.77.07-2.36-.57-2.31-2.31.1-3.36.03-6.73.03-10.2-10.82 0-21.43-.1-32.04.05-3.64.05-5.99 2.85-6.12 6.52-.05 1.41-.01 2.81-.01 4.22 0 17.1-.01 34.2 0 51.29 0 4.02 2.03 6.95 5.62 7.19 4.6.32 9.24.08 14.05.08 0-4.47-.02-8.82.01-13.16.02-4.39 1.91-6.28 6.32-6.31 3.43-.03 6.86-.01 10.43-.01.01-2.08.64-3.33 2.92-3.34 4.9-.02 4.9-.1 5.81 3.27 1.49.01 3.03.01 4.67.01zm-9.3 25.71c5 0 9.99.01 14.99-.01 2.82-.01 3.85-1 3.87-3.77.03-5.28.03-10.55 0-15.83-.01-2.93-1-3.93-3.95-3.94-9.84-.02-19.69-.02-29.53.01-3.15.01-4.12 1.02-4.13 4.22-.02 5.2-.02 10.41 0 15.61.01 2.56 1.15 3.68 3.77 3.7 4.99.03 9.99.01 14.98.01z"/><path d="m28.91 40.11c-.77 1.08-1.5 2.15-2.27 3.19-.51.7-1.11 1.38-2.09 1.02-.84-.31-1.02-1.11-1.03-1.91-.02-1.16 0-2.32 0-3.93-2.16 1.56-3.11 3.37-4.33 4.94-.48.62-.85 1.74-1.91 1.08-1.22-.76-.29-1.61.21-2.29 1.12-1.53 2.26-3.05 3.51-4.47.73-.83 1.61-1.7 2.9-1.27s1.38 1.65 1.6 2.75c.08.41.1.83.17 1.38 1.46-1.05 2-3.67 4.24-2.89 1.91.67 1.29 2.89 1.87 4.55 1.36-.65 1.6-2.04 2.13-3.16.63-1.32 1.04-2.75 1.58-4.12.26-.65.56-1.43 1.48-1.11.87.3.78 1.03.53 1.76-.85 2.46-1.7 4.92-3.09 7.12-.72 1.13-1.58 2.35-3.17 1.95-1.5-.38-1.53-1.84-1.8-3.06-.1-.46.1-.99-.53-1.53z"/><path d="m30.49 17.95c3.8 0 7.6-.01 11.4.01.86.01 2.13-.29 2.19.98.06 1.33-1.21 1.08-2.07 1.09-7.6.02-15.2.02-22.8 0-.83 0-2.12.35-2.06-1.07.05-1.36 1.32-.98 2.15-.99 3.73-.04 7.46-.02 11.19-.02z"/><path d="m25.63 29.05c-2.25 0-4.49.01-6.74 0-.84-.01-1.85.03-1.76-1.21.08-1.14 1.09-.88 1.81-.88 4.63-.02 9.26-.01 13.89-.01.76 0 1.71-.1 1.68 1.04-.03 1.07-.95 1.06-1.73 1.06-2.38.01-4.77 0-7.15 0z"/><path d="m49.97 73.34c-4.4 0-8.78 0-13.15 0-.32-.5-.11-.98-.03-1.44.95-5.17.95-5.18 6.27-5.16 5.64.03 6.15-1.12 6.91 6.6z"/><path d="m46.54 62.46c-.05 1.61-1.58 3.01-3.21 2.95-1.73-.06-3.05-1.56-2.99-3.38.06-1.73 1.44-3.03 3.13-2.95 1.67.08 3.13 1.68 3.07 3.38z"/><path d="m59.62 62.67c-1.4 0-2.8 0-4.21 0-.7 0-1.32-.21-1.34-1-.02-.77.59-1.08 1.28-1.08 2.94-.01 5.89-.01 8.83.02.68.01 1.27.26 1.22 1.11-.05.86-.7.94-1.36.95-1.47.01-2.95 0-4.42 0z"/><path d="m59.84 72.91c-1.4 0-2.8 0-4.21 0-.75 0-1.51-.16-1.55-1.04-.04-.92.73-1.06 1.48-1.06h8.41c.74 0 1.47.1 1.42 1.1-.04.85-.71.97-1.36.98-1.39.04-2.79.02-4.19.02z"/><path d="m59.66 67.79c-1.33 0-2.66.01-3.99 0-.73 0-1.52-.09-1.58-.98-.06-.92.71-1.1 1.45-1.1 2.8-.01 5.6-.02 8.4 0 .71 0 1.5.07 1.46 1.07-.04.98-.83.99-1.53 1-1.41.03-2.81.01-4.21.01z"/></g></svg>