<svg enable-background="new 0 0 80 80" viewBox="0 0 80 80" xmlns="http://www.w3.org/2000/svg"><g fill="#010101"><path d="m79 38.06c-.02 20.29-12.83 36.4-30.93 40.03-15.33 3.07-28.32-1.67-38.34-13.68-7.35-8.82-9.9-19.18-8.26-30.51 1.19-8.21 4.75-15.33 10.56-21.29 1.67-1.71 4.65-2.31 6.77-1.4 2.23.97 3.73 3.22 3.64 5.53-.07 1.78-.94 3.18-2.19 4.38-3.14 3.01-5.32 6.62-6.66 10.74-5.09 15.62 5.14 32.4 21.37 35.03 14.29 2.31 27.52-6.07 31.04-19.97 2.43-9.6.32-18.27-6.49-25.63-3.11-3.36-2.29-8.34 1.7-10.07 2.3-1 4.98-.48 6.72 1.32 7.39 7.66 10.95 16.86 11.07 25.52z"/><path d="m47.83 17.23c-.09 2.36.2 5.29-.12 8.2-.43 3.86-3.8 6.75-7.72 6.74-3.88-.01-7.19-2.9-7.68-6.71-.05-.39-.11-.79-.11-1.18-.01-5.12-.03-10.23 0-15.35.03-3.74 2.42-6.82 5.85-7.69 5.03-1.27 9.69 2.41 9.77 7.74.04 2.57.01 5.13.01 8.25z"/></g></svg>