<svg enable-background="new 0 0 80 80" viewBox="0 0 80 80" xmlns="http://www.w3.org/2000/svg"><g fill="#080808"><path d="m44.72 68.74c.62 3.2-1.4 3.03-3.39 3.03-11.9-.02-23.8-.08-35.7.04-2.67.03-3.38-.91-3.34-3.47.13-8.63.05-17.26.05-25.88 0-3.88 0-3.87 3.95-3.92.78-.01 1.57-.07 2.47-.11 0-2.16 0-4.22 0-6.51-2.96.15-3.46-1.67-3.26-4.17.15-1.96.03-3.95.03-6.17-3.6.32-3.83-1.84-3.79-4.62.13-8.92.05-8.92 8.88-8.92 10.02 0 20.03.07 30.05-.05 2.64-.03 3.89.63 3.6 3.5-.22 2.16-.04 4.36-.04 6.85 4.03-.72 3.83 1.91 3.71 4.56-.08 1.76-.01 3.53-.01 5.61 3.47 0 6.61-.09 9.75.02 11.39.38 19.62 9.71 20.53 20.94 1.19 14.6-15.69 28.56-32.01 19.81-.34-.17-.73-.26-1.48-.54zm11.6-.2c10.18 0 18.35-8.09 18.45-18.26.1-10.15-8.38-18.65-18.52-18.56-10.12.09-18.25 8.33-18.23 18.49.01 10.21 8.13 18.34 18.3 18.33zm-11.72-46.68c-11.95 0-23.76 0-35.56 0v6.42h35.56c0-2.26 0-4.31 0-6.42zm-3.66-10.36c-12.07 0-23.92 0-35.71 0v6.33h35.71c0-2.15 0-4.11 0-6.33zm.46 56.96c-.15-3.74-2.97-6.56-6.39-6.56-7.03 0-14.06 0-21.08 0-2.73 0-5.46 0-8.21 0v6.56zm2.91-36.57c-10.98 0-21.5 0-32.07 0v6.6h24.76c.53 0 .97-.16 1.28-.6 1.59-2.25 3.59-4.11 6.03-6zm-38.62 16.41h28.71c.52-2.23 1-4.31 1.49-6.41-10.16 0-20.12 0-30.2 0zm-.05 9.99h30.1c-.53-2.28-1.01-4.34-1.46-6.26-9.64 0-19.1 0-28.64 0z"/><path d="m54.79 62.4c.27-1.83-.73-2.44-2.35-2.94-2.26-.69-3.98-2.14-3.77-5 1.75-.32 3.13-.52 4.45 1.23 1.25 1.66 3.4 1.29 5.27.81.91-.24 1.56-.91 1.66-1.89.11-1.05-.6-1.7-1.46-2.01-1.58-.56-3.23-.9-4.81-1.47-2.38-.85-4.73-1.88-4.85-4.91-.13-3.07 1.73-4.91 4.45-5.46 1.87-.37.99-1.86 1.66-2.68 1.2-.03 2.76-.84 2.69 1.43-.04 1.37 1.17 1.13 1.86 1.46 1.97.94 3.55 2.12 3.67 4.75-1.65.34-3.13.87-4.35-.99-.85-1.29-2.34-1.4-3.76-1.14-1.1.2-2.12.65-2.21 2.02-.07 1.18.6 1.85 1.64 2.17 1.88.59 3.8 1.08 5.66 1.71 2.27.77 3.65 2.27 3.68 4.81.03 2.51-1.28 4.06-3.46 5.02-1.23.55-2.86.36-2.96 2.57-.05 1.15-1.58.6-2.71.51z"/></g></svg>