<svg enable-background="new 0 0 80 80" viewBox="0 0 80 80" xmlns="http://www.w3.org/2000/svg"><path d="m32.02 27.63c0-3.42 0-6.77 0-10.12 0-2.65 0-5.31.01-7.96.01-1.62.79-2.88 1.93-3.94 1.71-1.6 3.78-2.54 5.96-3.27 5.51-1.84 11.21-2.41 16.99-2.33 5.33.07 10.59.65 15.62 2.51 1.57.58 3.1 1.36 4.49 2.28 1.97 1.32 3.1 3.09 2.92 5.7-.2 2.92.03 5.87.04 8.81.02 3.95 0 7.9 0 11.85v10.83c0 3.9-.05 7.8.02 11.69.04 2.14-.81 3.76-2.41 5.07-2.1 1.71-4.56 2.67-7.13 3.38-6.34 1.76-12.8 2.11-19.33 1.64-1.03-.08-2.06-.18-3.15-.28 0 2.05-.08 4.06.02 6.05.12 2.41-.95 4.14-2.79 5.51-2.07 1.55-4.44 2.5-6.91 3.12-9.64 2.44-19.29 2.45-28.92-.1-2.44-.65-4.77-1.6-6.8-3.18-1.72-1.34-2.68-3.02-2.6-5.29.09-2.63.02-5.26.02-7.89 0-3.72 0-7.43 0-11.15 0-3.85 0-7.69 0-11.54 0-.77-.01-1.55.01-2.32.04-1.55.76-2.79 1.84-3.83 1.71-1.64 3.81-2.6 6.01-3.35 3.91-1.33 7.96-1.95 12.07-2.22 3.83-.25 7.64-.15 11.45.31.19.04.38.02.64.02zm23.97-24.57c-2.74.23-5.5.37-8.23.72-3.09.4-6.15 1.07-8.97 2.47-1.03.51-2.02 1.19-2.88 1.95-1.01.9-.99 1.84-.01 2.76.69.65 1.48 1.24 2.32 1.67 3.51 1.82 7.34 2.53 11.22 2.97 4.85.55 9.71.5 14.55-.18 3.27-.46 6.51-1.13 9.48-2.65.98-.5 1.9-1.18 2.71-1.93.86-.8.8-1.67.02-2.55-.29-.33-.6-.68-.98-.88-1.3-.69-2.58-1.47-3.96-1.96-4.92-1.76-10.07-2.21-15.27-2.39zm-31.98 40.11c5.2-.04 10.33-.53 15.27-2.25 1.75-.61 3.45-1.34 4.77-2.69 1-1.02 1.05-1.94-.02-2.89-.86-.76-1.86-1.42-2.9-1.93-3.02-1.46-6.28-2.12-9.59-2.53-7.03-.87-14.01-.68-20.89 1.15-2.31.62-4.58 1.4-6.42 3.02-1.37 1.21-1.43 2.33.03 3.43 1.23.92 2.61 1.71 4.05 2.25 5.05 1.91 10.35 2.4 15.7 2.44zm-20.8 10.04c0 1.7.05 3.49-.02 5.27-.04 1.1.39 1.9 1.2 2.56 1.37 1.12 2.96 1.81 4.62 2.36 3.92 1.31 7.98 1.87 12.1 2.07 5.57.27 11.07-.14 16.46-1.62 2.11-.58 4.15-1.34 5.91-2.7.89-.69 1.44-1.52 1.35-2.73-.08-1.11-.02-2.24-.02-3.36 0-.66 0-1.32 0-1.86-1.85.76-3.6 1.63-5.44 2.22-5.82 1.86-11.82 2.28-17.88 2.07-4.41-.16-8.76-.71-12.96-2.1-1.8-.58-3.52-1.43-5.32-2.18zm41.6 11.25c-2.04.81-3.99 1.74-6.03 2.36-6.07 1.83-12.32 2.17-18.61 1.82-4.53-.25-8.99-.95-13.25-2.59-1.25-.48-2.43-1.13-3.7-1.73 0 1.68.09 3.35-.03 5-.11 1.56.58 2.56 1.79 3.37 1.75 1.17 3.69 1.88 5.7 2.43 5.27 1.44 10.65 1.8 16.08 1.57 4.27-.18 8.49-.76 12.55-2.18 1.6-.56 3.18-1.2 4.42-2.39.49-.47 1-1.18 1.04-1.81.13-2 .04-4 .04-5.85zm0-22.64c-4.39 2.76-10.32 3.82-14.66 4.25-4.08.4-8.16.41-12.23 0-3.63-.36-7.21-.99-10.63-2.29-1.37-.52-2.67-1.2-4.07-1.84 0 1.76.06 3.53-.02 5.29-.05 1.2.38 2.14 1.35 2.71 1.4.82 2.83 1.66 4.35 2.2 4.68 1.67 9.56 2.15 14.5 2.21 5.04.06 10.04-.37 14.86-1.92 1.76-.57 3.41-1.48 5.05-2.36.77-.41 1.46-1.11 1.48-2.08.05-2.02.02-4.05.02-6.17zm-9.62-27.07c0 1.74.06 3.5-.02 5.26-.06 1.24.41 2.19 1.4 2.77 1.4.82 2.84 1.64 4.35 2.19 3.76 1.37 7.7 1.89 11.69 2.1 5.75.31 11.43-.05 17-1.61 2.08-.58 4.13-1.29 5.82-2.69.55-.45 1.22-1.14 1.26-1.76.16-2.08.06-4.18.06-6.29-.09.01-.15 0-.19.02-4.01 2.47-8.5 3.39-13.08 3.98-4.56.59-9.13.62-13.7.15-3.6-.37-7.15-.98-10.54-2.3-1.36-.52-2.67-1.19-4.05-1.82zm41.58 11.11c-3.76 2-6.19 2.84-9.81 3.52-5.59 1.06-11.22 1.23-16.86.72-4-.36-7.93-1.08-11.66-2.63-1.09-.45-2.12-1.02-3.22-1.55v2.29c.32.08.62.15.92.22 2.77.63 5.48 1.42 7.93 2.91 2.4 1.46 4.27 3.29 3.85 6.48.33.05.61.1.89.13 3.7.45 7.42.56 11.14.3 3.9-.27 7.77-.78 11.44-2.2 1.53-.59 2.96-1.48 4.34-2.37.48-.31.95-1.03.98-1.59.13-2.04.06-4.09.06-6.23zm-28.78 34.41c1.57.14 3.12.31 4.67.39 5.77.3 11.48-.07 17.07-1.65 2.03-.57 3.99-1.32 5.69-2.62.93-.71 1.45-1.56 1.38-2.79-.08-1.45-.02-2.91-.02-4.37 0-.32 0-.64 0-.89-9.18 4.72-18.89 4.86-28.8 3.98.01 2.63.01 5.22.01 7.95zm28.8-23.13c-9.15 4.77-18.9 4.84-28.81 4v7.99c2.29.14 4.54.35 6.8.4 5.59.12 11.12-.37 16.45-2.2 1.7-.58 3.34-1.31 4.68-2.56.53-.5.89-1.07.88-1.84-.01-1.93 0-3.85 0-5.79z" fill="#030303"/></svg>