<svg enable-background="new 0 0 80 80" viewBox="0 0 80 80" xmlns="http://www.w3.org/2000/svg"><g fill="#040404"><path d="m41.14 59.4c0 2.36.04 4.47-.01 6.58-.08 3.48-2.25 5.63-5.74 5.68-4.09.06-8.18.08-12.26.05-1.13-.01-1.98.3-2.83 1.06-2.35 2.11-4.78 4.14-7.18 6.2-.7.6-1.37 1.37-2.42.88-1.06-.5-.82-1.54-.82-2.44-.02-1.84 0-3.67 0-5.76-1.27 0-2.43.02-3.59 0-3.27-.07-5.54-1.97-5.57-5.17-.11-9.36-.11-18.73 0-28.09.04-3.22 2.26-5.12 5.55-5.15 3.48-.04 6.96-.01 10.64-.01 0-.9 0-1.62 0-2.33 0-7.52-.02-15.03.01-22.55.02-5.39 2.97-8.34 8.31-8.34 15.27-.01 30.57-.01 45.87 0 5.19 0 8.24 2.98 8.25 8.21.04 14.24.04 28.49 0 42.73-.01 5.29-3.09 8.24-8.44 8.27-1.97.01-3.93 0-6.15 0v9.17 1.98c0 .82-.06 1.65-.93 2.01-.86.36-1.5-.17-2.12-.7-3.89-3.36-7.89-6.61-11.65-10.11-1.78-1.66-3.61-2.47-5.99-2.18-.9.1-1.82.01-2.93.01zm20.62 8.37c0-3.29-.01-6.12 0-8.95.01-2.32.28-2.57 2.66-2.58 2.04-.01 4.09 0 6.13 0 4.24-.01 5.84-1.61 5.84-5.85 0-13.84 0-27.68 0-41.52 0-4.31-1.63-5.94-5.97-5.95-10.28-.01-20.56 0-30.85 0-4.81 0-9.62-.03-14.43.01-3.28.03-5.28 1.79-5.28 4.84-.03 14.5-.03 29 .02 43.5.01 3.16 1.99 4.93 5.14 4.97 7.31.08 14.63.19 21.94.24 1.19.01 2.11.35 3.01 1.15 3.79 3.32 7.65 6.58 11.79 10.14zm-45.02-31.62c-3.74 0-7.28-.08-10.81.03-1.65.05-2.34 1.2-2.34 2.84.02 8.96.01 17.91 0 26.87 0 1.77.87 2.7 2.62 2.75 1.51.04 3.03.03 4.54.01 1.38-.01 2.08.57 2.03 2.02-.05 1.41-.01 2.82-.01 4.65 2.29-1.97 4.25-3.6 6.14-5.31.93-.85 1.91-1.22 3.19-1.21 4.34.03 8.69-.06 13.04-.1 1.43-.01 2.78-.36 2.88-2.03.15-2.39.04-4.8.04-7.31-4.62 0-9.03.03-13.43-.01-3.42-.03-6.37-2.11-7.4-5.19-.4-1.19-.51-2.43-.5-3.69.03-4.72.01-9.45.01-14.32z"/><path d="m49.56 15.62c4.87.63 7.2 2.33 8.05 5.77.12.51.17 1.04.17 1.56.01.86-.53 1.39-1.3 1.49-.8.1-1.3-.39-1.58-1.18-1.5-4.25-2.02-4.6-6.52-4.53-1.38.02-2.76-.18-4.11.28-2.13.72-3.56 2.73-3.36 4.8.21 2.21 1.96 4.09 4.21 4.3 1.57.15 3.16.07 4.74.09 4.77.05 8.25 3.11 8.4 7.38.16 4.5-2.93 7.66-7.88 8.06-.19.02-.38.07-.59.12-.43.88-.15 1.81-.22 2.71-.07.93-.51 1.52-1.47 1.5-.95-.01-1.42-.6-1.43-1.53-.01-.85 0-1.69 0-2.65-1.38-.25-2.72-.2-3.91-.78-2.5-1.23-3.95-3.19-4.31-5.96-.14-1.05.21-1.92 1.32-2.06 1.03-.13 1.45.64 1.68 1.57.78 3.18 2.14 4.19 5.43 4.16 1.18-.01 2.37.05 3.55-.02 2.88-.18 5.03-2.34 4.93-4.9-.1-2.54-2.2-4.46-5.03-4.56-1.84-.06-3.71.09-5.52-.16-4.27-.59-6.99-3.9-6.83-8.04.15-3.9 3.29-6.93 7.49-7.24.32-.02.64-.05.97-.08.45-.93.17-1.86.24-2.76.07-.94.51-1.52 1.46-1.52s1.43.59 1.44 1.52c0 .85-.02 1.7-.02 2.66z"/></g></svg>