<svg enable-background="new 0 0 80 80" viewBox="0 0 80 80" xmlns="http://www.w3.org/2000/svg"><path d="m76.87.02c.03-.01.08-.02.12-.01 2.22.21 3.53 2.34 2.68 4.45-2.04 5.04-4.08 10.09-6.12 15.14-7.75 19.24-15.49 38.49-23.24 57.73-.1.24-.19.49-.29.74-.45 1.03-1.18 1.7-2.21 1.88-1.4.25-2.76-.6-3.39-1.87-1.36-2.79-2.72-5.58-4.08-8.38-3.12-6.41-6.23-12.83-9.38-19.23-.29-.6-.78-1.08-1.38-1.37-9.1-4.46-18.21-8.9-27.34-13.31-1.31-.63-2.22-1.5-2.18-3 .04-1.55 1.02-2.36 2.41-2.92 24.06-9.66 48.11-19.34 72.16-29.01.75-.29 1.5-.56 2.24-.84zm-29.69 69.16c7.01-17.44 13.95-34.7 20.97-52.17.1-.25-.22-.46-.4-.27-10.51 10.5-20.83 20.82-31.19 31.18-.07.07-.09.19-.05.28 3.36 6.91 6.76 13.88 10.22 20.99.09.2.37.19.45-.01zm15.9-56.6c-.19-.29-.15-.23-.34-.51l-51.82 20.85c-.2.08-.21.36-.01.45 7.15 3.48 14.1 6.86 20.95 10.19.09.05.21.03.28-.05 10.35-10.35 20.65-20.64 30.94-30.93z" fill="#020202"/></svg>