<svg width="212" height="218" viewBox="0 0 212 218" fill="none" xmlns="http://www.w3.org/2000/svg">
<path d="M92.4556 116.306L111.889 135.739L144.278 96.8725" stroke="#31A44A" stroke-width="10" stroke-linecap="round" stroke-linejoin="round"/>
<path d="M118.367 177.845C154.143 177.845 183.145 148.843 183.145 113.067C183.145 77.2911 154.143 48.289 118.367 48.289C82.5909 48.289 53.5889 77.2911 53.5889 113.067C53.5889 148.843 82.5909 177.845 118.367 177.845Z" stroke="#31A44A" stroke-width="10"/>
<path d="M29.0994 57.3351C28.5279 55.2024 26.3211 53.9172 24.1753 54.4921C22.0326 55.0663 20.7483 57.284 21.3328 59.4177L23.5464 67.6791L15.2835 69.8931C13.1509 70.4645 11.8657 72.6713 12.4406 74.8172C13.0123 76.9509 15.231 78.2318 17.3647 77.6601L25.6276 75.4461L27.8386 83.6978C28.41 85.8305 30.6168 87.1157 32.7627 86.5407C34.8953 85.9693 36.1806 83.7625 35.6056 81.6166L33.3945 73.3649L41.6463 71.1539C43.7789 70.5824 45.0642 68.3756 44.4892 66.2298C43.9178 64.0971 41.711 62.8119 39.5651 63.3869L31.3134 65.5979L29.0994 57.3351Z" fill="#31A44A" stroke="#31A44A"/>
<path d="M192.77 182.665C193.745 181.131 193.296 179.076 191.752 178.095C190.21 177.114 188.149 177.571 187.182 179.113L183.093 185.544L176.661 181.455C175.127 180.479 173.072 180.929 172.091 182.472C171.115 184.007 171.574 186.067 173.108 187.042L179.54 191.132L175.456 197.555C174.481 199.089 174.93 201.144 176.474 202.125C178.008 203.101 180.063 202.651 181.044 201.108L185.128 194.684L191.551 198.768C193.085 199.744 195.14 199.294 196.121 197.751C197.097 196.217 196.647 194.162 195.104 193.181L188.68 189.097L192.77 182.665Z" fill="#C4D627" stroke="#C4D627" stroke-width="0.5"/>
<path d="M81.9316 14.884C82.66 13.7383 82.3245 12.2041 81.1718 11.4712C80.0204 10.7392 78.4817 11.0801 77.7586 12.2317L74.8267 16.8432L70.2145 13.9109C69.0688 13.1825 67.5346 13.518 66.8018 14.6707C66.0731 15.8168 66.4155 17.3548 67.5616 18.0834L72.1738 21.0158L69.2453 25.6218C68.5169 26.7675 68.8525 28.3017 70.0051 29.0346C71.1508 29.763 72.685 29.4274 73.4179 28.2747L76.3464 23.6687L80.9524 26.5972C82.098 27.3256 83.6323 26.99 84.3651 25.8373C85.0935 24.6917 84.758 23.1575 83.6053 22.4246L78.9992 19.4961L81.9316 14.884Z" fill="#C4D627" stroke="#C4D627" stroke-width="0.5"/>
</svg>
