<svg width="105" height="109" viewBox="0 0 105 109" fill="none" xmlns="http://www.w3.org/2000/svg">
<path d="M50.6531 31.5386C46.1785 32.7718 41.7343 34.1128 37.3243 35.5603C36.9216 35.6907 36.5637 35.9316 36.2912 36.2556C36.0188 36.5795 35.8428 36.9735 35.7833 37.3926C33.1805 56.923 39.1942 71.1726 46.3684 80.5596C49.4058 84.5737 53.0276 88.11 57.1131 91.0507C58.7387 92.1971 60.1764 93.0239 61.3086 93.5548C61.8724 93.8226 62.3328 94.0012 62.6852 94.1092C62.8393 94.1633 62.9982 94.2026 63.1597 94.2267C63.3193 94.2007 63.4765 94.1615 63.6295 94.1092C63.9866 94.0012 64.447 93.8226 65.0108 93.5548C66.1384 93.0239 67.5807 92.1924 69.2063 91.0507C73.2918 88.11 76.9136 84.5737 79.9511 80.5596C87.1252 71.1773 93.1389 56.923 90.5361 37.3926C90.4772 36.9733 90.3014 36.5791 90.0289 36.255C89.7563 35.931 89.3981 35.6902 88.9951 35.5603C85.9366 34.5596 80.7733 32.9293 75.6663 31.5433C70.4513 30.1292 65.6545 29.0815 63.1597 29.0815C60.6697 29.0815 55.8681 30.1292 50.6531 31.5433V31.5386ZM49.4034 26.6995C54.5009 25.3135 59.918 24.0685 63.1597 24.0685C66.4015 24.0685 71.8185 25.3135 76.916 26.6995C82.131 28.1089 87.3883 29.7768 90.4797 30.7869C91.7723 31.2137 92.9182 31.9965 93.7858 33.0453C94.6534 34.0941 95.2076 35.3664 95.3847 36.716C98.1848 57.7499 91.6872 73.3385 83.8036 83.651C80.4606 88.0626 76.4744 91.9474 71.9782 95.1757C70.4236 96.2929 68.7763 97.2752 67.0545 98.1121C65.739 98.7323 64.3249 99.2397 63.1597 99.2397C61.9946 99.2397 60.5851 98.7323 59.2649 98.1121C57.5431 97.2752 55.8959 96.2929 54.3412 95.1757C49.8451 91.9473 45.859 88.0625 42.5158 83.651C34.6322 73.3385 28.1346 57.7499 30.9348 36.716C31.1118 35.3664 31.666 34.0941 32.5336 33.0453C33.4013 31.9965 34.5472 31.2137 35.8397 30.7869C40.3274 29.3155 44.8499 27.9526 49.4034 26.6995Z" fill="#31A44A"/>
<path d="M70.207 54.6068C70.2078 56.0647 69.7563 57.4871 68.9149 58.6777C68.0734 59.8684 66.8834 60.7687 65.5088 61.2547L67.3176 70.6041C67.3834 70.9442 67.3732 71.2946 67.2877 71.6302C67.2023 71.9659 67.0436 72.2785 66.8232 72.5456C66.6027 72.8128 66.3259 73.0279 66.0126 73.1755C65.6993 73.3231 65.3572 73.3996 65.0108 73.3996H61.3086C60.9627 73.3989 60.6211 73.3219 60.3084 73.174C59.9956 73.0261 59.7194 72.8109 59.4995 72.5438C59.2795 72.2767 59.1213 71.9644 59.0361 71.6291C58.9509 71.2938 58.9408 70.9438 59.0065 70.6041L60.8106 61.2547C59.5927 60.8241 58.5165 60.067 57.6997 59.0661C56.883 58.0653 56.357 56.8591 56.1794 55.5796C56.0017 54.3 56.1792 52.9962 56.6924 51.8107C57.2057 50.6252 58.0349 49.6036 59.0894 48.8574C60.144 48.1113 61.3834 47.6694 62.6722 47.5801C63.9609 47.4907 65.2494 47.7573 66.3969 48.3507C67.5444 48.9441 68.5067 49.8415 69.1786 50.9448C69.8506 52.0481 70.2063 53.3149 70.207 54.6068Z" fill="#31A44A"/>
<path d="M9.198 26.527C8.91484 25.4702 7.82047 24.833 6.75742 25.1179C5.69436 25.4027 5.0589 26.5034 5.34835 27.5585L6.67482 32.5089L1.72437 33.8354C0.667598 34.1186 0.0304498 35.2129 0.315295 36.276C0.598455 37.3327 1.69911 37.9682 2.75588 37.685L7.70633 36.3586L9.03111 41.3027C9.31427 42.3595 10.4086 42.9966 11.4717 42.7118C12.5285 42.4286 13.1656 41.3343 12.8808 40.2712L11.556 35.3271L16.5001 34.0023C17.5569 33.7191 18.1941 32.6248 17.9092 31.5617C17.626 30.5049 16.5317 29.8678 15.4686 30.1526L10.5245 31.4774L9.198 26.527Z" fill="#31A44A"/>
<path d="M101.995 97.319C102.506 96.5164 102.27 95.4409 101.463 94.9275C100.656 94.4142 99.577 94.6543 99.0715 95.46L96.6809 99.2201L92.9208 96.8295C92.1181 96.3191 91.0427 96.5545 90.5293 97.3619C90.019 98.1646 90.2591 99.2431 91.0618 99.7534L94.8218 102.144L92.4343 105.899C91.9239 106.702 92.1593 107.777 92.9667 108.291C93.7694 108.801 94.8449 108.566 95.3582 107.758L97.7458 104.003L101.501 106.391C102.304 106.901 103.379 106.666 103.893 105.858C104.403 105.056 104.168 103.98 103.36 103.467L99.6048 101.079L101.995 97.319Z" fill="#C4D627"/>
<path d="M39.2569 2.34894C39.6274 1.76615 39.4565 0.985279 38.8703 0.612544C38.284 0.239809 37.501 0.414161 37.1339 0.999151L35.3982 3.72922L32.6681 1.99346C32.0853 1.62293 31.3044 1.79382 30.9317 2.38007C30.5612 2.96286 30.7355 3.74593 31.3183 4.11646L34.0484 5.85222L32.3148 8.57881C31.9443 9.1616 32.1152 9.94247 32.7014 10.3152C33.2842 10.6857 34.0651 10.5149 34.4378 9.9286L36.1714 7.202L38.898 8.93555C39.4807 9.30608 40.2616 9.1352 40.6344 8.54894C41.0049 7.96616 40.834 7.18529 40.2477 6.81255L37.5211 5.079L39.2569 2.34894Z" fill="#C4D627"/>
</svg>
