<svg width="104" height="109" viewBox="0 0 104 109" fill="none" xmlns="http://www.w3.org/2000/svg">
<path d="M37.5078 36.4916C41.9174 35.0441 46.3613 33.7032 50.8356 32.47V32.4747C56.0502 31.0606 60.8514 30.0129 63.3413 30.0129C65.8358 30.0129 70.6323 31.0606 75.847 32.4747C80.9535 33.8607 86.1165 35.4909 89.1748 36.4916C89.5777 36.6216 89.9359 36.8623 90.2084 37.1864C90.4809 37.5104 90.6567 37.9046 90.7157 38.3239C91.1178 41.3414 91.3142 44.2329 91.3325 47H96.225C96.2068 44.0118 95.9961 40.8945 95.5639 37.6474C95.3868 36.2978 94.8327 35.0255 93.9651 33.9767C93.0975 32.9279 91.9517 32.1452 90.6593 31.7183C87.5681 30.7082 82.3112 29.0404 77.0966 27.631C71.9994 26.245 66.5828 25 63.3413 25C60.0998 25 54.6831 26.245 49.586 27.631C45.0328 28.8841 40.5106 30.2469 36.0233 31.7183C34.7308 32.1452 33.585 32.9279 32.7175 33.9767C31.8499 35.0255 31.2958 36.2978 31.1187 37.6474C28.3188 58.6809 34.8159 74.2692 42.6989 84.5816C46.0418 88.993 50.0277 92.8777 54.5234 96.1061C56.078 97.2233 57.7251 98.2056 59.4468 99.0425C60.7669 99.6626 62.1762 100.17 63.3413 100.17C64.5063 100.17 65.9204 99.6626 67.2358 99.0425C68.9575 98.2056 70.6046 97.2232 72.1591 96.1061C76.655 92.8778 80.6409 88.9931 83.9837 84.5816C85.5093 82.5858 86.9831 80.3923 88.3475 78H82.5874C81.7925 79.2304 80.9699 80.3936 80.1314 81.4903C77.0941 85.5042 73.4726 89.0405 69.3874 91.9812C67.762 93.1228 66.3197 93.9544 65.1922 94.4853C64.6285 94.7531 64.1681 94.9316 63.8111 95.0396C63.658 95.0919 63.5009 95.1312 63.3413 95.1571C63.1798 95.133 63.0209 95.0937 62.8668 95.0396C62.5145 94.9316 62.0541 94.7531 61.4903 94.4853C60.3581 93.9544 58.9206 93.1275 57.2951 91.9812C53.2099 89.0405 49.5884 85.5043 46.5512 81.4903C39.3775 72.1034 33.3643 57.854 35.9669 38.3239C36.0264 37.9048 36.2023 37.5109 36.4748 37.1869C36.7472 36.863 37.1051 36.6221 37.5078 36.4916Z" fill="#31A44A"/>
<path d="M65.0208 53.1908C65.3427 53.3168 65.6351 53.5014 65.8813 53.7341C66.128 53.9662 66.3238 54.2419 66.4574 54.5455C66.591 54.8491 66.6598 55.1745 66.6598 55.5032C66.6598 55.8319 66.591 56.1573 66.4574 56.4609C66.3238 56.7645 66.128 57.0402 65.8813 57.2723L62.4524 60.5007L65.8813 63.729C66.1276 63.9613 66.3231 64.2371 66.4564 64.5407C66.5897 64.8442 66.6584 65.1696 66.6584 65.4981C66.6584 65.8267 66.5897 66.152 66.4564 66.4556C66.3231 66.7591 66.1276 67.0349 65.8813 67.2672C65.6349 67.4995 65.3424 67.6838 65.0205 67.8096C64.6986 67.9353 64.3536 68 64.0052 68C63.6568 68 63.3118 67.9353 62.9899 67.8096C62.668 67.6838 62.3755 67.4995 62.1291 67.2672L58.7055 64.0339L55.2819 67.2672C55.0356 67.4995 54.7431 67.6838 54.4212 67.8096C54.0993 67.9353 53.7543 68 53.4058 68C52.7022 68 52.0273 67.7364 51.5298 67.2672C51.2834 67.0349 51.088 66.7591 50.9546 66.4556C50.8213 66.152 50.7527 65.8267 50.7527 65.4981C50.7527 65.1696 50.8213 64.8442 50.9546 64.5407C51.088 64.2371 51.2834 63.9613 51.5298 63.729L54.9587 60.5007L51.5298 57.2723C51.2834 57.04 51.088 56.7642 50.9546 56.4606C50.8213 56.1571 50.7527 55.8318 50.7527 55.5032C50.7527 55.1746 50.8213 54.8493 50.9546 54.5458C51.088 54.2422 51.2834 53.9664 51.5298 53.7341C51.7761 53.5018 52.0686 53.3175 52.3905 53.1918C52.7124 53.066 53.0574 53.0013 53.4058 53.0013C53.7543 53.0013 54.0993 53.066 54.4212 53.1918C54.7431 53.3175 55.0356 53.5018 55.2819 53.7341L58.7055 56.9675L62.1291 53.7341C62.3752 53.5014 62.6677 53.3168 62.9896 53.1908C63.3115 53.0648 63.6566 53 64.0052 53C64.3537 53 64.6988 53.0648 65.0208 53.1908Z" fill="#31A44A"/>
<path d="M84.1885 53.1918C83.8666 53.3175 83.5741 53.5018 83.3278 53.7341L79.9042 56.9675L76.4806 53.7341C76.2342 53.5018 75.9417 53.3175 75.6198 53.1918C75.2979 53.066 74.9529 53.0013 74.6045 53.0013C74.2561 53.0013 73.9111 53.066 73.5892 53.1918C73.2673 53.3175 72.9748 53.5018 72.7284 53.7341C72.4821 53.9664 72.2866 54.2422 72.1533 54.5458C72.02 54.8493 71.9513 55.1746 71.9513 55.5032C71.9513 55.8318 72.02 56.1571 72.1533 56.4606C72.2866 56.7642 72.4821 57.04 72.7284 57.2723L76.1573 60.5007L72.7284 63.729C72.4821 63.9613 72.2866 64.2371 72.1533 64.5407C72.02 64.8442 71.9513 65.1696 71.9513 65.4981C71.9513 65.8267 72.02 66.152 72.1533 66.4556C72.2866 66.7591 72.4821 67.0349 72.7284 67.2672C72.9748 67.4995 73.2673 67.6838 73.5892 67.8096C73.9111 67.9353 74.2561 68 74.6045 68C74.9529 68 75.2979 67.9353 75.6198 67.8096C75.9417 67.6838 76.2342 67.4995 76.4806 67.2672L79.9042 64.0339L83.3278 67.2672C83.8253 67.7364 84.5002 68 85.2038 68C85.9075 68 86.5824 67.7364 87.0799 67.2672C87.5775 66.798 87.857 66.1617 87.857 65.4981C87.857 64.8346 87.5775 64.1982 87.0799 63.729L83.651 60.5007L87.0799 57.2723C87.3263 57.04 87.5217 56.7642 87.6551 56.4606C87.7884 56.1571 87.857 55.8318 87.857 55.5032C87.857 55.1746 87.7884 54.8493 87.6551 54.5458C87.5217 54.2422 87.3263 53.9664 87.0799 53.7341C86.8336 53.5018 86.5411 53.3175 86.2192 53.1918C85.8973 53.066 85.5523 53.0013 85.2038 53.0013C84.8554 53.0013 84.5104 53.066 84.1885 53.1918Z" fill="#31A44A"/>
<path d="M93.9295 63.7313C94.4264 63.2626 95.1004 62.9994 95.8032 62.9994H101.103C101.806 62.9994 102.48 63.2626 102.977 63.7313C103.473 64.1999 103.753 64.8354 103.753 65.4981C103.753 66.1608 103.473 66.7964 102.977 67.265C102.48 67.7336 101.806 67.9968 101.103 67.9968H95.8032C95.1004 67.9968 94.4264 67.7336 93.9295 67.265C93.4325 66.7964 93.1533 66.1608 93.1533 65.4981C93.1533 64.8354 93.4325 64.1999 93.9295 63.7313Z" fill="#31A44A"/>
<path d="M8.95068 26.527C8.66752 25.4702 7.57316 24.8331 6.5101 25.1179C5.44704 25.4027 4.81158 26.5034 5.10103 27.5585L6.4275 32.5089L1.47705 33.8354C0.420284 34.1186 -0.216865 35.2129 0.0679807 36.276C0.351141 37.3327 1.45179 37.9682 2.50856 37.685L7.45901 36.3586L8.7838 41.3027C9.06696 42.3595 10.1613 42.9967 11.2244 42.7118C12.2811 42.4286 12.9183 41.3343 12.6334 40.2712L11.3087 35.3271L16.2528 34.0023C17.3096 33.7191 17.9467 32.6248 17.6619 31.5617C17.3787 30.5049 16.2844 29.8678 15.2213 30.1526L10.2772 31.4774L8.95068 26.527Z" fill="#31A44A"/>
<path d="M101.748 97.319C102.258 96.5164 102.023 95.4409 101.216 94.9275C100.408 94.4142 99.3297 94.6543 98.8242 95.46L96.4336 99.2201L92.6735 96.8295C91.8708 96.3191 90.7954 96.5545 90.282 97.3619C89.7717 98.1646 90.0118 99.2431 90.8145 99.7534L94.5745 102.144L92.1869 105.899C91.6766 106.702 91.912 107.777 92.7194 108.291C93.5221 108.801 94.5975 108.566 95.1109 107.758L97.4985 104.003L101.254 106.391C102.056 106.901 103.132 106.666 103.645 105.858C104.156 105.056 103.92 103.98 103.113 103.467L99.3575 101.079L101.748 97.319Z" fill="#C4D627"/>
<path d="M39.0096 2.34894C39.3801 1.76616 39.2092 0.985286 38.623 0.612551C38.0367 0.239817 37.2536 0.414169 36.8866 0.999159L35.1508 3.72923L32.4208 1.99347C31.838 1.62294 31.0571 1.79383 30.6844 2.38008C30.3138 2.96286 30.4882 3.74594 31.071 4.11647L33.8011 5.85222L32.0675 8.57882C31.697 9.16161 31.8679 9.94248 32.4541 10.3152C33.0369 10.6857 33.8178 10.5149 34.1905 9.92861L35.924 7.20201L38.6506 8.93556C39.2334 9.30609 40.0143 9.1352 40.387 8.54895C40.7576 7.96617 40.5867 7.18529 40.0004 6.81256L37.2738 5.07901L39.0096 2.34894Z" fill="#C4D627"/>
</svg>
