<svg width="165" height="170" viewBox="0 0 165 170" fill="none" xmlns="http://www.w3.org/2000/svg">
<path d="M92.1248 138.417C119.969 138.417 142.542 115.845 142.542 88.0002C142.542 60.1558 119.969 37.5835 92.1248 37.5835C64.2804 37.5835 41.708 60.1558 41.708 88.0002C41.708 115.845 64.2804 138.417 92.1248 138.417Z" stroke="#31A44A" stroke-width="5"/>
<path d="M91.4491 76.533C96.0162 76.533 99.7186 72.8307 99.7186 68.2636C99.7186 63.6965 96.0162 59.9941 91.4491 59.9941C86.882 59.9941 83.1797 63.6965 83.1797 68.2636C83.1797 72.8307 86.882 76.533 91.4491 76.533Z" stroke="#31A44A" stroke-width="4"/>
<path d="M69.3968 84.8023C72.4415 84.8023 74.9097 82.3341 74.9097 79.2893C74.9097 76.2446 72.4415 73.7764 69.3968 73.7764C66.352 73.7764 63.8838 76.2446 63.8838 79.2893C63.8838 82.3341 66.352 84.8023 69.3968 84.8023Z" stroke="#31A44A" stroke-width="4"/>
<path d="M113.501 84.8023C116.546 84.8023 119.014 82.3341 119.014 79.2893C119.014 76.2446 116.546 73.7764 113.501 73.7764C110.457 73.7764 107.988 76.2446 107.988 79.2893C107.988 82.3341 110.457 84.8023 113.501 84.8023Z" stroke="#31A44A" stroke-width="4"/>
<path d="M113.501 93.0718H114.344C115.649 93.0716 116.912 93.5344 117.908 94.3778C118.904 95.2213 119.568 96.3906 119.783 97.6779L120.701 103.191C120.832 103.981 120.791 104.79 120.578 105.562C120.365 106.334 119.987 107.05 119.469 107.661C118.952 108.272 118.307 108.763 117.581 109.1C116.854 109.436 116.063 109.611 115.262 109.611H105.231M69.3971 93.0718H68.5536C67.2486 93.0716 65.9858 93.5344 64.99 94.3778C63.9941 95.2213 63.3298 96.3906 63.1151 97.6779L62.1972 103.191C62.0654 103.981 62.1074 104.79 62.32 105.562C62.5327 106.334 62.911 107.05 63.4286 107.661C63.9462 108.272 64.5907 108.763 65.3172 109.1C66.0438 109.436 66.8349 109.611 67.6357 109.611H77.6666L69.3971 93.0718Z" stroke="#31A44A" stroke-width="4" stroke-linecap="round" stroke-linejoin="round"/>
<path d="M104.457 108.927L102.692 94.8031C102.442 92.8025 101.47 90.9622 99.9584 89.6282C98.4467 88.2941 96.4997 87.5583 94.4835 87.5591H88.4083C86.3931 87.5597 84.4474 88.2961 82.9369 89.63C81.4263 90.9639 80.4548 92.8035 80.205 94.8031L78.4381 108.927C78.3411 109.703 78.4103 110.491 78.6411 111.238C78.872 111.985 79.2591 112.675 79.7769 113.261C80.2947 113.847 80.9312 114.316 81.6442 114.637C82.3572 114.959 83.1304 115.124 83.9124 115.124H98.9849C99.7667 115.124 100.54 114.958 101.252 114.637C101.965 114.315 102.601 113.846 103.119 113.26C103.636 112.674 104.023 111.985 104.254 111.238C104.484 110.491 104.553 109.703 104.457 108.927V108.927Z" stroke="#31A44A" stroke-width="4" stroke-linecap="round" stroke-linejoin="round"/>
<path d="M22.7553 44.5956C22.2948 42.8769 20.5166 41.8412 18.7872 42.3046C17.0608 42.7672 16.0254 44.5538 16.4965 46.2742L18.1906 52.5967L11.8667 54.2912C10.1479 54.7517 9.11226 56.5299 9.57567 58.2594C10.0365 59.9791 11.8241 61.0112 13.5438 60.5504L19.8678 58.8559L21.5599 65.1712C22.0205 66.8899 23.7986 67.9256 25.5281 67.4622C27.2469 67.0016 28.2825 65.2235 27.8191 63.494L26.127 57.1787L32.4422 55.4866C34.161 55.026 35.1967 53.2479 34.7333 51.5184C34.2727 49.7996 32.4946 48.764 30.7651 49.2274L24.4498 50.9195L22.7553 44.5956Z" fill="#31A44A" stroke="#31A44A"/>
<path d="M150.08 142.198C150.855 140.978 150.498 139.345 149.271 138.564C148.045 137.785 146.407 138.148 145.637 139.374L142.485 144.333L137.525 141.18C136.306 140.404 134.672 140.761 133.892 141.989C133.116 143.209 133.481 144.846 134.701 145.622L139.66 148.775L136.511 153.728C135.736 154.947 136.093 156.581 137.32 157.361C138.54 158.136 140.174 157.779 140.954 156.552L144.103 151.599L149.055 154.748C150.275 155.524 151.908 155.166 152.689 153.939C153.464 152.72 153.107 151.086 151.88 150.306L146.927 147.157L150.08 142.198Z" fill="#C4D627" stroke="#C4D627" stroke-width="0.5"/>
<path d="M63.814 11.6139C64.3972 10.6965 64.1286 9.46814 63.2055 8.88126L60.6839 9.62382L60.4729 9.48969L60.4725 9.49031L58.2204 13.0326L54.6775 10.78C53.7601 10.1968 52.5317 10.4654 51.9448 11.3885C51.3613 12.3063 51.6354 13.5375 52.5533 14.1211L56.0961 16.3736L53.8466 19.9117C53.2634 20.8291 53.532 22.0575 54.4551 22.6444C55.3725 23.2277 56.6008 22.959 57.1877 22.036L59.4372 18.4979L62.9753 20.7474C63.8927 21.3306 65.1211 21.062 65.708 20.1389C66.2912 19.2215 66.0226 17.9932 65.0995 17.4063L61.5614 15.1568L63.814 11.6139Z" fill="#C4D627" stroke="#C4D627" stroke-width="0.5"/>
</svg>
