<svg xmlns="http://www.w3.org/2000/svg" width="19.016" height="14.262" viewBox="0 0 19.016 14.262">
  <g id="Icon_ionic-ios-camera" data-name="Icon ionic-ios-camera" transform="translate(-4.5 -7.875)">
    <path id="Path_55" data-name="Path 55" d="M19.652,18.14A2.847,2.847,0,1,1,16.8,15.293,2.847,2.847,0,0,1,19.652,18.14Z" transform="translate(-2.797 -2.194)" fill="#fff"/>
    <path id="Path_56" data-name="Path 56" d="M22.005,10.252h-2.7a.8.8,0,0,1-.594-.267c-1.406-1.575-1.936-2.11-2.511-2.11H11.968c-.579,0-1.149.535-2.56,2.114a.788.788,0,0,1-.589.262h-.2v-.4a.4.4,0,0,0-.4-.4H6.931a.4.4,0,0,0-.4.4v.4H6.164A1.606,1.606,0,0,0,4.5,11.772v8.715a1.714,1.714,0,0,0,1.659,1.649H22.005a1.587,1.587,0,0,0,1.51-1.649V11.772A1.476,1.476,0,0,0,22.005,10.252Zm-7.8,9.924a4.234,4.234,0,1,1,4.031-4.031A4.238,4.238,0,0,1,14.206,20.176Zm4.556-7.052a.644.644,0,1,1,.644-.644A.642.642,0,0,1,18.762,13.124Z" fill="#fff"/>
  </g>
</svg>
