<svg xmlns="http://www.w3.org/2000/svg" width="24" height="24" viewBox="0 0 24 24">
  <path id="Icon_awesome-donate" data-name="Icon awesome-donate" d="M12,19.5A9.75,9.75,0,1,0,2.25,9.75,9.749,9.749,0,0,0,12,19.5ZM10.959,4.566V3.778A.776.776,0,0,1,11.737,3h.52a.776.776,0,0,1,.778.778v.8a3.7,3.7,0,0,1,2.016.722.526.526,0,0,1,.056.8l-.764.727a.529.529,0,0,1-.656.047,1.543,1.543,0,0,0-.834-.239H11.03a.815.815,0,0,0-.764.858.847.847,0,0,0,.567.825l2.92.877A2.937,2.937,0,0,1,15.8,12.009a2.89,2.89,0,0,1-2.77,2.925v.788a.776.776,0,0,1-.778.778h-.52a.776.776,0,0,1-.778-.778v-.8A3.7,3.7,0,0,1,8.939,14.2a.526.526,0,0,1-.056-.8l.764-.727a.529.529,0,0,1,.656-.047,1.543,1.543,0,0,0,.834.239h1.823a.815.815,0,0,0,.764-.858.847.847,0,0,0-.567-.825l-2.92-.877A2.937,2.937,0,0,1,8.189,7.491a2.894,2.894,0,0,1,2.77-2.925ZM22.5,16.5H20.977a11.361,11.361,0,0,1-3.422,3h2.991a.418.418,0,0,1,.45.375v.75a.418.418,0,0,1-.45.375H3.45A.418.418,0,0,1,3,20.625v-.75a.418.418,0,0,1,.45-.375H6.441a11.417,11.417,0,0,1-3.422-3H1.5A1.5,1.5,0,0,0,0,18v4.5A1.5,1.5,0,0,0,1.5,24h21A1.5,1.5,0,0,0,24,22.5V18A1.5,1.5,0,0,0,22.5,16.5Z" fill="#cb911d"/>
</svg>
