<svg xmlns="http://www.w3.org/2000/svg" width="23.799" height="16.999" viewBox="0 0 23.799 16.999">
  <g id="Icon_ionic-ios-card" data-name="Icon ionic-ios-card" transform="translate(-2.25 -6.75)">
    <path id="Path_96" data-name="Path 96" d="M26.049,8.45a1.7,1.7,0,0,0-1.7-1.7H3.95a1.7,1.7,0,0,0-1.7,1.7V11h23.8Z" transform="translate(0 0)" fill="#2e556a"/>
    <path id="Path_97" data-name="Path 97" d="M2.25,24.25a1.7,1.7,0,0,0,1.7,1.7h20.4a1.7,1.7,0,0,0,1.7-1.7v-8.5H2.25ZM9.793,21.7h8.712a.746.746,0,0,1,.744.744h0a.746.746,0,0,1-.744.744H9.793a.746.746,0,0,1-.744-.744h0A.746.746,0,0,1,9.793,21.7Zm-3.825,0h.637a.746.746,0,0,1,.744.744h0a.746.746,0,0,1-.744.744H5.969a.746.746,0,0,1-.744-.744h0A.746.746,0,0,1,5.969,21.7Z" transform="translate(0 -2.2)" fill="#2e556a"/>
  </g>
</svg>
