<svg width="72" height="72" viewBox="0 0 72 72" fill="none" xmlns="http://www.w3.org/2000/svg">
<rect x="6.98828" y="7.81299" width="57.4391" height="57.4391" rx="10" fill="#F79B2B"/>
<path fill-rule="evenodd" clip-rule="evenodd" d="M38.5538 7.81274H54.4274C59.9502 7.81274 64.4274 12.2899 64.4274 17.8127V31.1686C61.7335 32.727 58.6059 33.6189 55.27 33.6189C45.1555 33.6189 36.9561 25.4195 36.9561 15.305C36.9561 12.6357 37.5271 10.0998 38.5538 7.81274Z" fill="black" fill-opacity="0.1"/>
<path fill-rule="evenodd" clip-rule="evenodd" d="M40.234 65.252C39.376 51.7755 28.1739 41.1106 14.4808 41.1106C11.8751 41.1106 9.35951 41.4968 6.98828 42.2151V52.9958C9.21806 51.7932 11.7697 51.1106 14.4808 51.1106C22.648 51.1106 29.3684 57.305 30.2002 65.252H40.234Z" fill="black" fill-opacity="0.05"/>
<circle cx="26.9664" cy="21.9644" r="4.9947" fill="black" fill-opacity="0.1"/>
<circle cx="43.6159" cy="51.1003" r="3.3298" fill="black" fill-opacity="0.07"/>
<path d="M48.0133 29.3349C47.5627 25.4604 44.1936 24.201 39.9321 23.9093L39.8467 18.5033L36.5713 18.5584L36.6653 23.821C35.8011 23.8411 34.915 23.867 34.0348 23.9148L33.9349 18.6303L30.6595 18.6854L30.7609 24.0635C30.0401 24.0922 29.3411 24.1149 28.6641 24.1318L28.6582 24.1099L24.1224 24.1972L24.1924 27.7037C24.1924 27.7037 26.6138 27.6189 26.5758 27.6526C27.9079 27.6247 28.3504 28.3991 28.4829 29.0687L28.5809 35.2233C28.6745 35.2217 28.79 35.2143 28.9392 35.2448C28.8237 35.2523 28.7081 35.2597 28.5868 35.2452L28.7316 43.8549C28.678 44.2688 28.4361 44.9447 27.5221 44.9546C27.5558 44.9925 25.1387 45.0057 25.1387 45.0057L24.5497 48.9472L28.8327 48.8807C29.6311 48.8782 30.4017 48.8598 31.1781 48.8632L31.2753 54.313L34.5507 54.2579L34.4653 48.852C35.3573 48.848 36.2493 48.844 37.0915 48.8298L37.193 54.208L40.4684 54.1529L40.3713 48.7031C45.8982 48.2797 49.7393 46.8275 50.1089 41.6286C50.4241 37.4549 48.4274 35.6163 45.2768 34.9094C47.1926 33.9025 48.3472 32.1596 48.0133 29.3349V29.3349ZM43.6186 41.088C43.6981 45.156 36.6992 44.8222 34.4751 44.8541L34.3481 37.6262C36.5721 37.5943 43.558 36.827 43.6186 41.088ZM41.9219 30.8965C41.979 34.618 36.1529 34.2755 34.3031 34.3011L34.1929 27.7502C36.0427 27.7246 41.8515 27.0377 41.9219 30.8965Z" fill="white"/>
</svg>
