<svg width="14" height="20" viewBox="0 0 14 20" fill="none" xmlns="http://www.w3.org/2000/svg">
<path d="M12.7324 6.15385C12.867 7.61218 12.3772 8.64583 11.2629 9.25481C12.1379 9.47917 12.7923 9.89183 13.226 10.4928C13.6598 11.0938 13.828 11.9511 13.7308 13.0649C13.6785 13.6338 13.5569 14.1346 13.3662 14.5673C13.1755 15 12.9344 15.3566 12.6427 15.637C12.351 15.9175 11.9883 16.1518 11.5545 16.3401C11.1208 16.5284 10.6665 16.6667 10.1916 16.7548C9.71667 16.8429 9.1726 16.903 8.55935 16.9351V20H6.83179V16.9832C6.2335 16.9832 5.7773 16.9792 5.4632 16.9712V20H3.73563V16.9351C3.60102 16.9351 3.39909 16.9331 3.12986 16.9291C2.86063 16.9251 2.65497 16.9231 2.51288 16.9231H0.269287L0.617044 14.7236H1.86224C2.23617 14.7236 2.45305 14.5192 2.51288 14.1106V9.27885H2.69236C2.64749 9.27083 2.58766 9.26683 2.51288 9.26683V5.81731C2.41565 5.27244 2.08286 5 1.51448 5H0.269287V3.02885L2.64749 3.04087C3.12612 3.04087 3.48884 3.03686 3.73563 3.02885V0H5.4632V2.96875C6.07645 2.95272 6.53264 2.94471 6.83179 2.94471V0H8.55935V3.02885C9.15016 3.08494 9.67367 3.17508 10.1299 3.29928C10.5861 3.42348 11.0086 3.60377 11.3975 3.84014C11.7864 4.07652 12.0949 4.38902 12.323 4.77764C12.5511 5.16627 12.6876 5.625 12.7324 6.15385ZM10.3206 12.7043C10.3206 12.4159 10.2645 12.1595 10.1523 11.9351C10.0401 11.7107 9.90177 11.5264 9.73724 11.3822C9.57271 11.238 9.3577 11.1158 9.0922 11.0156C8.82671 10.9155 8.58179 10.8413 8.35743 10.7933C8.13307 10.7452 7.85636 10.7091 7.5273 10.6851C7.19824 10.6611 6.94023 10.649 6.75326 10.649C6.5663 10.649 6.32511 10.653 6.0297 10.6611C5.7343 10.6691 5.55668 10.6731 5.49685 10.6731V14.7356C5.55668 14.7356 5.69503 14.7376 5.91192 14.7416C6.1288 14.7456 6.30828 14.7476 6.45038 14.7476C6.59247 14.7476 6.79065 14.7416 7.04493 14.7296C7.2992 14.7175 7.51795 14.7015 7.70118 14.6815C7.8844 14.6615 8.09755 14.6274 8.3406 14.5793C8.58366 14.5312 8.79119 14.4752 8.9632 14.4111C9.13521 14.347 9.31282 14.2628 9.49605 14.1587C9.67928 14.0545 9.82698 13.9343 9.93916 13.7981C10.0513 13.6619 10.143 13.5016 10.214 13.3173C10.285 13.133 10.3206 12.9287 10.3206 12.7043ZM9.52409 6.98317C9.52409 6.71875 9.47735 6.48438 9.38387 6.28005C9.29039 6.07572 9.17634 5.90745 9.04172 5.77524C8.90711 5.64303 8.72762 5.53085 8.50326 5.4387C8.2789 5.34655 8.07324 5.28045 7.88627 5.24038C7.69931 5.20032 7.46934 5.16827 7.19637 5.14423C6.9234 5.12019 6.70652 5.11018 6.54573 5.11418C6.38494 5.11819 6.18302 5.1222 5.93996 5.1262C5.6969 5.13021 5.5492 5.13221 5.49685 5.13221V8.82212C5.53424 8.82212 5.66325 8.82412 5.88387 8.82812C6.10449 8.83213 6.27837 8.83213 6.40551 8.82812C6.53264 8.82412 6.71961 8.81611 6.9664 8.80409C7.2132 8.79207 7.41886 8.77003 7.58339 8.73798C7.74792 8.70593 7.94049 8.66186 8.16111 8.60577C8.38173 8.54968 8.56309 8.47556 8.70518 8.38341C8.84728 8.29127 8.98563 8.18309 9.12025 8.05889C9.25486 7.9347 9.35583 7.78045 9.42313 7.59615C9.49044 7.41186 9.52409 7.20753 9.52409 6.98317Z" fill="#DB5C00"/>
</svg>
