<svg width="21" height="21" viewBox="0 0 21 21" fill="none" xmlns="http://www.w3.org/2000/svg">
<path d="M18.1666 13.3751V6.18762L12.177 2.8186M8.82284 2.8186L2.83325 6.18762V13.3751M4.27075 15.6215L10.4999 19.1251L14.3333 16.9689L16.7291 15.621M10.4999 7.14596V3.79179M13.3749 11.9376L16.7291 13.8543M7.62492 11.9376L4.27075 13.8543M9.06242 7.9845L7.62492 8.82304V12.1772L9.06242 13.0157L10.4999 13.8543L11.9374 13.0157L13.3749 12.1772V8.82304L11.9374 7.9845L10.4999 7.14596L9.06242 7.9845Z" stroke="#27346A" stroke-width="1.8" stroke-linecap="round" stroke-linejoin="round"/>
<path d="M10.5 3.79175C11.2939 3.79175 11.9375 3.14816 11.9375 2.35425C11.9375 1.56034 11.2939 0.916748 10.5 0.916748C9.70609 0.916748 9.0625 1.56034 9.0625 2.35425C9.0625 3.14816 9.70609 3.79175 10.5 3.79175Z" stroke="#27346A" stroke-width="1.8" stroke-linecap="round" stroke-linejoin="round"/>
<path d="M2.83325 16.25C3.62716 16.25 4.27075 15.6064 4.27075 14.8125C4.27075 14.0186 3.62716 13.375 2.83325 13.375C2.03934 13.375 1.39575 14.0186 1.39575 14.8125C1.39575 15.6064 2.03934 16.25 2.83325 16.25Z" stroke="#27346A" stroke-width="1.8" stroke-linecap="round" stroke-linejoin="round"/>
<path d="M18.1665 16.25C18.9604 16.25 19.604 15.6064 19.604 14.8125C19.604 14.0186 18.9604 13.375 18.1665 13.375C17.3726 13.375 16.729 14.0186 16.729 14.8125C16.729 15.6064 17.3726 16.25 18.1665 16.25Z" stroke="#27346A" stroke-width="1.8" stroke-linecap="round" stroke-linejoin="round"/>
</svg>
