<svg width="20" height="20" viewBox="0 0 20 20" fill="none" xmlns="http://www.w3.org/2000/svg">
<path d="M6 5L4 0L8 2L10 0L12 2L16 0L14 5H6ZM14 20H6C0 20 1 16 1 16C1 16 2 9 6 7H14C18 9 19 16 19 16C19 16 20 20 14 20ZM5.5 10.5C5.5 10.8978 5.65804 11.2794 5.93934 11.5607C6.22064 11.842 6.60218 12 7 12C7.39782 12 7.77936 11.842 8.06066 11.5607C8.34196 11.2794 8.5 10.8978 8.5 10.5C8.5 10.1022 8.34196 9.72064 8.06066 9.43934C7.77936 9.15804 7.39782 9 7 9C6.60218 9 6.22064 9.15804 5.93934 9.43934C5.65804 9.72064 5.5 10.1022 5.5 10.5ZM14.5 16.5C14.5 16.1022 14.342 15.7206 14.0607 15.4393C13.7794 15.158 13.3978 15 13 15C12.6022 15 12.2206 15.158 11.9393 15.4393C11.658 15.7206 11.5 16.1022 11.5 16.5C11.5 16.8978 11.658 17.2794 11.9393 17.5607C12.2206 17.842 12.6022 18 13 18C13.3978 18 13.7794 17.842 14.0607 17.5607C14.342 17.2794 14.5 16.8978 14.5 16.5ZM14.5 10.35L13.15 9L5.5 16.65L6.87 18L14.5 10.35Z" fill="#828282"/>
</svg>
