<svg width="18" height="24" viewBox="0 0 18 24" fill="none" xmlns="http://www.w3.org/2000/svg">
<path d="M17.125 0.625H3.51562C3.40391 0.625 3.3125 0.716406 3.3125 0.828125V2.25C3.3125 2.36172 3.40391 2.45312 3.51562 2.45312H16.1094V19.9219C16.1094 20.0336 16.2008 20.125 16.3125 20.125H17.7344C17.8461 20.125 17.9375 20.0336 17.9375 19.9219V1.4375C17.9375 0.988086 17.5744 0.625 17.125 0.625ZM13.875 3.875H0.875C0.425586 3.875 0.0625 4.23809 0.0625 4.6875V18.1623C0.0625 18.3781 0.148828 18.5838 0.301172 18.7361L4.70137 23.1363C4.75723 23.1922 4.8207 23.2379 4.88926 23.276V23.3242H4.9959C5.08477 23.3572 5.17871 23.375 5.2752 23.375H13.875C14.3244 23.375 14.6875 23.0119 14.6875 22.5625V4.6875C14.6875 4.23809 14.3244 3.875 13.875 3.875ZM4.88672 20.7395L2.70059 18.5508H4.88672V20.7395ZM12.8594 21.5469H6.51172V17.9414C6.51172 17.3803 6.05723 16.9258 5.49609 16.9258H1.89062V5.70312H12.8594V21.5469Z" fill="#828282"/>
</svg>
