<svg width="20" height="22" viewBox="0 0 20 22" fill="none" xmlns="http://www.w3.org/2000/svg">
<path d="M13.5685 15.125C12.9839 18.9621 11.6048 21.6562 10 21.6562C8.39516 21.6562 7.01613 18.9621 6.43145 15.125H13.5685ZM6.12903 11C6.12903 10.0461 6.17742 9.13086 6.2621 8.25H13.7339C13.8185 9.13086 13.8669 10.0461 13.8669 11C13.8669 11.9539 13.8185 12.8691 13.7339 13.75H6.2621C6.17742 12.8691 6.12903 11.9539 6.12903 11ZM19.2218 15.125C18.0686 18.0426 15.7339 20.2984 12.8508 21.2094C13.8347 19.757 14.5121 17.5699 14.8669 15.125H19.2218ZM7.14516 21.2094C4.26613 20.2984 1.92742 18.0426 0.778226 15.125H5.13306C5.48387 17.5699 6.16129 19.757 7.14516 21.2094ZM19.6532 13.75H15.0282C15.1129 12.8477 15.1613 11.9238 15.1613 11C15.1613 10.0762 15.1129 9.15234 15.0282 8.25H19.6492C19.871 9.13086 19.996 10.0461 19.996 11C19.996 11.9539 19.871 12.8691 19.6532 13.75ZM4.83871 11C4.83871 11.9238 4.8871 12.8477 4.97177 13.75H0.346774C0.129032 12.8691 0 11.9539 0 11C0 10.0461 0.129032 9.13086 0.346774 8.25H4.96774C4.8871 9.15234 4.83871 10.0762 4.83871 11ZM6.43145 6.875C7.01613 3.03789 8.39516 0.34375 10 0.34375C11.6048 0.34375 12.9839 3.03789 13.5685 6.875H6.43145ZM12.8548 0.790625C15.7339 1.70156 18.0726 3.95742 19.2258 6.875H14.871C14.5161 4.43008 13.8387 2.24297 12.8548 0.790625ZM0.778226 6.875C1.93145 3.95742 4.26613 1.70156 7.14919 0.790625C6.16532 2.24297 5.4879 4.43008 5.13306 6.875H0.778226Z" fill="#828282"/>
</svg>
