<svg width="35" height="32" viewBox="0 0 35 32" fill="none" xmlns="http://www.w3.org/2000/svg">
<path d="M32.125 6.375H4.625C4.26033 6.375 3.91059 6.23013 3.65273 5.97227C3.39487 5.71441 3.25 5.36467 3.25 5C3.25 4.63533 3.39487 4.28559 3.65273 4.02773C3.91059 3.76987 4.26033 3.625 4.625 3.625H28C28.3647 3.625 28.7144 3.48013 28.9723 3.22227C29.2301 2.96441 29.375 2.61467 29.375 2.25C29.375 1.88533 29.2301 1.53559 28.9723 1.27773C28.7144 1.01987 28.3647 0.875 28 0.875H4.625C3.53238 0.879524 2.48579 1.31557 1.71318 2.08818C0.940574 2.86079 0.504524 3.90738 0.5 5V27C0.504524 28.0926 0.940574 29.1392 1.71318 29.9118C2.48579 30.6844 3.53238 31.1205 4.625 31.125H32.125C32.8543 31.125 33.5538 30.8353 34.0695 30.3195C34.5853 29.8038 34.875 29.1043 34.875 28.375V9.125C34.875 8.39565 34.5853 7.69618 34.0695 7.18046C33.5538 6.66473 32.8543 6.375 32.125 6.375ZM25.9375 20.8125C25.5296 20.8125 25.1308 20.6915 24.7916 20.4649C24.4525 20.2383 24.1881 19.9162 24.032 19.5393C23.8759 19.1624 23.835 18.7477 23.9146 18.3476C23.9942 17.9475 24.1906 17.58 24.4791 17.2916C24.7675 17.0031 25.135 16.8067 25.5351 16.7271C25.9352 16.6475 26.3499 16.6884 26.7268 16.8445C27.1037 17.0006 27.4258 17.265 27.6524 17.6041C27.879 17.9433 28 18.3421 28 18.75C28 19.297 27.7827 19.8216 27.3959 20.2084C27.0091 20.5952 26.4845 20.8125 25.9375 20.8125Z" fill="white"/>
</svg>
