<svg width="18" height="18" viewBox="0 0 18 18" fill="none" xmlns="http://www.w3.org/2000/svg">
<path fill-rule="evenodd" clip-rule="evenodd" d="M13.1887 0.363586C14.1968 0.569035 15.1298 1.04534 15.8874 1.74131C16.645 2.43727 17.1987 3.32656 17.4888 4.31359C17.7575 5.21859 17.7975 6.17609 17.605 7.10109C17.3268 8.36839 16.6265 9.5037 15.619 10.3212C14.6114 11.1387 13.3562 11.5899 12.0587 11.6011C11.5112 11.6011 10.9663 11.5223 10.4425 11.3636L9.4425 12.5361L8.96875 12.7548H7.75V14.6298L7.125 15.2548H5.25V17.1298L4.625 17.7548H0.875L0.25 17.1298V14.2461L0.4325 13.8048L6.65 7.58734C6.47355 7.019 6.38915 6.42609 6.4 5.83109C6.41139 4.99863 6.60629 4.17894 6.97079 3.43044C7.3353 2.68194 7.86043 2.02307 8.50877 1.5008C9.15711 0.978524 9.91268 0.605706 10.7216 0.408921C11.5306 0.212136 12.373 0.196229 13.1887 0.362336V0.363586ZM14.8362 9.36359C15.6215 8.72772 16.1675 7.84407 16.385 6.85734L16.39 6.86359C16.5449 6.14209 16.517 5.39333 16.3089 4.68534C16.1009 3.97735 15.7192 3.33258 15.1986 2.8096C14.6779 2.28663 14.0349 1.90203 13.3279 1.69075C12.6208 1.47948 11.8722 1.44823 11.15 1.59984C10.176 1.81602 9.30228 2.35186 8.66802 3.12203C8.03376 3.8922 7.6754 4.85244 7.65 5.84984C7.6375 6.41984 7.7375 6.98484 7.94875 7.51234L7.81125 8.19109L1.5 14.5048V16.5048H4V14.6298L4.625 14.0048H6.5V12.1298L7.125 11.5048H8.68125L9.77625 10.2348L10.4775 10.0598C10.983 10.2574 11.521 10.3583 12.0638 10.3573C13.0738 10.3496 14.0513 9.99923 14.8362 9.36359ZM13.7888 5.94859C13.8873 5.8124 13.9574 5.65773 13.9948 5.49383C14.0322 5.32994 14.0361 5.16018 14.0064 4.99472C13.9767 4.82926 13.9139 4.6715 13.8218 4.53087C13.7297 4.39024 13.6101 4.26963 13.4703 4.17626C13.3305 4.0829 13.1734 4.01869 13.0082 3.98748C12.843 3.95627 12.6732 3.9587 12.509 3.99463C12.3447 4.03055 12.1895 4.09924 12.0524 4.19657C11.9153 4.2939 11.7993 4.41788 11.7112 4.56109C11.5419 4.83657 11.4859 5.16697 11.555 5.48288C11.6241 5.79879 11.8129 6.07563 12.0819 6.25523C12.3508 6.43484 12.6788 6.50323 12.9971 6.44605C13.3154 6.38887 13.5992 6.21056 13.7888 5.94859Z" fill="#828282"/>
</svg>
