<svg width="30" height="34" viewBox="0 0 30 34" fill="none" xmlns="http://www.w3.org/2000/svg">
<path d="M13.657 11.7712H8.85379C8.56955 11.7712 8.33937 12.0014 8.33937 12.2857V32.9011C8.33937 33.1854 8.56955 33.4155 8.85379 33.4155H13.657C13.9412 33.4155 14.171 33.1854 14.171 32.9011V12.2853C14.171 12.0011 13.9409 11.7712 13.657 11.7712ZM21.1461 20.0059H16.343C16.0587 20.0059 15.8285 20.2361 15.8285 20.5203V32.9008C15.8285 33.185 16.0587 33.4152 16.343 33.4152H21.1461C21.4304 33.4152 21.6606 33.185 21.6606 32.9008V20.5203C21.6606 20.2361 21.4304 20.0059 21.1461 20.0059ZM28.6737 22.107H23.8706C23.5863 22.107 23.3561 22.3371 23.3561 22.6214V32.9008C23.3561 33.185 23.5863 33.4152 23.8706 33.4152H28.6734C28.9576 33.4152 29.1878 33.185 29.1878 32.9008V22.6214C29.1878 22.3375 28.9576 22.107 28.6737 22.107ZM6.12937 15.9491H1.32619C1.04195 15.9491 0.811768 16.1792 0.811768 16.4635V32.9008C0.811768 33.185 1.04195 33.4152 1.32619 33.4152H6.12937C6.41361 33.4152 6.64379 33.185 6.64379 32.9008V16.4635C6.64379 16.1796 6.41361 15.9491 6.12937 15.9491Z" fill="#F64D4D"/>
<path d="M26.6315 16.1052L21.5 17M26.6315 16.1052L24.842 10.7368M26.6315 16.1052L11.5 6.5L4.5 9.5L1.57886 2.2368" stroke="#F64D4D" stroke-width="2.5" stroke-linecap="round"/>
</svg>
