<svg width="14" height="18" viewBox="0 0 14 18" fill="none" xmlns="http://www.w3.org/2000/svg">
<path d="M11.8764 1.40103C11.1144 0.454418 9.73693 0.048584 7.97474 0.048584H2.86036C2.68601 0.048591 2.51738 0.116384 2.38479 0.239776C2.25219 0.363167 2.16434 0.534062 2.13701 0.721736L0.00747929 15.4416C-0.0348488 15.7319 0.171378 15.9947 0.441315 15.9947H3.59875L4.39172 10.513L4.36711 10.6847C4.4236 10.2972 4.72767 10.0114 5.08773 10.0114H6.58814C9.53568 10.0114 11.8437 8.70658 12.5178 4.93201C12.5379 4.82037 12.5552 4.71172 12.5702 4.60556C12.4851 4.55645 12.4851 4.55645 12.5702 4.60556C12.7709 3.21044 12.5688 2.2608 11.8764 1.40103Z" fill="#27346A"/>
<path d="M5.59988 4.10299C5.6862 4.0582 5.78061 4.03498 5.87621 4.03505H9.88579C10.3606 4.03505 10.8034 4.06872 11.2081 4.13971C11.3214 4.15939 11.434 4.18288 11.5459 4.21016C11.7046 4.24831 11.8613 4.29499 12.0157 4.35005C12.2147 4.42246 12.3999 4.5068 12.5702 4.60556C12.7709 3.20991 12.5688 2.2608 11.8764 1.40103C11.114 0.454418 9.73693 0.048584 7.97474 0.048584H2.85992C2.49981 0.048584 2.19345 0.334319 2.13701 0.721736L0.00747959 15.4411C-0.0348485 15.7318 0.171378 15.9943 0.440878 15.9943H3.59875L5.24392 4.62392C5.26009 4.51216 5.30094 4.40635 5.36295 4.31561C5.42496 4.22487 5.50627 4.1519 5.59988 4.10299Z" fill="#27346A"/>
<path d="M12.5177 4.93216C11.8435 8.7062 9.53561 10.0116 6.58801 10.0116H5.08716C4.7271 10.0116 4.42298 10.2973 4.36704 10.6848L3.38053 17.5007C3.34367 17.7547 3.52392 17.9849 3.75973 17.9849H6.42137C6.57384 17.9849 6.72129 17.9255 6.83721 17.8176C6.95312 17.7096 7.0299 17.5602 7.05372 17.396L7.07965 17.2482L7.58129 13.7831L7.61362 13.5916C7.63744 13.4275 7.71421 13.2781 7.83011 13.1701C7.94602 13.0622 8.09345 13.0028 8.24591 13.0028H8.64426C11.2226 13.0028 13.2415 11.8611 13.8315 8.55939C14.0777 7.17959 13.9503 6.02759 13.2989 5.21843C13.1013 4.97334 12.8559 4.77093 12.5701 4.60571C12.5546 4.7124 12.5378 4.82052 12.5177 4.93216Z" fill="#2790C3"/>
<path d="M11.8645 4.29914C11.7594 4.26568 11.6532 4.23606 11.5463 4.21033C11.4343 4.1835 11.3217 4.16017 11.2085 4.14036C10.8034 4.06889 10.3609 4.03516 9.88562 4.03516H5.87653C5.78086 4.03492 5.68637 4.05834 5.6002 4.10364C5.50648 4.1524 5.42508 4.22532 5.36304 4.31609C5.30101 4.40686 5.26021 4.51274 5.24418 4.62457L4.39204 10.5132L4.36743 10.6848C4.42349 10.2974 4.72755 10.0116 5.08767 10.0116H6.58851C9.53606 10.0116 11.844 8.70675 12.5182 4.93218C12.5382 4.82054 12.5551 4.71236 12.5706 4.60573C12.3998 4.50751 12.215 4.42263 12.016 4.35069C11.9658 4.33255 11.9153 4.31536 11.8645 4.29914" fill="#1F264F"/>
</svg>
