<svg width="20" height="20" viewBox="0 0 20 20" fill="none" xmlns="http://www.w3.org/2000/svg">
<path d="M15.7071 10.293C15.6143 10.2 15.5041 10.1263 15.3828 10.076C15.2615 10.0257 15.1314 9.99976 15.0001 9.99976C14.8688 9.99976 14.7387 10.0257 14.6174 10.076C14.4961 10.1263 14.3859 10.2 14.2931 10.293L12.6991 11.887C11.9601 11.667 10.5811 11.167 9.70709 10.293C8.83309 9.41896 8.33309 8.03996 8.11309 7.30096L9.70709 5.70696C9.80004 5.61417 9.87377 5.50397 9.92408 5.38265C9.97439 5.26134 10.0003 5.13129 10.0003 4.99996C10.0003 4.86862 9.97439 4.73858 9.92408 4.61726C9.87377 4.49595 9.80004 4.38575 9.70709 4.29296L5.70709 0.292957C5.6143 0.200011 5.5041 0.126273 5.38278 0.0759627C5.26147 0.0256519 5.13142 -0.000244141 5.00009 -0.000244141C4.86876 -0.000244141 4.73871 0.0256519 4.6174 0.0759627C4.49608 0.126273 4.38588 0.200011 4.29309 0.292957L1.58109 3.00496C1.20109 3.38496 0.98709 3.90696 0.99509 4.43996C1.01809 5.86396 1.39509 10.81 5.29309 14.708C9.19109 18.606 14.1371 18.982 15.5621 19.006H15.5901C16.1181 19.006 16.6171 18.798 16.9951 18.42L19.7071 15.708C19.8 15.6152 19.8738 15.505 19.9241 15.3837C19.9744 15.2623 20.0003 15.1323 20.0003 15.001C20.0003 14.8696 19.9744 14.7396 19.9241 14.6183C19.8738 14.4969 19.8 14.3867 19.7071 14.294L15.7071 10.293ZM15.5801 17.005C14.3321 16.984 10.0621 16.649 6.70709 13.293C3.34109 9.92696 3.01509 5.64196 2.99509 4.41896L5.00009 2.41396L7.58609 4.99996L6.29309 6.29296C6.17555 6.41041 6.08913 6.55529 6.04164 6.71453C5.99415 6.87376 5.98709 7.04231 6.02109 7.20496C6.04509 7.31996 6.63209 10.047 8.29209 11.707C9.95209 13.367 12.6791 13.954 12.7941 13.978C12.9566 14.0129 13.1254 14.0064 13.2847 13.9591C13.4441 13.9117 13.589 13.825 13.7061 13.707L15.0001 12.414L17.5861 15L15.5801 17.005Z" fill="#828282"/>
</svg>
