<svg width="32" height="32" viewBox="0 0 32 32" fill="none" xmlns="http://www.w3.org/2000/svg">
<path d="M13.0551 0.17627C14.1745 0.17627 14.8126 1.29094 14.8126 2.41035V9.27094H13.3955C13.1199 8.58968 12.616 8.02548 11.97 7.67503C11.3241 7.32458 10.5764 7.2097 9.85503 7.35008C9.13368 7.49045 8.48361 7.87734 8.01623 8.44445C7.54885 9.01155 7.29325 9.72355 7.29325 10.4584C7.29325 11.1933 7.54885 11.9053 8.01623 12.4724C8.48361 13.0395 9.13368 13.4264 9.85503 13.5668C10.5764 13.7072 11.3241 13.5923 11.97 13.2418C12.616 12.8914 13.1199 12.3272 13.3955 11.6459H14.8126V28.9011C14.8126 29.8448 14.4136 30.7837 13.5728 31.2128C12.8105 31.6121 11.9634 31.8228 11.1028 31.8271C8.712 31.8271 6.93392 30.6174 5.78917 29.1861C4.99636 28.1983 4.44354 27.0401 4.17417 25.8025C3.43477 25.5843 2.74999 25.212 2.16491 24.71C1.04075 23.7426 0.166748 22.1909 0.166748 19.9046C0.166748 18.7092 0.252248 17.6674 0.467581 16.7918H7.13342C8.20691 16.7918 9.09675 17.5834 9.24716 18.6142C8.56858 18.8949 8.00866 19.4028 7.66323 20.0508C7.31781 20.6989 7.20836 21.4469 7.35363 22.1667C7.49889 22.8866 7.88983 23.5336 8.45953 23.997C9.02923 24.4603 9.74228 24.7113 10.4766 24.7069C11.211 24.7026 11.921 24.4431 12.4851 23.9729C13.0492 23.5027 13.4324 22.8511 13.5691 22.1296C13.7057 21.4081 13.5874 20.6614 13.2342 20.0176C12.8811 19.3737 12.3151 18.8725 11.6332 18.5999C11.5501 17.4633 11.0399 16.4002 10.2052 15.6243C9.37049 14.8483 8.27309 14.4169 7.13342 14.4168H1.81341C2.05051 14.2208 2.31444 14.0598 2.59716 13.9386C2.43395 13.3568 2.33937 12.7579 2.31533 12.1542C2.26308 10.9904 2.43725 9.77919 2.78241 8.70094C3.12441 7.6401 3.66592 6.60619 4.42591 5.8921C4.90266 5.42756 5.50664 5.11509 6.16125 4.99435C6.47633 3.66435 7.27908 2.56552 8.3035 1.7691C9.61925 0.743103 11.3435 0.17627 13.0535 0.17627H13.0551ZM17.1876 23.9168H19.8001C20.9969 23.9168 22.1446 23.4413 22.9909 22.5951C23.8372 21.7488 24.3126 20.6011 24.3126 19.4043V16.5622C24.9938 16.2866 25.558 15.7827 25.9085 15.1367C26.2589 14.4908 26.3738 13.7431 26.2334 13.0217C26.0931 12.3004 25.7062 11.6503 25.1391 11.1829C24.572 10.7155 23.86 10.4599 23.1251 10.4599C22.3902 10.4599 21.6782 10.7155 21.1111 11.1829C20.544 11.6503 20.1571 12.3004 20.0167 13.0217C19.8764 13.7431 19.9912 14.4908 20.3417 15.1367C20.6921 15.7827 21.2563 16.2866 21.9376 16.5622V19.4043C21.9376 19.9712 21.7124 20.5149 21.3115 20.9157C20.9107 21.3166 20.367 21.5418 19.8001 21.5418H17.1876V2.41035C17.1876 1.29094 17.8257 0.17627 18.9451 0.17627C20.6582 0.17627 22.3809 0.743103 23.6967 1.7691C24.7211 2.56552 25.5238 3.66594 25.8389 4.99435C26.5039 5.10519 27.0961 5.44402 27.5742 5.8921C28.3342 6.60619 28.8757 7.63852 29.2177 8.70094C29.5629 9.77919 29.7371 10.9904 29.6848 12.1542C29.6579 12.7495 29.5708 13.3575 29.403 13.9386L29.5075 13.9861C30.0933 14.2616 30.5683 14.6939 30.923 15.2686C31.5959 16.3532 31.8334 17.9144 31.8334 19.9046C31.8334 22.1925 30.9594 23.7458 29.8353 24.71C29.2497 25.2122 28.5644 25.5845 27.8244 25.8025C27.5555 27.04 27.0032 28.1982 26.211 29.1861C25.0662 30.6174 23.2882 31.8271 20.8957 31.8271C20.0353 31.8233 19.1883 31.6131 18.4257 31.2143C17.5866 30.7837 17.1876 29.8448 17.1876 28.9011V23.9168ZM9.66675 10.4584C9.66675 10.2485 9.75016 10.0471 9.89862 9.89864C10.0471 9.75018 10.2485 9.66677 10.4584 9.66677C10.6684 9.66677 10.8697 9.75018 11.0182 9.89864C11.1667 10.0471 11.2501 10.2485 11.2501 10.4584C11.2501 10.6684 11.1667 10.8698 11.0182 11.0182C10.8697 11.1667 10.6684 11.2501 10.4584 11.2501C10.2485 11.2501 10.0471 11.1667 9.89862 11.0182C9.75016 10.8698 9.66675 10.6684 9.66675 10.4584ZM10.4584 20.7501C10.2485 20.7501 10.0471 20.8335 9.89862 20.982C9.75016 21.1304 9.66675 21.3318 9.66675 21.5418C9.66675 21.7517 9.75016 21.9531 9.89862 22.1016C10.0471 22.25 10.2485 22.3334 10.4584 22.3334C10.6684 22.3334 10.8697 22.25 11.0182 22.1016C11.1667 21.9531 11.2501 21.7517 11.2501 21.5418C11.2501 21.3318 11.1667 21.1304 11.0182 20.982C10.8697 20.8335 10.6684 20.7501 10.4584 20.7501ZM22.3334 13.6251C22.3334 13.8351 22.4168 14.0364 22.5653 14.1849C22.7138 14.3334 22.9151 14.4168 23.1251 14.4168C23.335 14.4168 23.5364 14.3334 23.6849 14.1849C23.8333 14.0364 23.9167 13.8351 23.9167 13.6251C23.9167 13.4151 23.8333 13.2138 23.6849 13.0653C23.5364 12.9168 23.335 12.8334 23.1251 12.8334C22.9151 12.8334 22.7138 12.9168 22.5653 13.0653C22.4168 13.2138 22.3334 13.4151 22.3334 13.6251Z" fill="white"/>
</svg>
