<svg width="22" height="20" viewBox="0 0 22 20" fill="none" xmlns="http://www.w3.org/2000/svg">
<path d="M17 16.72C18.2668 16.8235 19.5412 16.6603 20.741 16.241C20.7868 15.6764 20.6718 15.1104 20.4093 14.6084C20.1468 14.1064 19.7476 13.689 19.2578 13.4044C18.768 13.1199 18.2076 12.9798 17.6415 13.0004C17.0755 13.0211 16.5268 13.2015 16.059 13.521M16.999 16.719L17 16.75C17 16.975 16.988 17.197 16.963 17.416C15.1483 18.4571 13.0921 19.0033 11 19C8.82998 19 6.79299 18.424 5.03699 17.416C5.01128 17.1846 4.99892 16.9519 4.99999 16.719M17 16.719C16.9961 15.5856 16.6697 14.4768 16.059 13.522M16.059 13.522C15.5169 12.6718 14.7691 11.972 13.8848 11.4875C13.0005 11.003 12.0083 10.7493 11 10.75C9.99182 10.7495 8.99981 11.0032 8.11571 11.4877C7.23162 11.9723 6.48399 12.6719 5.94199 13.522M5.94199 13.522C5.4742 13.2028 4.92563 13.0226 4.3597 13.0021C3.79378 12.9817 3.23362 13.1218 2.74399 13.4063C2.25435 13.6908 1.85525 14.1081 1.59281 14.6099C1.33038 15.1117 1.21534 15.6776 1.26099 16.242C2.45989 16.6637 3.73461 16.8263 5.00099 16.719M5.94099 13.522C5.33061 14.4769 5.00458 15.5857 5.00099 16.719M14 4.75C14 5.54565 13.6839 6.30871 13.1213 6.87132C12.5587 7.43393 11.7956 7.75 11 7.75C10.2043 7.75 9.44127 7.43393 8.87866 6.87132C8.31606 6.30871 7.99999 5.54565 7.99999 4.75C7.99999 3.95435 8.31606 3.19129 8.87866 2.62868C9.44127 2.06607 10.2043 1.75 11 1.75C11.7956 1.75 12.5587 2.06607 13.1213 2.62868C13.6839 3.19129 14 3.95435 14 4.75V4.75ZM20 7.75C20 8.04547 19.9418 8.33806 19.8287 8.61104C19.7156 8.88402 19.5499 9.13206 19.341 9.34099C19.132 9.54992 18.884 9.71566 18.611 9.82873C18.338 9.9418 18.0455 10 17.75 10C17.4545 10 17.1619 9.9418 16.8889 9.82873C16.616 9.71566 16.3679 9.54992 16.159 9.34099C15.9501 9.13206 15.7843 8.88402 15.6713 8.61104C15.5582 8.33806 15.5 8.04547 15.5 7.75C15.5 7.15326 15.737 6.58097 16.159 6.15901C16.581 5.73705 17.1532 5.5 17.75 5.5C18.3467 5.5 18.919 5.73705 19.341 6.15901C19.7629 6.58097 20 7.15326 20 7.75V7.75ZM6.49999 7.75C6.49999 8.04547 6.44179 8.33806 6.32871 8.61104C6.21564 8.88402 6.04991 9.13206 5.84098 9.34099C5.63204 9.54992 5.38401 9.71566 5.11102 9.82873C4.83804 9.9418 4.54546 10 4.24999 10C3.95451 10 3.66193 9.9418 3.38895 9.82873C3.11596 9.71566 2.86793 9.54992 2.65899 9.34099C2.45006 9.13206 2.28433 8.88402 2.17126 8.61104C2.05818 8.33806 1.99999 8.04547 1.99999 7.75C1.99999 7.15326 2.23704 6.58097 2.65899 6.15901C3.08095 5.73705 3.65325 5.5 4.24999 5.5C4.84672 5.5 5.41902 5.73705 5.84098 6.15901C6.26293 6.58097 6.49999 7.15326 6.49999 7.75V7.75Z" stroke="#828282" stroke-width="2" stroke-linecap="round" stroke-linejoin="round"/>
</svg>
