<svg width="32" height="32" viewBox="0 0 32 32" fill="none" xmlns="http://www.w3.org/2000/svg">
<path d="M16.0003 31.8332C13.81 31.8332 11.7517 31.4173 9.82533 30.5855C7.89894 29.7548 6.22324 28.6269 4.79824 27.2019C3.37324 25.7769 2.24538 24.1012 1.41466 22.1748C0.582881 20.2484 0.166992 18.1901 0.166992 15.9998C0.166992 13.8096 0.582881 11.7512 1.41466 9.82484C2.24538 7.89845 3.37324 6.22275 4.79824 4.79775C6.22324 3.37275 7.89894 2.24436 9.82533 1.41259C11.7517 0.581865 13.81 0.166504 16.0003 0.166504C18.1906 0.166504 20.2489 0.581865 22.1753 1.41259C24.1017 2.24436 25.7774 3.37275 27.2024 4.79775C28.6274 6.22275 29.7553 7.89845 30.586 9.82484C31.4178 11.7512 31.8337 13.8096 31.8337 15.9998C31.8337 18.1901 31.4178 20.2484 30.586 22.1748C29.7553 24.1012 28.6274 25.7769 27.2024 27.2019C25.7774 28.6269 24.1017 29.7548 22.1753 30.5855C20.2489 31.4173 18.1906 31.8332 16.0003 31.8332ZM11.4087 27.7957L13.3087 23.4415C12.2003 23.0457 11.244 22.4319 10.4397 21.6001C9.63427 20.7694 9.00727 19.7998 8.55866 18.6915L4.20449 20.5123C4.81144 22.2012 5.74824 23.679 7.01491 24.9457C8.28158 26.2123 9.74616 27.1623 11.4087 27.7957ZM8.55866 13.3082C9.00727 12.1998 9.63427 11.2303 10.4397 10.3996C11.244 9.56781 12.2003 8.954 13.3087 8.55817L11.4878 4.204C9.79894 4.83734 8.32116 5.78734 7.05449 7.054C5.78783 8.32067 4.83783 9.79845 4.20449 11.4873L8.55866 13.3082ZM16.0003 20.7498C17.3198 20.7498 18.4413 20.288 19.3649 19.3644C20.2885 18.4408 20.7503 17.3193 20.7503 15.9998C20.7503 14.6804 20.2885 13.5589 19.3649 12.6353C18.4413 11.7116 17.3198 11.2498 16.0003 11.2498C14.6809 11.2498 13.5594 11.7116 12.6357 12.6353C11.7121 13.5589 11.2503 14.6804 11.2503 15.9998C11.2503 17.3193 11.7121 18.4408 12.6357 19.3644C13.5594 20.288 14.6809 20.7498 16.0003 20.7498ZM20.592 27.7957C22.2545 27.1623 23.7127 26.2192 24.9667 24.9663C26.2197 23.7123 27.1628 22.254 27.7962 20.5915L23.442 18.6915C23.0462 19.7998 22.4392 20.7562 21.6212 21.5605C20.8031 22.3659 19.8531 22.9929 18.7712 23.4415L20.592 27.7957ZM23.442 13.229L27.7962 11.4082C27.1628 9.74567 26.2197 8.28742 24.9667 7.03342C23.7127 5.78048 22.2545 4.83734 20.592 4.204L18.7712 8.63734C19.8531 9.03317 20.7899 9.63325 21.5816 10.4376C22.3732 11.243 22.9934 12.1734 23.442 13.229Z" fill="white"/>
</svg>
