<svg width="34" height="28" viewBox="0 0 34 28" fill="none" xmlns="http://www.w3.org/2000/svg">
<path fill-rule="evenodd" clip-rule="evenodd" d="M3.1875 0H29.75V6.01904H20.1875V9.09898C28.0527 9.45114 34 11.0823 34 13.0412C34 15.2555 26.4016 17.0509 17.0237 17.0539H20.1875V27.0857H13.8125V17.0539H16.9763C7.59836 17.0509 0 15.2555 0 13.0412C0 11.0823 5.94726 9.45114 13.8125 9.09898V6.01904H3.1875V0ZM13.8125 10.1C10.4635 10.2522 7.48879 10.639 5.20891 11.1771C3.71037 11.5308 2.56735 11.9373 1.82326 12.3526C1.11735 12.7465 1.0167 13.0027 1.00237 13.0412C1.0167 13.0798 1.11735 13.336 1.82326 13.7299C2.56735 14.1452 3.71037 14.5517 5.20891 14.9054C8.19012 15.6091 12.3594 16.0539 17 16.0539C21.6406 16.0539 25.8099 15.6091 28.7911 14.9054C30.2896 14.5517 31.4327 14.1452 32.1767 13.7299C32.8826 13.336 32.9833 13.0798 32.9976 13.0413C32.9833 13.0027 32.8826 12.7465 32.1767 12.3526C31.4327 11.9373 30.2896 11.5308 28.7911 11.1771C26.5112 10.639 23.5365 10.2522 20.1875 10.1V13.0412H13.8125V10.1Z" fill="white"/>
</svg>
