<svg width="59" height="59" viewBox="0 0 59 59" fill="none" xmlns="http://www.w3.org/2000/svg">
<rect x="0.988281" y="0.812988" width="57.4391" height="57.4391" rx="10" fill="#26A17B"/>
<path fill-rule="evenodd" clip-rule="evenodd" d="M32.5538 0.812988H48.4274C53.9502 0.812988 58.4274 5.29014 58.4274 10.813V24.1688C55.7335 25.7272 52.6059 26.6192 49.27 26.6192C39.1555 26.6192 30.9561 18.4198 30.9561 8.30526C30.9561 5.63595 31.5271 3.10002 32.5538 0.812988Z" fill="black" fill-opacity="0.1"/>
<path fill-rule="evenodd" clip-rule="evenodd" d="M34.234 58.2522C33.376 44.7757 22.1739 34.1108 8.48081 34.1108C5.87506 34.1108 3.35951 34.497 0.988281 35.2153V45.9961C3.21806 44.7934 5.76972 44.1108 8.48081 44.1108C16.648 44.1108 23.3684 50.3053 24.2002 58.2522H34.234Z" fill="black" fill-opacity="0.05"/>
<circle cx="20.9664" cy="14.9644" r="4.9947" fill="black" fill-opacity="0.1"/>
<circle cx="37.6159" cy="44.1003" r="3.3298" fill="black" fill-opacity="0.07"/>
<path fill-rule="evenodd" clip-rule="evenodd" d="M16.1875 16H42.75V22.019H33.1875V25.099C41.0527 25.4511 47 27.0823 47 29.0412C47 31.2555 39.4016 33.0509 30.0237 33.0539H33.1875V43.0857H26.8125V33.0539H29.9763C20.5984 33.0509 13 31.2555 13 29.0412C13 27.0823 18.9473 25.4511 26.8125 25.099V22.019H16.1875V16ZM26.8125 26.1C23.4635 26.2522 20.4888 26.639 18.2089 27.1771C16.7104 27.5308 15.5673 27.9373 14.8233 28.3526C14.1173 28.7465 14.0167 29.0027 14.0024 29.0412C14.0167 29.0798 14.1173 29.336 14.8233 29.7299C15.5673 30.1452 16.7104 30.5517 18.2089 30.9054C21.1901 31.6091 25.3594 32.0539 30 32.0539C34.6406 32.0539 38.8099 31.6091 41.7911 30.9054C43.2896 30.5517 44.4327 30.1452 45.1767 29.7299C45.8826 29.336 45.9833 29.0798 45.9976 29.0413C45.9833 29.0027 45.8826 28.7465 45.1767 28.3526C44.4327 27.9373 43.2896 27.5308 41.7911 27.1771C39.5112 26.639 36.5365 26.2522 33.1875 26.1V29.0412H26.8125V26.1Z" fill="white"/>
</svg>
