<svg width="32" height="31" viewBox="0 0 32 31" fill="none" xmlns="http://www.w3.org/2000/svg">
<path d="M14.499 17.8619H9.13072C8.81304 17.8619 8.55578 18.1191 8.55578 18.4368V29.7717C8.55578 30.0894 8.81304 30.3467 9.13072 30.3467H14.499C14.8167 30.3467 15.0735 30.0894 15.0735 29.7717V18.4364C15.0735 18.1187 14.8163 17.8619 14.499 17.8619ZM22.8692 0.653564H17.501C17.1833 0.653564 16.926 0.910825 16.926 1.2285V29.7713C16.926 30.089 17.1833 30.3463 17.501 30.3463H22.8692C23.1869 30.3463 23.4442 30.089 23.4442 29.7713V1.2285C23.4442 0.910825 23.1869 0.653564 22.8692 0.653564ZM31.2824 8.41354H25.9142C25.5965 8.41354 25.3392 8.6708 25.3392 8.98849V29.7713C25.3392 30.089 25.5965 30.3463 25.9142 30.3463H31.2821C31.5997 30.3463 31.857 30.089 31.857 29.7713V8.98849C31.857 8.67119 31.5997 8.41354 31.2824 8.41354ZM6.08578 8.41354H0.717518C0.399838 8.41354 0.142578 8.6708 0.142578 8.98849V29.7713C0.142578 30.089 0.399838 30.3463 0.717518 30.3463H6.08578C6.40346 30.3463 6.66072 30.089 6.66072 29.7713V8.98849C6.66072 8.67119 6.40346 8.41354 6.08578 8.41354Z" fill="#31A44A"/>
</svg>
