<svg width="31" height="31" viewBox="0 0 31 31" fill="none" xmlns="http://www.w3.org/2000/svg">
<path d="M0.125 27.4583H30.875V30.875H0.125V27.4583ZM5.25 22.3333C7.12917 22.3333 8.66667 20.7958 8.66667 18.9167C8.66667 18.0625 8.325 17.2083 7.8125 16.6958L10.0333 12.0833H10.375C11.2292 12.0833 12.0833 11.7417 12.5958 11.2292L17.2083 13.6208V13.7917C17.2083 15.6708 18.7458 17.2083 20.625 17.2083C22.5042 17.2083 24.0417 15.6708 24.0417 13.7917C24.0417 12.9375 23.7 12.2542 23.1875 11.5708L25.4083 6.95833H25.75C27.6292 6.95833 29.1667 5.42083 29.1667 3.54167C29.1667 1.6625 27.6292 0.125 25.75 0.125C23.8708 0.125 22.3333 1.6625 22.3333 3.54167C22.3333 4.39583 22.675 5.25 23.1875 5.7625L20.9667 10.375H20.625C19.7708 10.375 18.9167 10.7167 18.4042 11.2292L13.7917 9.00833V8.66667C13.7917 6.7875 12.2542 5.25 10.375 5.25C8.49583 5.25 6.95833 6.7875 6.95833 8.66667C6.95833 9.52083 7.3 10.375 7.8125 10.8875L5.59167 15.5H5.25C3.37083 15.5 1.83333 17.0375 1.83333 18.9167C1.83333 20.7958 3.37083 22.3333 5.25 22.3333Z" fill="white"/>
</svg>
