<svg width="23" height="23" viewBox="0 0 23 23" fill="none" xmlns="http://www.w3.org/2000/svg">
<path d="M11.5 5.25C10.7274 5.25 9.97219 5.4791 9.32981 5.90832C8.68743 6.33755 8.18675 6.94762 7.8911 7.66139C7.59544 8.37517 7.51809 9.16058 7.66881 9.91832C7.81953 10.6761 8.19157 11.3721 8.73787 11.9184C9.28417 12.4647 9.98019 12.8367 10.7379 12.9874C11.4957 13.1382 12.2811 13.0608 12.9949 12.7652C13.7086 12.4695 14.3187 11.9688 14.7479 11.3264C15.1772 10.6841 15.4063 9.92883 15.4063 9.15625C15.4063 8.12025 14.9947 7.12668 14.2621 6.39411C13.5296 5.66155 12.536 5.25 11.5 5.25ZM11.5 11.5C11.0365 11.5 10.5833 11.3625 10.1979 11.105C9.81246 10.8475 9.51205 10.4814 9.33466 10.0532C9.15727 9.6249 9.11085 9.15365 9.20129 8.69901C9.29172 8.24436 9.51494 7.82675 9.84272 7.49897C10.1705 7.17119 10.5881 6.94797 11.0428 6.85753C11.4974 6.7671 11.9687 6.81351 12.3969 6.99091C12.8252 7.1683 13.1912 7.4687 13.4488 7.85413C13.7063 8.23956 13.8438 8.6927 13.8438 9.15625C13.8431 9.77766 13.596 10.3734 13.1566 10.8128C12.7172 11.2522 12.1214 11.4994 11.5 11.5Z" fill="#828282"/>
<path d="M11.5 0.5625C9.33677 0.5625 7.22212 1.20397 5.42346 2.4058C3.62479 3.60763 2.22291 5.31583 1.39507 7.3144C0.567239 9.31297 0.35064 11.5121 0.772666 13.6338C1.19469 15.7555 2.23639 17.7043 3.76602 19.234C5.29566 20.7636 7.24454 21.8053 9.36621 22.2273C11.4879 22.6494 13.687 22.4328 15.6856 21.6049C17.6842 20.7771 19.3924 19.3752 20.5942 17.5765C21.796 15.7779 22.4375 13.6632 22.4375 11.5C22.4342 8.60021 21.2808 5.82014 19.2303 3.76967C17.1799 1.71921 14.3998 0.565808 11.5 0.5625ZM6.81251 19.607V18.5312C6.81313 17.9098 7.06026 17.3141 7.49966 16.8747C7.93906 16.4352 8.53484 16.1881 9.15625 16.1875H13.8438C14.4652 16.1881 15.0609 16.4352 15.5004 16.8747C15.9398 17.3141 16.1869 17.9098 16.1875 18.5312V19.607C14.765 20.4377 13.1473 20.8754 11.5 20.8754C9.85273 20.8754 8.23503 20.4377 6.81251 19.607ZM17.7438 18.4734C17.7282 17.4487 17.3107 16.4711 16.5812 15.7512C15.8517 15.0314 14.8686 14.6269 13.8438 14.625H9.15625C8.1314 14.6269 7.14832 15.0314 6.41882 15.7512C5.68933 16.4711 5.27182 17.4487 5.25626 18.4734C3.83951 17.2084 2.84042 15.5429 2.39128 13.6974C1.94214 11.8519 2.06414 9.91355 2.74113 8.13895C3.41811 6.36436 4.61815 4.83724 6.18233 3.75982C7.74651 2.6824 9.60105 2.10549 11.5004 2.10549C13.3997 2.10549 15.2543 2.6824 16.8185 3.75982C18.3826 4.83724 19.5827 6.36436 20.2597 8.13895C20.9366 9.91355 21.0586 11.8519 20.6095 13.6974C20.1604 15.5429 19.1613 17.2084 17.7445 18.4734H17.7438Z" fill="#828282"/>
</svg>
