<svg width="30" height="34" viewBox="0 0 30 34" fill="none" xmlns="http://www.w3.org/2000/svg">
<path d="M13.657 17.7712H8.85379C8.56955 17.7712 8.33937 18.0014 8.33937 18.2856V32.9011C8.33937 33.1853 8.56955 33.4155 8.85379 33.4155H13.657C13.9412 33.4155 14.171 33.1853 14.171 32.9011V18.2853C14.171 18.0011 13.9409 17.7712 13.657 17.7712ZM21.1461 14.0059H16.343C16.0587 14.0059 15.8285 14.2361 15.8285 14.5203V32.9008C15.8285 33.185 16.0587 33.4152 16.343 33.4152H21.1461C21.4304 33.4152 21.6606 33.185 21.6606 32.9008V14.5203C21.6606 14.2361 21.4304 14.0059 21.1461 14.0059ZM28.6737 11.1069H23.8706C23.5863 11.1069 23.3561 11.3371 23.3561 11.6214V32.9008C23.3561 33.185 23.5863 33.4152 23.8706 33.4152H28.6734C28.9576 33.4152 29.1878 33.185 29.1878 32.9008V11.6214C29.1878 11.3375 28.9576 11.1069 28.6737 11.1069ZM6.12937 20.949H1.32619C1.04195 20.949 0.811768 21.1792 0.811768 21.4635V32.9008C0.811768 33.185 1.04195 33.4152 1.32619 33.4152H6.12937C6.41361 33.4152 6.64379 33.185 6.64379 32.9008V21.4635C6.64379 21.1796 6.41361 20.949 6.12937 20.949Z" fill="#31A44A"/>
<path d="M26.6315 2.23682L20.8157 2.68418M26.6315 2.23682L24.842 7.60524M26.6315 2.23682L10.9736 14.3158L5.60517 11.1842L1.57886 16.1052" stroke="#31A44A" stroke-width="2.5" stroke-linecap="round"/>
</svg>
