<svg width="31" height="31" viewBox="0 0 31 31" fill="none" xmlns="http://www.w3.org/2000/svg">
<path d="M31 4.84375C31 5.93359 30.1342 6.93867 28.675 7.75C26.9131 8.7248 24.2854 9.41504 21.2701 9.6209C21.0461 9.51191 20.8221 9.40898 20.5859 9.31816C18.2004 8.31914 15.0277 7.75 11.625 7.75C11.1225 7.75 10.632 7.76211 10.1416 7.78633L10.075 7.75C8.61582 6.93867 7.75 5.93359 7.75 4.84375C7.75 2.16758 12.957 0 19.375 0C25.793 0 31 2.16758 31 4.84375ZM9.72988 9.7541C10.3475 9.71172 10.9832 9.6875 11.625 9.6875C15.391 9.6875 18.7332 10.4322 20.8584 11.5887C22.36 12.4061 23.25 13.4232 23.25 14.5312C23.25 14.7734 23.2076 15.0096 23.1229 15.2396C22.8443 16.0389 22.0936 16.7715 21.0037 17.3891C20.9977 17.3951 20.9855 17.3951 20.9795 17.4012C20.9613 17.4133 20.9432 17.4193 20.925 17.4314C18.8059 18.6061 15.4273 19.3689 11.625 19.3689C8.01641 19.3689 4.78926 18.6848 2.65195 17.607C2.53691 17.5525 2.42793 17.492 2.31895 17.4314C0.86582 16.6262 0 15.6211 0 14.5312C0 12.4242 3.2332 10.626 7.75 9.96602C8.38574 9.8752 9.0457 9.80254 9.72988 9.7541ZM25.1875 14.5312C25.1875 13.2053 24.5457 12.1154 23.7283 11.298C25.4418 11.0316 27.01 10.6078 28.342 10.0568C29.3289 9.64512 30.2492 9.13652 31 8.51289V10.6562C31 11.8248 30.001 12.9025 28.348 13.7381C27.4641 14.1861 26.3863 14.5676 25.1754 14.8582C25.1814 14.7492 25.1875 14.6463 25.1875 14.5373V14.5312ZM23.25 20.3438C23.25 21.4336 22.3842 22.4387 20.925 23.25C20.816 23.3105 20.707 23.365 20.592 23.4256C18.4607 24.5033 15.2336 25.1875 11.625 25.1875C7.82266 25.1875 4.44414 24.4246 2.325 23.25C0.86582 22.4387 0 21.4336 0 20.3438V18.2004C0.756836 18.824 1.67109 19.3326 2.65801 19.7443C5.04961 20.7434 8.22227 21.3125 11.625 21.3125C15.0277 21.3125 18.2004 20.7434 20.592 19.7443C21.0643 19.5506 21.5184 19.3266 21.9482 19.0844C22.3176 18.8785 22.6627 18.6484 22.9896 18.4062C23.0805 18.3396 23.1652 18.267 23.25 18.2004V20.3438ZM25.1875 20.3438V16.8381C26.3379 16.5838 27.3975 16.2629 28.342 15.8693C29.3289 15.4576 30.2492 14.949 31 14.3254V16.4688C31 17.1045 30.6973 17.7402 30.0979 18.3396C29.1109 19.3266 27.3732 20.1379 25.1754 20.6646C25.1814 20.5617 25.1875 20.4527 25.1875 20.3438ZM11.625 27.125C15.0277 27.125 18.2004 26.5559 20.592 25.5568C21.5789 25.1451 22.4992 24.6365 23.25 24.0129V26.1562C23.25 28.8324 18.043 31 11.625 31C5.20703 31 0 28.8324 0 26.1562V24.0129C0.756836 24.6365 1.67109 25.1451 2.65801 25.5568C5.04961 26.5559 8.22227 27.125 11.625 27.125Z" fill="white"/>
</svg>
