<svg width="133" height="133" viewBox="0 0 133 133" fill="none" xmlns="http://www.w3.org/2000/svg">
<circle cx="66" cy="66" r="66" fill="#EB4462" fill-opacity="0.2"/>
<g filter="url(#filter0_d_30_193)">
<circle cx="66" cy="66" r="53" fill="#EB4462"/>
</g>
<path d="M64.941 48.438C65.0803 48.2983 65.2459 48.1875 65.4281 48.1119C65.6103 48.0362 65.8057 47.9973 66.003 47.9973C66.2003 47.9973 66.3957 48.0362 66.5779 48.1119C66.7601 48.1875 66.9257 48.2983 67.065 48.438C70.785 52.17 74.907 54 79.5 54C79.8978 54 80.2794 54.158 80.5607 54.4393C80.842 54.7206 81 55.1022 81 55.5V58.203C80.0728 57.6661 79.0566 57.3003 78 57.123V56.943C73.56 56.607 69.555 54.765 66 51.567C62.442 54.765 58.44 56.607 54 56.943V64.503C54 68.805 55.089 72.195 57.063 74.835C58.473 76.719 60.423 78.339 63 79.644V82.956C55.062 79.491 51 73.272 51 64.506V55.5C51 55.1022 51.158 54.7206 51.4393 54.4393C51.7206 54.158 52.1022 54 52.5 54C57.09 54 61.212 52.167 64.941 48.438ZM70.5 66V69H69C68.2044 69 67.4413 69.3161 66.8787 69.8787C66.3161 70.4413 66 71.2043 66 72V84C66 84.7956 66.3161 85.5587 66.8787 86.1213C67.4413 86.6839 68.2044 87 69 87H84C84.7957 87 85.5587 86.6839 86.1213 86.1213C86.6839 85.5587 87 84.7956 87 84V72C87 71.2043 86.6839 70.4413 86.1213 69.8787C85.5587 69.3161 84.7957 69 84 69H82.5V66C82.5 64.4087 81.8679 62.8826 80.7426 61.7574C79.6174 60.6321 78.0913 60 76.5 60C74.9087 60 73.3826 60.6321 72.2574 61.7574C71.1321 62.8826 70.5 64.4087 70.5 66ZM73.5 69V66C73.5 65.2043 73.8161 64.4413 74.3787 63.8787C74.9413 63.3161 75.7044 63 76.5 63C77.2956 63 78.0587 63.3161 78.6213 63.8787C79.1839 64.4413 79.5 65.2043 79.5 66V69H73.5ZM76.5 75.75C77.0967 75.75 77.669 75.987 78.091 76.409C78.5129 76.831 78.75 77.4033 78.75 78C78.75 78.5967 78.5129 79.169 78.091 79.591C77.669 80.0129 77.0967 80.25 76.5 80.25C75.9033 80.25 75.331 80.0129 74.909 79.591C74.4871 79.169 74.25 78.5967 74.25 78C74.25 77.4033 74.4871 76.831 74.909 76.409C75.331 75.987 75.9033 75.75 76.5 75.75Z" fill="white"/>
<defs>
<filter id="filter0_d_30_193" x="3" y="3" width="130" height="130" filterUnits="userSpaceOnUse" color-interpolation-filters="sRGB">
<feFlood flood-opacity="0" result="BackgroundImageFix"/>
<feColorMatrix in="SourceAlpha" type="matrix" values="0 0 0 0 0 0 0 0 0 0 0 0 0 0 0 0 0 0 127 0" result="hardAlpha"/>
<feMorphology radius="2" operator="dilate" in="SourceAlpha" result="effect1_dropShadow_30_193"/>
<feOffset dx="2" dy="2"/>
<feGaussianBlur stdDeviation="5"/>
<feComposite in2="hardAlpha" operator="out"/>
<feColorMatrix type="matrix" values="0 0 0 0 0 0 0 0 0 0 0 0 0 0 0 0 0 0 0.25 0"/>
<feBlend mode="normal" in2="BackgroundImageFix" result="effect1_dropShadow_30_193"/>
<feBlend mode="normal" in="SourceGraphic" in2="effect1_dropShadow_30_193" result="shape"/>
</filter>
</defs>
</svg>
