<svg xmlns="http://www.w3.org/2000/svg" width="22" height="22" viewBox="0 0 22 22">
  <path id="amount" d="M0,17.415V19.25C0,20.767,3.7,22,8.25,22s8.25-1.233,8.25-2.75V17.415c-1.775,1.25-5.019,1.835-8.25,1.835S1.775,18.666,0,17.415ZM13.75,5.5C18.3,5.5,22,4.267,22,2.75S18.3,0,13.75,0,5.5,1.233,5.5,2.75,9.2,5.5,13.75,5.5ZM0,12.908v2.217c0,1.517,3.7,2.75,8.25,2.75s8.25-1.233,8.25-2.75V12.908c-1.775,1.461-5.023,2.217-8.25,2.217S1.775,14.369,0,12.908Zm17.875.473C20.337,12.9,22,12.018,22,11V9.165a10.552,10.552,0,0,1-4.125,1.482ZM8.25,6.875C3.7,6.875,0,8.413,0,10.313S3.7,13.75,8.25,13.75s8.25-1.538,8.25-3.437S12.8,6.875,8.25,6.875Zm9.423,2.419C20.251,8.83,22,7.919,22,6.875V5.04c-1.525,1.079-4.146,1.659-6.905,1.8A4.812,4.812,0,0,1,17.673,9.294Z" fill="#565656"/>
</svg>
