<svg xmlns="http://www.w3.org/2000/svg" width="24.372" height="27.853" viewBox="0 0 24.372 27.853">
  <path id="bank_name" d="M27.252,16.968V28.573h-8.7V26.252H11v2.321H2.88V16.968ZM22,14.853a6.657,6.657,0,0,0-2.269-3.714c-1.147-.953-2.5-1.134-4.079-1.714h-.006V5.752l.3-.082.666-.247a6.4,6.4,0,0,1,.729-.21,2.387,2.387,0,0,1,.514-.08,3.975,3.975,0,0,1,.819.106c.33.08.681.167,1.038.265.372.113.7.2,1.026.27a3.519,3.519,0,0,0,.777.1,5.614,5.614,0,0,0,1.092-.15v-4.2a3.975,3.975,0,0,1-1.092.214,3.253,3.253,0,0,1-.784-.11c-.321-.062-.652-.157-1.024-.265q-.5-.149-1.006-.259A3.091,3.091,0,0,0,17.961.99a5.43,5.43,0,0,0-2.315.5V.72H14.486v8.7h-.037c-1.562.58-2.93.794-4.076,1.747A6.721,6.721,0,0,0,8.1,14.8a.944.944,0,0,0-1.112,1h16.23c0-1.161-1.219-.955-1.219-.955Z" transform="translate(-2.88 -0.72)" fill="#565656"/>
</svg>
