<svg xmlns="http://www.w3.org/2000/svg" width="21.438" height="21.438" viewBox="0 0 21.438 21.438">
  <path id="benificary" d="M14.094,3.375A10.719,10.719,0,1,0,24.813,14.094,10.717,10.717,0,0,0,14.094,3.375Zm7.385,13.6c-.417-.134-1.221-.175-1.52-.536-.149-.18-.052-.855-.052-.855a3.252,3.252,0,0,0,1.6-.314c.2-.119.108-.139.005-.314-.562-.943-.309-2.139-.335-3.174a2.629,2.629,0,0,0-1.031-2.288,3.283,3.283,0,0,0-1.618-.356,3.618,3.618,0,0,0-1.3.211c-2.185.876-.9,3.772-1.644,5.432-.129.278-.314.376.01.541a3.986,3.986,0,0,0,1.489.325s.015.649,0,.716c-.057.253-.608.428-.814.484a6.788,6.788,0,0,0-.845.294.205.205,0,0,0,.041.392,3.984,3.984,0,0,1,.593.149,5.6,5.6,0,0,1,2.37,1.288,3.516,3.516,0,0,1,1.031,2.3.639.639,0,0,1-.283.593l-.294.186a.147.147,0,0,1-.222-.124h0a3.511,3.511,0,0,0-2.36-3.36c-.7-.242-1.448-.258-2.144-.5-.211-.072-.629-.16-.716-.4a2.921,2.921,0,0,1-.1-.763q-.015-.294-.015-.587c0-.129.33-.4.4-.52a3.918,3.918,0,0,0,.356-1.613c.448.124.505-.706.582-.959.057-.175.258-1.077-.134-1.216a2.167,2.167,0,0,0,.216-.758,4.553,4.553,0,0,0-.057-2.025A3.191,3.191,0,0,0,11.63,7.085,3.276,3.276,0,0,0,8.358,9.033a4.253,4.253,0,0,0-.144,2.036A2.55,2.55,0,0,0,8.456,12c-.33.144-.232.912-.175,1.1.082.263.155,1.206.624,1.077a7.372,7.372,0,0,0,.2,1.252,1.873,1.873,0,0,0,.423.716c.093.1.139.113.134.247a5.145,5.145,0,0,1-.1,1.226c-.1.392-.964.557-1.309.629a7.6,7.6,0,0,0-2.133.593A9.28,9.28,0,0,1,14.006,4.818a9.312,9.312,0,0,1,6.586,2.654,9.3,9.3,0,0,1,2.036,10.286A2.435,2.435,0,0,0,21.478,16.974Z" transform="translate(-3.375 -3.375)" fill="#fff"/>
</svg>
