<svg xmlns="http://www.w3.org/2000/svg" width="20.125" height="23" viewBox="30.529 533 20.125 23"><path d="M30.53 553.844c0 1.19.965 2.156 2.156 2.156h15.812c1.19 0 2.156-.966 2.156-2.156v-12.219H30.53v12.219Zm14.374-8.805a.54.54 0 0 1 .54-.539h1.796a.54.54 0 0 1 .54.54v1.796a.54.54 0 0 1-.54.539h-1.797a.54.54 0 0 1-.539-.54v-1.796Zm0 5.75a.54.54 0 0 1 .54-.539h1.796a.54.54 0 0 1 .54.54v1.796a.54.54 0 0 1-.54.539h-1.797a.54.54 0 0 1-.539-.54v-1.796Zm-5.75-5.75a.54.54 0 0 1 .54-.539h1.796a.54.54 0 0 1 .54.54v1.796a.54.54 0 0 1-.54.539h-1.797a.54.54 0 0 1-.539-.54v-1.796Zm0 5.75a.54.54 0 0 1 .54-.539h1.796a.54.54 0 0 1 .54.54v1.796a.54.54 0 0 1-.54.539h-1.797a.54.54 0 0 1-.539-.54v-1.796Zm-5.75-5.75a.54.54 0 0 1 .54-.539h1.796a.54.54 0 0 1 .54.54v1.796a.54.54 0 0 1-.54.539h-1.797a.54.54 0 0 1-.539-.54v-1.796Zm0 5.75a.54.54 0 0 1 .54-.539h1.796a.54.54 0 0 1 .54.54v1.796a.54.54 0 0 1-.54.539h-1.797a.54.54 0 0 1-.539-.54v-1.796Zm15.094-14.914h-2.156v-2.156a.72.72 0 0 0-.719-.719h-1.437a.72.72 0 0 0-.72.719v2.156h-5.75v-2.156a.72.72 0 0 0-.718-.719h-1.437a.72.72 0 0 0-.72.719v2.156h-2.155c-1.19 0-2.157.966-2.157 2.156v2.157h20.125v-2.157c0-1.19-.966-2.156-2.156-2.156Z" fill="#565656" fill-rule="evenodd" data-name="Icon awesome-calendar-alt"/></svg>