<svg xmlns="http://www.w3.org/2000/svg" width="19.885" height="23.199" viewBox="0 0 19.885 23.199">
  <path id="change_language" d="M13.237,16.159q-.013.039-.162-.006T12.667,16l-.259-.117a7.757,7.757,0,0,1-1.126-.634q-.091-.065-.531-.408t-.492-.369A22.055,22.055,0,0,1,8.524,16.82a9.624,9.624,0,0,1-1.359,1.424,1.026,1.026,0,0,1-.252.052.5.5,0,0,1-.239,0q.078-.052,1.062-1.191.272-.311,1.107-1.489a18.1,18.1,0,0,0,1.016-1.528q.22-.388.66-1.275a10.091,10.091,0,0,0,.466-1,10.639,10.639,0,0,0-1.424.427q-.1.026-.356.1t-.447.123a2.218,2.218,0,0,0-.22.065.22.22,0,0,0-.026.136.287.287,0,0,1-.013.123q-.065.129-.4.194a1.044,1.044,0,0,1-.608,0,.546.546,0,0,1-.362-.272.659.659,0,0,1-.065-.3,2.5,2.5,0,0,1,.317-.065,3.866,3.866,0,0,0,.382-.078q.751-.207,1.359-.414,1.295-.453,1.321-.453A2.872,2.872,0,0,0,11,11.143a5.856,5.856,0,0,1,.57-.278q.117-.039.278-.1t.188-.071a.173.173,0,0,1,.078.006,1.473,1.473,0,0,1-.013.427,2.757,2.757,0,0,1-.162.35q-.162.324-.343.693t-.22.434a19.417,19.417,0,0,1-1,1.7l.829.362q.155.078.964.414l.874.362q.052.013.136.33a.981.981,0,0,1,.058.395ZM10.583,9.868a.525.525,0,0,1-.052.362,1.174,1.174,0,0,1-.647.492,2.078,2.078,0,0,1-.777.155,1.071,1.071,0,0,1-.634-.337.974.974,0,0,1-.233-.531l.013-.039a.554.554,0,0,0,.252.065,1.126,1.126,0,0,0,.343,0q.129-.026.751-.207a3.7,3.7,0,0,1,.712-.181.256.256,0,0,1,.272.22Zm9.036,1.67.816,2.939-1.8-.544ZM5.275,21.894l8.985-3V5.531L5.275,8.547V21.894Zm16.066-4.1,1.321.4L20.318,9.686l-1.295-.4-2.8,6.939,1.321.4L18.13,15.2l2.732.841ZM14.829,5.336l7.418,2.382V2.8Zm4.026,17.128,2.045.168L20.2,24.7l-.518-.854a9.6,9.6,0,0,1-3.573,1.4,6.2,6.2,0,0,1-1.178.155H13.845a8.75,8.75,0,0,1-2.583-.5,8.6,8.6,0,0,1-2.376-1.1.27.27,0,0,1-.1-.207.25.25,0,0,1,.065-.175.217.217,0,0,1,.168-.071.729.729,0,0,1,.233.1l.395.214q.214.117.265.142a11.47,11.47,0,0,0,2.065.8,7.543,7.543,0,0,0,2.039.317,11.048,11.048,0,0,0,2.162-.188,10.67,10.67,0,0,0,2.033-.654q.194-.091.395-.2t.44-.246q.239-.136.369-.214ZM24.655,8.5V22.464l-10.02-3.185q-.181.078-4.855,1.651T5.016,22.5a.234.234,0,0,1-.233-.168A.1.1,0,0,0,4.77,22.3V8.34a.578.578,0,0,1,.052-.129.582.582,0,0,1,.259-.142q1.372-.453,1.929-.647V2.449l7.224,2.563q.026,0,2.078-.712T20.4,2.9Q22.441,2.2,22.493,2.2q.259,0,.259.272V7.887Z" transform="translate(-4.77 -2.203)" fill="#31357a"/>
</svg>
