<svg xmlns="http://www.w3.org/2000/svg" width="24.5" height="19.6" viewBox="0 0 24.5 19.6">
  <path id="city" d="M23.581,7.35H18.375V.919A.919.919,0,0,0,17.456,0H11.944a.919.919,0,0,0-.919.919V3.675H8.575V.613A.612.612,0,0,0,7.963,0H7.35a.612.612,0,0,0-.613.613V3.675H4.288V.613A.612.612,0,0,0,3.675,0H3.063A.612.612,0,0,0,2.45.613V3.675H.919A.919.919,0,0,0,0,4.594V18.375A1.225,1.225,0,0,0,1.225,19.6h22.05A1.225,1.225,0,0,0,24.5,18.375V8.269A.919.919,0,0,0,23.581,7.35ZM4.9,15.466a.459.459,0,0,1-.459.459H2.909a.459.459,0,0,1-.459-.459V13.934a.459.459,0,0,1,.459-.459H4.441a.459.459,0,0,1,.459.459Zm0-3.675a.459.459,0,0,1-.459.459H2.909a.459.459,0,0,1-.459-.459V10.259A.459.459,0,0,1,2.909,9.8H4.441a.459.459,0,0,1,.459.459Zm0-3.675a.459.459,0,0,1-.459.459H2.909a.459.459,0,0,1-.459-.459V6.584a.459.459,0,0,1,.459-.459H4.441a.459.459,0,0,1,.459.459Zm4.9,7.35a.459.459,0,0,1-.459.459H7.809a.459.459,0,0,1-.459-.459V13.934a.459.459,0,0,1,.459-.459H9.341a.459.459,0,0,1,.459.459Zm0-3.675a.459.459,0,0,1-.459.459H7.809a.459.459,0,0,1-.459-.459V10.259A.459.459,0,0,1,7.809,9.8H9.341a.459.459,0,0,1,.459.459Zm0-3.675a.459.459,0,0,1-.459.459H7.809a.459.459,0,0,1-.459-.459V6.584a.459.459,0,0,1,.459-.459H9.341a.459.459,0,0,1,.459.459Zm6.125,3.675a.459.459,0,0,1-.459.459H13.934a.459.459,0,0,1-.459-.459V10.259a.459.459,0,0,1,.459-.459h1.531a.459.459,0,0,1,.459.459Zm0-3.675a.459.459,0,0,1-.459.459H13.934a.459.459,0,0,1-.459-.459V6.584a.459.459,0,0,1,.459-.459h1.531a.459.459,0,0,1,.459.459Zm0-3.675a.459.459,0,0,1-.459.459H13.934a.459.459,0,0,1-.459-.459V2.909a.459.459,0,0,1,.459-.459h1.531a.459.459,0,0,1,.459.459ZM22.05,15.466a.459.459,0,0,1-.459.459H20.059a.459.459,0,0,1-.459-.459V13.934a.459.459,0,0,1,.459-.459h1.531a.459.459,0,0,1,.459.459Zm0-3.675a.459.459,0,0,1-.459.459H20.059a.459.459,0,0,1-.459-.459V10.259a.459.459,0,0,1,.459-.459h1.531a.459.459,0,0,1,.459.459Z" fill="#565656"/>
</svg>
