<svg xmlns="http://www.w3.org/2000/svg" width="16" height="18.285" viewBox="359.167 536.029 16 18.285"><path d="M370.595 552.029v1.428a.857.857 0 0 1-.857.858h-9.714a.857.857 0 0 1-.857-.858v-13.142c0-.473.383-.857.857-.857h2.571v10.571c0 1.103.897 2 2 2h6Zm0-12.286v-3.714h-6a.857.857 0 0 0-.857.857v13.143c0 .473.384.857.857.857h9.714a.857.857 0 0 0 .857-.857v-9.428h-3.714a.86.86 0 0 1-.857-.858Zm4.32-1.108-2.355-2.355a.857.857 0 0 0-.606-.25h-.216v3.428h3.428v-.217a.857.857 0 0 0-.25-.606Z" fill="#31357a" fill-rule="evenodd" data-name="copy"/></svg>