<svg xmlns="http://www.w3.org/2000/svg" width="24.716" height="24.716" viewBox="0 0 24.716 24.716">
  <path id="deposit_history" d="M12.358,20.082A10.041,10.041,0,1,0,2.317,10.041,10.039,10.039,0,0,0,12.358,20.082ZM11.286,4.7V3.891a.8.8,0,0,1,.8-.8h.536a.8.8,0,0,1,.8.8v.821a3.806,3.806,0,0,1,2.076.743.541.541,0,0,1,.058.825l-.787.748a.544.544,0,0,1-.676.048,1.589,1.589,0,0,0-.859-.246H11.359a.84.84,0,0,0-.787.883.872.872,0,0,0,.584.85l3.007.9a3.024,3.024,0,0,1,2.11,2.9A2.976,2.976,0,0,1,13.42,15.38v.811a.8.8,0,0,1-.8.8h-.536a.8.8,0,0,1-.8-.8V15.37a3.806,3.806,0,0,1-2.076-.743.541.541,0,0,1-.058-.825l.787-.748A.544.544,0,0,1,10.61,13a1.589,1.589,0,0,0,.859.246h1.878a.84.84,0,0,0,.787-.883.872.872,0,0,0-.584-.85l-3.007-.9a3.024,3.024,0,0,1-2.11-2.9A2.98,2.98,0,0,1,11.286,4.7Zm11.885,12.29H21.6a11.7,11.7,0,0,1-3.524,3.089h3.08a.431.431,0,0,1,.463.386v.772a.431.431,0,0,1-.463.386H3.553a.431.431,0,0,1-.463-.386v-.772a.431.431,0,0,1,.463-.386h3.08a11.758,11.758,0,0,1-3.524-3.089H1.545A1.543,1.543,0,0,0,0,18.537v4.634a1.543,1.543,0,0,0,1.545,1.545H23.171a1.543,1.543,0,0,0,1.545-1.545V18.537A1.543,1.543,0,0,0,23.171,16.992Z" fill="#232323"/>
</svg>
