<svg xmlns="http://www.w3.org/2000/svg" width="31.6" height="31.6" viewBox="0 0 31.6 31.6">
  <path id="deposit" d="M15.8,25.675A12.837,12.837,0,1,0,2.962,12.837,12.836,12.836,0,0,0,15.8,25.675ZM14.43,6.011V4.975A1.022,1.022,0,0,1,15.454,3.95h.685a1.022,1.022,0,0,1,1.025,1.025V6.024a4.866,4.866,0,0,1,2.654.95.692.692,0,0,1,.074,1.055l-1.006.957a.7.7,0,0,1-.864.062,2.031,2.031,0,0,0-1.1-.315h-2.4a1.073,1.073,0,0,0-1.006,1.129,1.115,1.115,0,0,0,.747,1.086L18.108,12.1a3.866,3.866,0,0,1,2.7,3.709,3.806,3.806,0,0,1-3.648,3.851V20.7a1.022,1.022,0,0,1-1.025,1.025h-.685A1.022,1.022,0,0,1,14.424,20.7V19.651a4.866,4.866,0,0,1-2.654-.95.692.692,0,0,1-.074-1.055l1.006-.957a.7.7,0,0,1,.864-.062,2.031,2.031,0,0,0,1.1.315h2.4a1.073,1.073,0,0,0,1.006-1.129,1.115,1.115,0,0,0-.747-1.086l-3.845-1.154a3.866,3.866,0,0,1-2.7-3.709A3.81,3.81,0,0,1,14.43,6.011Zm15.2,15.714H27.619a14.958,14.958,0,0,1-4.505,3.95h3.938a.551.551,0,0,1,.592.494v.987a.551.551,0,0,1-.592.494H4.542a.551.551,0,0,1-.592-.494v-.987a.551.551,0,0,1,.592-.494H8.48a15.033,15.033,0,0,1-4.505-3.95h-2A1.973,1.973,0,0,0,0,23.7v5.925A1.973,1.973,0,0,0,1.975,31.6h27.65A1.973,1.973,0,0,0,31.6,29.625V23.7A1.973,1.973,0,0,0,29.625,21.725Z" fill="#fff"/>
</svg>
