<svg xmlns="http://www.w3.org/2000/svg" width="19.683" height="35" viewBox="0 0 19.683 35">
  <path id="dollar" d="M14.3,15.955l-7.383-2.16a2.016,2.016,0,0,1,.567-3.951h4.532a4.173,4.173,0,0,1,2.338.718,1.066,1.066,0,0,0,1.333-.137L18.067,8.1a1.108,1.108,0,0,0-.123-1.675,9.666,9.666,0,0,0-5.913-2.051V1.094A1.1,1.1,0,0,0,10.938,0H8.75A1.1,1.1,0,0,0,7.656,1.094V4.375H7.485A7.49,7.49,0,0,0,.034,12.551a7.825,7.825,0,0,0,5.729,6.6l7.007,2.051a2.016,2.016,0,0,1-.567,3.951H7.67a4.173,4.173,0,0,1-2.338-.718A1.066,1.066,0,0,0,4,24.575L1.62,26.9a1.108,1.108,0,0,0,.123,1.675,9.666,9.666,0,0,0,5.913,2.051v3.281A1.1,1.1,0,0,0,8.75,35h2.188a1.1,1.1,0,0,0,1.094-1.094V30.611a7.722,7.722,0,0,0,7.226-4.97A7.506,7.506,0,0,0,14.3,15.955Z" transform="translate(-0.003)" fill="#fff" opacity="0.5"/>
</svg>
