<svg xmlns="http://www.w3.org/2000/svg" width="51.409" height="39.985" viewBox="0 0 51.409 39.985">
  <path id="driving_license" d="M47.125,2.25H4.284A4.285,4.285,0,0,0,0,6.534V37.951a4.285,4.285,0,0,0,4.284,4.284H47.125a4.285,4.285,0,0,0,4.284-4.284V6.534A4.285,4.285,0,0,0,47.125,2.25ZM15.708,10.818A5.712,5.712,0,1,1,10,16.53,5.717,5.717,0,0,1,15.708,10.818Zm10,21.135a1.872,1.872,0,0,1-2,1.714H7.711a1.872,1.872,0,0,1-2-1.714V30.24c0-2.838,2.686-5.141,6-5.141h.446a9.193,9.193,0,0,0,7.1,0h.446c3.311,0,6,2.3,6,5.141ZM45.7,27.241a.716.716,0,0,1-.714.714H32.131a.716.716,0,0,1-.714-.714V25.813a.716.716,0,0,1,.714-.714H44.983a.716.716,0,0,1,.714.714Zm0-5.712a.716.716,0,0,1-.714.714H32.131a.716.716,0,0,1-.714-.714V20.1a.716.716,0,0,1,.714-.714H44.983a.716.716,0,0,1,.714.714Zm0-5.712a.716.716,0,0,1-.714.714H32.131a.716.716,0,0,1-.714-.714V14.388a.716.716,0,0,1,.714-.714H44.983a.716.716,0,0,1,.714.714Z" transform="translate(0 -2.25)" fill="#a5a5a5"/>
</svg>
