<svg xmlns="http://www.w3.org/2000/svg" width="25.48" height="17.2" viewBox="0 0 25.48 17.2">
  <path id="Icon_zocial-email" data-name="Icon zocial-email" d="M.072,19.744V5.591q0-.025.074-.467l8.33,7.126L.17,20.236a2.082,2.082,0,0,1-.1-.491Zm1.106-15.6A1.059,1.059,0,0,1,1.6,4.068H24.029a1.391,1.391,0,0,1,.442.074l-8.354,7.15-1.106.885L12.824,13.97l-2.187-1.794-1.106-.885ZM1.2,21.194l8.379-8.035,3.243,2.629,3.243-2.629,8.379,8.035a1.18,1.18,0,0,1-.418.074H1.6a1.113,1.113,0,0,1-.393-.074ZM17.174,12.25l8.305-7.126a1.467,1.467,0,0,1,.074.467V19.744a1.883,1.883,0,0,1-.074.491Z" transform="translate(-0.072 -4.068)" fill="#565656"/>
</svg>
