<svg xmlns="http://www.w3.org/2000/svg" width="31.6" height="24.69" viewBox="0 0 31.6 24.69">
  <path id="exchange" d="M0,10.85V9.862A1.481,1.481,0,0,1,1.481,8.381H23.7V5.419a1.482,1.482,0,0,1,2.529-1.047l4.937,4.937a1.481,1.481,0,0,1,0,2.095l-4.937,4.937A1.482,1.482,0,0,1,23.7,15.294V12.331H1.481A1.481,1.481,0,0,1,0,10.85Zm30.119,9.381H7.9V17.269a1.482,1.482,0,0,0-2.529-1.047L.434,21.159a1.481,1.481,0,0,0,0,2.095l4.937,4.937A1.482,1.482,0,0,0,7.9,27.143V24.181H30.119A1.481,1.481,0,0,0,31.6,22.7v-.987A1.481,1.481,0,0,0,30.119,20.231Z" transform="translate(0 -3.936)" fill="#fff"/>
</svg>
