<svg id="front_part" xmlns="http://www.w3.org/2000/svg" width="94.906" height="78.418" viewBox="0 0 94.906 78.418">
  <path id="front_part-2" data-name="front_part" d="M66.493,2.25H6.045A6.046,6.046,0,0,0,0,8.295V10.31H72.538V8.295A6.046,6.046,0,0,0,66.493,2.25ZM0,52.624a6.046,6.046,0,0,0,6.045,6.045H66.493a6.046,6.046,0,0,0,6.045-6.045V14.34H0ZM44.329,23.407A1.01,1.01,0,0,1,45.336,22.4H63.471a1.01,1.01,0,0,1,1.007,1.007v2.015a1.01,1.01,0,0,1-1.007,1.007H45.336a1.01,1.01,0,0,1-1.007-1.007Zm0,8.06a1.01,1.01,0,0,1,1.007-1.007H63.471a1.01,1.01,0,0,1,1.007,1.007v2.015a1.01,1.01,0,0,1-1.007,1.007H45.336a1.01,1.01,0,0,1-1.007-1.007Zm0,8.06a1.01,1.01,0,0,1,1.007-1.007H63.471a1.01,1.01,0,0,1,1.007,1.007v2.015a1.01,1.01,0,0,1-1.007,1.007H45.336a1.01,1.01,0,0,1-1.007-1.007ZM22.164,22.4a8.06,8.06,0,1,1-8.06,8.06A8.067,8.067,0,0,1,22.164,22.4ZM8.45,48.115a8.071,8.071,0,0,1,7.669-5.566h1.033a12.971,12.971,0,0,0,10.024,0h1.033a8.071,8.071,0,0,1,7.669,5.566,1.983,1.983,0,0,1-1.965,2.493h-23.5A1.988,1.988,0,0,1,8.45,48.115Z" transform="translate(11.184 7.508)" fill="#328af1"/>
  <g id="Icon_ionic-ios-qr-scanner" data-name="Icon ionic-ios-qr-scanner" opacity="0.5">
    <path id="Path_18" data-name="Path 18" d="M13.751,4.5H8.909a5.535,5.535,0,0,0-5.534,5.534v4.842a1.153,1.153,0,0,0,2.306,0V9.951a3.16,3.16,0,0,1,.963-2.157,3.144,3.144,0,0,1,2.182-.988h4.924a1.153,1.153,0,0,0,0-2.306Z" transform="translate(-3.375 -4.5)" fill="#328af1"/>
    <path id="Path_19" data-name="Path 19" d="M28.858,4.5H23.934a1.153,1.153,0,0,0,0,2.306h4.924a3.144,3.144,0,0,1,2.182.988A3.16,3.16,0,0,1,32,9.951v4.924a1.153,1.153,0,1,0,2.306,0V9.951A5.458,5.458,0,0,0,28.858,4.5Z" transform="translate(60.596 -4.5)" fill="#328af1"/>
    <path id="Path_20" data-name="Path 20" d="M13.751,30.879H8.826a3.144,3.144,0,0,1-2.182-.988,3.16,3.16,0,0,1-.963-2.157V22.809a1.153,1.153,0,1,0-2.306,0v4.924a5.458,5.458,0,0,0,5.451,5.451h4.924a1.153,1.153,0,1,0,0-2.306Z" transform="translate(-3.375 45.234)" fill="#328af1"/>
    <path id="Path_21" data-name="Path 21" d="M33.157,21.656A1.156,1.156,0,0,0,32,22.809v4.924a3.352,3.352,0,0,1-3.146,3.146H23.934a1.153,1.153,0,1,0,0,2.306h4.842a5.54,5.54,0,0,0,5.534-5.534V22.809A1.156,1.156,0,0,0,33.157,21.656Z" transform="translate(60.596 45.234)" fill="#328af1"/>
  </g>
</svg>
