<svg xmlns="http://www.w3.org/2000/svg" width="27.686" height="19.864" viewBox="0 0 27.686 19.864">
  <g id="gender" transform="translate(-57.905 -529.25)">
    <path id="Icon_ionic-md-female" data-name="Icon ionic-md-female" d="M19.171,7.9a5.648,5.648,0,1,0-6.59,5.57v1.961H9.758v1.883h2.824v2.51h1.883v-2.51h2.824V15.429H14.465V13.468A5.647,5.647,0,0,0,19.171,7.9Zm-9.414,0a3.765,3.765,0,1,1,3.765,3.765A3.772,3.772,0,0,1,9.758,7.9Z" transform="translate(50.03 527)" fill="#565656"/>
    <path id="Icon_ionic-md-male" data-name="Icon ionic-md-male" d="M12.425,0H8.1V1.621h3.177l-3.6,3.6A4.861,4.861,0,1,0,8.826,6.368l3.6-3.6V5.942h1.621V0ZM4.862,12.425A3.241,3.241,0,1,1,8.1,9.184,3.247,3.247,0,0,1,4.862,12.425Z" transform="translate(65.727 539.182) rotate(-45)" fill="#565656"/>
  </g>
</svg>
