<svg id="home" xmlns="http://www.w3.org/2000/svg" width="21.386" height="21.379" viewBox="0 0 21.386 21.379">
  <path id="Path_14" data-name="Path 14" d="M15.1,7.3a.2.2,0,0,0-.257,0L6.827,13.716a.216.216,0,0,0-.077.159V25.7a.1.1,0,0,0,.1.1H12.4a.1.1,0,0,0,.1-.1V18.5a.1.1,0,0,1,.1-.1h4.728a.1.1,0,0,1,.1.1V25.7a.1.1,0,0,0,.1.1h5.55a.1.1,0,0,0,.1-.1V13.876a.208.208,0,0,0-.077-.159Z" transform="translate(-4.282 -4.419)" fill="#fff"/>
  <path id="Path_15" data-name="Path 15" d="M24.482,11.4,14.768,3.622a1.128,1.128,0,0,0-1.408,0L9.131,7.06V4.891a.1.1,0,0,0-.1-.1H5.944a.1.1,0,0,0-.1.1V9.63l-2.194,1.8a.719.719,0,0,0-.062,1.074.715.715,0,0,0,.509.211.724.724,0,0,0,.452-.159L14,4.953a.092.092,0,0,1,.067-.021.124.124,0,0,1,.067.021l9.451,7.575a.724.724,0,0,0,.452.159.729.729,0,0,0,.725-.761A.73.73,0,0,0,24.482,11.4Z" transform="translate(-3.374 -3.375)" fill="#fff"/>
</svg>
