<svg xmlns="http://www.w3.org/2000/svg" width="21.104" height="21.102" viewBox="0 0 21.104 21.102">
  <path id="key" d="M18.43,12a5.729,5.729,0,0,0-1.9.208c-2.567-2.186-9.349-7.959-9.866-8.5a1.023,1.023,0,0,0-.761-.34,1.693,1.693,0,0,0-1.08.487C4.475,4.2,3.151,5.627,3.4,5.891c.761.781.964.938,1.278,1.258.472.482,1.436-.051,1.826.117a.748.748,0,0,1,.528.634,9.48,9.48,0,0,1-.152,1.2,1.269,1.269,0,0,0,.467.964,1.067,1.067,0,0,0,.791.441c.457.01,1.06-.649,1.542-.157s-.315,1.2-.254,1.725a1.915,1.915,0,0,0,1.1,1.223c.309.066,1.106-.594,1.557-.492a1.058,1.058,0,0,1,.558.578c.051.233-.35,1.268-.3,1.5a3.567,3.567,0,0,0,.528.883,5.713,5.713,0,0,0-.477,2.42,6.172,6.172,0,0,0,6.047,6.29,6.164,6.164,0,0,0,6.036-6.29A6.08,6.08,0,0,0,18.43,12Zm1.177,9.227a1.623,1.623,0,1,1,1.623-1.623A1.622,1.622,0,0,1,19.607,21.231Z" transform="translate(-3.373 -3.375)" fill="#565656"/>
</svg>
