<svg xmlns="http://www.w3.org/2000/svg" width="24.09" height="18.736" viewBox="0 0 24.09 18.736">
  <path id="kyc" d="M22.082,2.25H2.007A2.008,2.008,0,0,0,0,4.257v.669H24.09V4.257A2.008,2.008,0,0,0,22.082,2.25ZM0,18.979a2.008,2.008,0,0,0,2.007,2.007H22.082a2.008,2.008,0,0,0,2.007-2.007V6.265H0Zm14.721-9.7a.336.336,0,0,1,.335-.335h6.022a.336.336,0,0,1,.335.335v.669a.336.336,0,0,1-.335.335H15.056a.336.336,0,0,1-.335-.335Zm0,2.677a.336.336,0,0,1,.335-.335h6.022a.336.336,0,0,1,.335.335v.669a.336.336,0,0,1-.335.335H15.056a.336.336,0,0,1-.335-.335Zm0,2.677a.336.336,0,0,1,.335-.335h6.022a.336.336,0,0,1,.335.335V15.3a.336.336,0,0,1-.335.335H15.056a.336.336,0,0,1-.335-.335ZM7.361,8.942a2.677,2.677,0,1,1-2.677,2.677A2.679,2.679,0,0,1,7.361,8.942Zm-4.554,8.54a2.68,2.68,0,0,1,2.547-1.849H5.7a4.308,4.308,0,0,0,3.329,0h.343a2.68,2.68,0,0,1,2.547,1.849.659.659,0,0,1-.652.828h-7.8A.66.66,0,0,1,2.806,17.482Z" transform="translate(0 -2.25)" fill="#31357a"/>
</svg>
