<svg xmlns="http://www.w3.org/2000/svg" width="22" height="22" viewBox="29.592 534 22 22">
    <path
        d="M43.626 541.966a6.528 6.528 0 0 1 0 9.237l-2.888 2.887a6.539 6.539 0 0 1-9.236 0 6.538 6.538 0 0 1 0-9.236l1.594-1.595c.423-.423 1.151-.142 1.173.456.028.761.164 1.526.416 2.265a.692.692 0 0 1-.162.714l-.562.562c-1.205 1.205-1.242 3.165-.05 4.381a3.097 3.097 0 0 0 4.397.022l2.887-2.887a3.093 3.093 0 0 0-.444-4.743.69.69 0 0 1-.299-.542 1.712 1.712 0 0 1 .503-1.28l.905-.906a.69.69 0 0 1 .884-.074c.315.22.61.467.882.739Zm6.056-6.056a6.539 6.539 0 0 0-9.237 0l-2.887 2.887-.016.016a6.528 6.528 0 0 0 .897 9.96.69.69 0 0 0 .885-.074l.905-.905c.358-.359.52-.827.502-1.28a.69.69 0 0 0-.298-.543 3.093 3.093 0 0 1-.444-4.744l2.887-2.886a3.097 3.097 0 0 1 4.397.022c1.192 1.216 1.154 3.176-.05 4.38l-.562.563a.692.692 0 0 0-.163.714c.252.739.389 1.504.416 2.265.022.598.75.879 1.173.456l1.595-1.595a6.538 6.538 0 0 0 0-9.236Z"
        fill="#1E9FF2" fill-rule="evenodd" />
</svg>