<svg xmlns="http://www.w3.org/2000/svg" width="23.75" height="23.75" viewBox="0 0 23.75 23.75">
  <path id="name" d="M15.25,3.375h0A11.87,11.87,0,0,0,3.444,14a11.443,11.443,0,0,0,0,2.5A11.87,11.87,0,0,0,15.25,27.125h0a11.875,11.875,0,0,0,0-23.75ZM23,21.992c-1.3-.491-3.4-1.21-4.7-1.6-.137-.04-.154-.051-.154-.611a3.249,3.249,0,0,1,.377-1.33,6.635,6.635,0,0,0,.525-1.8,4.011,4.011,0,0,0,.776-1.878,2.506,2.506,0,0,0-.023-1.576,1.012,1.012,0,0,1-.034-.1,10.267,10.267,0,0,1,.177-2.215,4.079,4.079,0,0,0-.851-2.929,4.364,4.364,0,0,0-3.34-1.6h-1a4.358,4.358,0,0,0-3.311,1.6,4.062,4.062,0,0,0-.856,2.929,10.267,10.267,0,0,1,.177,2.215c-.011.04-.023.069-.034.1a2.463,2.463,0,0,0-.023,1.576,4.073,4.073,0,0,0,.776,1.878,6.91,6.91,0,0,0,.525,1.8,3.189,3.189,0,0,1,.217,1.347c0,.565-.023.571-.148.611-1.353.4-3.363,1.108-4.567,1.587A10.276,10.276,0,0,1,22.518,7.982,10.276,10.276,0,0,1,23,21.992Z" transform="translate(-3.375 -3.375)" fill="#565656"/>
</svg>
