<svg xmlns="http://www.w3.org/2000/svg" width="51.409" height="39.985" viewBox="0 0 51.409 39.985">
  <path id="nid" d="M47.125,2.25H4.284A4.285,4.285,0,0,0,0,6.534V7.962H51.409V6.534A4.285,4.285,0,0,0,47.125,2.25ZM0,37.951a4.285,4.285,0,0,0,4.284,4.284H47.125a4.285,4.285,0,0,0,4.284-4.284V10.818H0ZM31.417,17.244a.716.716,0,0,1,.714-.714H44.983a.716.716,0,0,1,.714.714v1.428a.716.716,0,0,1-.714.714H32.131a.716.716,0,0,1-.714-.714Zm0,5.712a.716.716,0,0,1,.714-.714H44.983a.716.716,0,0,1,.714.714v1.428a.716.716,0,0,1-.714.714H32.131a.716.716,0,0,1-.714-.714Zm0,5.712a.716.716,0,0,1,.714-.714H44.983a.716.716,0,0,1,.714.714V30.1a.716.716,0,0,1-.714.714H32.131a.716.716,0,0,1-.714-.714ZM15.708,16.53A5.712,5.712,0,1,1,10,22.243,5.717,5.717,0,0,1,15.708,16.53ZM5.989,34.756a5.72,5.72,0,0,1,5.435-3.945h.732a9.193,9.193,0,0,0,7.1,0h.732a5.72,5.72,0,0,1,5.435,3.945,1.406,1.406,0,0,1-1.392,1.767H7.381A1.409,1.409,0,0,1,5.989,34.756Z" transform="translate(0 -2.25)" fill="#31357a"/>
</svg>
