<svg xmlns="http://www.w3.org/2000/svg" width="19.092" height="23.88" viewBox="0 0 19.092 23.88">
  <g id="notification" transform="translate(-6.761 -3.93)">
    <path id="Path_96" data-name="Path 96" d="M17.481,31.5c1.856,0,2.871-1.313,2.871-3.163H14.6C14.6,30.186,15.619,31.5,17.481,31.5Z" transform="translate(-1.186 -3.689)" fill="#fff"/>
    <path id="Path_97" data-name="Path 97" d="M25.612,21.615c-.919-1.212-2.728-1.922-2.728-7.347,0-5.568-2.459-7.807-4.751-8.344-.215-.054-.37-.125-.37-.352V5.4a1.456,1.456,0,1,0-2.913,0v.173c0,.221-.155.3-.37.352-2.3.543-4.751,2.775-4.751,8.344C9.73,19.693,7.921,20.4,7,21.615a1.185,1.185,0,0,0,.949,1.9H24.669A1.185,1.185,0,0,0,25.612,21.615Z" fill="#fff"/>
  </g>
</svg>
