<svg xmlns="http://www.w3.org/2000/svg" width="39.985" height="45.697" viewBox="0 0 39.985 45.697">
  <path id="passport" d="M11.569,15.708h3.489a20.14,20.14,0,0,1,1.268-6.284,8.554,8.554,0,0,0-4.757,6.284Zm0,2.856a8.557,8.557,0,0,0,4.757,6.284,20.114,20.114,0,0,1-1.268-6.284H11.569Zm8.424,7.023c.686-.665,1.854-3.072,2.091-7.023H17.9c.238,3.95,1.406,6.358,2.092,7.023ZM17.9,15.708h4.183c-.237-3.95-1.4-6.358-2.091-7.023C19.306,9.35,18.139,11.758,17.9,15.708Zm5.758,9.14a8.554,8.554,0,0,0,4.757-6.284H24.927A20.114,20.114,0,0,1,23.659,24.849ZM37.129,0H5.712A5.712,5.712,0,0,0,0,5.712V39.985A5.712,5.712,0,0,0,5.712,45.7H37.129a2.856,2.856,0,0,0,2.856-2.856V2.856A2.856,2.856,0,0,0,37.129,0Zm-7.14,37.129H10a1.428,1.428,0,0,1,0-2.856H29.989a1.428,1.428,0,0,1,0,2.856Zm-10-8.568A11.424,11.424,0,1,1,31.417,17.136,11.425,11.425,0,0,1,19.992,28.561ZM23.659,9.424a20.114,20.114,0,0,1,1.268,6.284h3.489a8.554,8.554,0,0,0-4.757-6.284Z" fill="#a5a5a5"/>
</svg>
