<svg xmlns="http://www.w3.org/2000/svg" width="24.482" height="21.422" viewBox="0 0 24.482 21.422">
  <path id="privacy_policy" d="M12.241,2.25A12.235,12.235,0,0,0,0,14.491v2.3a1.53,1.53,0,0,0,.846,1.369l.688.344a5.355,5.355,0,0,0,5.352,5.173H8.033a1.148,1.148,0,0,0,1.148-1.148V14.109a1.148,1.148,0,0,0-1.148-1.148H6.886A5.339,5.339,0,0,0,3.06,14.569v-.078a9.181,9.181,0,1,1,18.362,0v.078A5.339,5.339,0,0,0,17.6,12.961H16.449A1.148,1.148,0,0,0,15.3,14.109v8.416a1.148,1.148,0,0,0,1.148,1.148H17.6A5.355,5.355,0,0,0,22.949,18.5l.688-.344a1.53,1.53,0,0,0,.846-1.369v-2.3A12.235,12.235,0,0,0,12.241,2.25Z" transform="translate(0 -2.25)" fill="#232323"/>
</svg>
