<svg xmlns="http://www.w3.org/2000/svg" width="21.379" height="21.379" viewBox="0 0 21.379 21.379">
  <path id="profile" d="M14.065,3.375h0A10.685,10.685,0,0,0,3.437,12.939a10.3,10.3,0,0,0,0,2.251,10.685,10.685,0,0,0,10.628,9.564h0a10.69,10.69,0,0,0,0-21.379Zm6.979,16.759c-1.167-.442-3.058-1.09-4.235-1.439-.123-.036-.139-.046-.139-.55a2.925,2.925,0,0,1,.339-1.2,5.973,5.973,0,0,0,.473-1.624,3.611,3.611,0,0,0,.7-1.691,2.255,2.255,0,0,0-.021-1.418.911.911,0,0,1-.031-.087,9.242,9.242,0,0,1,.159-1.994A3.672,3.672,0,0,0,17.523,7.5a3.928,3.928,0,0,0-3.006-1.439h-.9A3.923,3.923,0,0,0,10.637,7.5a3.656,3.656,0,0,0-.771,2.636,9.242,9.242,0,0,1,.159,1.994c-.01.036-.021.062-.031.093a2.217,2.217,0,0,0-.021,1.418,3.667,3.667,0,0,0,.7,1.691,6.22,6.22,0,0,0,.473,1.624,2.871,2.871,0,0,1,.2,1.213c0,.509-.021.514-.134.55-1.218.36-3.027,1-4.111,1.429A9.25,9.25,0,0,1,20.607,7.522a9.25,9.25,0,0,1,.437,12.612Z" transform="translate(-3.375 -3.375)" fill="#fff"/>
</svg>
