<svg xmlns="http://www.w3.org/2000/svg" width="25.136" height="23.34" viewBox="0 0 25.136 23.34">
  <path id="rate_us" d="M26.432,11.454H18.179L15.671,3.97a.909.909,0,0,0-1.706,0l-2.508,7.485H3.148a.9.9,0,0,0-.9.9.66.66,0,0,0,.017.151.863.863,0,0,0,.376.634l6.783,4.78-2.6,7.569a.9.9,0,0,0,.309,1.01.868.868,0,0,0,.5.219,1.1,1.1,0,0,0,.561-.2l6.621-4.719,6.621,4.719a1.051,1.051,0,0,0,.561.2.806.806,0,0,0,.5-.219.889.889,0,0,0,.309-1.01l-2.6-7.569,6.727-4.825.163-.14a.941.941,0,0,0,.292-.6A.95.95,0,0,0,26.432,11.454Zm-2.659,1.975L19.3,16.644a1.576,1.576,0,0,0-.572,1.784l1.689,4.921a.225.225,0,0,1-.342.258l-4.343-3.1-.006-.006a2.092,2.092,0,0,1-.9-1.711V7.039a.109.109,0,0,1,.213-.034h0l1.661,4.949a1.569,1.569,0,0,0,1.487,1.072h5.459A.224.224,0,0,1,23.772,13.429Z" transform="translate(-2.25 -3.375)" fill="#232323"/>
</svg>
