<svg xmlns="http://www.w3.org/2000/svg" width="33.575" height="31.6" viewBox="0 0 33.575 31.6">
  <path id="request" d="M15.9,8.906l3.086.883a.519.519,0,0,1-.142,1.018H16.818a1.588,1.588,0,0,1-.636-.136.765.765,0,0,0-.87.123l-1.08,1.08a.74.74,0,0,0,.093,1.136,4.51,4.51,0,0,0,1.963.71v1.092a.99.99,0,0,0,.987.987h.987a.99.99,0,0,0,.987-.987V13.726a3.472,3.472,0,0,0,3.043-3.888,3.621,3.621,0,0,0-2.648-2.944l-3.086-.883A.519.519,0,0,1,16.7,4.993h2.024a1.588,1.588,0,0,1,.636.136.765.765,0,0,0,.87-.123l1.08-1.08a.74.74,0,0,0-.093-1.136,4.51,4.51,0,0,0-1.963-.71V.987A.99.99,0,0,0,18.269,0h-.987a.99.99,0,0,0-.987.987V2.074a3.472,3.472,0,0,0-3.043,3.888A3.621,3.621,0,0,0,15.9,8.906ZM32.952,20.25a1.854,1.854,0,0,0-2.487,0l-5.382,4.561a3.589,3.589,0,0,1-2.333.864H15.855a.989.989,0,0,1,0-1.975h4.561a1.977,1.977,0,0,0,.1-3.95H11.19a6.6,6.6,0,0,0-4.314,1.623L4.166,23.7H.932A.964.964,0,0,0,0,24.687v5.925a.964.964,0,0,0,.932.987H21.725a3.614,3.614,0,0,0,2.333-.864l8.813-7.468A2.051,2.051,0,0,0,32.952,20.25Z" fill="#fff"/>
</svg>
