<svg id="transaction_history" xmlns="http://www.w3.org/2000/svg" width="18.526" height="24.377" viewBox="0 0 18.526 24.377">
  <path id="Path_34" data-name="Path 34" d="M21.759,9.972h5.546a.3.3,0,0,0,.3-.3h0a1.8,1.8,0,0,0-.652-1.4L22.308,4.4a1.957,1.957,0,0,0-1.255-.451h0A.45.45,0,0,0,20.6,4.4V8.814A1.157,1.157,0,0,0,21.759,9.972Z" transform="translate(-9.083 -3.938)" fill="#232323"/>
  <path id="Path_35" data-name="Path 35" d="M17.246,8.813V3.938H9.263a1.956,1.956,0,0,0-1.95,1.95V26.364a1.956,1.956,0,0,0,1.95,1.95H23.889a1.956,1.956,0,0,0,1.95-1.95V11.555h-5.85A2.747,2.747,0,0,1,17.246,8.813Z" transform="translate(-7.313 -3.938)" fill="#232323"/>
</svg>
