<svg xmlns="http://www.w3.org/2000/svg" width="18.129" height="23.789" viewBox="0 0 18.129 23.789">
  <path id="withdraw_history" d="M23.46,9.867,15.53,17.8a1.135,1.135,0,0,1-1.935-.8V12.463H7.175A1.13,1.13,0,0,1,6.042,11.33V6.8A1.13,1.13,0,0,1,7.175,5.665h6.42V1.134a1.135,1.135,0,0,1,1.935-.8l7.93,7.93A1.143,1.143,0,0,1,23.46,9.867Zm-14.4,7.694V15.673a.568.568,0,0,0-.566-.566H4.532A1.509,1.509,0,0,1,3.021,13.6V4.533A1.509,1.509,0,0,1,4.532,3.022H8.5a.568.568,0,0,0,.566-.566V.567A.568.568,0,0,0,8.5,0H4.532A4.533,4.533,0,0,0,0,4.533V13.6a4.533,4.533,0,0,0,4.532,4.532H8.5A.568.568,0,0,0,9.063,17.561Z" transform="translate(0 23.789) rotate(-90)" fill="#232323"/>
</svg>
