<svg xmlns="http://www.w3.org/2000/svg" width="23.833" height="22" viewBox="0 0 23.833 22">
  <g id="Icon_ionic-ios-calendar" data-name="Icon ionic-ios-calendar" transform="translate(-3.375 -4.5)">
    <path id="Path_54" data-name="Path 54" d="M24.917,6.75H22.625V8.125a.46.46,0,0,1-.458.458H21.25a.46.46,0,0,1-.458-.458V6.75h-11V8.125a.46.46,0,0,1-.458.458H8.417a.46.46,0,0,1-.458-.458V6.75H5.667A2.3,2.3,0,0,0,3.375,9.042V24.625a2.3,2.3,0,0,0,2.292,2.292h19.25a2.3,2.3,0,0,0,2.292-2.292V9.042A2.3,2.3,0,0,0,24.917,6.75Zm.458,17.188a1.149,1.149,0,0,1-1.146,1.146H6.354a1.149,1.149,0,0,1-1.146-1.146V13.625a.46.46,0,0,1,.458-.458h19.25a.46.46,0,0,1,.458.458Z" transform="translate(0 -0.417)" fill="#273193"/>
    <path id="Path_55" data-name="Path 55" d="M10.833,4.958a.46.46,0,0,0-.458-.458H9.458A.46.46,0,0,0,9,4.958V6.333h1.833Z" transform="translate(-1.042)" fill="#273193"/>
    <path id="Path_56" data-name="Path 56" d="M26.583,4.958a.46.46,0,0,0-.458-.458h-.917a.46.46,0,0,0-.458.458V6.333h1.833Z" transform="translate(-3.958)" fill="#273193"/>
  </g>
</svg>
