<svg xmlns="http://www.w3.org/2000/svg" width="9.233" height="6.925" viewBox="0 0 9.233 6.925">
  <path id="Path_53" data-name="Path 53" d="M13,9.029H11.69A.39.39,0,0,1,11.4,8.9c-.683-.765-.94-1.024-1.219-1.024H8.126c-.281,0-.558.26-1.243,1.027a.383.383,0,0,1-.286.127H6.5V8.837a.193.193,0,0,0-.192-.192H5.681a.193.193,0,0,0-.192.192v.192h-.18a.78.78,0,0,0-.808.738V14a.832.832,0,0,0,.806.8H13a.771.771,0,0,0,.733-.8V9.767A.717.717,0,0,0,13,9.029ZM9.213,13.848a2.056,2.056,0,1,1,1.957-1.957A2.058,2.058,0,0,1,9.213,13.848Zm2.212-3.424a.313.313,0,1,1,.313-.313A.312.312,0,0,1,11.425,10.424Z" transform="translate(-4.5 -7.875)" fill="#fff"/>
</svg>
