<svg xmlns="http://www.w3.org/2000/svg" width="25.689" height="18.35" viewBox="0 0 25.689 18.35">
  <g id="Icon_ionic-ios-card" data-name="Icon ionic-ios-card" transform="translate(-2.25 -6.75)">
    <path id="Path_57" data-name="Path 57" d="M27.939,8.585A1.84,1.84,0,0,0,26.1,6.75H4.085A1.84,1.84,0,0,0,2.25,8.585v2.752H27.939Z" fill="#273193"/>
    <path id="Path_58" data-name="Path 58" d="M2.25,24.925A1.84,1.84,0,0,0,4.085,26.76H26.1a1.84,1.84,0,0,0,1.835-1.835V15.75H2.25Zm8.143-2.752h9.4a.805.805,0,0,1,.8.8h0a.805.805,0,0,1-.8.8h-9.4a.805.805,0,0,1-.8-.8h0A.805.805,0,0,1,10.393,22.172Zm-4.129,0h.688a.805.805,0,0,1,.8.8h0a.805.805,0,0,1-.8.8H6.264a.805.805,0,0,1-.8-.8h0A.805.805,0,0,1,6.264,22.172Z" transform="translate(0 -1.66)" fill="#273193"/>
  </g>
</svg>
