<svg xmlns="http://www.w3.org/2000/svg" width="22.86" height="16.329" viewBox="0 0 22.86 16.329">
  <g id="Group_417" data-name="Group 417" transform="translate(-52.569 -464.336)">
    <g id="Icon_ionic-ios-card" data-name="Icon ionic-ios-card" transform="translate(50.319 457.586)">
      <path id="Path_33" data-name="Path 33" d="M25.11,8.383A1.638,1.638,0,0,0,23.477,6.75H3.883A1.638,1.638,0,0,0,2.25,8.383v2.449H25.11Z" transform="translate(0 0)"/>
      <path id="Path_34" data-name="Path 34" d="M2.25,23.914a1.638,1.638,0,0,0,1.633,1.633H23.477a1.638,1.638,0,0,0,1.633-1.633V15.75H2.25ZM9.5,21.465h8.368a.716.716,0,0,1,.714.714h0a.716.716,0,0,1-.714.714H9.5a.716.716,0,0,1-.714-.714h0A.716.716,0,0,1,9.5,21.465Zm-3.674,0h.612a.716.716,0,0,1,.714.714h0a.716.716,0,0,1-.714.714H5.822a.716.716,0,0,1-.714-.714h0A.716.716,0,0,1,5.822,21.465Z" transform="translate(0 -2.469)"/>
    </g>
  </g>
</svg>
