<svg xmlns="http://www.w3.org/2000/svg" width="23.136" height="24.422" viewBox="0 0 23.136 24.422">
  <path id="Icon_metro-location-city" data-name="Icon metro-location-city" d="M21.851,16.71V9L17.995,5.141,14.139,9v2.571H6.427V29.563H29.563V16.71H21.851ZM11.568,26.992H9V24.422h2.571Zm0-5.141H9V19.28h2.571Zm0-5.141H9V14.139h2.571ZM19.28,26.992H16.71V24.422H19.28Zm0-5.141H16.71V19.28H19.28Zm0-5.141H16.71V14.139H19.28Zm0-5.141H16.71V9H19.28Zm7.712,15.424H24.422V24.422h2.571v2.571Zm0-5.141H24.422V19.28h2.571Z" transform="translate(-6.427 -5.141)" fill="#273193"/>
</svg>
