<svg xmlns="http://www.w3.org/2000/svg" width="27.849" height="18.566" viewBox="0 0 27.849 18.566">
  <path id="Icon_metro-mastercard" data-name="Icon metro-mastercard" d="M10.681,20.019h-.157q-.568,0-.568.387,0,.266.242.266a.4.4,0,0,0,.338-.181A.839.839,0,0,0,10.681,20.019Zm4.774-.435h.749v-.036a.186.186,0,0,0,.006-.079q-.006-.03-.012-.085a.34.34,0,0,0-.024-.1.251.251,0,0,0-.054-.079.3.3,0,0,0-.091-.06.345.345,0,0,0-.139-.024q-.338,0-.435.459Zm6.527.435h-.145q-.58,0-.58.387,0,.266.242.266a.4.4,0,0,0,.338-.181A.839.839,0,0,0,21.983,20.019Zm3.856-.314q0-.5-.363-.5a.429.429,0,0,0-.375.242,1.183,1.183,0,0,0-.145.616q0,.508.338.508a.45.45,0,0,0,.393-.242A1.171,1.171,0,0,0,25.839,19.705ZM8.372,18H9.424l-.532,3.167H8.215l.387-2.43-.858,2.43H7.273L7.224,18.75l-.411,2.417H6.173L6.7,18h.979l.024,1.97Zm3.058,1.293q0,.073-.048.508-.193,1.221-.205,1.366h-.568l.012-.266a.831.831,0,0,1-.7.314.584.584,0,0,1-.453-.193.727.727,0,0,1-.175-.508.9.9,0,0,1,.314-.731,1.348,1.348,0,0,1,.882-.26,2.607,2.607,0,0,1,.278.012.339.339,0,0,1,.006-.066q.006-.03.012-.054a.167.167,0,0,0,.006-.036q0-.242-.435-.242a2.247,2.247,0,0,0-.713.121q0-.048.085-.58a2.961,2.961,0,0,1,.81-.133q.894,0,.894.749Zm1.886-.7-.1.592a3.683,3.683,0,0,0-.5-.036q-.326,0-.326.205a.184.184,0,0,0,.054.145,1.093,1.093,0,0,0,.26.133.759.759,0,0,1,.483.725q0,.87-1.052.858a2.928,2.928,0,0,1-.7-.073q0-.024.085-.592a2.358,2.358,0,0,0,.616.1q.387,0,.387-.23a.188.188,0,0,0-.054-.139,1.08,1.08,0,0,0-.26-.151.768.768,0,0,1-.52-.713q0-.87,1.015-.87A3.155,3.155,0,0,1,13.316,18.593Zm1.064,0h.338l-.085.629h-.351q-.024.205-.079.49t-.085.465a2.145,2.145,0,0,0-.03.218q0,.193.23.193a.8.8,0,0,0,.193-.024l-.1.568a1.529,1.529,0,0,1-.483.085q-.52,0-.544-.568a5.225,5.225,0,0,1,.1-.677q.036-.242.3-1.765h.665Zm2.454.882a2.709,2.709,0,0,1-.085.629H15.407a.414.414,0,0,0,.121.4.694.694,0,0,0,.459.133,1.549,1.549,0,0,0,.7-.169l-.109.653a2.676,2.676,0,0,1-.689.1,1.015,1.015,0,0,1-1.148-1.148,1.734,1.734,0,0,1,.332-1.094,1.021,1.021,0,0,1,.84-.429.894.894,0,0,1,.671.254.927.927,0,0,1,.248.677Zm1.68-.894a2.85,2.85,0,0,0-.266.749q-.266-.024-.375.29a12.235,12.235,0,0,0-.3,1.547h-.677L16.93,21q.266-1.571.351-2.405H17.9l-.036.4a1.443,1.443,0,0,1,.308-.357.4.4,0,0,1,.344-.054Zm2.26-.5-.109.689a1.38,1.38,0,0,0-.6-.169.733.733,0,0,0-.616.332,1.413,1.413,0,0,0-.242.852.891.891,0,0,0,.163.568.56.56,0,0,0,.465.205,1.367,1.367,0,0,0,.58-.157l-.121.713a2.229,2.229,0,0,1-.6.1,1.087,1.087,0,0,1-.864-.369,1.468,1.468,0,0,1-.32-1,2.151,2.151,0,0,1,.429-1.384,1.351,1.351,0,0,1,1.106-.538,2.167,2.167,0,0,1,.737.157Zm1.958,1.209a3.139,3.139,0,0,1-.048.508q-.157.955-.205,1.366h-.556l.012-.266a.844.844,0,0,1-.713.314.565.565,0,0,1-.447-.193.743.743,0,0,1-.169-.508.9.9,0,0,1,.308-.731,1.323,1.323,0,0,1,.876-.26,2.406,2.406,0,0,1,.278.012.574.574,0,0,0,.024-.157q0-.242-.435-.242a2.247,2.247,0,0,0-.713.121q0-.048.1-.58a2.961,2.961,0,0,1,.81-.133q.882,0,.882.749Zm1.7-.713a2.329,2.329,0,0,0-.254.749.348.348,0,0,0-.381.278,13.626,13.626,0,0,0-.308,1.559h-.677L22.853,21q.23-1.257.351-2.405h.629a2.452,2.452,0,0,1-.048.4,1.626,1.626,0,0,1,.32-.357.378.378,0,0,1,.332-.054Zm1.7-.58h.677l-.52,3.167h-.641l.036-.23a.867.867,0,0,1-.629.278.717.717,0,0,1-.6-.29,1.234,1.234,0,0,1-.224-.774,1.88,1.88,0,0,1,.332-1.112.95.95,0,0,1,.78-.471.785.785,0,0,1,.641.351Zm1.342,1.571a6.576,6.576,0,0,0-10.54-5.246,6.93,6.93,0,0,1,2.067,3.433h-.6A6.508,6.508,0,0,0,16.5,14.7a6.508,6.508,0,0,0-1.91,3.058h-.6a6.93,6.93,0,0,1,2.067-3.433,6.579,6.579,0,0,0-9.664,1.946,6.573,6.573,0,0,0,5.7,9.875,6.458,6.458,0,0,0,3.965-1.33,6.952,6.952,0,0,1-1.994-3.191h.6A6.454,6.454,0,0,0,16.5,24.443a6.454,6.454,0,0,0,1.837-2.816h.6a6.951,6.951,0,0,1-1.994,3.191,6.564,6.564,0,0,0,10.54-5.246Zm2.937-7.736V27.308a1.569,1.569,0,0,1-1.547,1.547H4.118A1.487,1.487,0,0,1,3.03,28.4a1.487,1.487,0,0,1-.459-1.088V11.836a1.487,1.487,0,0,1,.459-1.088,1.487,1.487,0,0,1,1.088-.459H28.872a1.569,1.569,0,0,1,1.547,1.547Z" transform="translate(-2.571 -10.289)" fill="#273193"/>
</svg>
