<svg xmlns="http://www.w3.org/2000/svg" width="18.923" height="18.923" viewBox="0 0 18.923 18.923">
  <path id="Icon_awesome-phone-alt" data-name="Icon awesome-phone-alt" d="M18.383,13.372,14.244,11.6a.887.887,0,0,0-1.035.255l-1.833,2.24A13.7,13.7,0,0,1,4.827,7.544l2.24-1.833a.885.885,0,0,0,.255-1.035L5.548.536A.893.893,0,0,0,4.531.023L.687.91A.887.887,0,0,0,0,1.774,17.147,17.147,0,0,0,17.149,18.924a.887.887,0,0,0,.865-.687l.887-3.844a.9.9,0,0,0-.518-1.02Z" transform="translate(0 0)" fill="#273193"/>
</svg>
