<svg xmlns="http://www.w3.org/2000/svg" width="21.002" height="21.002" viewBox="0 0 21.002 21.002">
  <path id="Icon_ionic-ios-contact" data-name="Icon ionic-ios-contact" d="M13.876,3.375h0a10.5,10.5,0,0,0-10.44,9.4,10.119,10.119,0,0,0,0,2.211,10.5,10.5,0,0,0,10.44,9.4h0a10.5,10.5,0,1,0,0-21Zm6.856,16.463c-1.146-.434-3-1.07-4.16-1.414-.121-.035-.136-.045-.136-.54a2.873,2.873,0,0,1,.333-1.176,5.867,5.867,0,0,0,.464-1.6,3.547,3.547,0,0,0,.687-1.661,2.216,2.216,0,0,0-.02-1.393.893.893,0,0,1-.03-.086,9.079,9.079,0,0,1,.157-1.959,3.607,3.607,0,0,0-.752-2.59A3.859,3.859,0,0,0,14.32,6.01h-.883a3.854,3.854,0,0,0-2.928,1.414,3.592,3.592,0,0,0-.757,2.59,9.079,9.079,0,0,1,.157,1.959c-.01.035-.02.061-.03.091a2.178,2.178,0,0,0-.02,1.393,3.6,3.6,0,0,0,.687,1.661,6.11,6.11,0,0,0,.464,1.6A2.82,2.82,0,0,1,11.2,17.9c0,.5-.02.5-.131.54-1.2.353-2.974.979-4.039,1.4A9.087,9.087,0,0,1,20.3,7.449a9.087,9.087,0,0,1,.429,12.389Z" transform="translate(-3.375 -3.375)"/>
</svg>
