<svg xmlns="http://www.w3.org/2000/svg" width="23.999" height="23.999" viewBox="0 0 23.999 23.999">
  <path id="Icon_ionic-ios-contact" data-name="Icon ionic-ios-contact" d="M15.374,3.375h0A11.994,11.994,0,0,0,3.444,14.111a11.563,11.563,0,0,0,0,2.527,11.994,11.994,0,0,0,11.93,10.736h0a12,12,0,0,0,0-24Zm7.834,18.813c-1.31-.5-3.433-1.223-4.754-1.615-.138-.04-.156-.052-.156-.617a3.283,3.283,0,0,1,.381-1.344,6.7,6.7,0,0,0,.531-1.823A4.053,4.053,0,0,0,20,14.89a2.532,2.532,0,0,0-.023-1.592,1.022,1.022,0,0,1-.035-.1,10.374,10.374,0,0,1,.179-2.238A4.122,4.122,0,0,0,19.257,8a4.41,4.41,0,0,0-3.375-1.615h-1.01A4.4,4.4,0,0,0,11.527,8a4.1,4.1,0,0,0-.865,2.959A10.374,10.374,0,0,1,10.84,13.2c-.012.04-.023.069-.035.1a2.489,2.489,0,0,0-.023,1.592,4.116,4.116,0,0,0,.785,1.9,6.982,6.982,0,0,0,.531,1.823,3.223,3.223,0,0,1,.219,1.361c0,.571-.023.577-.15.617-1.367.4-3.4,1.119-4.615,1.6A10.384,10.384,0,0,1,22.718,8.031a10.384,10.384,0,0,1,.49,14.157Z" transform="translate(-3.375 -3.375)" fill="#273193"/>
</svg>
