<svg xmlns="http://www.w3.org/2000/svg" width="23.721" height="23.721" viewBox="0 0 23.721 23.721">
  <path id="Icon_awesome-street-view" data-name="Icon awesome-street-view" d="M17.045,15.278a2.962,2.962,0,0,1-.737.632v1.063c3.082.433,5.189,1.3,5.189,2.3,0,1.433-4.314,2.594-9.637,2.594s-9.637-1.161-9.637-2.594c0-1,2.107-1.867,5.189-2.3V15.91a2.962,2.962,0,0,1-.737-.632C2.727,16,0,17.515,0,19.273c0,2.456,5.31,4.448,11.86,4.448s11.86-1.991,11.86-4.448C23.721,17.515,20.993,16,17.045,15.278ZM11.86,5.93A2.965,2.965,0,1,0,8.9,2.965,2.965,2.965,0,0,0,11.86,5.93ZM8.9,14.825v4.448a1.483,1.483,0,0,0,1.483,1.483h2.965a1.483,1.483,0,0,0,1.483-1.483V14.825a1.483,1.483,0,0,0,1.483-1.483V8.9a2.224,2.224,0,0,0-2.224-2.224h-.547a3.98,3.98,0,0,1-3.354,0H9.637A2.224,2.224,0,0,0,7.413,8.9v4.448A1.483,1.483,0,0,0,8.9,14.825Z" fill="#273193"/>
</svg>
