<svg xmlns="http://www.w3.org/2000/svg" width="27.85" height="18.566" viewBox="0 0 27.85 18.566">
  <path id="Icon_metro-visa" data-name="Icon metro-visa" d="M26.443,20.708H24.775q.169-.447.8-2.164l.036-.109q.048-.121.121-.314t.109-.314l.145.665ZM8.989,19.923l-.7-3.566a.8.8,0,0,0-.907-.653H4.142l-.024.157a6.412,6.412,0,0,1,4.871,4.061ZM11.153,15.7,9.195,21l-.205-1.076a4.4,4.4,0,0,0-1.027-1.565,4.688,4.688,0,0,0-1.583-1.07L8.01,23.452h2.115L13.28,15.7H11.153Zm1.68,7.76h2.007L16.1,15.7H14.09ZM22.116,15.9a4.9,4.9,0,0,0-1.8-.326,3.918,3.918,0,0,0-2.43.713,2.249,2.249,0,0,0-.955,1.849q-.012,1.233,1.753,2.1a3.343,3.343,0,0,1,.81.5.644.644,0,0,1,.23.471.6.6,0,0,1-.363.556,1.745,1.745,0,0,1-.834.193,4.367,4.367,0,0,1-1.886-.4l-.266-.133L16.1,23.162a5.356,5.356,0,0,0,2.236.411,3.991,3.991,0,0,0,2.52-.713,2.377,2.377,0,0,0,.973-1.934q0-1.281-1.692-2.1a5.841,5.841,0,0,1-.858-.508.582.582,0,0,1-.266-.459.564.564,0,0,1,.3-.465,1.523,1.523,0,0,1,.852-.2,3.412,3.412,0,0,1,1.5.29l.181.1Zm5.137-.193H25.706a1.027,1.027,0,0,0-1.052.653l-2.974,7.107h2.1l.423-1.16H26.77q.06.266.242,1.16h1.861Zm3.167-3.868V27.308a1.569,1.569,0,0,1-1.547,1.547H4.118A1.487,1.487,0,0,1,3.03,28.4a1.487,1.487,0,0,1-.459-1.088V11.836a1.487,1.487,0,0,1,.459-1.088,1.487,1.487,0,0,1,1.088-.459H28.873a1.569,1.569,0,0,1,1.547,1.547Z" transform="translate(-2.571 -10.289)" fill="#273193"/>
</svg>
