<svg xmlns="http://www.w3.org/2000/svg" width="12.531" height="22.281" viewBox="0 0 12.531 22.281">
  <path id="Icon_awesome-dollar-sign" data-name="Icon awesome-dollar-sign" d="M9.105,10.157l-4.7-1.375a1.284,1.284,0,0,1,.361-2.515H7.652a2.656,2.656,0,0,1,1.488.457.678.678,0,0,0,.849-.087L11.5,5.157a.705.705,0,0,0-.078-1.066A6.154,6.154,0,0,0,7.66,2.785V.7a.7.7,0,0,0-.7-.7H5.571a.7.7,0,0,0-.7.7V2.785H4.766A4.768,4.768,0,0,0,.023,7.99a4.982,4.982,0,0,0,3.647,4.2L8.13,13.5a1.284,1.284,0,0,1-.361,2.515H4.884A2.656,2.656,0,0,1,3.4,15.558a.678.678,0,0,0-.849.087l-1.514,1.48a.705.705,0,0,0,.078,1.066A6.154,6.154,0,0,0,4.875,19.5v2.089a.7.7,0,0,0,.7.7H6.964a.7.7,0,0,0,.7-.7v-2.1a4.916,4.916,0,0,0,4.6-3.164,4.779,4.779,0,0,0-3.155-6.167Z" transform="translate(-0.003)" fill="#273193"/>
</svg>
