<svg xmlns="http://www.w3.org/2000/svg" width="17.294" height="17.294" viewBox="0 0 17.294 17.294">
  <path id="Icon_metro-chart-bars2" data-name="Icon metro-chart-bars2" d="M8.822,10.725H5.116a.619.619,0,0,0-.618.618V22.46a.619.619,0,0,0,.618.618H8.822a.619.619,0,0,0,.618-.618V11.343A.619.619,0,0,0,8.822,10.725Zm0,11.117H5.116V16.9H8.822ZM15,8.255H11.293a.619.619,0,0,0-.618.618V22.46a.619.619,0,0,0,.618.618H15a.619.619,0,0,0,.618-.618V8.872A.619.619,0,0,0,15,8.255Zm0,13.588H11.293V15.666H15ZM21.175,5.784H17.469a.619.619,0,0,0-.618.618V22.46a.619.619,0,0,0,.618.618h3.706a.619.619,0,0,0,.618-.618V6.4a.619.619,0,0,0-.618-.618Zm0,16.058H17.469V14.431h3.706Z" transform="translate(-4.499 -5.784)" opacity="0.7"/>
</svg>
