<svg width="25" height="25" viewBox="0 0 25 25" fill="none" xmlns="http://www.w3.org/2000/svg">
<path d="M24.875 11.2083L11.125 11.2083L11.125 0.875L24.875 0.875L24.875 11.2083ZM13.875 24.125L0.125 24.125L0.125 13.7917L13.875 13.7917L13.875 24.125ZM11.125 16.375L2.875 16.375L2.875 21.5417L11.125 21.5417L11.125 16.375ZM24.875 24.125L16.625 24.125L16.625 13.7917L24.875 13.7917L24.875 24.125ZM22.125 21.5417L22.125 16.375L19.375 16.375L19.375 21.5417L22.125 21.5417ZM22.125 8.625L22.125 3.45833L13.875 3.45833L13.875 8.625L22.125 8.625ZM0.125 11.2083L0.125 0.875L8.375 0.875L8.375 11.2083L0.125 11.2083ZM2.875 8.625L5.625 8.625L5.625 3.45833L2.875 3.45833L2.875 8.625Z" fill="#0567E1"/>
</svg>
