<?xml version="1.0" encoding="utf-8"?>
<!-- Generator: Adobe Illustrator 26.0.1, SVG Export Plug-In . SVG Version: 6.00 Build 0)  -->
<svg version="1.1" id="Layer_1" xmlns="http://www.w3.org/2000/svg"  x="0px" y="0px"
	 viewBox="0 0 80 80" style="enable-background:new 0 0 80 80;" xml:space="preserve">
<style type="text/css">
	.st0{fill:#0567E1;}
</style>
<g>
	<g>
		<path class="st0" d="M32.41,20.26c-0.12-0.4-0.46-0.66-0.72-0.96c-1.75-2.06-3.39-4.22-5.29-6.13c-2.29-2.3-1.54-6.93,1.72-8.59
			c1.82-0.93,3.65-0.89,5.54,0.01c0.5-0.56,1.03-1.11,1.53-1.69c2.75-3.17,6.82-3.17,9.54,0.01c0.48,0.56,0.96,1.13,1.45,1.72
			c1.9-0.9,3.76-0.93,5.57,0.09c3.42,1.92,3.76,6.39,1.53,8.73c-1.75,1.84-3.37,3.81-5.04,5.73c-0.62,0.71-0.44,1.26,0.48,1.52
			c10.04,2.84,17.45,8.91,21.92,18.32c3.43,7.22,4.45,14.8,1.96,22.56c-3.43,10.67-13.4,17.86-24.59,17.89
			c-5.38,0.01-10.76,0.01-16.13,0C18.98,79.42,7.95,69.88,6.31,57.1c-1.2-9.38,1.49-17.76,7.39-25.07
			c4.68-5.79,10.71-9.58,17.93-11.43c0.22-0.06,0.44-0.13,0.66-0.21C32.34,20.38,32.36,20.32,32.41,20.26z M39.92,72.82
			c2.68,0,5.35,0.06,8.03-0.01c7.75-0.22,13.54-3.74,17.2-10.58c2.4-4.49,2.52-9.29,1.56-14.19C64,34.24,50.68,24.58,36.77,26.38
			c-8.02,1.04-14.45,4.84-19.13,11.43c-3.89,5.49-5.67,11.66-4.77,18.36c1.31,9.74,9.47,16.65,19.33,16.65
			C34.77,72.82,37.34,72.82,39.92,72.82z M33.76,11.59c0.74,0.86,1.43,1.62,2.07,2.42c0.36,0.46,0.75,0.66,1.36,0.64
			c1.49-0.05,2.99-0.1,4.47,0.01c1.26,0.09,2.23-0.19,2.91-1.31c0.39-0.63,1.05-1.07,1.45-1.82c-3.02,0.06-4.51-2.06-6.1-4.02
			C36.8,11.11,36.5,11.31,33.76,11.59z"/>
		<path class="st0" d="M37.36,64.64c0-0.15-0.02-0.31,0-0.46c0.09-0.66-0.13-0.99-0.79-1.31c-2.87-1.42-4.39-3.78-4.47-7
			c-0.04-1.49,1.02-2.61,2.42-2.66c1.48-0.06,2.59,0.94,2.72,2.45c0.18,2.06,1.73,3.27,3.49,2.72c1.3-0.41,2.05-1.61,1.88-2.99
			c-0.16-1.29-1.27-2.28-2.67-2.31c-1.93-0.03-3.62-0.66-5.1-1.88c-4.38-3.62-3.38-10.85,1.83-13.13c0.52-0.23,0.77-0.47,0.7-1.07
			c-0.06-0.53-0.03-1.08,0-1.62c0.08-1.51,1.18-2.57,2.63-2.56c1.41,0.01,2.49,1.08,2.56,2.55c0.03,0.74-0.19,1.58,0.07,2.21
			c0.27,0.65,1.23,0.7,1.83,1.14c2.1,1.55,3.27,3.59,3.39,6.2c0.07,1.58-0.94,2.77-2.38,2.88c-1.49,0.11-2.63-0.93-2.8-2.55
			c-0.18-1.71-1.22-2.75-2.74-2.73c-1.38,0.01-2.46,1-2.65,2.41c-0.17,1.3,0.7,2.6,2.01,2.88c0.75,0.16,1.54,0.14,2.29,0.29
			c3.35,0.67,5.92,3.51,6.25,6.87c0.34,3.42-1.54,6.67-4.69,8.02c-0.46,0.2-0.62,0.43-0.58,0.91c0.04,0.54,0.02,1.08,0.01,1.62
			c-0.04,1.51-1.11,2.64-2.53,2.67c-1.46,0.03-2.6-1.07-2.68-2.62C37.35,65.26,37.36,64.95,37.36,64.64z"/>
	</g>
</g>
</svg>
