<svg width="20" height="18" viewBox="0 0 20 18" fill="none" xmlns="http://www.w3.org/2000/svg">
<path d="M19.2425 8.4457C18.4873 6.85457 17.5885 5.55691 16.5462 4.55274L15.4531 5.64586C16.3445 6.49772 17.1209 7.61211 17.7923 9C16.0048 12.6996 13.4675 14.457 9.99994 14.457C8.9591 14.457 8.00039 14.2968 7.12383 13.9762L5.93939 15.1606C7.15684 15.7228 8.51036 16.0039 9.99994 16.0039C14.1292 16.0039 17.2101 13.8533 19.2425 9.55215C19.3242 9.37917 19.3666 9.19024 19.3666 8.99893C19.3666 8.80762 19.3242 8.61869 19.2425 8.4457ZM17.8768 1.55695L16.9609 0.640001C16.9449 0.62402 16.926 0.611343 16.9051 0.602694C16.8842 0.594044 16.8619 0.589592 16.8393 0.589592C16.8167 0.589592 16.7943 0.594044 16.7735 0.602694C16.7526 0.611343 16.7336 0.62402 16.7177 0.640001L14.3679 2.98867C13.0724 2.32695 11.6164 1.99609 9.99994 1.99609C5.87064 1.99609 2.78978 4.14668 0.757363 8.44785C0.675669 8.62084 0.633301 8.80977 0.633301 9.00107C0.633301 9.19238 0.675669 9.38131 0.757363 9.5543C1.56933 11.2645 2.54687 12.6352 3.68998 13.6666L1.4165 15.9395C1.3843 15.9717 1.3662 16.0154 1.3662 16.0609C1.3662 16.1065 1.3843 16.1502 1.4165 16.1824L2.33367 17.0996C2.3659 17.1318 2.4096 17.1499 2.45517 17.1499C2.50073 17.1499 2.54443 17.1318 2.57666 17.0996L17.8768 1.80016C17.8927 1.78419 17.9054 1.76524 17.9141 1.74437C17.9227 1.72351 17.9272 1.70114 17.9272 1.67856C17.9272 1.65597 17.9227 1.6336 17.9141 1.61274C17.9054 1.59187 17.8927 1.57292 17.8768 1.55695ZM2.20756 9C3.99721 5.30039 6.53451 3.54297 9.99994 3.54297C11.1717 3.54297 12.2371 3.74406 13.2037 4.15291L11.6933 5.66326C10.9781 5.28162 10.159 5.13998 9.35714 5.25924C8.55523 5.3785 7.81288 5.75234 7.23961 6.32561C6.66634 6.89888 6.2925 7.64123 6.17324 8.44314C6.05399 9.24505 6.19562 10.0641 6.57727 10.7793L4.78504 12.5716C3.7931 11.6961 2.93803 10.5099 2.20756 9ZM7.50775 9C7.50813 8.62115 7.59787 8.24774 7.76967 7.91009C7.94148 7.57244 8.19051 7.28008 8.49653 7.05676C8.80256 6.83344 9.15695 6.68545 9.53091 6.62482C9.90487 6.56419 10.2879 6.59263 10.6488 6.70783L7.62184 9.73477C7.54597 9.49724 7.50748 9.24935 7.50775 9Z" fill="#BDBDBD"/>
<path d="M9.9141 11.4063C9.83977 11.4063 9.7665 11.4028 9.69389 11.3962L8.55908 12.531C9.24162 12.7923 9.98526 12.8504 10.7001 12.6982C11.415 12.546 12.0704 12.1899 12.5872 11.6731C13.104 11.1563 13.4601 10.5009 13.6123 9.78601C13.7645 9.07116 13.7064 8.32752 13.4451 7.64498L12.3103 8.77979C12.3169 8.8524 12.3204 8.92567 12.3204 9C12.3205 9.31604 12.2584 9.62902 12.1375 9.92103C12.0167 10.213 11.8394 10.4784 11.616 10.7019C11.3925 10.9253 11.1272 11.1026 10.8351 11.2234C10.5431 11.3443 10.2301 11.4064 9.9141 11.4063Z" fill="#BDBDBD"/>
</svg>
