<svg width="17" height="17" viewBox="0 0 17 17" fill="none" xmlns="http://www.w3.org/2000/svg">
<path d="M3.2501 0.100098C1.4651 0.100098 0.100098 1.4651 0.100098 3.2501V9.5501C0.100098 11.3351 1.4651 12.7001 3.2501 12.7001H9.5501L13.7501 16.9001V12.7001C15.5351 12.7001 16.9001 11.3351 16.9001 9.5501V3.2501C16.9001 1.4651 15.5351 0.100098 13.7501 0.100098H3.2501ZM7.6475 3.2501H9.4514L11.2238 9.5501H9.6488L9.22145 7.9751H7.64645L7.25375 9.5501H5.8751L7.6475 3.2501ZM8.5001 4.3001C8.3951 4.7201 8.2775 5.2325 8.17145 5.5475L7.87745 6.9251H9.1238L8.8277 5.54645C8.61875 5.2325 8.5001 4.7201 8.5001 4.3001Z" fill="white"/>
</svg>
