<svg width="30" height="34" viewBox="0 0 30 34" fill="none" xmlns="http://www.w3.org/2000/svg">
<path d="M24.6286 4.144C24.4982 4.14432 24.3701 4.10966 24.2577 4.04362C21.1642 2.38739 18.4895 1.68475 15.2831 1.68475C12.0926 1.68475 9.06316 2.47104 6.30766 4.04362C5.91801 4.26389 5.43773 4.11054 5.21188 3.70624C5.11107 3.5111 5.08833 3.28491 5.14828 3.07361C5.20822 2.86231 5.34636 2.68176 5.53462 2.56863C8.50646 0.883115 11.8665 0.00183514 15.2831 0.0118024C18.7147 0.0118024 21.7121 0.79809 24.9994 2.55469C25.1912 2.66015 25.334 2.83658 25.3972 3.04613C25.4604 3.25568 25.439 3.48165 25.3375 3.67557C25.2765 3.81325 25.1773 3.93055 25.0516 4.01357C24.926 4.09659 24.7792 4.14185 24.6286 4.144ZM1.57042 12.927C1.403 12.9258 1.23998 12.8733 1.10339 12.7764C0.925677 12.6444 0.806161 12.4485 0.770014 12.23C0.733867 12.0116 0.783911 11.7876 0.909605 11.6054C2.50518 9.26323 4.53433 7.42298 6.95245 6.13481C12.0117 3.42741 18.4895 3.4079 23.5649 6.11808C25.9823 7.40625 28.0121 9.22977 29.6077 11.5552C29.7329 11.7376 29.7826 11.9614 29.7465 12.1797C29.7104 12.398 29.5912 12.5938 29.4139 12.7262C29.3279 12.7905 29.2296 12.8365 29.1251 12.8613C29.0207 12.886 28.9122 12.8891 28.8065 12.8703C28.7008 12.8515 28.6 12.8112 28.5105 12.7519C28.421 12.6925 28.3446 12.6155 28.2861 12.5255C26.8362 10.4176 24.9994 8.76134 22.8239 7.60701C18.1996 5.14777 12.2857 5.14777 7.67739 7.62374C5.48583 8.7948 3.64906 10.4678 2.19917 12.5729C2.13665 12.6837 2.04501 12.7752 1.93418 12.8376C1.82335 12.9001 1.69756 12.931 1.57042 12.927ZM11.6409 33.1223C11.5344 33.1233 11.4289 33.1015 11.3316 33.0582C11.2344 33.0149 11.1475 32.9512 11.077 32.8714C9.67518 31.4131 8.91538 30.4735 7.83842 28.452C6.72311 26.3943 6.14664 23.8848 6.14664 21.1914C6.14664 16.2227 10.2391 12.1742 15.267 12.1742C20.2949 12.1742 24.3902 16.2227 24.3902 21.1914C24.3934 21.2991 24.3749 21.4065 24.3358 21.507C24.2968 21.6074 24.2379 21.6991 24.1628 21.7764C24.0877 21.8538 23.9979 21.9153 23.8986 21.9573C23.7993 21.9992 23.6925 22.0209 23.5847 22.0209C23.4769 22.0209 23.3702 21.9992 23.2709 21.9573C23.1716 21.9153 23.0817 21.8538 23.0066 21.7764C22.9315 21.6991 22.8727 21.6074 22.8336 21.507C22.7946 21.4065 22.7761 21.2991 22.7793 21.1914C22.7793 17.1428 19.4111 13.8471 15.2705 13.8471C11.13 13.8471 7.75825 17.1428 7.75825 21.1914C7.75825 23.6004 8.27338 25.8255 9.25624 27.6322C10.2879 29.5561 10.9989 30.3759 12.2376 31.6808C12.3845 31.8432 12.4658 32.0543 12.4658 32.2733C12.4658 32.4923 12.3845 32.7034 12.2376 32.8658C12.0794 33.0254 11.8655 33.1173 11.6409 33.1223ZM23.1947 30.0274C21.2771 30.0274 19.5853 29.5255 18.1996 28.5384C17.0189 27.7109 16.0544 26.6118 15.3872 25.3337C14.72 24.0556 14.3697 22.6359 14.3657 21.1942C14.3612 21.0855 14.3787 20.9771 14.4172 20.8754C14.4556 20.7737 14.5142 20.6808 14.5895 20.6023C14.6648 20.5239 14.7551 20.4614 14.8552 20.4188C14.9552 20.3761 15.0628 20.3541 15.1715 20.3541C15.2803 20.3541 15.3879 20.3761 15.4879 20.4188C15.5879 20.4614 15.6783 20.5239 15.7535 20.6023C15.8288 20.6808 15.8874 20.7737 15.9259 20.8754C15.9644 20.9771 15.9818 21.0855 15.9773 21.1942C15.98 22.3652 16.2656 23.5183 16.8099 24.5553C17.3541 25.5922 18.1407 26.4824 19.103 27.1499C20.2468 27.9529 21.5845 28.3349 23.1961 28.3349C23.7574 28.3249 24.3169 28.269 24.8691 28.1676C25.304 28.0839 25.723 28.3851 25.8031 28.8535C25.844 29.0697 25.7974 29.2932 25.6737 29.4751C25.5499 29.657 25.3591 29.7824 25.143 29.8238C24.5012 29.9506 23.849 30.0178 23.1947 30.0246V30.0274ZM19.9555 33.4709C19.8847 33.4679 19.8145 33.4567 19.7464 33.4374C17.1839 32.7013 15.5082 31.7143 13.7516 29.9242C11.4952 27.5988 10.2551 24.5038 10.2551 21.1914C10.2551 18.4812 12.4788 16.2729 15.2175 16.2729C17.9563 16.2729 20.1806 18.4812 20.1806 21.1914C20.1806 22.9814 21.6793 24.4369 23.5321 24.4369C25.3849 24.4369 26.8836 22.9814 26.8836 21.1914C26.8836 14.8843 21.6465 9.76512 15.2015 9.76512C10.6253 9.76512 6.43592 12.4084 4.55106 16.5071C3.92371 17.8622 3.60027 19.4515 3.60027 21.1914C3.60027 22.4963 3.7125 24.554 4.67932 27.2307C4.84104 27.6657 4.63123 28.1509 4.21229 28.3014C4.11273 28.3393 4.00653 28.3567 3.90008 28.3526C3.79362 28.3484 3.68911 28.3228 3.59281 28.2772C3.49652 28.2316 3.41043 28.1671 3.33972 28.0874C3.26901 28.0077 3.21513 27.9145 3.18133 27.8135C2.40388 25.6922 2.00559 23.4507 2.00469 21.1914C2.00469 19.1838 2.37553 17.3575 3.10048 15.771C5.24395 11.1007 9.99722 8.07543 15.2015 8.07543C22.5332 8.07543 28.4952 13.9475 28.4952 21.1747C28.4952 23.8848 26.2716 26.0931 23.5321 26.0931C20.7926 26.0931 18.569 23.8848 18.569 21.1747C18.5697 19.3846 17.071 17.9263 15.2182 17.9263C13.3654 17.9263 11.8667 19.3818 11.8667 21.1719C11.8667 24.0298 12.9305 26.7093 14.8802 28.7169C16.4137 30.2895 17.8775 31.1566 20.1493 31.8118C20.5842 31.9289 20.8261 32.3974 20.7132 32.8323C20.678 33.0089 20.5838 33.1683 20.4462 33.2843C20.3085 33.4003 20.1355 33.4661 19.9555 33.4709Z" fill="#1D29E1"/>
</svg>
