<svg width="73" height="62" viewBox="0 0 73 62" fill="none" xmlns="http://www.w3.org/2000/svg">
<path opacity="0.7" d="M69.6429 3.35707L69.8197 3.1803L69.6429 3.35707C69.7744 3.48852 69.8482 3.66679 69.8482 3.85268V20.8279C69.8482 21.1464 69.9747 21.4518 70.1999 21.677C70.4252 21.9022 70.7306 22.0288 71.0491 22.0288C71.3676 22.0288 71.6731 21.9022 71.8983 21.677C72.1235 21.4518 72.25 21.1464 72.25 20.8279V3.85268C72.25 3.0298 71.9231 2.24062 71.3412 1.65875C70.7594 1.07689 69.9702 0.75 69.1473 0.75H52.1721C51.8536 0.75 51.5482 0.876522 51.323 1.10173C51.0977 1.32695 50.9712 1.6324 50.9712 1.95089C50.9712 2.26939 51.0977 2.57484 51.323 2.80005C51.5482 3.02526 51.8536 3.15179 52.1721 3.15179H69.1473C69.3332 3.15179 69.5115 3.22563 69.6429 3.35707ZM3.35707 3.35707C3.48852 3.22563 3.66679 3.15179 3.85268 3.15179H20.8279C21.1464 3.15179 21.4518 3.02526 21.677 2.80005C21.9022 2.57484 22.0288 2.26939 22.0288 1.95089C22.0288 1.6324 21.9022 1.32694 21.677 1.10173C21.4518 0.876522 21.1464 0.75 20.8279 0.75H3.85268C3.0298 0.75 2.24062 1.07689 1.65875 1.65875C1.07689 2.24062 0.75 3.0298 0.75 3.85268V20.8279C0.75 21.1464 0.876522 21.4518 1.10173 21.677C1.32694 21.9022 1.6324 22.0288 1.95089 22.0288C2.26939 22.0288 2.57484 21.9022 2.80005 21.677C3.02526 21.4518 3.15179 21.1464 3.15179 20.8279V3.85268C3.15179 3.66679 3.22563 3.48852 3.35707 3.35707ZM2.80005 40.0531C2.57484 39.8279 2.26939 39.7014 1.95089 39.7014C1.6324 39.7014 1.32695 39.8279 1.10173 40.0531C0.876522 40.2783 0.75 40.5838 0.75 40.9023V57.8775C0.75 58.7004 1.07689 59.4895 1.65875 60.0714C2.24062 60.6533 3.0298 60.9802 3.85268 60.9802H20.8279C21.1464 60.9802 21.4518 60.8536 21.677 60.6284C21.9022 60.4032 22.0288 60.0978 22.0288 59.7793C22.0288 59.4608 21.9022 59.1553 21.677 58.9301C21.4518 58.7049 21.1464 58.5784 20.8279 58.5784H3.85268C3.66679 58.5784 3.48851 58.5045 3.35707 58.3731C3.22563 58.2416 3.15179 58.0634 3.15179 57.8775V40.9023C3.15179 40.5838 3.02526 40.2783 2.80005 40.0531ZM71.8983 40.0531C71.6731 39.8279 71.3676 39.7014 71.0491 39.7014C70.7306 39.7014 70.4252 39.8279 70.2 40.0531C69.9747 40.2783 69.8482 40.5838 69.8482 40.9023V57.8775C69.8482 58.0634 69.7744 58.2416 69.6429 58.3731C69.5115 58.5045 69.3332 58.5784 69.1473 58.5784H52.1721C51.8536 58.5784 51.5482 58.7049 51.323 58.9301C51.0977 59.1553 50.9712 59.4608 50.9712 59.7793C50.9712 60.0978 51.0977 60.4032 51.323 60.6284C51.5482 60.8536 51.8536 60.9802 52.1721 60.9802H69.1473C69.9702 60.9802 70.7594 60.6533 71.3412 60.0714C71.9231 59.4895 72.25 58.7004 72.25 57.8775V40.9023C72.25 40.5838 72.1235 40.2783 71.8983 40.0531Z" fill="#0567E1" stroke="#0567E1" stroke-width="0.5"/>
<g clip-path="url(#clip0_35_178)">
<path d="M60.5421 8.6778H13.5844C10.992 8.6778 8.88867 10.8074 8.88867 13.4323V48.2983C8.88867 50.9232 10.992 53.0528 13.5844 53.0528H60.5421C63.1346 53.0528 65.2379 50.9232 65.2379 48.2983V13.4323C65.2379 10.8074 63.1346 8.6778 60.5421 8.6778ZM60.5421 48.2983H38.5503C38.6383 47.8526 38.6285 48.6549 38.6285 46.0796C38.6285 42.9297 35.6839 40.3742 32.0545 40.3742C30.9979 40.3742 30.2251 41.1666 27.6717 41.1666C25.0402 41.1666 24.4043 40.3742 23.289 40.3742C19.6596 40.3742 16.715 42.9297 16.715 46.0796C16.715 48.6549 16.6954 47.8526 16.7932 48.2983H13.5844V19.7715H60.5421V48.2983ZM44.1069 40.3742H55.0637C55.4942 40.3742 55.8463 40.0176 55.8463 39.5818V37.997C55.8463 37.5612 55.4942 37.2046 55.0637 37.2046H44.1069C43.6765 37.2046 43.3243 37.5612 43.3243 37.997V39.5818C43.3243 40.0176 43.6765 40.3742 44.1069 40.3742ZM44.1069 34.0349H55.0637C55.4942 34.0349 55.8463 33.6784 55.8463 33.2425V31.6577C55.8463 31.2219 55.4942 30.8653 55.0637 30.8653H44.1069C43.6765 30.8653 43.3243 31.2219 43.3243 31.6577V33.2425C43.3243 33.6784 43.6765 34.0349 44.1069 34.0349ZM44.1069 27.6957H55.0637C55.4942 27.6957 55.8463 27.3391 55.8463 26.9032V25.3184C55.8463 24.8826 55.4942 24.526 55.0637 24.526H44.1069C43.6765 24.526 43.3243 24.8826 43.3243 25.3184V26.9032C43.3243 27.3391 43.6765 27.6957 44.1069 27.6957ZM27.6717 37.2046C31.1251 37.2046 33.9328 34.3618 33.9328 30.8653C33.9328 27.3688 31.1251 24.526 27.6717 24.526C24.2184 24.526 21.4107 27.3688 21.4107 30.8653C21.4107 34.3618 24.2184 37.2046 27.6717 37.2046Z" fill="#0567E1" fill-opacity="0.5"/>
</g>
<defs>
<clipPath id="clip0_35_178">
<rect width="56.3492" height="50.7143" fill="white" transform="translate(8.88867 5.50815)"/>
</clipPath>
</defs>
</svg>
