<svg width="21" height="21" viewBox="0 0 21 21" fill="none" xmlns="http://www.w3.org/2000/svg">
<path d="M10.5001 20.0835C5.21008 20.0778 0.922498 15.7902 0.916748 10.5002V10.3085C1.02216 5.04248 5.35862 0.847855 10.6247 0.916855C15.8926 0.987771 20.116 5.29548 20.0815 10.5625C20.047 15.8304 15.768 20.0835 10.5001 20.0835ZM10.4847 18.1669H10.5001C12.5327 18.1648 14.4814 17.3557 15.9176 15.9173C17.3539 14.4789 18.1601 12.529 18.1591 10.4964C18.1581 8.4637 17.3499 6.51463 15.9122 5.07768C14.4745 3.64073 12.5251 2.83353 10.4924 2.83353C8.45975 2.83353 6.51029 3.64073 5.07262 5.07768C3.63495 6.51463 2.82677 8.4637 2.82575 10.4964C2.82473 12.529 3.63097 14.4789 5.0672 15.9173C6.50343 17.3557 8.45209 18.1648 10.4847 18.1669ZM11.4584 16.2502H9.54175V14.3335H11.4584V16.2502ZM11.4584 13.3752H9.54175C9.52688 12.7623 9.67634 12.1567 9.97463 11.6211C10.2729 11.0856 10.7091 10.6396 11.238 10.3296C11.8705 9.84469 12.4167 9.42685 12.4167 8.58352C12.4167 8.07519 12.2148 7.58768 11.8554 7.22823C11.4959 6.86879 11.0084 6.66685 10.5001 6.66685C9.99175 6.66685 9.50424 6.86879 9.14479 7.22823C8.78535 7.58768 8.58342 8.07519 8.58342 8.58352H6.66675V8.49727C6.67819 7.48061 7.09302 6.51013 7.82 5.79933C8.54698 5.08852 9.52654 4.69563 10.5432 4.70706C11.5599 4.7185 12.5304 5.13334 13.2412 5.86031C13.952 6.58729 14.3449 7.56686 14.3334 8.58352C14.2996 9.09345 14.1467 9.58836 13.8871 10.0285C13.6275 10.4687 13.2683 10.842 12.8384 11.1183C12.4497 11.3623 12.1228 11.6931 11.8834 12.0847C11.6439 12.4762 11.4985 12.918 11.4584 13.3752Z" fill="white"/>
</svg>
