<svg width="25" height="25" viewBox="0 0 25 25" fill="none" xmlns="http://www.w3.org/2000/svg">
<path d="M22.625 20.4438V12.8692C22.625 12.2588 22.5008 11.6548 22.26 11.094C22.0193 10.5331 21.6669 10.0271 21.2244 9.60671L14.0503 2.79258C13.6321 2.39533 13.0773 2.17383 12.5006 2.17383C11.9238 2.17383 11.369 2.39533 10.9509 2.79258L3.77562 9.60671C3.33311 10.0271 2.98074 10.5331 2.73995 11.094C2.49917 11.6548 2.375 12.2588 2.375 12.8692V20.4438C2.375 21.0406 2.61205 21.6129 3.03401 22.0348C3.45597 22.4568 4.02826 22.6938 4.625 22.6938H20.375C20.9717 22.6938 21.544 22.4568 21.966 22.0348C22.3879 21.6129 22.625 21.0406 22.625 20.4438Z" stroke="#0567E1" stroke-width="4" stroke-linecap="round" stroke-linejoin="round"/>
</svg>
