<svg width="26" height="21" viewBox="0 0 26 21" fill="none" xmlns="http://www.w3.org/2000/svg">
<path d="M4.92708 0.533984V0.533874L4.91893 0.534095L4.6966 0.540137L4.6966 0.540007L4.68777 0.540507C3.60979 0.601636 2.59606 1.07295 1.85454 1.85776C1.11303 2.64256 0.699934 3.68136 0.7 4.76107C0.7 4.76107 0.7 4.76108 0.7 4.76109V16.2402H0.699889L0.700111 16.2484L0.706152 16.4707L0.706022 16.4707L0.706523 16.4796C0.767651 17.5575 1.23896 18.5713 2.02377 19.3128C2.80858 20.0543 3.84739 20.4674 4.92708 20.4673H21.2396V20.4674L21.2477 20.4672L21.4701 20.4612L21.4701 20.4613L21.4789 20.4608C22.5569 20.3997 23.5706 19.9284 24.3121 19.1435C25.0536 18.3587 25.4667 17.3199 25.4667 16.2402V4.76107H25.4668L25.4666 4.75292L25.4605 4.53059L25.4606 4.53058L25.4601 4.52175C25.399 3.44377 24.9277 2.43004 24.1429 1.68853C23.3581 0.947008 22.3193 0.533914 21.2396 0.533984H4.92708ZM3.1125 7.82448L12.5219 12.7768L12.5315 12.7818L12.5414 12.7862L12.6574 12.8369L12.6668 12.8411L12.6766 12.8445C12.8342 12.9009 13.0018 12.9239 13.1687 12.912C13.3357 12.9001 13.4983 12.8536 13.6463 12.7754C13.6463 12.7754 13.6464 12.7754 13.6464 12.7754L23.0542 7.8233V16.2339L23.0474 16.3943C23.0089 16.8461 22.8026 17.2673 22.469 17.5747C22.134 17.8834 21.6951 18.0548 21.2396 18.0548H4.93335L4.77191 18.0481C4.32028 18.0093 3.89942 17.8029 3.59225 17.4694C3.28377 17.1344 3.11252 16.6956 3.1125 16.2402V7.82448ZM4.92708 2.94648C4.92709 2.94648 4.92709 2.94648 4.92709 2.94648H21.2333L21.3936 2.95321C21.8455 2.9917 22.2666 3.19802 22.574 3.53163C22.8827 3.86665 23.0541 4.30553 23.0542 4.76107V5.09712L13.0833 10.3453L3.1125 5.09831V4.76731L3.11923 4.6059C3.15799 4.15426 3.3644 3.7334 3.69796 3.42624C4.03295 3.11775 4.47169 2.9465 4.92708 2.94648Z" fill="#0567E1" stroke="#0567E1" stroke-width="0.6"/>
</svg>
