<svg width="18" height="18" viewBox="0 0 18 18" fill="none" xmlns="http://www.w3.org/2000/svg">
<path d="M5.58615 13.4779V4.44846M8.99994 13.5348V9.00018M12.4137 13.5519V6.72432M3.31029 1.03467H14.6896C15.2932 1.03467 15.8721 1.27445 16.2989 1.70125C16.7257 2.12806 16.9655 2.70693 16.9655 3.31053V14.6898C16.9655 15.2934 16.7257 15.8723 16.2989 16.2991C15.8721 16.7259 15.2932 16.9657 14.6896 16.9657H3.31029C2.70669 16.9657 2.12782 16.7259 1.70101 16.2991C1.2742 15.8723 1.03442 15.2934 1.03442 14.6898V3.31053C1.03442 2.70693 1.2742 2.12806 1.70101 1.70125C2.12782 1.27445 2.70669 1.03467 3.31029 1.03467V1.03467Z" stroke="white" stroke-width="1.7" stroke-linecap="round" stroke-linejoin="round"/>
</svg>
