<svg width="21" height="21" viewBox="0 0 21 21" fill="none" xmlns="http://www.w3.org/2000/svg">
<path d="M12.25 7H4.08333C3.92862 7 3.78025 6.93854 3.67085 6.82915C3.56146 6.71975 3.5 6.57138 3.5 6.41667V4.08333C3.5 3.92862 3.56146 3.78025 3.67085 3.67085C3.78025 3.56146 3.92862 3.5 4.08333 3.5H12.25C12.4047 3.5 12.5531 3.56146 12.6625 3.67085C12.7719 3.78025 12.8333 3.92862 12.8333 4.08333V6.41667C12.8333 6.57138 12.7719 6.71975 12.6625 6.82915C12.5531 6.93854 12.4047 7 12.25 7ZM4.66667 5.83333H11.6667V4.63167H4.66667V5.83333Z" fill="white"/>
<path d="M12.25 8.21338H4.08333C3.92862 8.21338 3.78025 8.27484 3.67085 8.38423C3.56146 8.49363 3.5 8.642 3.5 8.79671V11.0834C3.5 11.2381 3.56146 11.3865 3.67085 11.4959C3.78025 11.6053 3.92862 11.6667 4.08333 11.6667H10.71L12.8333 9.50838V8.79671C12.8333 8.642 12.7719 8.49363 12.6625 8.38423C12.5531 8.27484 12.4047 8.21338 12.25 8.21338ZM11.6667 10.5H4.66667V9.33338H11.6667V10.5Z" fill="white"/>
<path d="M6.45175 18.3807V18.3457L6.63841 17.5348H2.33341V2.33317H14.0001V8.31234L15.1667 7.20984V1.74984C15.1667 1.59513 15.1053 1.44675 14.9959 1.33736C14.8865 1.22796 14.7381 1.1665 14.5834 1.1665H1.75008C1.59537 1.1665 1.447 1.22796 1.3376 1.33736C1.22821 1.44675 1.16675 1.59513 1.16675 1.74984V18.0832C1.16675 18.2379 1.22821 18.3863 1.3376 18.4956C1.447 18.605 1.59537 18.6665 1.75008 18.6665H6.41675C6.42155 18.5705 6.43325 18.475 6.45175 18.3807Z" fill="white"/>
<path d="M12.8334 11.1826L12.3784 11.6434C12.4913 11.6202 12.5948 11.564 12.6757 11.482C12.7567 11.4 12.8116 11.2958 12.8334 11.1826Z" fill="white"/>
<path d="M3.5 15.7152C3.5 15.8699 3.56146 16.0182 3.67085 16.1276C3.78025 16.237 3.92862 16.2985 4.08333 16.2985H6.90667L7.08167 15.5402L7.1575 15.2193V15.1902H4.66667V14.0002H8.365L9.53167 12.8335H4.08333C3.92862 12.8335 3.78025 12.895 3.67085 13.0044C3.56146 13.1137 3.5 13.2621 3.5 13.4168V15.7152Z" fill="white"/>
<path d="M19.5359 9.72424L17.5701 7.75841C17.4828 7.67093 17.3792 7.60152 17.265 7.55416C17.1509 7.5068 17.0286 7.48242 16.905 7.48242C16.7815 7.48242 16.6592 7.5068 16.5451 7.55416C16.4309 7.60152 16.3273 7.67093 16.2401 7.75841L8.24255 15.8026L7.58338 18.6084C7.5587 18.7295 7.55815 18.8542 7.58175 18.9754C7.60535 19.0967 7.65264 19.2121 7.72092 19.3151C7.7892 19.418 7.87711 19.5065 7.97964 19.5754C8.08216 19.6444 8.19727 19.6924 8.31838 19.7167C8.37851 19.7228 8.43909 19.7228 8.49922 19.7167C8.57069 19.7284 8.64358 19.7284 8.71505 19.7167L11.5442 19.0926L19.5359 11.0834C19.6232 10.9967 19.6925 10.8935 19.7398 10.7799C19.787 10.6663 19.8114 10.5444 19.8114 10.4213C19.8114 10.2983 19.787 10.1764 19.7398 10.0628C19.6925 9.94914 19.6232 9.84599 19.5359 9.75924V9.72424ZM10.9492 18.0309L8.81422 18.5034L9.33338 16.3859L15.3301 10.3251L16.975 11.9701L10.9492 18.0309ZM17.6342 11.3109L15.9892 9.66591L16.9167 8.75007L18.5734 10.4067L17.6342 11.3109Z" fill="white"/>
</svg>
