<svg width="25" height="25" viewBox="0 0 25 25" fill="none" xmlns="http://www.w3.org/2000/svg">
<path d="M1.08637 10.4374C0.81657 10.4374 0.557822 10.3287 0.367045 10.1353C0.176269 9.94195 0.0690918 9.67965 0.0690918 9.40614V1.1582C0.0690918 0.884699 0.176269 0.622396 0.367045 0.428999C0.557822 0.235603 0.81657 0.126953 1.08637 0.126953H9.22458C9.49438 0.126953 9.75313 0.235603 9.9439 0.428999C10.1347 0.622396 10.2419 0.884699 10.2419 1.1582V9.40614C10.2419 9.67965 10.1347 9.94195 9.9439 10.1353C9.75313 10.3287 9.49438 10.4374 9.22458 10.4374H1.08637ZM15.3282 10.4374C15.0584 10.4374 14.7997 10.3287 14.6089 10.1353C14.4181 9.94195 14.311 9.67965 14.311 9.40614V1.1582C14.311 0.884699 14.4181 0.622396 14.6089 0.428999C14.7997 0.235603 15.0584 0.126953 15.3282 0.126953H23.4644C23.7342 0.126953 23.993 0.235603 24.1837 0.428999C24.3745 0.622396 24.4817 0.884699 24.4817 1.1582V9.40614C24.4817 9.67965 24.3745 9.94195 24.1837 10.1353C23.993 10.3287 23.7342 10.4374 23.4644 10.4374H15.3282ZM1.08637 24.8749C0.81657 24.8749 0.557822 24.7662 0.367045 24.5728C0.176269 24.3794 0.0690918 24.1171 0.0690918 23.8436V15.5936C0.0690918 15.3201 0.176269 15.0578 0.367045 14.8644C0.557822 14.671 0.81657 14.5624 1.08637 14.5624H9.22458C9.49438 14.5624 9.75313 14.671 9.9439 14.8644C10.1347 15.0578 10.2419 15.3201 10.2419 15.5936V23.8436C10.2419 24.1171 10.1347 24.3794 9.9439 24.5728C9.75313 24.7662 9.49438 24.8749 9.22458 24.8749H1.08637ZM15.3282 24.8749C15.0584 24.8749 14.7997 24.7662 14.6089 24.5728C14.4181 24.3794 14.311 24.1171 14.311 23.8436V15.5936C14.311 15.3201 14.4181 15.0578 14.6089 14.8644C14.7997 14.671 15.0584 14.5624 15.3282 14.5624H23.4644C23.7342 14.5624 23.993 14.671 24.1837 14.8644C24.3745 15.0578 24.4817 15.3201 24.4817 15.5936V23.8436C24.4817 24.1171 24.3745 24.3794 24.1837 24.5728C23.993 24.7662 23.7342 24.8749 23.4644 24.8749H15.3282Z" fill="#0567E1"/>
</svg>
