<svg width="37" height="37" viewBox="0 0 37 37" fill="none" xmlns="http://www.w3.org/2000/svg">
<path d="M12.1508 23.0319L12.1508 23.0319C11.9173 23.2654 11.7861 23.5821 11.7861 23.9124C11.7861 24.2426 11.9173 24.5593 12.1508 24.7928C12.3843 25.0263 12.701 25.1575 13.0312 25.1575C13.3615 25.1575 13.6782 25.0263 13.9117 24.7928L13.9117 24.7928L22.6156 16.0867L22.6156 21.7795C22.6156 22.1094 22.7467 22.4258 22.9799 22.659C23.2132 22.8923 23.5295 23.0233 23.8594 23.0233C24.1892 23.0233 24.5056 22.8923 24.7388 22.659C24.9721 22.4258 25.1031 22.1094 25.1031 21.7795L25.1031 13.0842C25.1031 12.7544 24.9721 12.438 24.7388 12.2048C24.5056 11.9715 24.1892 11.8405 23.8594 11.8405L15.1641 11.8405C14.8342 11.8405 14.5178 11.9715 14.2846 12.2048C14.0513 12.438 13.9203 12.7544 13.9203 13.0842C13.9203 13.4141 14.0513 13.7304 14.2846 13.9637C14.5178 14.1969 14.8342 14.328 15.1641 14.328L20.8569 14.328L12.1508 23.0319ZM29.2215 29.1651C26.378 32.0086 22.5213 33.6061 18.5 33.6061C14.4787 33.6061 10.622 32.0086 7.77849 29.1651C4.93497 26.3216 3.3375 22.4649 3.3375 18.4436C3.3375 14.4223 4.93497 10.5656 7.77849 7.7221C10.622 4.87858 14.4787 3.2811 18.5 3.2811C22.5213 3.2811 26.378 4.87858 29.2215 7.7221C32.065 10.5656 33.6625 14.4223 33.6625 18.4436C33.6625 22.4649 32.065 26.3216 29.2215 29.1651ZM30.9804 5.96317C27.6704 2.65315 23.1811 0.793601 18.5 0.793601C13.8189 0.793601 9.32958 2.65315 6.01956 5.96317C2.70955 9.27318 0.849999 13.7625 0.849999 18.4436C0.849999 23.1247 2.70955 27.614 6.01956 30.924C9.32958 34.2341 13.8189 36.0936 18.5 36.0936C23.1811 36.0936 27.6704 34.2341 30.9804 30.924C34.2905 27.614 36.15 23.1247 36.15 18.4436C36.15 13.7625 34.2905 9.27318 30.9804 5.96317Z" fill="#0567E1" stroke="#0567E1" stroke-width="0.3"/>
</svg>
