<svg width="37" height="37" viewBox="0 0 37 37" fill="none" xmlns="http://www.w3.org/2000/svg">
<path d="M24.8492 13.8553L24.8492 13.8553C25.0827 13.6218 25.2139 13.3051 25.2139 12.9749C25.2139 12.6446 25.0827 12.3279 24.8492 12.0944C24.6157 11.8609 24.299 11.7297 23.9687 11.7297C23.6385 11.7297 23.3218 11.8609 23.0883 12.0944L23.0883 12.0944L14.3844 20.8005L14.3844 15.1077C14.3844 14.7778 14.2533 14.4614 14.0201 14.2282C13.7868 13.995 13.4705 13.8639 13.1406 13.8639C12.8108 13.8639 12.4944 13.995 12.2612 14.2282C12.0279 14.4614 11.8969 14.7778 11.8969 15.1077L11.8969 23.803C11.8969 24.1328 12.0279 24.4492 12.2612 24.6824C12.4944 24.9157 12.8108 25.0467 13.1406 25.0467L21.8359 25.0467C22.1658 25.0467 22.4822 24.9157 22.7154 24.6824C22.9486 24.4492 23.0797 24.1328 23.0797 23.803C23.0797 23.4731 22.9486 23.1568 22.7154 22.9235C22.4822 22.6903 22.1658 22.5592 21.8359 22.5592L16.1431 22.5592L24.8492 13.8553ZM7.77849 7.7221C10.622 4.87858 14.4787 3.2811 18.5 3.2811C22.5213 3.2811 26.378 4.87858 29.2215 7.7221C32.065 10.5656 33.6625 14.4223 33.6625 18.4436C33.6625 22.4649 32.065 26.3216 29.2215 29.1651C26.378 32.0086 22.5213 33.6061 18.5 33.6061C14.4787 33.6061 10.622 32.0086 7.77849 29.1651C4.93497 26.3216 3.3375 22.4649 3.3375 18.4436C3.3375 14.4223 4.93497 10.5656 7.77849 7.7221ZM6.01956 30.924C9.32958 34.2341 13.8189 36.0936 18.5 36.0936C23.1811 36.0936 27.6704 34.2341 30.9804 30.924C34.2905 27.614 36.15 23.1247 36.15 18.4436C36.15 13.7625 34.2905 9.27319 30.9804 5.96317C27.6704 2.65315 23.1811 0.793603 18.5 0.793603C13.8189 0.793603 9.32958 2.65315 6.01957 5.96317C2.70954 9.27319 0.849998 13.7625 0.849998 18.4436C0.849998 23.1247 2.70954 27.614 6.01956 30.924Z" fill="#0567E1" stroke="#0567E1" stroke-width="0.3"/>
</svg>
