<svg width="29" height="25" viewBox="0 0 29 25" fill="none" xmlns="http://www.w3.org/2000/svg">
<path d="M25.5 5.625H20V2.875L17.25 0.125H11.75L9 2.875V5.625H3.5C1.9875 5.625 0.75 6.8625 0.75 8.375V15.25C0.75 16.2812 1.3 17.1475 2.125 17.6287V22.125C2.125 23.6513 3.34875 24.875 4.875 24.875H24.125C25.6513 24.875 26.875 23.6513 26.875 22.125V17.615C27.6863 17.1338 28.25 16.2537 28.25 15.25V8.375C28.25 6.8625 27.0125 5.625 25.5 5.625ZM11.75 2.875H17.25V5.625H11.75V2.875ZM3.5 8.375H25.5V15.25H18.625V11.125H10.375V15.25H3.5V8.375ZM15.875 16.625H13.125V13.875H15.875V16.625ZM24.125 22.125H4.875V18H10.375V19.375H18.625V18H24.125V22.125Z" fill="#0567E1"/>
</svg>
