<svg width="17" height="21" viewBox="0 0 17 21" fill="none" xmlns="http://www.w3.org/2000/svg">
<path d="M8.54061 0.783619L8.5 0.765568L8.45939 0.783619L0.584386 4.28362L0.525 4.31001V4.375V9.625C0.525 14.5232 3.91259 19.1078 8.47628 20.2221L8.5 20.2279L8.52372 20.2221C13.0874 19.1078 16.475 14.5232 16.475 9.625V4.375V4.31001L16.4156 4.28362L8.54061 0.783619ZM7.625 6.025H7.525V6.125V7.875V7.975H7.625H9.375H9.475V7.875V6.125V6.025H9.375H7.625ZM7.625 9.525H7.525V9.625V14.875V14.975H7.625H9.375H9.475V14.875V9.625V9.525H9.375H7.625ZM2.475 5.5775L8.5 2.90068L14.525 5.5775V9.625C14.525 13.5284 11.9576 17.1266 8.5 18.209C5.0424 17.1266 2.475 13.5284 2.475 9.625V5.5775Z" fill="white" stroke="white" stroke-width="0.2"/>
</svg>
