<svg width="18" height="19" viewBox="0 0 18 19" fill="none" xmlns="http://www.w3.org/2000/svg">
<path d="M17.25 18.4002H17.4V18.2502V17.3335C17.4 15.5919 16.7082 13.9217 15.4767 12.6902C14.2452 11.4587 12.5749 10.7668 10.8333 10.7668H7.16667C5.42508 10.7668 3.75482 11.4587 2.52333 12.6902C1.29184 13.9217 0.6 15.5919 0.6 17.3335V18.2502V18.4002H0.75H2.58333H2.73333V18.2502V17.3335C2.73333 16.1577 3.20042 15.0301 4.03183 14.1987C4.86324 13.3672 5.99087 12.9002 7.16667 12.9002H10.8333C12.0091 12.9002 13.1368 13.3672 13.9682 14.1987C14.7996 15.0301 15.2667 16.1577 15.2667 17.3335V18.2502V18.4002H15.4167H17.25ZM9 0.683496C8.06384 0.683496 7.14869 0.961101 6.3703 1.48121C5.59191 2.00131 4.98523 2.74056 4.62697 3.60546C4.26872 4.47036 4.17498 5.42208 4.35762 6.34026C4.54025 7.25843 4.99106 8.10183 5.65303 8.7638C6.315 9.42577 7.1584 9.87658 8.07657 10.0592C8.99475 10.2418 9.94646 10.1481 10.8114 9.78986C11.6763 9.4316 12.4155 8.82492 12.9356 8.04653C13.4557 7.26814 13.7333 6.35299 13.7333 5.41683C13.7333 4.16147 13.2346 2.95753 12.347 2.06986C11.4593 1.18219 10.2554 0.683496 9 0.683496ZM9 8.01683C8.48577 8.01683 7.98309 7.86434 7.55552 7.57865C7.12795 7.29296 6.7947 6.88689 6.59791 6.41181C6.40113 5.93672 6.34964 5.41395 6.44996 4.90959C6.55028 4.40524 6.79791 3.94197 7.16152 3.57835C7.52514 3.21474 7.98841 2.96711 8.49277 2.86679C8.99712 2.76647 9.51989 2.81796 9.99498 3.01474C10.4701 3.21153 10.8761 3.54478 11.1618 3.97235C11.4475 4.39991 11.6 4.9026 11.6 5.41683C11.6 6.10639 11.3261 6.76771 10.8385 7.25531C10.3509 7.7429 9.68956 8.01683 9 8.01683Z" fill="white" stroke="white" stroke-width="0.3"/>
</svg>
