<svg width="22" height="22" viewBox="0 0 22 22" fill="none" xmlns="http://www.w3.org/2000/svg">
<path d="M11 1.125C5.54669 1.125 1.125 5.54669 1.125 11C1.125 16.4533 5.54669 20.875 11 20.875C16.4533 20.875 20.875 16.4533 20.875 11C20.875 5.54669 16.4533 1.125 11 1.125ZM11 18.7422C6.72518 18.7422 3.25781 15.2748 3.25781 11C3.25781 9.24705 3.84098 7.62883 4.82414 6.3314L15.6686 17.1759C14.3712 18.159 12.753 18.7422 11 18.7422ZM17.1759 15.6686L6.3314 4.82414C7.62883 3.84098 9.24705 3.25781 11 3.25781C15.2748 3.25781 18.7422 6.72518 18.7422 11C18.7422 12.753 18.159 14.3712 17.1759 15.6686Z" fill="#F26E6E" stroke="#F26E6E" stroke-width="0.5"/>
</svg>
