<svg width="73" height="62" viewBox="0 0 73 62" fill="none" xmlns="http://www.w3.org/2000/svg">
<path opacity="0.7" d="M69.6429 3.35707L69.8197 3.1803L69.6429 3.35707C69.7744 3.48852 69.8482 3.66679 69.8482 3.85268V20.8279C69.8482 21.1464 69.9747 21.4518 70.1999 21.677C70.4252 21.9022 70.7306 22.0288 71.0491 22.0288C71.3676 22.0288 71.6731 21.9022 71.8983 21.677C72.1235 21.4518 72.25 21.1464 72.25 20.8279V3.85268C72.25 3.0298 71.9231 2.24062 71.3412 1.65875C70.7594 1.07689 69.9702 0.75 69.1473 0.75H52.1721C51.8536 0.75 51.5482 0.876522 51.323 1.10173C51.0977 1.32695 50.9712 1.6324 50.9712 1.95089C50.9712 2.26939 51.0977 2.57484 51.323 2.80005C51.5482 3.02526 51.8536 3.15179 52.1721 3.15179H69.1473C69.3332 3.15179 69.5115 3.22563 69.6429 3.35707ZM3.35707 3.35707C3.48852 3.22563 3.66679 3.15179 3.85268 3.15179H20.8279C21.1464 3.15179 21.4518 3.02526 21.677 2.80005C21.9022 2.57484 22.0288 2.26939 22.0288 1.95089C22.0288 1.6324 21.9022 1.32694 21.677 1.10173C21.4518 0.876522 21.1464 0.75 20.8279 0.75H3.85268C3.0298 0.75 2.24062 1.07689 1.65875 1.65875C1.07689 2.24062 0.75 3.0298 0.75 3.85268V20.8279C0.75 21.1464 0.876522 21.4518 1.10173 21.677C1.32694 21.9022 1.6324 22.0288 1.95089 22.0288C2.26939 22.0288 2.57484 21.9022 2.80005 21.677C3.02526 21.4518 3.15179 21.1464 3.15179 20.8279V3.85268C3.15179 3.66679 3.22563 3.48852 3.35707 3.35707ZM2.80005 40.0531C2.57484 39.8279 2.26939 39.7014 1.95089 39.7014C1.6324 39.7014 1.32695 39.8279 1.10173 40.0531C0.876522 40.2783 0.75 40.5838 0.75 40.9023V57.8775C0.75 58.7004 1.07689 59.4895 1.65875 60.0714C2.24062 60.6533 3.0298 60.9802 3.85268 60.9802H20.8279C21.1464 60.9802 21.4518 60.8536 21.677 60.6284C21.9022 60.4032 22.0288 60.0978 22.0288 59.7793C22.0288 59.4608 21.9022 59.1553 21.677 58.9301C21.4518 58.7049 21.1464 58.5784 20.8279 58.5784H3.85268C3.66679 58.5784 3.48851 58.5045 3.35707 58.3731C3.22563 58.2416 3.15179 58.0634 3.15179 57.8775V40.9023C3.15179 40.5838 3.02526 40.2783 2.80005 40.0531ZM71.8983 40.0531C71.6731 39.8279 71.3676 39.7014 71.0491 39.7014C70.7306 39.7014 70.4252 39.8279 70.2 40.0531C69.9747 40.2783 69.8482 40.5838 69.8482 40.9023V57.8775C69.8482 58.0634 69.7744 58.2416 69.6429 58.3731C69.5115 58.5045 69.3332 58.5784 69.1473 58.5784H52.1721C51.8536 58.5784 51.5482 58.7049 51.323 58.9301C51.0977 59.1553 50.9712 59.4608 50.9712 59.7793C50.9712 60.0978 51.0977 60.4032 51.323 60.6284C51.5482 60.8536 51.8536 60.9802 52.1721 60.9802H69.1473C69.9702 60.9802 70.7594 60.6533 71.3412 60.0714C71.9231 59.4895 72.25 58.7004 72.25 57.8775V40.9023C72.25 40.5838 72.1235 40.2783 71.8983 40.0531Z" fill="#0567E1" stroke="#0567E1" stroke-width="0.5"/>
<path d="M18.7083 17.7917H21.25C22.5982 17.7917 23.8912 17.2561 24.8445 16.3028C25.7978 15.3495 26.3333 14.0565 26.3333 12.7083C26.3333 12.0342 26.6011 11.3878 27.0778 10.9111C27.5544 10.4344 28.2009 10.1667 28.875 10.1667H44.125C44.7991 10.1667 45.4456 10.4344 45.9222 10.9111C46.3989 11.3878 46.6667 12.0342 46.6667 12.7083C46.6667 14.0565 47.2022 15.3495 48.1555 16.3028C49.1089 17.2561 50.4018 17.7917 51.75 17.7917H54.2917C55.6399 17.7917 56.9328 18.3272 57.8861 19.2805C58.8394 20.2338 59.375 21.5268 59.375 22.875V45.75C59.375 47.0982 58.8394 48.3911 57.8861 49.3445C56.9328 50.2978 55.6399 50.8333 54.2917 50.8333H18.7083C17.3601 50.8333 16.0672 50.2978 15.1139 49.3445C14.1606 48.3911 13.625 47.0982 13.625 45.75V22.875C13.625 21.5268 14.1606 20.2338 15.1139 19.2805C16.0672 18.3272 17.3601 17.7917 18.7083 17.7917" stroke="#0567E1" stroke-opacity="0.5" stroke-width="4" stroke-linecap="round" stroke-linejoin="round"/>
<path d="M30.1458 38.125C30.9741 38.9703 31.9627 39.6419 33.0538 40.1004C34.1449 40.5589 35.3165 40.795 36.5 40.795C37.6835 40.795 38.8551 40.5589 39.9462 40.1004C41.0373 39.6419 42.0259 38.9703 42.8542 38.125M44.125 27.9583H44.1504M28.875 27.9583H28.9004" stroke="#0567E1" stroke-opacity="0.5" stroke-width="4" stroke-linecap="round" stroke-linejoin="round"/>
</svg>
