<svg width="19" height="21" viewBox="0 0 19 21" fill="none" xmlns="http://www.w3.org/2000/svg">
<path d="M11.2441 20.0832H7.75574C7.53718 20.0832 7.32516 20.0085 7.15487 19.8715C6.98457 19.7345 6.86622 19.5434 6.81945 19.3299L6.42941 17.5244C5.90909 17.2964 5.41572 17.0113 4.95837 16.6744L3.19791 17.235C2.98953 17.3015 2.76469 17.2946 2.56073 17.2157C2.35677 17.1367 2.18596 16.9903 2.07666 16.8009L0.32866 13.7812C0.220507 13.5915 0.179909 13.3708 0.213508 13.1551C0.247107 12.9394 0.352914 12.7415 0.513618 12.5938L1.87924 11.348C1.81714 10.7836 1.81714 10.2141 1.87924 9.6498L0.513618 8.40684C0.352686 8.25904 0.246736 8.06095 0.213131 7.84505C0.179527 7.62914 0.220262 7.40823 0.32866 7.2185L2.07283 4.19688C2.18212 4.00743 2.35294 3.86107 2.5569 3.7821C2.76086 3.70313 2.9857 3.6963 3.19408 3.76275L4.95453 4.32338C5.18837 4.15088 5.43178 3.98988 5.68287 3.84421C5.92533 3.70813 6.17449 3.5845 6.42941 3.4743L6.82041 1.67071C6.86696 1.45719 6.98508 1.266 7.1552 1.12882C7.32532 0.991647 7.53721 0.916734 7.75574 0.916504H11.2441C11.4626 0.916734 11.6745 0.991647 11.8446 1.12882C12.0147 1.266 12.1329 1.45719 12.1794 1.67071L12.5742 3.47525C13.0943 3.70324 13.5873 3.98834 14.0443 4.3253L15.8057 3.76467C16.014 3.69847 16.2386 3.70542 16.4424 3.78437C16.6461 3.86333 16.8168 4.00955 16.926 4.1988L18.6702 7.22042C18.8925 7.61046 18.8159 8.104 18.4852 8.4078L17.1196 9.65363C17.1817 10.218 17.1817 10.7874 17.1196 11.3518L18.4852 12.5976C18.8159 12.9024 18.8925 13.395 18.6702 13.785L16.926 16.8066C16.8167 16.9961 16.6459 17.1424 16.442 17.2214C16.238 17.3004 16.0132 17.3072 15.8048 17.2408L14.0443 16.6801C13.5873 17.0168 13.0943 17.3016 12.5742 17.5292L12.1794 19.3299C12.1327 19.5433 12.0145 19.7342 11.8444 19.8712C11.6743 20.0082 11.4625 20.083 11.2441 20.0832ZM5.30241 14.5526L6.08824 15.1276C6.26553 15.258 6.44953 15.3778 6.6412 15.487C6.82137 15.5915 7.00537 15.6854 7.19607 15.7707L8.0902 16.1626L8.52816 18.1665H10.4736L10.9115 16.1617L11.8057 15.7697C12.1957 15.5972 12.5666 15.3835 12.9106 15.1315L13.6965 14.5565L15.6534 15.1794L16.6261 13.4946L15.109 12.1118L15.2164 11.1419C15.2643 10.7174 15.2643 10.289 15.2164 9.86542L15.109 8.89559L16.627 7.50984L15.6534 5.82413L13.6974 6.44705L12.9106 5.87205C12.5664 5.61875 12.1959 5.40317 11.8057 5.229L10.9115 4.83705L10.4736 2.83317H8.52816L8.08733 4.838L7.19607 5.229C6.80525 5.40017 6.43466 5.61423 6.09112 5.86725L5.30433 6.44225L3.34933 5.81934L2.3747 7.50984L3.89174 8.8908L3.78441 9.86159C3.73649 10.2861 3.73649 10.7145 3.78441 11.1381L3.89174 12.1079L2.3747 13.4908L3.34741 15.1755L5.30241 14.5526ZM9.49608 14.3332C8.47941 14.3332 7.50439 13.9293 6.7855 13.2104C6.06661 12.4915 5.66274 11.5165 5.66274 10.4998C5.66274 9.48317 6.06661 8.50815 6.7855 7.78926C7.50439 7.07037 8.47941 6.6665 9.49608 6.6665C10.5127 6.6665 11.4878 7.07037 12.2067 7.78926C12.9255 8.50815 13.3294 9.48317 13.3294 10.4998C13.3294 11.5165 12.9255 12.4915 12.2067 13.2104C11.4878 13.9293 10.5127 14.3332 9.49608 14.3332ZM9.49608 8.58317C9.12075 8.58355 8.7538 8.69412 8.44074 8.90116C8.12768 9.10819 7.8823 9.40259 7.73504 9.74782C7.58778 10.093 7.54512 10.4739 7.61235 10.8432C7.67958 11.2124 7.85375 11.5538 8.11324 11.825C8.37273 12.0961 8.70613 12.2852 9.07207 12.3686C9.43801 12.452 9.82038 12.4261 10.1718 12.2942C10.5231 12.1623 10.828 11.9301 11.0486 11.6264C11.2692 11.3228 11.3959 10.961 11.4127 10.5861V10.9694V10.4998C11.4127 9.99151 11.2108 9.50399 10.8514 9.14455C10.4919 8.7851 10.0044 8.58317 9.49608 8.58317Z" fill="white"/>
</svg>
