<svg width="29" height="33" viewBox="0 0 29 33" fill="none" xmlns="http://www.w3.org/2000/svg">
<path d="M13.2063 13.667H8.68566C8.41814 13.667 8.2015 13.8836 8.2015 14.1512V31.6716C8.2015 31.9391 8.41814 32.1557 8.68566 32.1557H13.2063C13.4738 32.1557 13.6901 31.9391 13.6901 31.6716V14.1508C13.6901 13.8833 13.4735 13.667 13.2063 13.667ZM20.2549 13.8879H15.7343C15.4668 13.8879 15.2501 14.1045 15.2501 14.372V31.6713C15.2501 31.9388 15.4668 32.1554 15.7343 32.1554H20.2549C20.5225 32.1554 20.7391 31.9388 20.7391 31.6713V14.372C20.7391 14.1045 20.5225 13.8879 20.2549 13.8879ZM27.3397 13.983H22.8191C22.5516 13.983 22.3349 14.1996 22.3349 14.4671V31.6713C22.3349 31.9388 22.5516 32.1554 22.8191 32.1554H27.3394C27.6069 32.1554 27.8236 31.9388 27.8236 31.6713V14.4671C27.8236 14.1999 27.6069 13.983 27.3397 13.983ZM6.1215 13.8344H1.60086C1.33334 13.8344 1.1167 14.051 1.1167 14.3185V31.6713C1.1167 31.9388 1.33334 32.1554 1.60086 32.1554H6.1215C6.38902 32.1554 6.60566 31.9388 6.60566 31.6713V14.3185C6.60566 14.0513 6.38902 13.8344 6.1215 13.8344Z" fill="white"/>
<path d="M26.0067 8.72701L21.4494 5.66612M26.0067 8.72701L21.5542 11.6495M26.0067 8.72701L1.76449 8.72704" stroke="white" stroke-width="2.35294" stroke-linecap="round"/>
</svg>
