<svg width="28" height="31" viewBox="0 0 28 31" fill="none" xmlns="http://www.w3.org/2000/svg">
<path d="M12.7949 10.2551H8.27428C8.00676 10.2551 7.79012 10.4718 7.79012 10.7393V30.1421C7.79012 30.4096 8.00676 30.6262 8.27428 30.6262H12.7949C13.0624 30.6262 13.2788 30.4096 13.2788 30.1421V10.739C13.2788 10.4714 13.0621 10.2551 12.7949 10.2551ZM19.8436 18.0054H15.3229C15.0554 18.0054 14.8388 18.2221 14.8388 18.4896V30.1418C14.8388 30.4093 15.0554 30.6259 15.3229 30.6259H19.8436C20.1111 30.6259 20.3277 30.4093 20.3277 30.1418V18.4896C20.3277 18.2221 20.1111 18.0054 19.8436 18.0054ZM26.9284 19.9829H22.4077C22.1402 19.9829 21.9236 20.1995 21.9236 20.467V30.1418C21.9236 30.4093 22.1402 30.6259 22.4077 30.6259H26.928C27.1956 30.6259 27.4122 30.4093 27.4122 30.1418V20.467C27.4122 20.1998 27.1956 19.9829 26.9284 19.9829ZM5.71012 14.1872H1.18948C0.921962 14.1872 0.705322 14.4038 0.705322 14.6714V30.1418C0.705322 30.4093 0.921962 30.6259 1.18948 30.6259H5.71012C5.97764 30.6259 6.19428 30.4093 6.19428 30.1418V14.6714C6.19428 14.4042 5.97764 14.1872 5.71012 14.1872Z" fill="white"/>
<path d="M25.0062 14.3341L20.1766 15.1763M25.0062 14.3341L23.322 9.2815M25.0062 14.3341L10.7648 5.29392L4.17656 8.11745L1.42725 1.2815" stroke="white" stroke-width="2.35294" stroke-linecap="round"/>
</svg>
