<svg width="31" height="29" viewBox="0 0 31 29" fill="none" xmlns="http://www.w3.org/2000/svg">
<path d="M14.4699 16.3408H9.41743C9.11844 16.3408 8.87631 16.5829 8.87631 16.8819V27.5501C8.87631 27.8491 9.11844 28.0912 9.41743 28.0912H14.4699C14.7689 28.0912 15.0107 27.8491 15.0107 27.5501V16.8816C15.0107 16.5826 14.7685 16.3408 14.4699 16.3408ZM22.3478 0.144775H17.2953C16.9963 0.144775 16.7542 0.386903 16.7542 0.685896V27.5497C16.7542 27.8487 16.9963 28.0909 17.2953 28.0909H22.3478C22.6468 28.0909 22.8889 27.8487 22.8889 27.5497V0.685896C22.8889 0.386903 22.6468 0.144775 22.3478 0.144775ZM30.2661 7.44829H25.2136C24.9146 7.44829 24.6725 7.69041 24.6725 7.98941V27.5497C24.6725 27.8487 24.9146 28.0909 25.2136 28.0909H30.2658C30.5647 28.0909 30.8069 27.8487 30.8069 27.5497V7.98941C30.8069 7.69077 30.5647 7.44829 30.2661 7.44829ZM6.55161 7.44829H1.49913C1.20013 7.44829 0.958008 7.69041 0.958008 7.98941V27.5497C0.958008 27.8487 1.20013 28.0909 1.49913 28.0909H6.55161C6.8506 28.0909 7.09273 27.8487 7.09273 27.5497V7.98941C7.09273 7.69077 6.8506 7.44829 6.55161 7.44829Z" fill="white"/>
</svg>
