<svg width="28" height="32" viewBox="0 0 28 32" fill="none" xmlns="http://www.w3.org/2000/svg">
<path d="M12.7358 16.9024H8.2152C7.94768 16.9024 7.73104 17.119 7.73104 17.3866V31.1423C7.73104 31.4098 7.94768 31.6264 8.2152 31.6264H12.7358C13.0034 31.6264 13.2197 31.4098 13.2197 31.1423V17.3862C13.2197 17.1187 13.003 16.9024 12.7358 16.9024ZM19.7845 13.3586H15.2638C14.9963 13.3586 14.7797 13.5752 14.7797 13.8427V31.142C14.7797 31.4095 14.9963 31.6261 15.2638 31.6261H19.7845C20.052 31.6261 20.2686 31.4095 20.2686 31.142V13.8427C20.2686 13.5752 20.052 13.3586 19.7845 13.3586ZM26.8693 10.6301H22.3486C22.0811 10.6301 21.8645 10.8468 21.8645 11.1143V31.142C21.8645 31.4095 22.0811 31.6261 22.3486 31.6261H26.869C27.1365 31.6261 27.3531 31.4095 27.3531 31.142V11.1143C27.3531 10.8471 27.1365 10.6301 26.8693 10.6301ZM5.65104 19.8933H1.1304C0.86288 19.8933 0.64624 20.1099 0.64624 20.3774V31.142C0.64624 31.4095 0.86288 31.6261 1.1304 31.6261H5.65104C5.91856 31.6261 6.1352 31.4095 6.1352 31.142V20.3774C6.1352 20.1102 5.91856 19.8933 5.65104 19.8933Z" fill="white"/>
<path d="M24.9474 2.28198L19.4737 2.70304M24.9474 2.28198L23.2631 7.33461M24.9474 2.28198L10.2105 13.6504L5.15788 10.703L1.36841 15.3346" stroke="white" stroke-width="2.35294" stroke-linecap="round"/>
</svg>
