<svg width="19" height="19" viewBox="0 0 19 19" fill="none" xmlns="http://www.w3.org/2000/svg">
<path d="M2.85108 9.70585L2.85109 9.70548C2.85833 9.45875 2.76725 9.21924 2.5979 9.03966C2.42855 8.86007 2.1948 8.75512 1.94807 8.74788C1.70133 8.74064 1.46183 8.83172 1.28224 9.00107C1.10274 9.17034 0.997795 9.40396 0.990473 9.65057C0.931232 11.4636 1.4239 13.252 2.40327 14.7789C3.38265 16.3059 4.80258 17.4995 6.47517 18.2017C8.14775 18.904 9.99416 19.0819 11.7701 18.7119C13.5459 18.3418 15.1676 17.4413 16.4205 16.1294C17.6734 14.8175 18.4984 13.1561 18.7864 11.3651C19.0744 9.57402 18.8117 7.73775 18.0333 6.09924C17.2548 4.46072 15.9972 3.09719 14.4268 2.18908C12.8564 1.28099 11.0474 0.8711 9.23901 1.01364C7.0072 1.18661 4.92505 2.19091 3.40152 3.82234L3.40249 1.91939L3.40273 1.91939L3.40225 1.91243L3.3945 1.8006L3.39472 1.80059L3.39383 1.79405C3.36646 1.59268 3.27391 1.40581 3.13032 1.262C2.98674 1.11819 2.80001 1.02535 2.59868 0.997664L2.59873 0.997363L2.59093 0.996905L2.47801 0.990262L2.47805 0.989569L2.46626 0.990262L2.35333 0.996905L2.35331 0.996601L2.34558 0.997664C2.14426 1.02535 1.95753 1.11819 1.81394 1.262C1.67036 1.40581 1.57781 1.59268 1.55044 1.79405L1.55022 1.79402L1.54977 1.8006L1.54202 1.91242L1.54178 1.91241V1.91934V6.34791H1.54154L1.54201 6.35475L1.54976 6.46768L1.54954 6.4677L1.55044 6.4743C1.57781 6.67567 1.67036 6.86254 1.81394 7.00635C1.95753 7.15017 2.14426 7.24301 2.34558 7.27069L2.34554 7.27099L2.35333 7.27145L2.46626 7.27809L2.46625 7.27826H2.47213H6.34492V7.27844L6.35079 7.27809L6.46372 7.27145L6.46373 7.27172L6.47098 7.27076C6.6946 7.24112 6.89984 7.13125 7.0485 6.96159C7.19716 6.79193 7.27912 6.57404 7.27912 6.34846C7.27912 6.12289 7.19716 5.90499 7.0485 5.73533C6.89984 5.56567 6.6946 5.4558 6.47098 5.42617L6.47101 5.42597L6.46469 5.42554L6.35176 5.41779L6.35178 5.41755H6.34492H4.47801L4.56923 5.30622C5.66237 4.03845 7.16851 3.19792 8.82145 2.9332C10.4748 2.66842 12.1685 2.9968 13.6031 3.86027C15.0378 4.72374 16.1208 6.06669 16.6609 7.65163C17.2009 9.23658 17.1631 10.9614 16.5541 12.5212C15.9451 14.081 14.8043 15.3751 13.3332 16.1749C11.8621 16.9747 10.1556 17.2285 8.51547 16.8916C6.87531 16.5546 5.40713 15.6485 4.37055 14.3335C3.33396 13.0185 2.79575 11.3794 2.85108 9.70585ZM9.67209 5.41779L9.56524 5.41045V5.42437L9.54644 5.42547L9.54642 5.42517L9.53869 5.42623C9.33736 5.45392 9.15064 5.54676 9.00705 5.69057C8.86346 5.83438 8.77091 6.02125 8.74354 6.22262L8.74333 6.22259L8.74287 6.22917L8.73512 6.34099L8.73488 6.34098V6.34791V10.7732H8.73465L8.73511 10.7799L8.74286 10.894L8.74263 10.894L8.74356 10.9008C8.77118 11.1019 8.86384 11.2885 9.00741 11.4321C9.15097 11.5757 9.33756 11.6683 9.53871 11.6959L9.53868 11.6962L9.54546 11.6966L9.65839 11.7044L9.65837 11.7046H9.66524H12.4331V11.7049L12.4399 11.7044L12.5529 11.6966L12.5529 11.6969L12.5597 11.6959C12.7823 11.6653 12.9864 11.5551 13.1341 11.3856C13.2818 11.2162 13.3632 10.999 13.3632 10.7743C13.3632 10.5495 13.2818 10.3323 13.1341 10.1629C12.9864 9.99345 12.7823 9.88323 12.5597 9.85259L12.5597 9.85236L12.5529 9.85189L12.4399 9.84414L12.44 9.84391L12.4332 9.84391L10.5956 9.84286V6.34791H10.5958L10.5954 6.34099L10.5876 6.22917L10.5878 6.22916L10.5869 6.22262C10.5596 6.02125 10.467 5.83438 10.3234 5.69057C10.1798 5.54676 9.99312 5.45392 9.79179 5.42623L9.79182 5.426L9.78501 5.42554L9.67209 5.41779Z" fill="white" stroke="white" stroke-width="0.2"/>
</svg>
