<svg width="24" height="18" viewBox="0 0 24 18" fill="none" xmlns="http://www.w3.org/2000/svg">
<path d="M13.1668 17.1667V12.5001H16.6668L12.0002 6.66675L7.3335 12.5001H10.8335V17.1667H13.1668Z" fill="#828282"/>
<path d="M6.16683 17.1666H8.50016V14.8333H6.16683C4.23716 14.8333 2.66683 13.2629 2.66683 11.3333C2.66683 9.69525 4.06566 8.11792 5.78533 7.81575L6.46316 7.69675L6.68716 7.04575C7.50733 4.65292 9.54433 3.16659 12.0002 3.16659C15.2167 3.16659 17.8335 5.78342 17.8335 8.99992V10.1666H19.0002C20.287 10.1666 21.3335 11.2131 21.3335 12.4999C21.3335 13.7868 20.287 14.8333 19.0002 14.8333H15.5002V17.1666H19.0002C21.5738 17.1666 23.6668 15.0736 23.6668 12.4999C23.665 11.4541 23.3129 10.4391 22.6666 9.61689C22.0204 8.79468 21.1173 8.21272 20.1015 7.96392C19.5917 3.94825 16.1535 0.833252 12.0002 0.833252C8.78483 0.833252 5.99183 2.71275 4.71666 5.67492C2.21066 6.42392 0.333496 8.78992 0.333496 11.3333C0.333496 14.5498 2.95033 17.1666 6.16683 17.1666Z" fill="#828282"/>
</svg>
