<svg width="25" height="24" viewBox="0 0 25 24" fill="none" xmlns="http://www.w3.org/2000/svg">
<path d="M20.9375 6.59375H4.0625C2.66453 6.59375 1.53125 7.72703 1.53125 9.125V19.25C1.53125 20.648 2.66453 21.7812 4.0625 21.7812H20.9375C22.3355 21.7812 23.4688 20.648 23.4688 19.25V9.125C23.4688 7.72703 22.3355 6.59375 20.9375 6.59375Z" stroke="#0567E1" stroke-width="3" stroke-linejoin="round"/>
<path d="M20.6928 6.5929V5.01087C20.6927 4.62285 20.6069 4.23965 20.4416 3.88859C20.2764 3.53754 20.0356 3.22729 19.7367 2.97998C19.4377 2.73267 19.0878 2.55439 18.712 2.45788C18.3361 2.36136 17.9437 2.34898 17.5625 2.42161L3.67438 4.79202C3.07126 4.90696 2.52717 5.22876 2.13593 5.70192C1.74469 6.17509 1.53083 6.76995 1.53125 7.38392V9.9679" stroke="#0567E1" stroke-width="3" stroke-linejoin="round"/>
<path d="M18.4063 15.875C18.0725 15.875 17.7462 15.776 17.4687 15.5906C17.1912 15.4052 16.9749 15.1416 16.8472 14.8333C16.7195 14.5249 16.6861 14.1856 16.7512 13.8583C16.8163 13.5309 16.977 13.2303 17.213 12.9943C17.449 12.7583 17.7497 12.5975 18.077 12.5324C18.4044 12.4673 18.7437 12.5007 19.052 12.6285C19.3604 12.7562 19.6239 12.9725 19.8094 13.25C19.9948 13.5275 20.0938 13.8537 20.0938 14.1875C20.0938 14.6351 19.916 15.0643 19.5995 15.3807C19.283 15.6972 18.8538 15.875 18.4063 15.875Z" fill="#0567E1"/>
</svg>
