<svg width="27" height="27" viewBox="0 0 27 27" fill="none" xmlns="http://www.w3.org/2000/svg">
<path d="M13.4999 17.375C11.1233 17.375 10.9166 16.2642 10.9166 16.0833H8.33325C8.33325 17.2717 9.18575 19.3771 12.2083 19.855V21.25H14.7916V19.855C17.3749 19.4158 18.6666 17.7496 18.6666 16.0833C18.6666 14.6367 17.9949 12.2083 13.4999 12.2083C10.9166 12.2083 10.9166 11.3946 10.9166 10.9167C10.9166 10.4387 11.8208 9.625 13.4999 9.625C15.1791 9.625 15.2953 10.4517 15.3083 10.9167H17.8916C17.8741 10.0367 17.5576 9.18894 16.9942 8.51282C16.4308 7.83669 15.654 7.37252 14.7916 7.19667V5.75H12.2083V7.15792C9.62492 7.58417 8.33325 9.25042 8.33325 10.9167C8.33325 12.3633 9.00492 14.7917 13.4999 14.7917C16.0833 14.7917 16.0833 15.67 16.0833 16.0833C16.0833 16.4967 15.2824 17.375 13.4999 17.375Z" fill="#0567E1"/>
<path d="M4.45825 0.583252H0.583252V3.16659H3.16659V25.1249C3.16659 25.4675 3.30267 25.796 3.54491 26.0383C3.78714 26.2805 4.11568 26.4166 4.45825 26.4166H22.5416C22.8842 26.4166 23.2127 26.2805 23.4549 26.0383C23.6972 25.796 23.8333 25.4675 23.8333 25.1249V3.16659H26.4166V0.583252H4.45825ZM21.2499 23.8333H5.74992V3.16659H21.2499V23.8333Z" fill="#0567E1"/>
</svg>
