<svg width="31" height="31" viewBox="0 0 31 31" fill="none" xmlns="http://www.w3.org/2000/svg">
<rect width="31" height="31" rx="7" fill="#4E4EB3" fill-opacity="0.1"/>
<path d="M15.5 23.4125C13.4015 23.4125 11.3889 22.5789 9.90502 21.095C8.42114 19.6111 7.5875 17.5985 7.5875 15.5C7.5875 13.4015 8.42114 11.3889 9.90502 9.90502C11.3889 8.42114 13.4015 7.5875 15.5 7.5875C17.5985 7.5875 19.6111 8.42114 21.095 9.90502C22.5789 11.3889 23.4125 13.4015 23.4125 15.5C23.4125 17.5985 22.5789 19.6111 21.095 21.095C19.6111 22.5789 17.5985 23.4125 15.5 23.4125ZM15.5 25.4C18.1256 25.4 20.6437 24.357 22.5004 22.5004C24.357 20.6437 25.4 18.1256 25.4 15.5C25.4 12.8744 24.357 10.3563 22.5004 8.49964C20.6437 6.64303 18.1256 5.6 15.5 5.6C12.8744 5.6 10.3563 6.64303 8.49964 8.49964C6.64303 10.3563 5.6 12.8744 5.6 15.5C5.6 18.1256 6.64303 20.6437 8.49964 22.5004C10.3563 24.357 12.8744 25.4 15.5 25.4Z" fill="#4E4EB3" stroke="#4E4EB3" stroke-width="0.8"/>
<path d="M17.3581 14.2766L17.4166 14.0016L17.1376 14.0366L14.2751 14.3953L14.1344 14.4129L14.1044 14.5516L14.0019 15.0266L13.9585 15.228L14.1612 15.2654L14.7185 15.3682C14.8925 15.4102 14.9277 15.4497 14.9364 15.4642C14.9468 15.4815 14.964 15.5355 14.9245 15.7161L14.9243 15.7171L14.002 20.0515C14.0019 20.0516 14.0019 20.0517 14.0019 20.0518C13.8769 20.6301 13.8978 21.1071 14.1132 21.4459C14.3369 21.7977 14.7306 21.9425 15.2074 21.9425C15.5768 21.9425 15.9704 21.8576 16.3191 21.7163C16.6657 21.5759 16.9853 21.3727 17.1926 21.1227L17.2241 21.0847L17.2344 21.0364L17.3444 20.5164L17.4691 19.9266L17.0166 20.3249C16.8127 20.5042 16.4997 20.5825 16.2912 20.5825C16.1693 20.5825 16.1318 20.544 16.1138 20.5115C16.0855 20.4607 16.0662 20.3525 16.1069 20.1575C16.1069 20.1574 16.1069 20.1573 16.107 20.1571L17.3581 14.2766ZM17.0252 12.6503C17.2972 12.3784 17.4499 12.0096 17.4499 11.625C17.4499 11.2404 17.2972 10.8716 17.0252 10.5997C16.7533 10.3278 16.3845 10.175 15.9999 10.175C15.6154 10.175 15.2466 10.3278 14.9746 10.5997C14.7027 10.8716 14.5499 11.2404 14.5499 11.625C14.5499 12.0096 14.7027 12.3784 14.9746 12.6503C15.2466 12.9222 15.6154 13.075 15.9999 13.075C16.3845 13.075 16.7533 12.9222 17.0252 12.6503Z" fill="#4E4EB3" stroke="#4E4EB3" stroke-width="0.4"/>
</svg>
