<svg width="23" height="19" viewBox="0 0 23 19" fill="none" xmlns="http://www.w3.org/2000/svg">
<path d="M15.0938 10.2188C15.0938 11.1719 14.7151 12.086 14.0412 12.7599C13.3672 13.4339 12.4531 13.8125 11.5 13.8125C10.5469 13.8125 9.63279 13.4339 8.95884 12.7599C8.28488 12.086 7.90625 11.1719 7.90625 10.2188C7.90625 9.26563 8.28488 8.35154 8.95884 7.67759C9.63279 7.00363 10.5469 6.625 11.5 6.625C12.4531 6.625 13.3672 7.00363 14.0412 7.67759C14.7151 8.35154 15.0938 9.26563 15.0938 10.2188Z" fill="white"/>
<path d="M2.875 3.75C2.1125 3.75 1.38124 4.0529 0.842068 4.59207C0.302901 5.13124 0 5.8625 0 6.625L0 15.25C0 16.0125 0.302901 16.7438 0.842068 17.2829C1.38124 17.8221 2.1125 18.125 2.875 18.125H20.125C20.8875 18.125 21.6188 17.8221 22.1579 17.2829C22.6971 16.7438 23 16.0125 23 15.25V6.625C23 5.8625 22.6971 5.13124 22.1579 4.59207C21.6188 4.0529 20.8875 3.75 20.125 3.75H18.4403C17.6778 3.74984 16.9467 3.44683 16.4076 2.90762L15.2174 1.71737C14.6783 1.17817 13.9472 0.875163 13.1847 0.875H9.81525C9.05282 0.875163 8.32167 1.17817 7.78263 1.71737L6.59237 2.90762C6.05333 3.44683 5.32219 3.74984 4.55975 3.75H2.875ZM3.59375 6.625C3.40313 6.625 3.22031 6.54927 3.08552 6.41448C2.95073 6.27969 2.875 6.09687 2.875 5.90625C2.875 5.71563 2.95073 5.53281 3.08552 5.39802C3.22031 5.26323 3.40313 5.1875 3.59375 5.1875C3.78437 5.1875 3.96719 5.26323 4.10198 5.39802C4.23677 5.53281 4.3125 5.71563 4.3125 5.90625C4.3125 6.09687 4.23677 6.27969 4.10198 6.41448C3.96719 6.54927 3.78437 6.625 3.59375 6.625ZM16.5312 10.2188C16.5312 11.5531 16.0012 12.8328 15.0576 13.7764C14.1141 14.7199 12.8344 15.25 11.5 15.25C10.1656 15.25 8.88591 14.7199 7.94237 13.7764C6.99883 12.8328 6.46875 11.5531 6.46875 10.2188C6.46875 8.88438 6.99883 7.60466 7.94237 6.66112C8.88591 5.71758 10.1656 5.1875 11.5 5.1875C12.8344 5.1875 14.1141 5.71758 15.0576 6.66112C16.0012 7.60466 16.5312 8.88438 16.5312 10.2188Z" fill="white"/>
</svg>
