<svg width="31" height="31" viewBox="0 0 31 31" fill="none" xmlns="http://www.w3.org/2000/svg">
<rect width="31" height="31" rx="7" fill="#4E4EB3" fill-opacity="0.1"/>
<path d="M18.125 7.3125C17.0892 7.31343 16.0683 7.55931 15.1457 8.03008C14.223 8.50084 13.4248 9.18314 12.8162 10.0213C12.2075 10.8594 11.8058 11.8296 11.6436 12.8526C11.4815 13.8756 11.5636 14.9225 11.8832 15.9077L7.1607 20.6295C7.09978 20.6904 7.05147 20.7628 7.01854 20.8425C6.9856 20.9222 6.96868 21.0075 6.96875 21.0938V24.375C6.96875 24.549 7.03789 24.716 7.16096 24.839C7.28403 24.9621 7.45095 25.0312 7.625 25.0312H10.9063C11.0803 25.0312 11.2472 24.9621 11.3703 24.839C11.4934 24.716 11.5625 24.549 11.5625 24.375V23.0625H12.875C13.049 23.0625 13.216 22.9934 13.339 22.8703C13.4621 22.7472 13.5312 22.5803 13.5312 22.4062V21.0938H14.8438C14.93 21.0938 15.0153 21.0769 15.095 21.044C15.1747 21.011 15.2471 20.9627 15.308 20.9018L16.0923 20.1168C16.9942 20.4096 17.9489 20.5035 18.8906 20.3919C19.8324 20.2804 20.7387 19.9661 21.5473 19.4707C22.3559 18.9753 23.0475 18.3105 23.5745 17.5221C24.1015 16.7337 24.4514 15.8405 24.6001 14.9039C24.7488 13.9674 24.6928 13.0097 24.4358 12.0969C24.1789 11.184 23.7271 10.3377 23.1117 9.61625C22.4963 8.89476 21.7319 8.31521 20.871 7.91751C20.0101 7.5198 19.0733 7.3134 18.125 7.3125ZM19.7656 13.5469C19.506 13.5469 19.2523 13.4699 19.0364 13.3257C18.8206 13.1815 18.6524 12.9765 18.553 12.7366C18.4537 12.4968 18.4277 12.2329 18.4783 11.9783C18.529 11.7237 18.654 11.4899 18.8375 11.3063C19.0211 11.1227 19.255 10.9977 19.5096 10.9471C19.7642 10.8965 20.0281 10.9224 20.2679 11.0218C20.5077 11.1211 20.7127 11.2893 20.8569 11.5052C21.0011 11.721 21.0781 11.9748 21.0781 12.2344C21.0781 12.5825 20.9398 12.9163 20.6937 13.1625C20.4476 13.4086 20.1137 13.5469 19.7656 13.5469Z" fill="#4E4EB3"/>
</svg>
