<svg width="31" height="31" viewBox="0 0 31 31" fill="none" xmlns="http://www.w3.org/2000/svg">
<rect width="31" height="31" rx="7" fill="#4E4EB3" fill-opacity="0.1"/>
<path d="M5.76675 15.5002L5.76675 15.5004C5.77259 20.8731 10.1272 25.2277 15.4999 25.2335H15.5001C20.8505 25.2335 25.1965 20.9138 25.2315 15.5635C25.2665 10.214 20.977 5.83889 15.6267 5.76687L15.6266 5.76687C10.2782 5.69679 5.87384 9.95705 5.76678 15.3055L5.76675 15.3055V15.3085L5.76675 15.5002ZM16.4584 21.4002H16.6084V21.2502V19.3335V19.1835H16.4584H14.5417H14.3917V19.3335V21.2502V21.4002H14.5417H16.4584ZM16.4584 18.5252H16.5958L16.6078 18.3883C16.6459 17.9541 16.784 17.5347 17.0113 17.1629C17.2387 16.7911 17.5491 16.4771 17.9182 16.2454L17.9182 16.2454L17.9195 16.2445C18.3691 15.9555 18.7448 15.5651 19.0163 15.1048C19.2878 14.6444 19.4477 14.1268 19.4831 13.5935L19.4833 13.5935L19.4834 13.5852C19.4953 12.5288 19.087 11.5109 18.3484 10.7554C17.6098 10 16.6013 9.56896 15.5449 9.55707C14.4885 9.54519 13.4706 9.95346 12.7151 10.6921C11.9597 11.4307 11.5286 12.4391 11.5168 13.4956H11.5167V13.4973V13.5835V13.7335H11.6667H13.5834H13.7334V13.5835C13.7334 13.115 13.9195 12.6656 14.2509 12.3343C14.5822 12.003 15.0315 11.8169 15.5001 11.8169C15.9686 11.8169 16.418 12.003 16.7493 12.3343C17.0806 12.6656 17.2667 13.115 17.2667 13.5835C17.2667 14.3402 16.7918 14.716 16.154 15.205C15.6057 15.5283 15.1534 15.9919 14.8436 16.5481C14.5323 17.1071 14.3763 17.7392 14.3918 18.3788L14.3953 18.5252H14.5417H16.4584ZM20.8115 20.8113C19.4034 22.2215 17.4928 23.0149 15.4999 23.0169H15.4849C13.492 23.0149 11.5815 22.2215 10.1733 20.8113C8.76521 19.401 7.97475 17.4893 7.97575 15.4964C7.97675 13.5035 8.76912 11.5926 10.1787 10.1838C11.5882 8.77494 13.4995 7.98353 15.4924 7.98353C17.4853 7.98353 19.3966 8.77494 20.8062 10.1838C22.2157 11.5926 23.0081 13.5035 23.0091 15.4964C23.0101 17.4893 22.2196 19.401 20.8115 20.8113Z" fill="#4E4EB3" stroke="#4E4EB3" stroke-width="0.3"/>
</svg>
