<svg width="31" height="31" viewBox="0 0 31 31" fill="none" xmlns="http://www.w3.org/2000/svg">
<rect width="31" height="31" rx="7" fill="#4E4EB3" fill-opacity="0.1"/>
<path fill-rule="evenodd" clip-rule="evenodd" d="M16.5212 6C14.0158 6 11.7328 6.78751 10.3822 7.43092C10.2602 7.48899 10.1465 7.54599 10.0405 7.60088C9.83086 7.70961 9.65225 7.81096 9.51026 7.90016L11.0467 10.0526L11.77 10.3266C14.5965 11.6836 18.3871 11.6836 21.2142 10.3266L22.0351 9.92119L23.4883 7.90016C23.1872 7.71331 22.8742 7.5446 22.5509 7.39503C21.2075 6.75848 18.9794 6 16.5212 6ZM12.9475 8.43643C12.4034 8.33954 11.8661 8.21122 11.3384 8.05217C12.6036 7.51749 14.4895 6.95008 16.5206 6.95008C17.9278 6.95008 19.2584 7.22244 20.3589 7.56763C19.0693 7.74023 17.6932 8.03317 16.382 8.39367C15.3503 8.67764 14.1445 8.64703 12.9475 8.43643ZM21.7999 11.1093L21.664 11.1748C18.554 12.6674 14.4296 12.6674 11.3196 11.1748L11.1909 11.1125C6.51953 15.9901 2.95305 25 16.5212 25C30.0882 25 26.4347 15.8217 21.7999 11.1093ZM15.9443 15.5008C15.6501 15.5008 15.368 15.612 15.1599 15.81C14.9519 16.008 14.835 16.2765 14.835 16.5564C14.835 16.8364 14.9519 17.1049 15.1599 17.3029C15.368 17.5009 15.6501 17.6121 15.9443 17.6121V15.5008ZM17.0537 14.4451V13.9173H15.9443V14.4451C15.3559 14.4451 14.7916 14.6676 14.3755 15.0635C13.9594 15.4595 13.7257 15.9965 13.7257 16.5564C13.7257 17.1164 13.9594 17.6534 14.3755 18.0493C14.7916 18.4453 15.3559 18.6677 15.9443 18.6677V20.779C15.7149 20.7791 15.4911 20.7114 15.3038 20.5854C15.1164 20.4594 14.9748 20.2812 14.8982 20.0754C14.8493 19.9434 14.7472 19.8353 14.6144 19.775C14.4817 19.7146 14.3292 19.7068 14.1905 19.7535C14.0518 19.8001 13.9382 19.8972 13.8747 20.0235C13.8113 20.1498 13.8032 20.2949 13.8522 20.427C14.0052 20.8386 14.2885 21.1951 14.6632 21.4472C15.0379 21.6993 15.4855 21.8346 15.9443 21.8347V22.3625H17.0537V21.8347C17.6421 21.8347 18.2064 21.6122 18.6225 21.2163C19.0386 20.8203 19.2723 20.2833 19.2723 19.7234C19.2723 19.1634 19.0386 18.6264 18.6225 18.2305C18.2064 17.8345 17.6421 17.6121 17.0537 17.6121V15.5008C17.5362 15.5008 17.9472 15.7937 18.1003 16.2044C18.123 16.2716 18.1597 16.3337 18.2081 16.3872C18.2565 16.4407 18.3156 16.4844 18.3821 16.5157C18.4486 16.547 18.5209 16.5654 18.595 16.5696C18.669 16.5738 18.7432 16.5639 18.8131 16.5404C18.883 16.5169 18.9473 16.4803 19.0021 16.4327C19.0569 16.3852 19.1011 16.3276 19.1321 16.2635C19.1631 16.1994 19.1803 16.13 19.1827 16.0595C19.1851 15.989 19.1725 15.9187 19.1458 15.8528C18.9928 15.4412 18.7095 15.0847 18.3348 14.8326C17.9601 14.5805 17.5125 14.4452 17.0537 14.4451ZM17.0537 18.6677V20.779C17.3479 20.779 17.63 20.6678 17.8381 20.4698C18.0461 20.2718 18.163 20.0033 18.163 19.7234C18.163 19.4434 18.0461 19.1749 17.8381 18.9769C17.63 18.7789 17.3479 18.6677 17.0537 18.6677Z" fill="#4E4EB3"/>
</svg>
