<svg width="36" height="28" viewBox="0 0 36 28" fill="none" xmlns="http://www.w3.org/2000/svg">
<path d="M6.5446 27.8609V26.0077C6.5446 25.2971 6.11232 24.8339 5.37137 24.8339C5.00096 24.8339 4.59962 24.9574 4.32174 25.359C4.10574 25.0192 3.79707 24.8339 3.33399 24.8339C3.02518 24.8339 2.71665 24.9265 2.46957 25.2663V24.8957H1.82129V27.8609H2.46957V26.2238C2.46957 25.6988 2.74745 25.4516 3.17973 25.4516C3.61173 25.4516 3.82801 25.7296 3.82801 26.2238V27.8609H4.47629V26.2238C4.47629 25.6988 4.78482 25.4516 5.18616 25.4516C5.61845 25.4516 5.83445 25.7296 5.83445 26.2238V27.8609H6.5446ZM16.1452 24.8957H15.0957V24H14.4474V24.8957H13.8609V25.4824H14.4473V26.8416C14.4473 27.5212 14.7252 27.9226 15.4661 27.9226C15.744 27.9226 16.0525 27.83 16.2688 27.7065L16.0835 27.1504C15.8983 27.274 15.6823 27.3049 15.5279 27.3049C15.2192 27.3049 15.0957 27.1196 15.0957 26.8106V25.4824H16.1452V24.8957ZM21.6403 24.8338C21.2699 24.8338 21.0229 25.0192 20.8685 25.2663V24.8957H20.2202V27.8609H20.8685V26.193C20.8685 25.6988 21.0845 25.4208 21.4859 25.4208C21.6093 25.4208 21.7637 25.4517 21.8872 25.4825L22.0724 24.8649C21.9489 24.8339 21.7637 24.8339 21.6403 24.8339V24.8338ZM13.3361 25.1427C13.0273 24.9265 12.5951 24.8339 12.1321 24.8339C11.3912 24.8339 10.8974 25.2045 10.8974 25.7914C10.8974 26.2857 11.2678 26.5636 11.9161 26.6563L12.2247 26.6873C12.5643 26.7489 12.7495 26.8416 12.7495 26.9961C12.7495 27.2122 12.5026 27.3667 12.0703 27.3667C11.6382 27.3667 11.2986 27.2122 11.0824 27.0579L10.7738 27.552C11.1134 27.7991 11.5764 27.9226 12.0394 27.9226C12.9038 27.9226 13.3978 27.5212 13.3978 26.9651C13.3978 26.44 12.9965 26.162 12.379 26.0694L12.0703 26.0385C11.7924 26.0075 11.5764 25.9459 11.5764 25.7606C11.5764 25.5443 11.7924 25.4208 12.1321 25.4208C12.5026 25.4208 12.873 25.5751 13.0582 25.6679L13.3361 25.1427ZM30.5619 24.8339C30.1914 24.8339 29.9445 25.0192 29.7901 25.2663V24.8957H29.1418V27.8609H29.7901V26.193C29.7901 25.6988 30.0062 25.4208 30.4074 25.4208C30.531 25.4208 30.6854 25.4517 30.8089 25.4825L30.9941 24.8649C30.8706 24.8339 30.6854 24.8339 30.5619 24.8339ZM22.2886 26.3783C22.2886 27.274 22.9059 27.9226 23.863 27.9226C24.2951 27.9226 24.6038 27.83 24.9125 27.583L24.6038 27.0579C24.3569 27.2432 24.1099 27.3358 23.8321 27.3358C23.3072 27.3358 22.9368 26.9651 22.9368 26.3783C22.9368 25.8223 23.3072 25.4516 23.8321 25.4208C24.1099 25.4208 24.3569 25.5134 24.6038 25.6988L24.9125 25.1737C24.6038 24.9265 24.2951 24.8339 23.863 24.8339C22.9059 24.8339 22.2886 25.4825 22.2886 26.3783ZM28.2775 26.3783V24.8957H27.6292V25.2663C27.4131 24.9884 27.1044 24.8339 26.7031 24.8339C25.8696 24.8339 25.2213 25.4825 25.2213 26.3783C25.2213 27.274 25.8696 27.9226 26.7031 27.9226C27.1352 27.9226 27.444 27.7683 27.6292 27.4902V27.8609H28.2775V26.3783ZM25.9004 26.3783C25.9004 25.8532 26.24 25.4208 26.7956 25.4208C27.3204 25.4208 27.6909 25.8223 27.6909 26.3783C27.6909 26.9034 27.3204 27.3358 26.7956 27.3358C26.24 27.3048 25.9004 26.9034 25.9004 26.3783ZM18.1519 24.8339C17.2875 24.8339 16.67 25.4516 16.67 26.3783C16.67 27.3049 17.2874 27.9226 18.1827 27.9226C18.6149 27.9226 19.0471 27.7991 19.3868 27.5212L19.0779 27.0579C18.831 27.2432 18.5223 27.3667 18.2137 27.3667C17.8123 27.3667 17.411 27.1814 17.3183 26.6562H19.5102V26.4092C19.5412 25.4516 18.9854 24.8339 18.1518 24.8339H18.1519ZM18.1519 25.3898C18.5531 25.3898 18.8311 25.637 18.8927 26.1004H17.3492C17.411 25.6988 17.6889 25.3898 18.1519 25.3898ZM34.2355 26.3783V23.7219H33.5872V25.2663C33.3711 24.9884 33.0624 24.8339 32.6611 24.8339C31.8276 24.8339 31.1793 25.4825 31.1793 26.3783C31.1793 27.274 31.8276 27.9226 32.6611 27.9226C33.0933 27.9226 33.402 27.7683 33.5872 27.4902V27.8609H34.2355V26.3783ZM31.8585 26.3783C31.8585 25.8532 32.198 25.4208 32.7537 25.4208C33.2785 25.4208 33.6489 25.8223 33.6489 26.3783C33.6489 26.9034 33.2785 27.3358 32.7537 27.3358C32.198 27.3048 31.8585 26.9034 31.8585 26.3783ZM10.1872 26.3783V24.8957H9.53893V25.2663C9.32279 24.9884 9.01412 24.8339 8.61277 24.8339C7.77929 24.8339 7.13101 25.4825 7.13101 26.3783C7.13101 27.274 7.77929 27.9226 8.61277 27.9226C9.04505 27.9226 9.35373 27.7683 9.53893 27.4902V27.8609H10.1872V26.3783ZM7.77929 26.3783C7.77929 25.8532 8.1189 25.4208 8.67451 25.4208C9.19932 25.4208 9.56987 25.8223 9.56987 26.3783C9.56987 26.9034 9.19932 27.3358 8.67451 27.3358C8.1189 27.3048 7.77929 26.9034 7.77929 26.3783Z" fill="black"/>
<path d="M13.1201 2.3783H22.8443V19.8608H13.1201V2.3783Z" fill="#FF5F00"/>
<path d="M13.7375 11.1197C13.7375 7.5676 15.4045 4.41696 17.9667 2.37831C16.0837 0.895719 13.7067 0 11.1136 0C4.97011 0 0 4.97288 0 11.1197C0 17.2663 4.97011 22.2393 11.1135 22.2393C13.7066 22.2393 16.0836 21.3436 17.9667 19.8609C15.4045 17.8532 13.7375 14.6717 13.7375 11.1197Z" fill="#EB001B"/>
<path d="M35.9642 11.1197C35.9642 17.2663 30.9941 22.2393 24.8508 22.2393C22.2577 22.2393 19.8807 21.3436 17.9976 19.8609C20.5907 17.8224 22.2269 14.6717 22.2269 11.1197C22.2269 7.5676 20.5597 4.41696 17.9976 2.37831C19.8805 0.895719 22.2577 0 24.8508 0C30.9941 0 35.9644 5.00384 35.9644 11.1197H35.9642Z" fill="#F79E1B"/>
</svg>
