<svg width="32" height="26" viewBox="0 0 32 26" fill="none" xmlns="http://www.w3.org/2000/svg">
<path d="M1.75 8.25008V20.9167C1.75 21.7566 2.08363 22.5621 2.6775 23.1559C3.27136 23.7498 4.07681 24.0834 4.91667 24.0834H27.0833C27.9232 24.0834 28.7286 23.7498 29.3225 23.1559C29.9164 22.5621 30.25 21.7566 30.25 20.9167V8.25008M1.75 8.25008V5.08341C1.75 4.24356 2.08363 3.43811 2.6775 2.84424C3.27136 2.25038 4.07681 1.91675 4.91667 1.91675H27.0833C27.9232 1.91675 28.7286 2.25038 29.3225 2.84424C29.9164 3.43811 30.25 4.24356 30.25 5.08341V8.25008M1.75 8.25008H30.25M8.08333 14.5834H16" stroke="white" stroke-width="2.5" stroke-linecap="round" stroke-linejoin="round"/>
</svg>
