<svg width="21" height="23" viewBox="0 0 21 23" fill="none" xmlns="http://www.w3.org/2000/svg">
<path d="M9.05741 19.4749H11.9436C11.8274 19.7282 11.6463 19.9473 11.4174 20.1093C11.1493 20.299 10.8289 20.4008 10.5005 20.4008C10.172 20.4008 9.85169 20.299 9.58357 20.1093C9.35472 19.9473 9.17354 19.7282 9.05741 19.4749ZM17.2094 17.0249H3.78936L4.76912 15.5548C4.90336 15.3534 4.97497 15.1169 4.97492 14.8749C4.97492 14.8749 4.97492 14.8749 4.97492 14.8749V9.24991C4.97492 7.78459 5.55702 6.37929 6.59316 5.34315C7.6293 4.30701 9.0346 3.72491 10.4999 3.72491C11.9652 3.72491 13.3705 4.30701 14.4067 5.34315C15.4428 6.37929 16.0249 7.78459 16.0249 9.24991L16.0249 14.8747L16.0249 14.8749L17.2094 17.0249ZM9.1863 0.549242C8.81192 0.801627 8.51848 1.15631 8.3406 1.57053C4.98557 2.5114 2.52492 5.59384 2.52492 9.24991V14.5038L0.48074 17.57C0.357653 17.7545 0.286959 17.969 0.276199 18.1905C0.265439 18.412 0.315017 18.6323 0.419643 18.8278C0.524271 19.0234 0.680021 19.1868 0.870278 19.3008C1.06054 19.4148 1.27816 19.4749 1.49992 19.4749H6.51615C6.67058 20.4024 7.1441 21.248 7.8563 21.8647C8.59038 22.5003 9.5289 22.8502 10.4999 22.8502C11.4709 22.8502 12.4095 22.5003 13.1435 21.8647C13.8558 21.248 14.3293 20.4024 14.4837 19.4749H19.4999C19.7217 19.4749 19.9393 19.4148 20.1296 19.3008C20.3198 19.1868 20.4756 19.0234 20.5802 18.8278C20.6848 18.6323 20.7344 18.412 20.7236 18.1905C20.7129 17.969 20.6422 17.7545 20.5191 17.57L18.4749 14.5038V9.24991C18.4748 7.50265 17.9012 5.80372 16.8421 4.41405C15.7928 3.03734 14.3246 2.03957 12.6593 1.5706C12.4814 1.15634 12.1879 0.80164 11.8135 0.549242C11.4254 0.287588 10.968 0.147803 10.4999 0.147803C10.0318 0.147803 9.57442 0.287588 9.1863 0.549242Z" fill="#4E4EB3" stroke="#4E4EB3" stroke-width="0.2"/>
</svg>
