<svg width="39" height="39" viewBox="0 0 39 39" fill="none" xmlns="http://www.w3.org/2000/svg">
<circle cx="19.5" cy="19.5" r="18.25" stroke="#4E4EB3" stroke-width="2.5"/>
<path d="M29 13.8125C29 14.4453 28.4973 15.0289 27.65 15.5C26.627 16.066 25.1012 16.4668 23.3504 16.5863C23.2203 16.523 23.0902 16.4633 22.9531 16.4105C21.568 15.8305 19.7258 15.5 17.75 15.5C17.4582 15.5 17.1734 15.507 16.8887 15.5211L16.85 15.5C16.0027 15.0289 15.5 14.4453 15.5 13.8125C15.5 12.2586 18.5234 11 22.25 11C25.9766 11 29 12.2586 29 13.8125ZM16.6496 16.6637C17.0082 16.6391 17.3773 16.625 17.75 16.625C19.9367 16.625 21.8773 17.0574 23.1113 17.7289C23.9832 18.2035 24.5 18.7941 24.5 19.4375C24.5 19.5781 24.4754 19.7152 24.4262 19.8488C24.2645 20.3129 23.8285 20.7383 23.1957 21.0969C23.1922 21.1004 23.1852 21.1004 23.1816 21.1039C23.1711 21.1109 23.1605 21.1145 23.15 21.1215C21.9195 21.8035 19.9578 22.2465 17.75 22.2465C15.6547 22.2465 13.7809 21.8492 12.5398 21.2234C12.473 21.1918 12.4098 21.1566 12.3465 21.1215C11.5027 20.6539 11 20.0703 11 19.4375C11 18.2141 12.8773 17.1699 15.5 16.7867C15.8691 16.734 16.2523 16.6918 16.6496 16.6637ZM25.625 19.4375C25.625 18.6676 25.2523 18.0348 24.7777 17.5602C25.7727 17.4055 26.6832 17.1594 27.4566 16.8395C28.0297 16.6004 28.5641 16.3051 29 15.943V17.1875C29 17.866 28.4199 18.4918 27.4602 18.977C26.9469 19.2371 26.3211 19.4586 25.618 19.6273C25.6215 19.5641 25.625 19.5043 25.625 19.441V19.4375ZM24.5 22.8125C24.5 23.4453 23.9973 24.0289 23.15 24.5C23.0867 24.5352 23.0234 24.5668 22.9566 24.602C21.7191 25.2277 19.8453 25.625 17.75 25.625C15.5422 25.625 13.5805 25.182 12.35 24.5C11.5027 24.0289 11 23.4453 11 22.8125V21.568C11.4395 21.9301 11.9703 22.2254 12.5434 22.4645C13.932 23.0445 15.7742 23.375 17.75 23.375C19.7258 23.375 21.568 23.0445 22.9566 22.4645C23.2309 22.352 23.4945 22.2219 23.7441 22.0813C23.9586 21.9617 24.159 21.8281 24.3488 21.6875C24.4016 21.6488 24.4508 21.6066 24.5 21.568V22.8125ZM25.625 22.8125V20.777C26.293 20.6293 26.9082 20.443 27.4566 20.2145C28.0297 19.9754 28.5641 19.6801 29 19.318V20.5625C29 20.9316 28.8242 21.3008 28.4762 21.6488C27.9031 22.2219 26.8941 22.693 25.618 22.9988C25.6215 22.9391 25.625 22.8758 25.625 22.8125ZM17.75 26.75C19.7258 26.75 21.568 26.4195 22.9566 25.8395C23.5297 25.6004 24.0641 25.3051 24.5 24.943V26.1875C24.5 27.7414 21.4766 29 17.75 29C14.0234 29 11 27.7414 11 26.1875V24.943C11.4395 25.3051 11.9703 25.6004 12.5434 25.8395C13.932 26.4195 15.7742 26.75 17.75 26.75Z" fill="#4E4EB3"/>
</svg>
