<svg width="31" height="31" viewBox="0 0 31 31" fill="none" xmlns="http://www.w3.org/2000/svg">
<rect width="31" height="31" rx="7" fill="#4E4EB3" fill-opacity="0.1"/>
<path d="M15.5812 5.69224L15.5 5.65614L15.4188 5.69224L7.54377 9.19224L7.425 9.24503V9.375V14.625C7.425 19.5651 10.8402 24.193 15.4526 25.3193L15.5 25.3309L15.5474 25.3193C20.1598 24.193 23.575 19.5651 23.575 14.625V9.375V9.24503L23.4562 9.19224L15.5812 5.69224ZM14.625 10.925H14.425V11.125V12.875V13.075H14.625H16.375H16.575V12.875V11.125V10.925H16.375H14.625ZM14.625 14.425H14.425V14.625V19.875V20.075H14.625H16.375H16.575V19.875V14.625V14.425H16.375H14.625ZM9.575 10.6425L15.5 8.0101L21.425 10.6425V14.625C21.425 18.4767 18.8978 22.0244 15.5 23.1042C12.1022 22.0244 9.575 18.4767 9.575 14.625V10.6425Z" fill="#4E4EB3" stroke="#4E4EB3" stroke-width="0.4"/>
</svg>
