<svg width="57" height="57" viewBox="0 0 57 57" fill="none" xmlns="http://www.w3.org/2000/svg">
<path d="M15.25 28.5L26.6071 37.9643L41.75 19.0357M28.5 55C25.02 55 21.574 54.3146 18.3589 52.9828C15.1438 51.6511 12.2224 49.6991 9.76167 47.2383C7.30092 44.7776 5.34894 41.8562 4.01719 38.6411C2.68544 35.426 2 31.98 2 28.5C2 25.02 2.68544 21.574 4.01719 18.3589C5.34894 15.1438 7.30092 12.2224 9.76167 9.76167C12.2224 7.30092 15.1438 5.34894 18.3589 4.01719C21.574 2.68544 25.02 2 28.5 2C35.5282 2 42.2686 4.79196 47.2383 9.76167C52.208 14.7314 55 21.4718 55 28.5C55 35.5282 52.208 42.2686 47.2383 47.2383C42.2686 52.208 35.5282 55 28.5 55Z" stroke="white" stroke-width="4"/>
</svg>
