<svg width="31" height="31" viewBox="0 0 31 31" fill="none" xmlns="http://www.w3.org/2000/svg">
<rect width="31" height="31" rx="7" fill="#4E4EB3" fill-opacity="0.1"/>
<g clip-path="url(#clip0_32_2115)">
<path d="M21.2886 8.53438L21.2884 8.53424C20.7201 8.06205 19.876 8.13924 19.4036 8.70734C18.9311 9.27562 19.0108 10.1186 19.5788 10.5907C20.9859 11.762 21.8813 13.5277 21.8813 15.5C21.8813 19.0242 19.0242 21.8812 15.5 21.8812C11.9758 21.8812 9.11875 19.0242 9.11875 15.5C9.11875 13.5277 10.0141 11.762 11.4212 10.5907C11.9945 10.1142 12.0294 9.27299 11.6002 8.71208L11.6003 8.71201L11.5964 8.70734C11.124 8.13924 10.2799 8.06205 9.71156 8.53424L9.71145 8.53433C7.71774 10.1942 6.44375 12.6997 6.44375 15.4666C6.44375 20.4995 10.4998 24.5562 15.5 24.5562C20.5002 24.5562 24.5562 20.4995 24.5562 15.4666C24.5562 12.6996 23.2804 10.1942 21.2886 8.53438ZM15.5 16.8375C16.2397 16.8375 16.8375 16.2397 16.8375 15.5V7.1875C16.8375 6.44903 16.2398 5.85 15.5 5.85C14.7602 5.85 14.1625 6.44903 14.1625 7.1875V15.5C14.1625 16.2397 14.7603 16.8375 15.5 16.8375Z" fill="#4E4EB3" stroke="#4E4EB3" stroke-width="0.3"/>
</g>
<defs>
<clipPath id="clip0_32_2115">
<rect width="19" height="19" fill="white" transform="translate(6 6)"/>
</clipPath>
</defs>
</svg>
