<svg width="38" height="17" viewBox="0 0 38 17" fill="none" xmlns="http://www.w3.org/2000/svg">
<path d="M14.4277 0.217719L9.4525 12.1413H6.20677L3.75844 2.62516C3.61 2.04045 3.48101 1.82526 3.02931 1.57802C2.29098 1.17509 1.07172 0.798254 0 0.563833L0.0722891 0.217719H5.29788C5.96288 0.217719 6.56168 0.662553 6.71398 1.43277L8.00761 8.33313L11.2014 0.217719H14.4277ZM18.8155 0.217719L16.2768 12.1413H13.2059L15.7449 0.217719H18.8156H18.8155ZM27.1452 8.24828C27.158 5.10194 22.8147 4.92732 22.843 3.52153C22.8534 3.09415 23.2587 2.63918 24.1457 2.52286C24.5851 2.46575 25.799 2.42026 27.174 3.05672L27.7119 0.526702C26.9732 0.258281 26.0224 0 24.8398 0C21.8043 0 19.669 1.61977 19.6519 3.94102C19.632 5.65802 21.1771 6.61494 22.3391 7.18682C23.536 7.77079 23.9373 8.14613 23.9318 8.66806C23.9232 9.46811 22.9759 9.82227 22.0952 9.83539C20.5509 9.86 19.6556 9.41606 18.9415 9.08188L18.3841 11.6957C19.1026 12.0265 20.4266 12.3138 21.798 12.3284C25.0251 12.3284 27.1357 10.7273 27.1452 8.24843V8.24828ZM35.1608 12.1413H38L35.5196 0.217719H32.9001C32.3094 0.217719 31.8128 0.562193 31.5925 1.09173L26.985 12.1413H30.2096L30.8492 10.3602H34.7887L35.161 12.1413H35.1608ZM31.7334 7.91678L33.3502 3.43907L34.279 7.91678H31.7333H31.7334ZM22.7455 15.4233H21.4978V16.5899H22.8934V16.9406H21.0774V13.7044H22.8218V14.0551H21.4978V15.0777H22.7454V15.4236L22.7455 15.4233ZM23.538 13.5316H23.9584V16.9405H23.538V13.5316ZM25.0191 15.8553C25.0286 16.4269 25.3873 16.6621 25.8124 16.6621C26.1137 16.6621 26.3 16.6093 26.4532 16.5422L26.5295 16.8448C26.3814 16.9119 26.1234 16.9934 25.7551 16.9934C25.0432 16.9934 24.6179 16.5182 24.6179 15.817C24.6179 15.1161 25.0286 14.5686 25.7027 14.5686C26.4627 14.5686 26.6586 15.2314 26.6586 15.6586C26.6586 15.745 26.6537 15.8073 26.6441 15.8555H25.0191V15.8553ZM26.2522 15.5529C26.2571 15.289 26.1424 14.8711 25.6691 14.8711C25.239 14.8711 25.0573 15.26 25.0237 15.5529H26.2522ZM28.9469 16.8589C28.8371 16.9119 28.5932 16.9936 28.2827 16.9936C27.5849 16.9936 27.1308 16.5182 27.1308 15.8075C27.1308 15.092 27.6181 14.5687 28.3734 14.5687C28.6219 14.5687 28.8417 14.6309 28.9564 14.6935L28.8611 15.0152C28.7604 14.9624 28.6027 14.9045 28.3734 14.9045C27.8427 14.9045 27.5562 15.3031 27.5562 15.7836C27.5562 16.3212 27.9003 16.6525 28.3591 16.6525C28.5981 16.6525 28.7558 16.595 28.8752 16.5422L28.9469 16.8589ZM30.1267 14.0596V14.6166H30.7288V14.9381H30.1267V16.1915C30.1267 16.4799 30.2081 16.6429 30.4422 16.6429C30.5567 16.6429 30.6238 16.6335 30.686 16.6139L30.7052 16.936C30.6238 16.9647 30.4949 16.9934 30.3323 16.9934C30.1362 16.9934 29.9784 16.9262 29.8782 16.816C29.7635 16.6861 29.7157 16.4799 29.7157 16.2061V14.9381H29.3571V14.6166H29.7157V14.1846L30.1269 14.0597L30.1267 14.0596ZM31.3162 15.3418C31.3162 15.068 31.3111 14.8328 31.297 14.6166H31.6651L31.6844 15.0774H31.6984C31.8038 14.7655 32.0616 14.5686 32.3435 14.5686C32.3867 14.5686 32.4202 14.5735 32.4585 14.5781V14.9769C32.4155 14.967 32.3726 14.967 32.3148 14.967C32.0189 14.967 31.8082 15.1879 31.7511 15.505C31.7412 15.5702 31.7364 15.636 31.7367 15.7019V16.9408H31.3162V15.3418ZM35.0436 15.7593C35.0436 16.6188 34.446 16.9934 33.8917 16.9934C33.2702 16.9934 32.7829 16.5324 32.7829 15.7979C32.7829 15.0247 33.2942 14.5687 33.93 14.5687C34.5942 14.5687 35.0436 15.0534 35.0436 15.7594V15.7593ZM33.2129 15.7835C33.2129 16.2924 33.4997 16.6767 33.9107 16.6767C34.3124 16.6767 34.6133 16.297 34.6133 15.7738C34.6133 15.3801 34.4173 14.8853 33.9202 14.8853C33.4281 14.8853 33.2129 15.3465 33.2129 15.7835ZM35.6881 15.2456C35.6881 15.0009 35.683 14.8086 35.6688 14.6167H36.0417L36.0656 15.0009H36.0751C36.1898 14.7846 36.4574 14.5687 36.8398 14.5687C37.1598 14.5687 37.6571 14.7608 37.6571 15.5575V16.9406H37.2366V15.6009C37.2366 15.2266 37.0979 14.9142 36.7013 14.9142C36.4288 14.9142 36.2136 15.1112 36.1374 15.3464C36.1181 15.3993 36.1086 15.4712 36.1086 15.5434V16.9406H35.6881V15.2456Z" fill="#1A1F71"/>
</svg>
